<svg width="100%" height="100%" viewBox="0 0 1806.24 387.4" fill="none" xmlns="http://www.w3.org/2000/svg">
<g id="turtle.xyz (Stroke)">
<path id="Stroke" d="M1805.24 252.74H1697.82L1803.19 135.07V92.8398H1640.83V136.3H1743.33L1639.6 253.97V296.2H1805.24V252.74ZM1804.19 135.452L1700.06 251.74H1806.24V297.2H1638.6V253.593L1638.85 253.309L1741.12 137.3H1639.83V91.8398H1804.19V135.452Z" fill="url(#paint0_linear_0_4)"/>
<path id="Stroke_2" d="M1451.81 91.8398L1508.14 233.276L1566.9 91.8398H1624.86L1494.83 387.4H1436.87L1484.02 283.67H1472.61L1392.64 91.8398H1451.81ZM1394.14 92.8398L1473.27 282.67H1485.57L1438.42 386.4H1494.18L1623.33 92.8398H1567.57L1508.12 235.931L1451.13 92.8398H1394.14Z" fill="url(#paint1_linear_0_4)"/>
<path id="Stroke_3" d="M1225.51 91.8398L1276.65 163.277L1327.39 91.8398H1386.46L1311.52 194.52L1386.46 297.2H1327.39L1276.65 225.762L1225.51 297.2H1166.87L1241.39 194.52L1166.87 91.8398H1225.51ZM1168.83 92.8398L1242.63 194.521L1168.83 296.2H1225L1276.66 224.04L1327.91 296.2H1384.49L1310.28 194.521L1384.49 92.8398H1327.91L1276.66 165L1225 92.8398H1168.83Z" fill="url(#paint2_linear_0_4)"/>
<path id="Stroke_4" d="M1149.87 268.32C1149.87 259.847 1146.92 252.656 1141.02 246.748L1140.44 246.181C1134.43 240.167 1126.64 237.16 1117.07 237.16C1107.5 237.16 1099.58 240.167 1093.29 246.181C1087.28 252.194 1084.27 259.574 1084.27 268.32L1084.28 269.111C1084.46 277.245 1087.47 284.224 1093.29 290.05C1099.38 295.875 1107.01 298.88 1116.18 299.062L1117.07 299.07C1126.64 299.07 1134.43 296.063 1140.44 290.05C1146.53 284.224 1149.67 277.245 1149.86 269.111L1149.87 268.32ZM1150.86 269.138C1150.66 277.542 1147.41 284.77 1141.13 290.772C1134.91 296.987 1126.86 300.07 1117.07 300.07C1107.58 300.07 1099.61 297.172 1093.21 291.346L1092.6 290.772L1092.59 290.766L1092.58 290.757C1086.38 284.557 1083.27 277.06 1083.27 268.32C1083.27 259.317 1086.38 251.679 1092.58 245.473L1092.59 245.465L1092.6 245.458C1099.09 239.248 1107.28 236.16 1117.07 236.16C1126.87 236.16 1134.92 239.248 1141.15 245.473H1141.15C1147.62 251.673 1150.87 259.309 1150.87 268.32L1150.86 269.138Z" fill="url(#paint3_linear_0_4)"/>
<path id="Stroke_5" d="M1055.3 187.55C1055.3 168.963 1050.93 152.153 1042.18 137.12C1033.97 122.292 1022.56 110.542 1007.94 101.87L1006.51 101.04C991.684 92.5667 974.675 88.1974 955.486 87.9326L953.623 87.9199C932.303 87.9199 913.716 92.567 897.862 101.86C882.282 110.88 869.983 123.59 860.963 139.99C852.216 156.39 847.843 175.114 847.843 196.16L847.855 198.101C848.129 218.076 852.635 235.743 861.373 251.101C870.393 266.954 882.829 279.253 898.683 288C914.041 296.473 931.579 300.843 951.298 301.107L953.213 301.12C969.1 301.12 983.32 298.299 995.873 292.655L997.083 292.101C1010.2 286.087 1021.14 277.887 1029.88 267.5C1038.9 256.84 1045.33 245.087 1049.15 232.24H995.853C992.299 239.894 986.832 246.181 979.452 251.101L978.781 251.529C971.789 255.89 963.13 258.07 952.803 258.07V257.07C963.314 257.07 971.992 254.781 978.897 250.269C986.133 245.445 991.473 239.297 994.945 231.819L995.214 231.24H1050.49L1050.11 232.525C1046.24 245.509 1039.75 257.383 1030.65 268.144L1030.65 268.145C1021.8 278.649 1010.75 286.934 997.506 293.005L997.507 293.006C984.508 299.09 969.736 302.12 953.213 302.12C933.212 302.12 915.368 297.985 899.708 289.691L898.199 288.876C882.684 280.316 870.402 268.38 861.367 253.085L860.503 251.595C851.386 235.571 846.843 217.082 846.843 196.16C846.843 174.971 851.246 156.083 860.08 139.52L860.086 139.508C869.189 122.957 881.615 110.112 897.356 100.997C913.386 91.6003 932.154 86.9199 953.623 86.9199C973.098 86.92 990.417 91.0567 1005.55 99.3555L1007.01 100.172C1022.47 109.005 1034.48 121.158 1043.05 136.617C1051.89 151.814 1056.3 168.799 1056.3 187.55L1056.3 188.695C1056.27 191.368 1056.13 194.141 1055.89 197.017C1055.89 200.313 1055.75 203.743 1055.48 207.307L1055.41 208.23H900.994C902.241 223.361 907.589 235.182 916.979 243.794C926.899 252.642 938.822 257.07 952.803 257.07V258.07L951.476 258.057C937.831 257.783 926.11 253.278 916.312 244.54C906.473 235.52 901.005 223.084 899.912 207.23H1054.48L1054.58 205.904C1054.76 203.265 1054.86 200.702 1054.89 198.217L1054.89 196.98C1055.13 194.111 1055.27 191.345 1055.3 188.685L1055.3 187.55ZM954.872 130.572C967.714 130.812 978.504 134.771 987.242 142.45C996.262 150.377 1001.18 161.037 1002 174.431H900.732C903.466 159.671 909.753 148.737 919.593 141.63C929.433 134.25 940.777 130.561 953.623 130.561L954.872 130.572ZM953.623 131.561C940.982 131.561 929.851 135.187 920.192 142.431L920.186 142.436L920.178 142.44C910.854 149.174 904.754 159.463 901.945 173.431H1000.93C999.934 160.77 995.14 150.722 986.582 143.201C977.766 135.454 966.803 131.561 953.623 131.561Z" fill="url(#paint4_linear_0_4)"/>
<path id="Stroke_6" d="M753.219 1V296.2H805.699V1H753.219ZM806.699 297.2H752.219V0H806.699V297.2Z" fill="url(#paint5_linear_0_4)"/>
<path id="Stroke_7" d="M658.141 225.681V136.71H713.081V92.8398H658.141V38.3105H611.811L605.661 92.8398H570.811V136.71H605.661V225.271L605.665 226.507C605.863 252.358 612.285 270.396 624.931 280.62C637.577 290.845 654.328 296.037 675.185 296.196L676.181 296.2H711.851V251.51H686.431V250.51H712.851V297.2H676.181C654.699 297.2 637.373 291.965 624.302 281.397C611.109 270.73 604.661 251.904 604.661 225.271V137.71H569.811V91.8398H604.768L610.917 37.3105H659.141V91.8398H714.081V137.71H659.141V225.681L659.146 226.585C659.27 235.819 661.293 241.995 664.948 245.426C669.049 248.741 676.126 250.51 686.431 250.51V251.51L685.466 251.505C675.904 251.401 668.985 249.735 664.709 246.508L664.291 246.181C660.319 242.474 658.271 235.944 658.146 226.594L658.141 225.681Z" fill="url(#paint6_linear_0_4)"/>
<path id="Stroke_8" d="M426.932 91.8398H475.552L480.208 127.93C487.505 115.86 497.105 106.198 509.002 98.9561C522.027 90.9209 537.246 86.9199 554.622 86.9199H555.622V144.271H539.862C528.485 144.271 518.362 146.031 509.479 149.53C500.679 152.997 493.743 158.991 488.657 167.552C483.86 176.087 481.412 188.052 481.412 203.54V297.2H426.932V91.8398ZM427.932 296.2H480.412V203.54C480.412 187.96 482.872 175.796 487.792 167.05C492.823 158.577 499.65 152.541 508.272 148.941L509.112 148.601C517.85 145.158 527.742 143.383 538.789 143.275L539.862 143.271H554.622V87.9199C537.402 87.9199 522.369 91.8839 509.522 99.8105L508.351 100.536C496.328 108.116 486.741 118.26 479.592 130.97L474.672 92.8398H427.932V296.2Z" fill="url(#paint7_linear_0_4)"/>
<path id="Stroke_9" d="M232.198 202.72V92.8398H180.129V207.641L180.134 209.069C180.344 238.977 187.176 261.734 200.629 277.34C214.351 292.945 233.635 300.87 258.481 301.114L259.669 301.12C275.522 301.12 289.326 297.567 301.079 290.46C313.106 283.353 322.262 273.786 328.549 261.76L332.648 296.2H378.979V92.8398H326.499V197.8L326.484 199.53C326.195 217.288 321.416 231.198 312.148 241.26C302.855 251.646 290.965 256.84 276.479 256.84V255.84C290.693 255.84 302.308 250.759 311.403 240.594L311.408 240.588L311.413 240.583C320.762 230.433 325.499 216.217 325.499 197.8V91.8398H379.979V297.2H331.761L327.923 264.968C321.623 275.883 312.841 284.672 301.588 291.321C289.658 298.533 275.672 302.12 259.669 302.12C234.426 302.12 214.672 294.362 200.546 278.75L199.878 278.001L199.871 277.993C185.989 261.89 179.129 238.385 179.129 207.641V91.8398H233.198V202.72C233.198 219.826 236.622 232.829 243.331 241.865L243.653 242.293C250.515 251.266 261.379 255.84 276.479 255.84V256.84C261.411 256.84 250.317 252.337 243.195 243.332L242.858 242.9C235.752 233.607 232.198 220.213 232.198 202.72Z" fill="url(#paint8_linear_0_4)"/>
<path id="Stroke_10" d="M88.3301 225.681V136.71H143.271V92.8398H88.3301V38.3105H42L35.8506 92.8398H1V136.71H35.8506V225.271L35.8555 226.507C36.053 252.358 42.4743 270.396 55.1201 280.62C67.9667 291.007 85.0502 296.2 106.37 296.2H142.04V251.51H116.62V250.51H143.04V297.2H106.37C84.8888 297.2 67.5619 291.965 54.4912 281.397C41.2981 270.73 34.8506 251.904 34.8506 225.271V137.71H0V91.8398H34.957L41.1064 37.3105H89.3301V91.8398H144.271V137.71H89.3301V225.681L89.3359 226.585C89.459 235.819 91.4836 241.995 95.1387 245.426C99.2399 248.74 106.316 250.51 116.62 250.51V251.51C106.558 251.51 99.3181 249.842 94.8994 246.508L94.4805 246.181C90.5086 242.474 88.46 235.944 88.3359 226.594L88.3301 225.681Z" fill="url(#paint9_linear_0_4)"/>
</g>
<defs>
<linearGradient id="paint0_linear_0_4" x1="-10.8896" y1="96.7002" x2="1823.11" y2="96.7002" gradientUnits="userSpaceOnUse">
<stop stop-color="#3D3D3D"/>
<stop offset="0.5" stop-color="#F9F9F9"/>
<stop offset="1" stop-color="#3D3D3D"/>
</linearGradient>
<linearGradient id="paint1_linear_0_4" x1="-10.8897" y1="96.7002" x2="1823.11" y2="96.7002" gradientUnits="userSpaceOnUse">
<stop stop-color="#3D3D3D"/>
<stop offset="0.5" stop-color="#F9F9F9"/>
<stop offset="1" stop-color="#3D3D3D"/>
</linearGradient>
<linearGradient id="paint2_linear_0_4" x1="-10.8897" y1="96.7002" x2="1823.11" y2="96.7002" gradientUnits="userSpaceOnUse">
<stop stop-color="#3D3D3D"/>
<stop offset="0.5" stop-color="#F9F9F9"/>
<stop offset="1" stop-color="#3D3D3D"/>
</linearGradient>
<linearGradient id="paint3_linear_0_4" x1="-10.8896" y1="96.7002" x2="1823.11" y2="96.7002" gradientUnits="userSpaceOnUse">
<stop stop-color="#3D3D3D"/>
<stop offset="0.5" stop-color="#F9F9F9"/>
<stop offset="1" stop-color="#3D3D3D"/>
</linearGradient>
<linearGradient id="paint4_linear_0_4" x1="-10.8897" y1="96.7002" x2="1823.11" y2="96.7002" gradientUnits="userSpaceOnUse">
<stop stop-color="#3D3D3D"/>
<stop offset="0.5" stop-color="#F9F9F9"/>
<stop offset="1" stop-color="#3D3D3D"/>
</linearGradient>
<linearGradient id="paint5_linear_0_4" x1="-10.8897" y1="96.7002" x2="1823.11" y2="96.7002" gradientUnits="userSpaceOnUse">
<stop stop-color="#3D3D3D"/>
<stop offset="0.5" stop-color="#F9F9F9"/>
<stop offset="1" stop-color="#3D3D3D"/>
</linearGradient>
<linearGradient id="paint6_linear_0_4" x1="-10.8896" y1="96.7002" x2="1823.11" y2="96.7002" gradientUnits="userSpaceOnUse">
<stop stop-color="#3D3D3D"/>
<stop offset="0.5" stop-color="#F9F9F9"/>
<stop offset="1" stop-color="#3D3D3D"/>
</linearGradient>
<linearGradient id="paint7_linear_0_4" x1="-10.8896" y1="96.7002" x2="1823.11" y2="96.7002" gradientUnits="userSpaceOnUse">
<stop stop-color="#3D3D3D"/>
<stop offset="0.5" stop-color="#F9F9F9"/>
<stop offset="1" stop-color="#3D3D3D"/>
</linearGradient>
<linearGradient id="paint8_linear_0_4" x1="-10.8896" y1="96.7002" x2="1823.11" y2="96.7002" gradientUnits="userSpaceOnUse">
<stop stop-color="#3D3D3D"/>
<stop offset="0.5" stop-color="#F9F9F9"/>
<stop offset="1" stop-color="#3D3D3D"/>
</linearGradient>
<linearGradient id="paint9_linear_0_4" x1="-10.8896" y1="96.7002" x2="1823.11" y2="96.7002" gradientUnits="userSpaceOnUse">
<stop stop-color="#3D3D3D"/>
<stop offset="0.5" stop-color="#F9F9F9"/>
<stop offset="1" stop-color="#3D3D3D"/>
</linearGradient>
</defs>
</svg>
