<svg width="1808" height="389" viewBox="-43 -0.8 1808 389" fill="none" xmlns="http://www.w3.org/2000/svg">
<mask id="path-1-outside-1_1282_81140" maskUnits="userSpaceOnUse" x="-43" y="-0.799805" width="1808" height="389" fill="black">
<rect fill="white" x="-43" y="-0.799805" width="1808" height="389"/>
<path d="M64.26 296.2C42.94 296.2 25.8567 291.007 13.01 280.62C0.163337 270.234 -6.26 251.784 -6.26 225.27V136.71H-41.11V92.8402H-6.26L-0.109997 38.3102H46.22V92.8402H101.16V136.71H46.22V225.68C46.22 235.52 48.27 242.354 52.37 246.18C56.7433 249.734 64.1233 251.51 74.51 251.51H99.93V296.2H64.26ZM217.558 301.12C192.138 301.12 172.458 293.194 158.518 277.34C144.852 261.487 138.018 238.254 138.018 207.64V92.8402H190.088V202.72C190.088 220.214 193.642 233.607 200.748 242.9C207.855 252.194 219.062 256.84 234.368 256.84C248.855 256.84 260.745 251.647 270.038 241.26C279.605 230.874 284.388 216.387 284.388 197.8V92.8402H336.868V296.2H290.538L286.438 261.76C280.152 273.787 270.995 283.354 258.968 290.46C247.215 297.567 233.412 301.12 217.558 301.12ZM385.822 296.2V92.8402H432.562L437.482 130.97C444.862 117.85 454.838 107.464 467.412 99.8102C480.258 91.8835 495.292 87.9202 512.512 87.9202V143.27H497.752C486.272 143.27 476.022 145.047 467.002 148.6C457.982 152.154 450.875 158.304 445.682 167.05C440.762 175.797 438.302 187.96 438.302 203.54V296.2H385.822ZM634.07 296.2C612.75 296.2 595.667 291.007 582.82 280.62C569.974 270.234 563.55 251.784 563.55 225.27V136.71H528.7V92.8402H563.55L569.7 38.3102H616.03V92.8402H670.97V136.71H616.03V225.68C616.03 235.52 618.08 242.354 622.18 246.18C626.554 249.734 633.934 251.51 644.32 251.51H669.74V296.2H634.07ZM711.109 296.2V1.00018H763.589V296.2H711.109ZM911.102 301.12C890.602 301.12 872.426 296.747 856.572 288C840.719 279.254 828.282 266.954 819.262 251.1C810.242 235.247 805.732 216.934 805.732 196.16C805.732 175.114 810.106 156.39 818.852 139.99C827.872 123.59 840.172 110.88 855.752 101.86C871.606 92.5669 890.192 87.9202 911.512 87.9202C931.466 87.9202 949.096 92.2935 964.402 101.04C979.709 109.787 991.599 121.814 1000.07 137.12C1008.82 152.154 1013.19 168.964 1013.19 187.55C1013.19 190.557 1013.06 193.7 1012.78 196.98C1012.78 200.26 1012.65 203.677 1012.37 207.23H857.802C858.896 223.084 864.362 235.52 874.202 244.54C884.316 253.56 896.479 258.07 910.692 258.07C921.352 258.07 930.236 255.747 937.342 251.1C944.722 246.18 950.189 239.894 953.742 232.24H1007.04C1003.22 245.087 996.792 256.84 987.772 267.5C979.026 277.887 968.092 286.087 954.972 292.1C942.126 298.114 927.502 301.12 911.102 301.12ZM911.512 130.56C898.666 130.56 887.322 134.25 877.482 141.63C867.642 148.737 861.356 159.67 858.622 174.43H959.892C959.072 161.037 954.152 150.377 945.132 142.45C936.112 134.524 924.906 130.56 911.512 130.56ZM1074.96 299.07C1065.39 299.07 1057.47 296.064 1051.18 290.05C1045.17 284.037 1042.16 276.794 1042.16 268.32C1042.16 259.574 1045.17 252.194 1051.18 246.18C1057.47 240.167 1065.39 237.16 1074.96 237.16C1084.53 237.16 1092.32 240.167 1098.33 246.18C1104.62 252.194 1107.76 259.574 1107.76 268.32C1107.76 276.794 1104.62 284.037 1098.33 290.05C1092.32 296.064 1084.53 299.07 1074.96 299.07ZM1126.72 296.2L1200.52 194.52L1126.72 92.8402H1182.89L1234.55 165L1285.8 92.8402H1342.38L1268.17 194.52L1342.38 296.2H1285.8L1234.55 224.04L1182.89 296.2H1126.72ZM1396.31 386.4L1443.46 282.67H1431.16L1352.03 92.8402H1409.02L1466.01 235.93L1525.46 92.8402H1581.22L1452.07 386.4H1396.31ZM1597.49 296.2V253.97L1701.22 136.3H1598.72V92.8402H1761.08V135.07L1655.71 252.74H1763.13V296.2H1597.49Z"/>
</mask>
<path d="M13.01 280.62L13.6387 279.843V279.843L13.01 280.62ZM-6.26 136.71H-5.26V135.71H-6.26V136.71ZM-41.11 136.71H-42.11V137.71H-41.11V136.71ZM-41.11 92.8402V91.8402H-42.11V92.8402H-41.11ZM-6.26 92.8402V93.8402H-5.36644L-5.2663 92.9523L-6.26 92.8402ZM-0.109997 38.3102V37.3102H-1.00356L-1.1037 38.1981L-0.109997 38.3102ZM46.22 38.3102H47.22V37.3102H46.22V38.3102ZM46.22 92.8402H45.22V93.8402H46.22V92.8402ZM101.16 92.8402H102.16V91.8402H101.16V92.8402ZM101.16 136.71V137.71H102.16V136.71H101.16ZM46.22 136.71V135.71H45.22V136.71H46.22ZM52.37 246.18L51.6877 246.911L51.7128 246.935L51.7394 246.956L52.37 246.18ZM99.93 251.51H100.93V250.51H99.93V251.51ZM99.93 296.2V297.2H100.93V296.2H99.93ZM64.26 296.2V295.2C43.1014 295.2 26.2613 290.048 13.6387 279.843L13.01 280.62L12.3813 281.398C25.4521 291.966 42.7786 297.2 64.26 297.2V296.2ZM13.01 280.62L13.6387 279.843C1.13884 269.736 -5.26 251.663 -5.26 225.27H-6.26H-7.26C-7.26 251.904 -0.81216 270.731 12.3813 281.398L13.01 280.62ZM-6.26 225.27H-5.26V136.71H-6.26H-7.26V225.27H-6.26ZM-6.26 136.71V135.71H-41.11V136.71V137.71H-6.26V136.71ZM-41.11 136.71H-40.11V92.8402H-41.11H-42.11V136.71H-41.11ZM-41.11 92.8402V93.8402H-6.26V92.8402V91.8402H-41.11V92.8402ZM-6.26 92.8402L-5.2663 92.9523L0.883705 38.4223L-0.109997 38.3102L-1.1037 38.1981L-7.2537 92.7281L-6.26 92.8402ZM-0.109997 38.3102V39.3102H46.22V38.3102V37.3102H-0.109997V38.3102ZM46.22 38.3102H45.22V92.8402H46.22H47.22V38.3102H46.22ZM46.22 92.8402V93.8402H101.16V92.8402V91.8402H46.22V92.8402ZM101.16 92.8402H100.16V136.71H101.16H102.16V92.8402H101.16ZM101.16 136.71V135.71H46.22V136.71V137.71H101.16V136.71ZM46.22 136.71H45.22V225.68H46.22H47.22V136.71H46.22ZM46.22 225.68H45.22C45.22 235.602 47.2766 242.794 51.6877 246.911L52.37 246.18L53.0523 245.449C49.2634 241.913 47.22 235.438 47.22 225.68H46.22ZM52.37 246.18L51.7394 246.956C56.389 250.734 64.0637 252.51 74.51 252.51V251.51V250.51C64.1829 250.51 57.0977 248.733 53.0006 245.404L52.37 246.18ZM74.51 251.51V252.51H99.93V251.51V250.51H74.51V251.51ZM99.93 251.51H98.93V296.2H99.93H100.93V251.51H99.93ZM99.93 296.2V295.2H64.26V296.2V297.2H99.93V296.2ZM158.518 277.34L157.761 277.993L157.767 278.001L158.518 277.34ZM138.018 92.8402V91.8402H137.018V92.8402H138.018ZM190.088 92.8402H191.088V91.8402H190.088V92.8402ZM200.748 242.9L199.954 243.508V243.508L200.748 242.9ZM270.038 241.26L269.303 240.583L269.298 240.588L269.293 240.593L270.038 241.26ZM284.388 92.8402V91.8402H283.388V92.8402H284.388ZM336.868 92.8402H337.868V91.8402H336.868V92.8402ZM336.868 296.2V297.2H337.868V296.2H336.868ZM290.538 296.2L289.545 296.318L289.65 297.2H290.538V296.2ZM286.438 261.76L287.431 261.642L287.049 258.433L285.552 261.297L286.438 261.76ZM258.968 290.46L258.46 289.599L258.451 289.604L258.968 290.46ZM217.558 301.12V300.12C192.362 300.12 172.981 292.273 159.269 276.68L158.518 277.34L157.767 278.001C171.936 294.114 191.915 302.12 217.558 302.12V301.12ZM158.518 277.34L159.276 276.687C145.824 261.083 139.018 238.122 139.018 207.64H138.018H137.018C137.018 238.385 143.879 261.89 157.761 277.993L158.518 277.34ZM138.018 207.64H139.018V92.8402H138.018H137.018V207.64H138.018ZM138.018 92.8402V93.8402H190.088V92.8402V91.8402H138.018V92.8402ZM190.088 92.8402H189.088V202.72H190.088H191.088V92.8402H190.088ZM190.088 202.72H189.088C189.088 220.329 192.662 233.972 199.954 243.508L200.748 242.9L201.543 242.293C194.621 233.241 191.088 220.098 191.088 202.72H190.088ZM200.748 242.9L199.954 243.508C207.305 253.121 218.855 257.84 234.368 257.84V256.84V255.84C219.269 255.84 208.405 251.266 201.543 242.293L200.748 242.9ZM234.368 256.84V257.84C249.127 257.84 261.292 252.535 270.784 241.927L270.038 241.26L269.293 240.593C260.198 250.759 248.583 255.84 234.368 255.84V256.84ZM270.038 241.26L270.774 241.938C280.559 231.314 285.388 216.557 285.388 197.8H284.388H283.388C283.388 216.217 278.651 230.433 269.303 240.583L270.038 241.26ZM284.388 197.8H285.388V92.8402H284.388H283.388V197.8H284.388ZM284.388 92.8402V93.8402H336.868V92.8402V91.8402H284.388V92.8402ZM336.868 92.8402H335.868V296.2H336.868H337.868V92.8402H336.868ZM336.868 296.2V295.2H290.538V296.2V297.2H336.868V296.2ZM290.538 296.2L291.531 296.082L287.431 261.642L286.438 261.76L285.445 261.878L289.545 296.318L290.538 296.2ZM286.438 261.76L285.552 261.297C279.354 273.153 270.331 282.584 258.46 289.599L258.968 290.46L259.477 291.321C271.659 284.123 280.949 274.42 287.325 262.223L286.438 261.76ZM258.968 290.46L258.451 289.604C246.876 296.603 233.258 300.12 217.558 300.12V301.12V302.12C233.565 302.12 247.554 298.531 259.486 291.316L258.968 290.46ZM385.822 296.2H384.822V297.2H385.822V296.2ZM385.822 92.8402V91.8402H384.822V92.8402H385.822ZM432.562 92.8402L433.553 92.7122L433.441 91.8402H432.562V92.8402ZM437.482 130.97L436.49 131.098L436.876 134.087L438.353 131.46L437.482 130.97ZM467.412 99.8102L467.932 100.664L467.937 100.661L467.412 99.8102ZM512.512 87.9202H513.512V86.9202H512.512V87.9202ZM512.512 143.27V144.27H513.512V143.27H512.512ZM467.002 148.6L467.368 149.531V149.531L467.002 148.6ZM445.682 167.05L444.822 166.54L444.816 166.55L444.81 166.56L445.682 167.05ZM438.302 296.2V297.2H439.302V296.2H438.302ZM385.822 296.2H386.822V92.8402H385.822H384.822V296.2H385.822ZM385.822 92.8402V93.8402H432.562V92.8402V91.8402H385.822V92.8402ZM432.562 92.8402L431.57 92.9682L436.49 131.098L437.482 130.97L438.474 130.842L433.553 92.7122L432.562 92.8402ZM437.482 130.97L438.353 131.46C445.651 118.486 455.508 108.226 467.932 100.664L467.412 99.8102L466.892 98.956C454.169 106.701 444.072 117.214 436.61 130.48L437.482 130.97ZM467.412 99.8102L467.937 100.661C480.604 92.8451 495.451 88.9202 512.512 88.9202V87.9202V86.9202C495.133 86.9202 479.912 90.922 466.887 98.9592L467.412 99.8102ZM512.512 87.9202H511.512V143.27H512.512H513.512V87.9202H512.512ZM512.512 143.27V142.27H497.752V143.27V144.27H512.512V143.27ZM497.752 143.27V142.27C486.169 142.27 475.791 144.063 466.635 147.67L467.002 148.6L467.368 149.531C476.252 146.031 486.375 144.27 497.752 144.27V143.27ZM467.002 148.6L466.635 147.67C457.398 151.309 450.122 157.612 444.822 166.54L445.682 167.05L446.542 167.561C451.628 158.995 458.565 152.998 467.368 149.531L467.002 148.6ZM445.682 167.05L444.81 166.56C439.772 175.517 437.302 187.875 437.302 203.54H438.302H439.302C439.302 188.045 441.752 176.077 446.553 167.54L445.682 167.05ZM438.302 203.54H437.302V296.2H438.302H439.302V203.54H438.302ZM438.302 296.2V295.2H385.822V296.2V297.2H438.302V296.2ZM582.82 280.62L583.449 279.843V279.843L582.82 280.62ZM563.55 136.71H564.55V135.71H563.55V136.71ZM528.7 136.71H527.7V137.71H528.7V136.71ZM528.7 92.8402V91.8402H527.7V92.8402H528.7ZM563.55 92.8402V93.8402H564.444L564.544 92.9523L563.55 92.8402ZM569.7 38.3102V37.3102H568.807L568.707 38.1981L569.7 38.3102ZM616.03 38.3102H617.03V37.3102H616.03V38.3102ZM616.03 92.8402H615.03V93.8402H616.03V92.8402ZM670.97 92.8402H671.97V91.8402H670.97V92.8402ZM670.97 136.71V137.71H671.97V136.71H670.97ZM616.03 136.71V135.71H615.03V136.71H616.03ZM622.18 246.18L621.498 246.911L621.523 246.935L621.55 246.956L622.18 246.18ZM669.74 251.51H670.74V250.51H669.74V251.51ZM669.74 296.2V297.2H670.74V296.2H669.74ZM634.07 296.2V295.2C612.912 295.2 596.072 290.048 583.449 279.843L582.82 280.62L582.192 281.398C595.262 291.966 612.589 297.2 634.07 297.2V296.2ZM582.82 280.62L583.449 279.843C570.949 269.736 564.55 251.663 564.55 225.27H563.55H562.55C562.55 251.904 568.998 270.731 582.192 281.398L582.82 280.62ZM563.55 225.27H564.55V136.71H563.55H562.55V225.27H563.55ZM563.55 136.71V135.71H528.7V136.71V137.71H563.55V136.71ZM528.7 136.71H529.7V92.8402H528.7H527.7V136.71H528.7ZM528.7 92.8402V93.8402H563.55V92.8402V91.8402H528.7V92.8402ZM563.55 92.8402L564.544 92.9523L570.694 38.4223L569.7 38.3102L568.707 38.1981L562.557 92.7281L563.55 92.8402ZM569.7 38.3102V39.3102H616.03V38.3102V37.3102H569.7V38.3102ZM616.03 38.3102H615.03V92.8402H616.03H617.03V38.3102H616.03ZM616.03 92.8402V93.8402H670.97V92.8402V91.8402H616.03V92.8402ZM670.97 92.8402H669.97V136.71H670.97H671.97V92.8402H670.97ZM670.97 136.71V135.71H616.03V136.71V137.71H670.97V136.71ZM616.03 136.71H615.03V225.68H616.03H617.03V136.71H616.03ZM616.03 225.68H615.03C615.03 235.602 617.087 242.794 621.498 246.911L622.18 246.18L622.863 245.449C619.074 241.913 617.03 235.438 617.03 225.68H616.03ZM622.18 246.18L621.55 246.956C626.199 250.734 633.874 252.51 644.32 252.51V251.51V250.51C633.993 250.51 626.908 248.733 622.811 245.404L622.18 246.18ZM644.32 251.51V252.51H669.74V251.51V250.51H644.32V251.51ZM669.74 251.51H668.74V296.2H669.74H670.74V251.51H669.74ZM669.74 296.2V295.2H634.07V296.2V297.2H669.74V296.2ZM711.109 296.2H710.109V297.2H711.109V296.2ZM711.109 1.00018V0.000183105H710.109V1.00018H711.109ZM763.589 1.00018H764.589V0.000183105H763.589V1.00018ZM763.589 296.2V297.2H764.589V296.2H763.589ZM711.109 296.2H712.109V1.00018H711.109H710.109V296.2H711.109ZM711.109 1.00018V2.00018H763.589V1.00018V0.000183105H711.109V1.00018ZM763.589 1.00018H762.589V296.2H763.589H764.589V1.00018H763.589ZM763.589 296.2V295.2H711.109V296.2V297.2H763.589V296.2ZM856.572 288L857.055 287.125V287.125L856.572 288ZM818.852 139.99L817.976 139.508L817.97 139.52L818.852 139.99ZM855.752 101.86L856.253 102.726L856.258 102.723L855.752 101.86ZM964.402 101.04L963.906 101.908V101.908L964.402 101.04ZM1000.07 137.12L999.197 137.605L999.203 137.614L999.208 137.623L1000.07 137.12ZM1012.78 196.98L1011.79 196.897L1011.78 196.939V196.98H1012.78ZM1012.37 207.23V208.23H1013.3L1013.37 207.307L1012.37 207.23ZM857.802 207.23V206.23H856.731L856.805 207.299L857.802 207.23ZM874.202 244.54L873.526 245.277L873.537 245.286L874.202 244.54ZM937.342 251.1L937.889 251.937L937.897 251.932L937.342 251.1ZM953.742 232.24V231.24H953.104L952.835 231.819L953.742 232.24ZM1007.04 232.24L1008 232.526L1008.38 231.24H1007.04V232.24ZM987.772 267.5L987.009 266.854L987.007 266.856L987.772 267.5ZM954.972 292.1L954.556 291.191L954.548 291.195L954.972 292.1ZM877.482 141.63L878.068 142.441L878.075 142.436L878.082 142.43L877.482 141.63ZM858.622 174.43L857.639 174.248L857.42 175.43H858.622V174.43ZM959.892 174.43V175.43H960.955L960.89 174.369L959.892 174.43ZM945.132 142.45L945.792 141.699V141.699L945.132 142.45ZM911.102 301.12V300.12C890.748 300.12 872.742 295.779 857.055 287.125L856.572 288L856.089 288.876C872.109 297.714 890.456 302.12 911.102 302.12V301.12ZM856.572 288L857.055 287.125C841.365 278.468 829.061 266.3 820.131 250.606L819.262 251.1L818.393 251.595C827.503 267.607 840.073 280.039 856.089 288.876L856.572 288ZM819.262 251.1L820.131 250.606C811.208 234.923 806.732 216.785 806.732 196.16H805.732H804.732C804.732 217.082 809.276 235.571 818.393 251.595L819.262 251.1ZM805.732 196.16H806.732C806.732 175.256 811.075 156.698 819.735 140.461L818.852 139.99L817.97 139.52C809.136 156.083 804.732 174.971 804.732 196.16H805.732ZM818.852 139.99L819.728 140.472C828.664 124.225 840.837 111.651 856.253 102.726L855.752 101.86L855.251 100.995C839.507 110.11 827.08 122.955 817.976 139.508L818.852 139.99ZM855.752 101.86L856.258 102.723C871.935 93.533 890.341 88.9202 911.512 88.9202V87.9202V86.9202C890.043 86.9202 871.276 91.6007 855.246 100.997L855.752 101.86ZM911.512 87.9202V88.9202C931.315 88.9202 948.77 93.259 963.906 101.908L964.402 101.04L964.898 100.172C949.422 91.328 931.616 86.9202 911.512 86.9202V87.9202ZM964.402 101.04L963.906 101.908C979.055 110.565 990.813 122.459 999.197 137.605L1000.07 137.12L1000.95 136.636C992.384 121.168 980.363 109.009 964.898 100.172L964.402 101.04ZM1000.07 137.12L999.208 137.623C1007.86 152.493 1012.19 169.128 1012.19 187.55H1013.19H1014.19C1014.19 168.799 1009.78 151.814 1000.94 136.617L1000.07 137.12ZM1013.19 187.55H1012.19C1012.19 190.527 1012.06 193.642 1011.79 196.897L1012.78 196.98L1013.78 197.063C1014.05 193.758 1014.19 190.587 1014.19 187.55H1013.19ZM1012.78 196.98H1011.78C1011.78 200.233 1011.65 203.624 1011.38 207.154L1012.37 207.23L1013.37 207.307C1013.64 203.73 1013.78 200.288 1013.78 196.98H1012.78ZM1012.37 207.23V206.23H857.802V207.23V208.23H1012.37V207.23ZM857.802 207.23L856.805 207.299C857.912 223.356 863.462 236.052 873.526 245.277L874.202 244.54L874.878 243.803C865.262 234.989 859.879 222.811 858.8 207.161L857.802 207.23ZM874.202 244.54L873.537 245.286C883.843 254.478 896.247 259.07 910.692 259.07V258.07V257.07C896.711 257.07 884.788 252.642 874.868 243.794L874.202 244.54ZM910.692 258.07V259.07C921.497 259.07 930.583 256.714 937.889 251.937L937.342 251.1L936.795 250.263C929.888 254.779 921.207 257.07 910.692 257.07V258.07ZM937.342 251.1L937.897 251.932C945.422 246.916 951.014 240.49 954.649 232.661L953.742 232.24L952.835 231.819C949.363 239.297 944.023 245.445 936.788 250.268L937.342 251.1ZM953.742 232.24V233.24H1007.04V232.24V231.24H953.742V232.24ZM1007.04 232.24L1006.08 231.955C1002.3 244.664 995.943 256.295 987.009 266.854L987.772 267.5L988.536 268.146C997.641 257.385 1004.13 245.51 1008 232.526L1007.04 232.24ZM987.772 267.5L987.007 266.856C978.362 277.123 967.55 285.235 954.556 291.191L954.972 292.1L955.389 293.009C968.634 286.938 979.689 278.651 988.537 268.144L987.772 267.5ZM954.972 292.1L954.548 291.195C941.854 297.137 927.379 300.12 911.102 300.12V301.12V302.12C927.626 302.12 942.398 299.09 955.396 293.006L954.972 292.1ZM911.512 130.56V129.56C898.459 129.56 886.903 133.314 876.882 140.83L877.482 141.63L878.082 142.43C887.741 135.186 898.872 131.56 911.512 131.56V130.56ZM877.482 141.63L876.897 140.82C866.802 148.111 860.407 159.298 857.639 174.248L858.622 174.43L859.605 174.612C862.304 160.042 868.483 149.363 878.068 142.441L877.482 141.63ZM858.622 174.43V175.43H959.892V174.43V173.43H858.622V174.43ZM959.892 174.43L960.89 174.369C960.056 160.744 955.037 149.823 945.792 141.699L945.132 142.45L944.472 143.201C953.268 150.931 958.088 161.33 958.894 174.491L959.892 174.43ZM945.132 142.45L945.792 141.699C936.568 133.593 925.118 129.56 911.512 129.56V130.56V131.56C924.693 131.56 935.656 135.454 944.472 143.201L945.132 142.45ZM1051.18 290.05L1050.47 290.757L1050.48 290.765L1050.49 290.773L1051.18 290.05ZM1051.18 246.18L1050.49 245.458L1050.48 245.465L1050.47 245.473L1051.18 246.18ZM1098.33 246.18L1097.62 246.887L1097.63 246.895L1097.64 246.903L1098.33 246.18ZM1098.33 290.05L1097.64 289.328L1097.63 289.335L1097.62 289.343L1098.33 290.05ZM1074.96 299.07V298.07C1065.62 298.07 1057.95 295.144 1051.87 289.328L1051.18 290.05L1050.49 290.773C1056.98 296.983 1065.17 300.07 1074.96 300.07V299.07ZM1051.18 290.05L1051.89 289.343C1046.06 283.517 1043.16 276.527 1043.16 268.32H1042.16H1041.16C1041.16 277.06 1044.27 284.557 1050.47 290.757L1051.18 290.05ZM1042.16 268.32H1043.16C1043.16 259.83 1046.07 252.707 1051.89 246.887L1051.18 246.18L1050.47 245.473C1044.27 251.68 1041.16 259.317 1041.16 268.32H1042.16ZM1051.18 246.18L1051.87 246.903C1057.95 241.086 1065.62 238.16 1074.96 238.16V237.16V236.16C1065.17 236.16 1056.98 239.248 1050.49 245.458L1051.18 246.18ZM1074.96 237.16V238.16C1084.3 238.16 1091.82 241.086 1097.62 246.887L1098.33 246.18L1099.04 245.473C1092.81 239.248 1084.76 236.16 1074.96 236.16V237.16ZM1098.33 246.18L1097.64 246.903C1103.73 252.726 1106.76 259.845 1106.76 268.32H1107.76H1108.76C1108.76 259.302 1105.51 251.661 1099.02 245.458L1098.33 246.18ZM1107.76 268.32H1106.76C1106.76 276.512 1103.74 283.497 1097.64 289.328L1098.33 290.05L1099.02 290.773C1105.5 284.577 1108.76 277.075 1108.76 268.32H1107.76ZM1098.33 290.05L1097.62 289.343C1091.82 295.145 1084.3 298.07 1074.96 298.07V299.07V300.07C1084.76 300.07 1092.81 296.982 1099.04 290.757L1098.33 290.05ZM1126.72 296.2L1125.91 295.613L1124.76 297.2H1126.72V296.2ZM1200.52 194.52L1201.33 195.108L1201.75 194.52L1201.33 193.933L1200.52 194.52ZM1126.72 92.8402V91.8402H1124.76L1125.91 93.4276L1126.72 92.8402ZM1182.89 92.8402L1183.7 92.2581L1183.4 91.8402H1182.89V92.8402ZM1234.55 165L1233.73 165.582L1234.55 166.723L1235.36 165.579L1234.55 165ZM1285.8 92.8402V91.8402H1285.28L1284.98 92.2611L1285.8 92.8402ZM1342.38 92.8402L1343.19 93.4297L1344.35 91.8402H1342.38V92.8402ZM1268.17 194.52L1267.36 193.931L1266.93 194.52L1267.36 195.11L1268.17 194.52ZM1342.38 296.2V297.2H1344.35L1343.19 295.611L1342.38 296.2ZM1285.8 296.2L1284.98 296.779L1285.28 297.2H1285.8V296.2ZM1234.55 224.04L1235.36 223.461L1234.55 222.318L1233.73 223.458L1234.55 224.04ZM1182.89 296.2V297.2H1183.4L1183.7 296.782L1182.89 296.2ZM1126.72 296.2L1127.53 296.788L1201.33 195.108L1200.52 194.52L1199.71 193.933L1125.91 295.613L1126.72 296.2ZM1200.52 194.52L1201.33 193.933L1127.53 92.2528L1126.72 92.8402L1125.91 93.4276L1199.71 195.108L1200.52 194.52ZM1126.72 92.8402V93.8402H1182.89V92.8402V91.8402H1126.72V92.8402ZM1182.89 92.8402L1182.07 93.4223L1233.73 165.582L1234.55 165L1235.36 164.418L1183.7 92.2581L1182.89 92.8402ZM1234.55 165L1235.36 165.579L1286.61 93.4192L1285.8 92.8402L1284.98 92.2611L1233.73 164.421L1234.55 165ZM1285.8 92.8402V93.8402H1342.38V92.8402V91.8402H1285.8V92.8402ZM1342.38 92.8402L1341.57 92.2507L1267.36 193.931L1268.17 194.52L1268.98 195.11L1343.19 93.4297L1342.38 92.8402ZM1268.17 194.52L1267.36 195.11L1341.57 296.79L1342.38 296.2L1343.19 295.611L1268.98 193.931L1268.17 194.52ZM1342.38 296.2V295.2H1285.8V296.2V297.2H1342.38V296.2ZM1285.8 296.2L1286.61 295.621L1235.36 223.461L1234.55 224.04L1233.73 224.619L1284.98 296.779L1285.8 296.2ZM1234.55 224.04L1233.73 223.458L1182.07 295.618L1182.89 296.2L1183.7 296.782L1235.36 224.622L1234.55 224.04ZM1182.89 296.2V295.2H1126.72V296.2V297.2H1182.89V296.2ZM1396.31 386.4L1395.4 385.986L1394.76 387.4H1396.31V386.4ZM1443.46 282.67L1444.37 283.084L1445.01 281.67H1443.46V282.67ZM1431.16 282.67L1430.24 283.055L1430.49 283.67H1431.16V282.67ZM1352.03 92.8402V91.8402H1350.53L1351.11 93.2249L1352.03 92.8402ZM1409.02 92.8402L1409.95 92.4702L1409.7 91.8402H1409.02V92.8402ZM1466.01 235.93L1465.08 236.3L1465.99 238.584L1466.94 236.314L1466.01 235.93ZM1525.46 92.8402V91.8402H1524.79L1524.54 92.4565L1525.46 92.8402ZM1581.22 92.8402L1582.14 93.2429L1582.75 91.8402H1581.22V92.8402ZM1452.07 386.4V387.4H1452.72L1452.99 386.803L1452.07 386.4ZM1396.31 386.4L1397.22 386.814L1444.37 283.084L1443.46 282.67L1442.55 282.256L1395.4 385.986L1396.31 386.4ZM1443.46 282.67V281.67H1431.16V282.67V283.67H1443.46V282.67ZM1431.16 282.67L1432.08 282.285L1352.95 92.4554L1352.03 92.8402L1351.11 93.2249L1430.24 283.055L1431.16 282.67ZM1352.03 92.8402V93.8402H1409.02V92.8402V91.8402H1352.03V92.8402ZM1409.02 92.8402L1408.09 93.2102L1465.08 236.3L1466.01 235.93L1466.94 235.56L1409.95 92.4702L1409.02 92.8402ZM1466.01 235.93L1466.94 236.314L1526.39 93.2239L1525.46 92.8402L1524.54 92.4565L1465.09 235.547L1466.01 235.93ZM1525.46 92.8402V93.8402H1581.22V92.8402V91.8402H1525.46V92.8402ZM1581.22 92.8402L1580.31 92.4375L1451.16 385.997L1452.07 386.4L1452.99 386.803L1582.14 93.2429L1581.22 92.8402ZM1452.07 386.4V385.4H1396.31V386.4V387.4H1452.07V386.4ZM1597.49 296.2H1596.49V297.2H1597.49V296.2ZM1597.49 253.97L1596.74 253.309L1596.49 253.592V253.97H1597.49ZM1701.22 136.3L1701.97 136.961L1703.43 135.3H1701.22V136.3ZM1598.72 136.3H1597.72V137.3H1598.72V136.3ZM1598.72 92.8402V91.8402H1597.72V92.8402H1598.72ZM1761.08 92.8402H1762.08V91.8402H1761.08V92.8402ZM1761.08 135.07L1761.83 135.737L1762.08 135.452V135.07H1761.08ZM1655.71 252.74L1654.97 252.073L1653.47 253.74H1655.71V252.74ZM1763.13 252.74H1764.13V251.74H1763.13V252.74ZM1763.13 296.2V297.2H1764.13V296.2H1763.13ZM1597.49 296.2H1598.49V253.97H1597.49H1596.49V296.2H1597.49ZM1597.49 253.97L1598.24 254.631L1701.97 136.961L1701.22 136.3L1700.47 135.639L1596.74 253.309L1597.49 253.97ZM1701.22 136.3V135.3H1598.72V136.3V137.3H1701.22V136.3ZM1598.72 136.3H1599.72V92.8402H1598.72H1597.72V136.3H1598.72ZM1598.72 92.8402V93.8402H1761.08V92.8402V91.8402H1598.72V92.8402ZM1761.08 92.8402H1760.08V135.07H1761.08H1762.08V92.8402H1761.08ZM1761.08 135.07L1760.34 134.403L1654.97 252.073L1655.71 252.74L1656.46 253.407L1761.83 135.737L1761.08 135.07ZM1655.71 252.74V253.74H1763.13V252.74V251.74H1655.71V252.74ZM1763.13 252.74H1762.13V296.2H1763.13H1764.13V252.74H1763.13ZM1763.13 296.2V295.2H1597.49V296.2V297.2H1763.13V296.2Z" fill="url(#paint0_linear_1282_81140)" fill-opacity="0.4" mask="url(#path-1-outside-1_1282_81140)"/>
<defs>
<linearGradient id="paint0_linear_1282_81140" x1="-53" y1="96.7002" x2="1781" y2="96.7002" gradientUnits="userSpaceOnUse">
<stop stop-color="#dcdcdc"/>
<stop offset="0.5" stop-color="#2a2a2a"/>
<stop offset="1" stop-color="#dcdcdc"/>
</linearGradient>
</defs>
</svg>
