<svg width="100%" height="100%" viewBox="0 0 89.4746 93.2028" fill="none" xmlns="http://www.w3.org/2000/svg">
<g id="Vector">
<path d="M26.6236 17.7147C31.9257 14.7632 38.0147 13.0846 44.4904 13.0846C51.4488 13.0846 57.9608 15.0229 63.5297 18.3959C63.3567 8.20622 55.156 0 45.0648 0C35.1996 0 27.141 7.84298 26.6236 17.7147Z" fill="url(#paint0_linear_0_6)"/>
<path d="M81.3058 56.0705C81.5452 54.342 81.669 52.5759 81.669 50.7805C81.669 39.3001 76.6073 29.0184 68.6233 22.1044C68.8947 21.915 69.1815 21.7484 69.4834 21.606C74.6654 19.1627 82.3556 24.7896 86.6598 34.1741C90.964 43.5586 90.2524 53.147 85.0704 55.5903C83.918 56.1337 82.6415 56.2779 81.3058 56.0705Z" fill="url(#paint1_linear_0_6)"/>
<path d="M56.1917 86.5714C67.0901 82.9104 75.7527 74.2752 79.5628 63.3189C80.9393 67.5777 80.2846 73.8653 77.4416 80.0639C73.1374 89.4484 65.4472 95.0753 60.2652 92.632C58.1507 91.635 56.7805 89.4484 56.1917 86.5714Z" fill="url(#paint2_linear_0_6)"/>
<path d="M9.68975 64.0746C13.6859 74.8232 22.3871 83.2328 33.2474 86.7221C32.6402 89.5165 31.2825 91.6378 29.2092 92.6154C24.0272 95.0588 16.337 89.4318 12.0328 80.0473C9.35703 74.2134 8.61969 68.3006 9.68975 64.0746Z" fill="url(#paint3_linear_0_6)"/>
<path d="M20.56 21.9303C12.4591 28.8451 7.31173 39.2033 7.31173 50.7805C7.31173 52.6024 7.43921 54.3942 7.68563 56.1471C6.52538 56.2538 5.41693 56.0845 4.40426 55.6071C-0.777775 53.1637 -1.48938 43.5754 2.81485 34.1908C7.11907 24.8063 14.8092 19.1794 19.9912 21.6228C20.1872 21.7152 20.3768 21.8178 20.56 21.9303Z" fill="url(#paint4_linear_0_6)"/>
<path d="M36.6579 66.6608C37.4062 65.6169 38.6021 64.9993 39.8748 64.9993L49.7218 64.9995C50.9945 64.9996 52.1902 65.6172 52.9385 66.6609L59.0801 75.2281C60.4154 77.0907 59.9544 79.7349 57.933 80.7843C50.2189 84.789 42.0487 85.3052 32.0558 80.7062C29.887 79.7081 29.2947 76.9324 30.6951 74.9789L36.6579 66.6608Z" fill="url(#paint5_linear_0_6)"/>
<path d="M57.3356 63.1493C56.5813 62.1023 56.3696 60.7514 56.7667 59.5189L59.8512 49.9447C60.2465 48.7178 61.1972 47.7569 62.4086 47.3601L72.4014 44.086C74.6127 43.3615 76.9857 44.7083 77.2124 47.0533C77.315 48.1139 77.3676 49.1892 77.3676 50.277C77.3676 56.4161 77.3675 59.1292 72.9958 66.7486C71.8815 68.6908 70.5744 70.5054 69.1026 72.1689C67.554 73.9192 64.8603 73.5934 63.4924 71.6947L57.3356 63.1493Z" fill="url(#paint6_linear_0_6)"/>
<path d="M70.7521 39.1661C72.9594 38.4348 74.0985 35.9341 72.9293 33.8999C72.1124 32.4787 71.1949 31.1249 70.1865 29.8489C70.0322 29.6537 69.897 29.4452 69.763 29.2352C67.8066 26.1679 60.5868 20.9091 57.2591 19.9224C57.0523 19.861 56.846 19.798 56.6455 19.7181C55.0751 19.0924 53.4455 18.5875 51.7678 18.2143C49.4958 17.7088 47.4983 19.5853 47.4981 21.9437L47.4975 32.64C47.4974 33.927 48.1033 35.1368 49.1283 35.896L57.2171 41.8873C58.2498 42.6522 59.5824 42.8669 60.7981 42.4641L70.7521 39.1661Z" fill="url(#paint7_linear_0_6)"/>
<path d="M20.4936 72.1689C19.0216 70.5053 17.7144 68.6906 16.5999 66.7483C13.5143 61.6931 12.2281 56.0955 12.2281 50.2765C12.2281 49.1888 12.2808 48.1135 12.3834 47.053C12.6103 44.7082 14.9833 43.3615 17.1945 44.0859L27.1873 47.3598C28.3987 47.7567 29.3494 48.7176 29.7447 49.9446L32.8291 59.5191C33.2261 60.7516 33.0144 62.1024 32.2601 63.1493L26.1038 71.6945C24.7359 73.5933 22.0422 73.9192 20.4936 72.1689Z" fill="url(#paint8_linear_0_6)"/>
<path d="M28.7987 42.4641C30.0144 42.8669 31.347 42.6522 32.3797 41.8873L40.468 35.8964C41.4931 35.1372 42.099 33.9274 42.0989 32.6403L42.0981 21.9445C42.0979 19.5858 40.101 17.7269 37.8367 18.2681C36.0651 18.6915 34.3422 19.2474 32.6506 19.8396C27.1596 21.7624 22.151 26.4563 19.6435 29.5572C18.5428 30.9179 17.5466 32.3698 16.6671 33.8998C15.4978 35.9339 16.637 38.4346 18.8442 39.1659L28.7987 42.4641Z" fill="url(#paint9_linear_0_6)"/>
<path d="M41.3613 59.5257C39.6323 59.5257 38.1014 58.3929 37.5741 56.7235L35.4119 49.8784C34.8914 48.2304 35.466 46.4294 36.8399 45.4028L42.4384 41.2194C43.8413 40.1711 45.754 40.1711 47.1569 41.2194L52.7554 45.4028C54.1293 46.4294 54.7039 48.2304 54.1833 49.8784L52.0211 56.7235C51.4938 58.3929 49.9629 59.5257 48.234 59.5257H41.3613Z" fill="url(#paint10_linear_0_6)"/>
</g>
<defs>
<linearGradient id="paint0_linear_0_6" x1="61.374" y1="5.59217" x2="61.374" y2="67.5532" gradientUnits="userSpaceOnUse">
<stop stop-color="#73F36C"/>
<stop offset="1" stop-color="#73F36C" stop-opacity="0"/>
</linearGradient>
<linearGradient id="paint1_linear_0_6" x1="61.374" y1="5.59217" x2="61.374" y2="67.5532" gradientUnits="userSpaceOnUse">
<stop stop-color="#73F36C"/>
<stop offset="1" stop-color="#73F36C" stop-opacity="0"/>
</linearGradient>
<linearGradient id="paint2_linear_0_6" x1="61.374" y1="5.59217" x2="61.374" y2="67.5532" gradientUnits="userSpaceOnUse">
<stop stop-color="#73F36C"/>
<stop offset="1" stop-color="#73F36C" stop-opacity="0"/>
</linearGradient>
<linearGradient id="paint3_linear_0_6" x1="61.374" y1="5.59217" x2="61.374" y2="67.5532" gradientUnits="userSpaceOnUse">
<stop stop-color="#73F36C"/>
<stop offset="1" stop-color="#73F36C" stop-opacity="0"/>
</linearGradient>
<linearGradient id="paint4_linear_0_6" x1="61.374" y1="5.59217" x2="61.374" y2="67.5532" gradientUnits="userSpaceOnUse">
<stop stop-color="#73F36C"/>
<stop offset="1" stop-color="#73F36C" stop-opacity="0"/>
</linearGradient>
<linearGradient id="paint5_linear_0_6" x1="61.374" y1="5.59217" x2="61.374" y2="67.5532" gradientUnits="userSpaceOnUse">
<stop stop-color="#73F36C"/>
<stop offset="1" stop-color="#73F36C" stop-opacity="0"/>
</linearGradient>
<linearGradient id="paint6_linear_0_6" x1="61.374" y1="5.59217" x2="61.374" y2="67.5532" gradientUnits="userSpaceOnUse">
<stop stop-color="#73F36C"/>
<stop offset="1" stop-color="#73F36C" stop-opacity="0"/>
</linearGradient>
<linearGradient id="paint7_linear_0_6" x1="61.374" y1="5.59217" x2="61.374" y2="67.5532" gradientUnits="userSpaceOnUse">
<stop stop-color="#73F36C"/>
<stop offset="1" stop-color="#73F36C" stop-opacity="0"/>
</linearGradient>
<linearGradient id="paint8_linear_0_6" x1="61.374" y1="5.59217" x2="61.374" y2="67.5532" gradientUnits="userSpaceOnUse">
<stop stop-color="#73F36C"/>
<stop offset="1" stop-color="#73F36C" stop-opacity="0"/>
</linearGradient>
<linearGradient id="paint9_linear_0_6" x1="61.374" y1="5.59217" x2="61.374" y2="67.5532" gradientUnits="userSpaceOnUse">
<stop stop-color="#73F36C"/>
<stop offset="1" stop-color="#73F36C" stop-opacity="0"/>
</linearGradient>
<linearGradient id="paint10_linear_0_6" x1="61.374" y1="5.59217" x2="61.374" y2="67.5532" gradientUnits="userSpaceOnUse">
<stop stop-color="#73F36C"/>
<stop offset="1" stop-color="#73F36C" stop-opacity="0"/>
</linearGradient>
</defs>
</svg>
