<svg preserveAspectRatio="none" width="100%" height="100%" overflow="visible" style="display: block;" viewBox="0 0 102.994 25.2554" fill="none" xmlns="http://www.w3.org/2000/svg">
<g id="Frame 2147224004">
<g id="Turtle Iso">
<g id="Vector">
<path d="M8.49787 6.23668C9.68752 5.58353 11.0537 5.21206 12.5067 5.21206C14.068 5.21206 15.5291 5.64098 16.7786 6.38741C16.7398 4.1325 14.8998 2.31651 12.6356 2.31651C10.4221 2.31651 8.61397 4.05212 8.49787 6.23668Z" fill="var(--fill-0, #73F36C)"/>
<path d="M20.7671 14.7246C20.8208 14.3421 20.8486 13.9513 20.8486 13.5539C20.8486 11.0134 19.7129 8.73811 17.9215 7.20808C17.9824 7.16617 18.0467 7.12929 18.1145 7.09779C19.2772 6.55709 21.0026 7.8023 21.9684 9.87903C22.9341 11.9558 22.7745 14.0776 21.6118 14.6183C21.3532 14.7386 21.0668 14.7705 20.7671 14.7246Z" fill="var(--fill-0, #73F36C)"/>
<path d="M15.1322 21.4743C17.5775 20.6641 19.5211 18.7532 20.376 16.3286C20.6849 17.2711 20.538 18.6625 19.9001 20.0342C18.9343 22.1109 17.2089 23.3561 16.0461 22.8154C15.5717 22.5948 15.2643 22.1109 15.1322 21.4743Z" fill="var(--fill-0, #73F36C)"/>
<path d="M4.69838 16.4958C5.595 18.8744 7.54731 20.7354 9.98407 21.5076C9.84784 22.126 9.54321 22.5954 9.07801 22.8118C7.91531 23.3525 6.18985 22.1073 5.2241 20.0305C4.62373 18.7395 4.45829 17.431 4.69838 16.4958Z" fill="var(--fill-0, #73F36C)"/>
<path d="M7.13737 7.16955C5.31975 8.69977 4.16481 10.992 4.16481 13.5539C4.16481 13.9571 4.19342 14.3536 4.24871 14.7415C3.98838 14.7652 3.73967 14.7277 3.51246 14.622C2.34975 14.0813 2.19008 11.9595 3.15584 9.88274C4.12159 7.80601 5.84705 6.5608 7.00975 7.1015C7.05373 7.12195 7.09627 7.14466 7.13737 7.16955Z" fill="var(--fill-0, #73F36C)"/>
<path d="M10.7493 17.0681C10.9172 16.8372 11.1855 16.7005 11.4711 16.7005L13.6805 16.7005C13.966 16.7005 14.2343 16.8372 14.4022 17.0682L15.7802 18.9641C16.0798 19.3762 15.9764 19.9614 15.5229 20.1936C13.792 21.0798 11.9588 21.194 9.71672 20.1763C9.23009 19.9554 9.0972 19.3412 9.4114 18.9089L10.7493 17.0681Z" fill="var(--fill-0, #73F36C)"/>
<path d="M15.3888 16.2911C15.2196 16.0594 15.1721 15.7604 15.2612 15.4877L15.9533 13.369C16.042 13.0975 16.2553 12.8848 16.5271 12.797L18.7692 12.0725C19.2653 11.9122 19.7978 12.2102 19.8486 12.7291C19.8717 12.9638 19.8835 13.2018 19.8835 13.4425C19.8835 14.8011 19.8834 15.4015 18.9026 17.0876C18.6525 17.5174 18.3592 17.9189 18.029 18.2871C17.6816 18.6744 17.0772 18.6023 16.7702 18.1821L15.3888 16.2911Z" fill="var(--fill-0, #73F36C)"/>
<path d="M18.3991 10.9837C18.8944 10.8219 19.15 10.2685 18.8876 9.81836C18.7043 9.50386 18.4985 9.20428 18.2722 8.92189C18.2376 8.8787 18.2073 8.83256 18.1772 8.78609C17.7382 8.10732 16.1183 6.94358 15.3716 6.72521C15.3252 6.71164 15.279 6.69769 15.234 6.68001C14.8816 6.54155 14.516 6.42982 14.1396 6.34722C13.6298 6.23535 13.1816 6.65063 13.1816 7.17253L13.1814 9.53954C13.1814 9.82436 13.3173 10.0921 13.5473 10.2601L15.3622 11.5859C15.5939 11.7552 15.8929 11.8027 16.1657 11.7136L18.3991 10.9837Z" fill="var(--fill-0, #73F36C)"/>
<path d="M7.12246 18.2871C6.7922 17.9189 6.49889 17.5173 6.24883 17.0875C5.55649 15.9688 5.26791 14.7301 5.26791 13.4424C5.26791 13.2017 5.27973 12.9638 5.30276 12.7291C5.35366 12.2102 5.88611 11.9122 6.38224 12.0725L8.62435 12.797C8.89616 12.8848 9.10948 13.0974 9.19816 13.369L9.89022 15.4877C9.9793 15.7605 9.9318 16.0594 9.76257 16.2911L8.38126 18.1821C8.07433 18.6023 7.46993 18.6744 7.12246 18.2871Z" fill="var(--fill-0, #73F36C)"/>
<path d="M8.98592 11.7136C9.25868 11.8027 9.55768 11.7552 9.78939 11.5859L11.6042 10.2602C11.8342 10.0922 11.9701 9.82444 11.9701 9.53962L11.9699 7.17269C11.9699 6.65073 11.5218 6.23937 11.0138 6.35913C10.6163 6.45283 10.2297 6.57584 9.85018 6.7069C8.61815 7.1324 7.49435 8.17114 6.93174 8.85736C6.68476 9.15847 6.46125 9.47975 6.26391 9.81834C6.00156 10.2685 6.25715 10.8219 6.75238 10.9837L8.98592 11.7136Z" fill="var(--fill-0, #73F36C)"/>
<path d="M11.8046 15.4892C11.4167 15.4892 11.0732 15.2385 10.9549 14.8691L10.4697 13.3543C10.3529 12.9896 10.4819 12.5911 10.7901 12.3639L12.0463 11.4381C12.3611 11.2061 12.7902 11.2061 13.105 11.4381L14.3611 12.3639C14.6694 12.5911 14.7983 12.9896 14.6815 13.3543L14.1964 14.8691C14.0781 15.2385 13.7346 15.4892 13.3467 15.4892H11.8046Z" fill="var(--fill-0, #73F36C)"/>
</g>
</g>
<g id="Turtle Club">
<path d="M34.2945 21.2175V8.49097H29.2554V4.81128H43.9507V8.49097H38.9351V21.2175H34.2945Z" fill="var(--fill-0, #73F36C)"/>
<path d="M50.5607 21.4285C49.5294 21.4285 48.5997 21.2254 47.7716 20.8191C46.9591 20.4129 46.3185 19.78 45.8497 18.9207C45.3966 18.0457 45.17 16.9441 45.17 15.616V8.51441H49.6232V14.8894C49.6232 15.8738 49.8029 16.5769 50.1622 16.9988C50.5372 17.4207 51.0607 17.6316 51.7326 17.6316C52.1701 17.6316 52.5685 17.53 52.9279 17.3269C53.2872 17.1238 53.5763 16.8035 53.7951 16.366C54.0138 15.9129 54.1232 15.3347 54.1232 14.6316V8.51441H58.5763V21.2175H54.3341V17.6316L55.1544 18.6394C54.7169 19.5769 54.0841 20.28 53.256 20.7488C52.4279 21.2019 51.5294 21.4285 50.5607 21.4285Z" fill="var(--fill-0, #73F36C)"/>
<path d="M61.4447 21.2175V8.51441H65.6869V12.2175L65.0541 11.1628C65.4291 10.2097 66.0384 9.49878 66.8822 9.03003C67.7259 8.54566 68.7494 8.30347 69.9525 8.30347V12.3113C69.7494 12.28 69.5697 12.2644 69.4134 12.2644C69.2728 12.2488 69.1166 12.241 68.9447 12.241C68.0384 12.241 67.3041 12.491 66.7416 12.991C66.1791 13.4753 65.8978 14.2722 65.8978 15.3816V21.2175H61.4447Z" fill="var(--fill-0, #73F36C)"/>
<path d="M77.8511 21.4285C76.2261 21.4285 74.9605 21.03 74.0543 20.2332C73.148 19.4207 72.6949 18.2019 72.6949 16.5769V5.67847H77.148V16.53C77.148 16.9832 77.273 17.3425 77.523 17.6082C77.773 17.8582 78.0933 17.9832 78.484 17.9832C79.0152 17.9832 79.4683 17.8504 79.8433 17.5847L80.9449 20.7019C80.5699 20.9519 80.109 21.1316 79.5621 21.241C79.0152 21.366 78.4449 21.4285 77.8511 21.4285ZM70.8433 12.3113V8.98316H80.0543V12.3113H70.8433Z" fill="var(--fill-0, #73F36C)"/>
<path d="M82.6621 21.2175V3.8269H87.1152V21.2175H82.6621Z" fill="var(--fill-0, #73F36C)"/>
<path d="M96.6655 21.4285C95.1655 21.4285 93.853 21.1472 92.728 20.5847C91.6186 20.0066 90.7514 19.2254 90.1264 18.241C89.517 17.241 89.2123 16.1082 89.2123 14.8425C89.2123 13.5769 89.5092 12.4519 90.1029 11.4675C90.7123 10.4675 91.5483 9.6941 92.6108 9.14722C93.6733 8.58472 94.8686 8.30347 96.1967 8.30347C97.4467 8.30347 98.5873 8.56128 99.6186 9.07691C100.65 9.57691 101.47 10.3191 102.08 11.3035C102.689 12.2878 102.994 13.4832 102.994 14.8894C102.994 15.0457 102.986 15.2253 102.97 15.4285C102.955 15.6316 102.939 15.8191 102.923 15.991H92.8686V13.6472H100.556L98.8686 14.3035C98.8842 13.7253 98.7748 13.2253 98.5405 12.8035C98.3217 12.3816 98.0092 12.0535 97.603 11.8191C97.2123 11.5847 96.7514 11.4675 96.2202 11.4675C95.6889 11.4675 95.2201 11.5847 94.8139 11.8191C94.4233 12.0535 94.1186 12.3894 93.8998 12.8269C93.6811 13.2488 93.5717 13.7488 93.5717 14.3269V15.0066C93.5717 15.6316 93.6967 16.1707 93.9467 16.6238C94.2123 17.0769 94.5873 17.4285 95.0717 17.6785C95.5561 17.9129 96.1342 18.03 96.8061 18.03C97.4311 18.03 97.9623 17.9441 98.3998 17.7722C98.853 17.5847 99.2983 17.3035 99.7358 16.9285L102.08 19.366C101.47 20.0379 100.72 20.5535 99.8295 20.9129C98.9389 21.2566 97.8842 21.4285 96.6655 21.4285Z" fill="var(--fill-0, #73F36C)"/>
</g>
</g>
</svg>
