<svg preserveAspectRatio="none" width="100%" height="100%" overflow="visible" style="display: block;" viewBox="0 0 92.3575 22.0461" fill="none" xmlns="http://www.w3.org/2000/svg">
<g id="Turtle Club">
<path d="M6.31147 21.7819V5.84177H0V1.23294H18.406V5.84177H12.1239V21.7819H6.31147Z" fill="var(--fill-0, #73F36C)"/>
<path d="M26.685 22.0461C25.3933 22.0461 24.2289 21.7916 23.1917 21.2828C22.174 20.774 21.3716 19.9814 20.7845 18.905C20.217 17.8091 19.9332 16.4294 19.9332 14.7659V5.87112H25.5108V13.8558C25.5108 15.0888 25.7358 15.9695 26.1859 16.4979C26.6556 17.0263 27.3112 17.2905 28.1528 17.2905C28.7007 17.2905 29.1998 17.1632 29.6499 16.9088C30.1 16.6544 30.4621 16.2532 30.7361 15.7053C31.01 15.1377 31.147 14.4136 31.147 13.5329V5.87112H36.7246V21.7819H31.4112V17.2905L32.4387 18.5527C31.8907 19.727 31.0981 20.6076 30.0609 21.1947C29.0236 21.7623 27.8983 22.0461 26.685 22.0461Z" fill="var(--fill-0, #73F36C)"/>
<path d="M40.3172 21.7819V5.87112H45.6306V10.5093L44.838 9.18831C45.3077 7.99451 46.071 7.10406 47.1278 6.51695C48.1846 5.91026 49.4664 5.60692 50.9733 5.60692V10.6267C50.7189 10.5876 50.4939 10.568 50.2982 10.568C50.122 10.5484 49.9263 10.5387 49.7111 10.5387C48.576 10.5387 47.6562 10.8518 46.9516 11.478C46.2471 12.0847 45.8948 13.0828 45.8948 14.4723V21.7819H40.3172Z" fill="var(--fill-0, #73F36C)"/>
<path d="M60.8664 22.0461C58.8311 22.0461 57.2459 21.547 56.1108 20.5489C54.9757 19.5313 54.4082 18.0048 54.4082 15.9695V2.31909H59.9858V15.9107C59.9858 16.4783 60.1423 16.9284 60.4554 17.2611C60.7686 17.5742 61.1698 17.7308 61.659 17.7308C62.3244 17.7308 62.892 17.5644 63.3617 17.2317L64.7414 21.136C64.2717 21.4492 63.6944 21.6742 63.0094 21.8112C62.3244 21.9678 61.6101 22.0461 60.8664 22.0461ZM52.0891 10.6267V6.45823H63.6259V10.6267H52.0891Z" fill="var(--fill-0, #73F36C)"/>
<path d="M66.8921 21.7819V0H72.4697V21.7819H66.8921Z" fill="var(--fill-0, #73F36C)"/>
<path d="M84.4315 22.0461C82.5527 22.0461 80.9088 21.6938 79.4997 20.9893C78.1102 20.2652 77.024 19.2866 76.2412 18.0537C75.478 16.8012 75.0964 15.3823 75.0964 13.7971C75.0964 12.2119 75.4682 10.8029 76.2119 9.56993C76.9751 8.31742 78.0221 7.34869 79.3529 6.66372C80.6837 5.95919 82.1809 5.60692 83.8443 5.60692C85.41 5.60692 86.8386 5.92983 88.1303 6.57566C89.4219 7.20191 90.4494 8.1315 91.2126 9.36444C91.9759 10.5974 92.3575 12.0945 92.3575 13.8558C92.3575 14.0516 92.3477 14.2766 92.3281 14.531C92.3086 14.7854 92.289 15.0203 92.2694 15.2356H79.6758V12.3H89.3045L87.1909 13.122C87.2105 12.3979 87.0735 11.7716 86.7799 11.2432C86.5059 10.7148 86.1145 10.3038 85.6057 10.0103C85.1164 9.71671 84.5391 9.56993 83.8737 9.56993C83.2083 9.56993 82.6212 9.71671 82.1124 10.0103C81.6231 10.3038 81.2415 10.7246 80.9675 11.2726C80.6935 11.801 80.5565 12.4272 80.5565 13.1513V14.0026C80.5565 14.7854 80.7131 15.4606 81.0262 16.0282C81.3589 16.5957 81.8286 17.036 82.4353 17.3492C83.042 17.6427 83.7661 17.7895 84.6076 17.7895C85.3904 17.7895 86.0558 17.6819 86.6038 17.4666C87.1713 17.2317 87.7291 16.8795 88.277 16.4098L91.2126 19.4628C90.4494 20.3043 89.51 20.9501 88.3945 21.4002C87.2789 21.8308 85.9579 22.0461 84.4315 22.0461Z" fill="var(--fill-0, #73F36C)"/>
</g>
</svg>
