<svg preserveAspectRatio="none" width="100%" height="100%" overflow="visible" style="display: block;" viewBox="0 0 26 26" fill="none" xmlns="http://www.w3.org/2000/svg">
<g id="logo" filter="url(#filter0_i_655_9218)">
<g clip-path="url(#clip0_655_9218)">
<rect width="26" height="26" rx="13" fill="url(#paint0_linear_655_9218)" fill-opacity="0.6"/>
<g id="Vector">
<path d="M7.69125 11.2207C9.22298 10.368 10.982 9.88307 12.8528 9.88307C14.863 9.88307 16.7442 10.443 18.353 11.4174C18.3031 8.47376 15.9339 6.10307 13.0187 6.10307C10.1688 6.10307 7.84073 8.36882 7.69125 11.2207Z" fill="url(#paint1_linear_655_9218)"/>
<path d="M23.4883 22.3012C23.5575 21.8019 23.5933 21.2917 23.5933 20.773C23.5933 17.4564 22.131 14.4862 19.8245 12.4888C19.9029 12.4341 19.9858 12.3859 20.073 12.3448C21.57 11.639 23.7916 13.2645 25.0351 15.9756C26.2785 18.6867 26.0729 21.4566 24.5759 22.1625C24.243 22.3195 23.8742 22.3611 23.4883 22.3012Z" fill="url(#paint2_linear_655_9218)"/>
<path d="M16.2332 31.1126C19.3816 30.055 21.8841 27.5603 22.9848 24.3952C23.3825 25.6255 23.1933 27.4419 22.372 29.2326C21.1286 31.9437 18.907 33.5693 17.4099 32.8634C16.7991 32.5754 16.4033 31.9437 16.2332 31.1126Z" fill="url(#paint3_linear_655_9218)"/>
<path d="M2.79926 24.6135C3.9537 27.7187 6.46737 30.1481 9.6048 31.1561C9.4294 31.9634 9.03717 32.5762 8.43821 32.8586C6.94118 33.5645 4.71959 31.9389 3.47614 29.2279C2.70314 27.5425 2.49013 25.8344 2.79926 24.6135Z" fill="url(#paint4_linear_655_9218)"/>
<path d="M5.93956 12.4385C3.5993 14.4361 2.11228 17.4285 2.11228 20.773C2.11228 21.2993 2.14911 21.817 2.22029 22.3233C1.88511 22.3542 1.56489 22.3053 1.27234 22.1673C-0.224691 21.4615 -0.430265 18.6915 0.813178 15.9804C2.05662 13.2693 4.27821 11.6438 5.77525 12.3496C5.83187 12.3763 5.88664 12.406 5.93956 12.4385Z" fill="url(#paint5_linear_655_9218)"/>
<path d="M10.5901 25.3606C10.8062 25.0591 11.1517 24.8806 11.5194 24.8807L14.3641 24.8807C14.7317 24.8807 15.0772 25.0591 15.2933 25.3607L17.0676 27.8356C17.4533 28.3737 17.3201 29.1376 16.7362 29.4408C14.5077 30.5977 12.1474 30.7468 9.26057 29.4182C8.63402 29.1299 8.46292 28.328 8.86746 27.7637L10.5901 25.3606Z" fill="url(#paint6_linear_655_9218)"/>
<path d="M16.5636 24.3462C16.3457 24.0437 16.2846 23.6535 16.3993 23.2974L17.2904 20.5316C17.4045 20.1771 17.6792 19.8995 18.0291 19.7849L20.916 18.839C21.5548 18.6297 22.2403 19.0188 22.3058 19.6962C22.3354 20.0026 22.3506 20.3133 22.3506 20.6275C22.3507 22.4011 22.3506 23.1848 21.0877 25.386C20.7658 25.9471 20.3881 26.4713 19.963 26.9519C19.5156 27.4575 18.7374 27.3634 18.3422 26.8149L16.5636 24.3462Z" fill="url(#paint7_linear_655_9218)"/>
<path d="M20.4395 17.4177C21.0771 17.2065 21.4062 16.484 21.0685 15.8964C20.8325 15.4858 20.5674 15.0947 20.2761 14.7261C20.2315 14.6697 20.1925 14.6095 20.1538 14.5488C19.5886 13.6627 17.5028 12.1435 16.5415 11.8584C16.4818 11.8407 16.4222 11.8225 16.3643 11.7994C15.9106 11.6187 15.4398 11.4728 14.9551 11.365C14.2988 11.2189 13.7217 11.7611 13.7217 12.4424L13.7215 15.5324C13.7215 15.9042 13.8965 16.2537 14.1926 16.473L16.5294 18.2038C16.8277 18.4248 17.2127 18.4868 17.5639 18.3705L20.4395 17.4177Z" fill="url(#paint8_linear_655_9218)"/>
<path d="M5.92037 26.9519C5.49513 26.4713 5.1175 25.947 4.79553 25.3859C3.90412 23.9255 3.53256 22.3084 3.53256 20.6274C3.53256 20.3132 3.54778 20.0025 3.57742 19.6962C3.64297 19.0188 4.32851 18.6297 4.9673 18.839L7.85411 19.7848C8.20406 19.8995 8.47872 20.1771 8.59291 20.5315L9.48396 23.2975C9.59865 23.6535 9.53749 24.0438 9.3196 24.3462L7.54111 26.8148C7.14593 27.3634 6.36774 27.4575 5.92037 26.9519Z" fill="url(#paint9_linear_655_9218)"/>
<path d="M8.31963 18.3705C8.67083 18.4868 9.0558 18.4248 9.35414 18.2039L11.6908 16.4731C11.9869 16.2538 12.1619 15.9043 12.1619 15.5325L12.1617 12.4426C12.1616 11.7612 11.5847 11.2242 10.9306 11.3805C10.4188 11.5028 9.92108 11.6634 9.43241 11.8345C7.84612 12.39 6.39918 13.746 5.6748 14.6418C5.35681 15.0349 5.06903 15.4543 4.81495 15.8964C4.47716 16.484 4.80624 17.2064 5.44387 17.4177L8.31963 18.3705Z" fill="url(#paint10_linear_655_9218)"/>
<path d="M11.9488 23.2994C11.4493 23.2994 11.0071 22.9721 10.8547 22.4898L10.2301 20.5124C10.0797 20.0363 10.2457 19.516 10.6426 19.2195L12.26 18.0109C12.6653 17.7081 13.2178 17.7081 13.6231 18.0109L15.2404 19.2195C15.6373 19.516 15.8033 20.0363 15.653 20.5124L15.0283 22.4898C14.876 22.9721 14.4337 23.2994 13.9343 23.2994H11.9488Z" fill="url(#paint11_linear_655_9218)"/>
</g>
</g>
<rect x="0.25" y="0.25" width="25.5" height="25.5" rx="12.75" stroke="url(#paint12_linear_655_9218)" stroke-width="0.5"/>
</g>
<defs>
<filter id="filter0_i_655_9218" x="0" y="0" width="26" height="26" filterUnits="userSpaceOnUse" color-interpolation-filters="sRGB">
<feFlood flood-opacity="0" result="BackgroundImageFix"/>
<feBlend mode="normal" in="SourceGraphic" in2="BackgroundImageFix" result="shape"/>
<feColorMatrix in="SourceAlpha" type="matrix" values="0 0 0 0 0 0 0 0 0 0 0 0 0 0 0 0 0 0 127 0" result="hardAlpha"/>
<feOffset/>
<feGaussianBlur stdDeviation="1.07701"/>
<feComposite in2="hardAlpha" operator="arithmetic" k2="-1" k3="1"/>
<feColorMatrix type="matrix" values="0 0 0 0 0.45098 0 0 0 0 0.952941 0 0 0 0 0.423529 0 0 0 1 0"/>
<feBlend mode="normal" in2="shape" result="effect1_innerShadow_655_9218"/>
</filter>
<linearGradient id="paint0_linear_655_9218" x1="0" y1="13" x2="26" y2="13" gradientUnits="userSpaceOnUse">
<stop stop-color="#121312"/>
<stop offset="1" stop-color="#73F36C" stop-opacity="0"/>
</linearGradient>
<linearGradient id="paint1_linear_655_9218" x1="17.7303" y1="7.71859" x2="17.7303" y2="25.6184" gradientUnits="userSpaceOnUse">
<stop stop-color="#73F36C"/>
<stop offset="1" stop-color="#73F36C" stop-opacity="0"/>
</linearGradient>
<linearGradient id="paint2_linear_655_9218" x1="17.7303" y1="7.71859" x2="17.7303" y2="25.6184" gradientUnits="userSpaceOnUse">
<stop stop-color="#73F36C"/>
<stop offset="1" stop-color="#73F36C" stop-opacity="0"/>
</linearGradient>
<linearGradient id="paint3_linear_655_9218" x1="17.7303" y1="7.71859" x2="17.7303" y2="25.6184" gradientUnits="userSpaceOnUse">
<stop stop-color="#73F36C"/>
<stop offset="1" stop-color="#73F36C" stop-opacity="0"/>
</linearGradient>
<linearGradient id="paint4_linear_655_9218" x1="17.7303" y1="7.71859" x2="17.7303" y2="25.6184" gradientUnits="userSpaceOnUse">
<stop stop-color="#73F36C"/>
<stop offset="1" stop-color="#73F36C" stop-opacity="0"/>
</linearGradient>
<linearGradient id="paint5_linear_655_9218" x1="17.7303" y1="7.71859" x2="17.7303" y2="25.6184" gradientUnits="userSpaceOnUse">
<stop stop-color="#73F36C"/>
<stop offset="1" stop-color="#73F36C" stop-opacity="0"/>
</linearGradient>
<linearGradient id="paint6_linear_655_9218" x1="17.7303" y1="7.71859" x2="17.7303" y2="25.6184" gradientUnits="userSpaceOnUse">
<stop stop-color="#73F36C"/>
<stop offset="1" stop-color="#73F36C" stop-opacity="0"/>
</linearGradient>
<linearGradient id="paint7_linear_655_9218" x1="17.7303" y1="7.71859" x2="17.7303" y2="25.6184" gradientUnits="userSpaceOnUse">
<stop stop-color="#73F36C"/>
<stop offset="1" stop-color="#73F36C" stop-opacity="0"/>
</linearGradient>
<linearGradient id="paint8_linear_655_9218" x1="17.7303" y1="7.71859" x2="17.7303" y2="25.6184" gradientUnits="userSpaceOnUse">
<stop stop-color="#73F36C"/>
<stop offset="1" stop-color="#73F36C" stop-opacity="0"/>
</linearGradient>
<linearGradient id="paint9_linear_655_9218" x1="17.7303" y1="7.71859" x2="17.7303" y2="25.6184" gradientUnits="userSpaceOnUse">
<stop stop-color="#73F36C"/>
<stop offset="1" stop-color="#73F36C" stop-opacity="0"/>
</linearGradient>
<linearGradient id="paint10_linear_655_9218" x1="17.7303" y1="7.71859" x2="17.7303" y2="25.6184" gradientUnits="userSpaceOnUse">
<stop stop-color="#73F36C"/>
<stop offset="1" stop-color="#73F36C" stop-opacity="0"/>
</linearGradient>
<linearGradient id="paint11_linear_655_9218" x1="17.7303" y1="7.71859" x2="17.7303" y2="25.6184" gradientUnits="userSpaceOnUse">
<stop stop-color="#73F36C"/>
<stop offset="1" stop-color="#73F36C" stop-opacity="0"/>
</linearGradient>
<linearGradient id="paint12_linear_655_9218" x1="1.82143" y1="-5.7647e-06" x2="14.2088" y2="28.5177" gradientUnits="userSpaceOnUse">
<stop stop-color="white" stop-opacity="0.4"/>
<stop offset="0.405687" stop-color="white" stop-opacity="0.01"/>
<stop offset="0.574372" stop-color="white" stop-opacity="0.01"/>
<stop offset="1" stop-color="white" stop-opacity="0.1"/>
</linearGradient>
<clipPath id="clip0_655_9218">
<rect width="26" height="26" rx="13" fill="white"/>
</clipPath>
</defs>
</svg>
