<svg preserveAspectRatio="none" width="100%" height="100%" overflow="visible" style="display: block;" viewBox="0 0 31.6325 31.6325" fill="none" xmlns="http://www.w3.org/2000/svg">
<g id="Turtle Iso">
<g id="Vector">
<path d="M10.6426 7.81134C12.1326 6.99327 13.8438 6.528 15.6637 6.528C17.6192 6.528 19.4492 7.06523 21.0143 8.00014C20.9656 5.17585 18.661 2.90131 15.8251 2.90131C13.0527 2.90131 10.788 5.07517 10.6426 7.81134Z" fill="var(--fill-0, #73F36C)"/>
<path d="M26.0098 18.4425C26.0771 17.9634 26.1119 17.4739 26.1119 16.9762C26.1119 13.7942 24.6894 10.9444 22.4457 9.02803C22.522 8.97553 22.6026 8.92935 22.6874 8.88989C24.1437 8.21266 26.3049 9.77229 27.5145 12.3734C28.7241 14.9745 28.5241 17.6322 27.0678 18.3094C26.7439 18.46 26.3852 18.5 26.0098 18.4425Z" fill="var(--fill-0, #73F36C)"/>
<path d="M18.9521 26.8965C22.0148 25.8818 24.4493 23.4883 25.52 20.4515C25.9068 21.632 25.7229 23.3747 24.9239 25.0928C23.7143 27.6939 21.5531 29.2535 20.0968 28.5763C19.5026 28.3 19.1176 27.6939 18.9521 26.8965Z" fill="var(--fill-0, #73F36C)"/>
<path d="M5.88371 20.661C7.00674 23.6402 9.45201 25.9711 12.5041 26.9382C12.3334 27.7128 11.9519 28.3008 11.3692 28.5717C9.91293 29.2489 7.75178 27.6893 6.54218 25.0882C5.79021 23.4712 5.583 21.8323 5.88371 20.661Z" fill="var(--fill-0, #73F36C)"/>
<path d="M8.93856 8.97976C6.66198 10.8964 5.21542 13.7674 5.21542 16.9762C5.21542 17.4812 5.25125 17.9779 5.3205 18.4637C4.99443 18.4933 4.68293 18.4464 4.39834 18.314C2.94204 17.6368 2.74206 14.9792 3.95167 12.3781C5.16128 9.77693 7.32242 8.21731 8.77872 8.89453C8.8338 8.92015 8.88708 8.94859 8.93856 8.97976Z" fill="var(--fill-0, #73F36C)"/>
<path d="M13.4625 21.3778C13.6728 21.0885 14.0089 20.9173 14.3666 20.9173L17.1339 20.9174C17.4915 20.9174 17.8275 21.0886 18.0378 21.3779L19.7638 23.7524C20.139 24.2687 20.0095 25.0016 19.4414 25.2925C17.2735 26.4025 14.9775 26.5455 12.1692 25.2708C11.5597 24.9942 11.3933 24.2248 11.7868 23.6834L13.4625 21.3778Z" fill="var(--fill-0, #73F36C)"/>
<path d="M19.2736 20.4045C19.0616 20.1143 19.0021 19.7399 19.1137 19.3983L19.9805 16.7446C20.0916 16.4045 20.3588 16.1382 20.6992 16.0282L23.5075 15.1207C24.1289 14.9199 24.7958 15.2932 24.8595 15.9432C24.8883 16.2371 24.9031 16.5352 24.9031 16.8367C24.9031 18.5383 24.9031 19.2903 23.6745 21.4021C23.3613 21.9405 22.994 22.4434 22.5804 22.9045C22.1452 23.3896 21.3882 23.2993 21.0038 22.7731L19.2736 20.4045Z" fill="var(--fill-0, #73F36C)"/>
<path d="M23.044 13.7571C23.6643 13.5544 23.9844 12.8612 23.6558 12.2974C23.4262 11.9035 23.1684 11.5283 22.885 11.1746C22.8417 11.1205 22.8036 11.0627 22.766 11.0045C22.2162 10.1543 20.1872 8.69674 19.252 8.42323C19.1939 8.40623 19.136 8.38876 19.0796 8.36661C18.6383 8.19319 18.1803 8.05326 17.7088 7.94979C17.0703 7.80968 16.509 8.32982 16.5089 8.9835L16.5087 11.9482C16.5087 12.3049 16.679 12.6402 16.9671 12.8507L19.2402 14.5113C19.5305 14.7233 19.9049 14.7828 20.2466 14.6712L23.044 13.7571Z" fill="var(--fill-0, #73F36C)"/>
<path d="M8.91989 22.9045C8.50623 22.4434 8.13887 21.9404 7.82566 21.4021C6.95851 20.0009 6.59706 18.4494 6.59706 16.8365C6.59706 16.5351 6.61186 16.237 6.6407 15.9431C6.70446 15.2932 7.37135 14.9199 7.99276 15.1207L10.801 16.0281C11.1414 16.1381 11.4086 16.4045 11.5197 16.7446L12.3865 19.3984C12.4981 19.7399 12.4386 20.1143 12.2266 20.4045L10.4965 22.773C10.1121 23.2993 9.3551 23.3896 8.91989 22.9045Z" fill="var(--fill-0, #73F36C)"/>
<path d="M11.2539 14.6712C11.5955 14.7828 11.97 14.7233 12.2602 14.5113L14.5333 12.8508C14.8213 12.6404 14.9916 12.305 14.9916 11.9483L14.9914 8.98371C14.9913 8.32995 14.4301 7.81471 13.7938 7.96471C13.2959 8.08207 12.8117 8.23615 12.3364 8.4003C10.7932 8.93323 9.38568 10.2343 8.68101 11.0938C8.37167 11.4709 8.09172 11.8733 7.84455 12.2974C7.51595 12.8612 7.83608 13.5543 8.45636 13.757L11.2539 14.6712Z" fill="var(--fill-0, #73F36C)"/>
<path d="M14.7843 19.4002C14.2984 19.4002 13.8682 19.0862 13.72 18.6235L13.1124 16.7262C12.9661 16.2694 13.1276 15.7703 13.5137 15.4857L15.087 14.3262C15.4813 14.0356 16.0188 14.0356 16.413 14.3262L17.9864 15.4857C18.3725 15.7703 18.5339 16.2694 18.3877 16.7262L17.78 18.6235C17.6318 19.0862 17.2016 19.4002 16.7157 19.4002H14.7843Z" fill="var(--fill-0, #73F36C)"/>
</g>
</g>
</svg>
