<svg width="139" height="35" viewBox="0 0 139 35" fill="none" xmlns="http://www.w3.org/2000/svg">
<path fill-rule="evenodd" clip-rule="evenodd" d="M41.4087 18.1416V5.05171C41.4087 4.92218 41.5008 4.82993 41.6298 4.82993H42.9218C43.051 4.82993 43.1431 4.92218 43.1431 5.05171V16.7549H48.6421C48.7712 16.7549 48.8635 16.8474 48.8635 16.9767V18.1416C48.8635 18.2709 48.7712 18.3634 48.6421 18.3634H41.6298C41.5008 18.3634 41.4087 18.2709 41.4087 18.1416ZM53.7351 17.1801C54.9348 17.1801 55.8389 16.4407 56.3188 15.2758V13.6488H54.5104C52.7758 13.6488 51.8344 14.2589 51.8344 15.4607C51.8344 16.4775 52.5174 17.1801 53.7351 17.1801ZM56.3741 18.1416V16.8288C55.7281 17.9013 54.6577 18.5668 53.2924 18.5668C51.447 18.5668 50.2293 17.3648 50.2293 15.5531C50.2293 13.6673 51.6133 12.5024 54.5104 12.5024H56.3188V11.2267C56.3188 9.98807 55.6543 9.39645 54.3075 9.39645C53.1266 9.39645 52.5361 9.85875 52.2223 10.7646C52.1853 10.8939 52.093 10.9495 51.9637 10.9127L50.8013 10.5982C50.6722 10.5611 50.5982 10.4687 50.6354 10.3394C51.0228 8.95269 52.2223 8.00977 54.3441 8.00977C56.6139 8.00977 57.9609 9.04515 57.9609 11.1898V18.1416C57.9609 18.2709 57.8687 18.3634 57.7394 18.3634H56.5956C56.4664 18.3634 56.3741 18.2709 56.3741 18.1416ZM59.6588 16.1633C59.6218 16.034 59.6771 15.9415 59.7879 15.8859L60.7475 15.4607C60.8768 15.4053 60.9873 15.4607 61.0245 15.6087C61.3195 16.6256 62.2608 17.2172 63.5155 17.2172C64.7885 17.2172 65.6373 16.5885 65.6373 15.6641C65.6373 14.7212 65.0841 14.4068 62.9065 13.7781C60.9873 13.2052 59.9355 12.5394 59.9355 10.8571C59.9355 9.11907 61.412 8.00977 63.497 8.00977C65.3609 8.00977 66.7264 8.87898 67.1506 10.3579C67.1876 10.4874 67.1323 10.5982 67.0028 10.6351L66.0247 10.9864C65.8957 11.042 65.7851 10.9864 65.7483 10.8385C65.4343 9.85875 64.7332 9.37792 63.5338 9.37792C62.2976 9.37792 61.5595 9.91414 61.5595 10.7646C61.5595 11.7077 62.2055 11.9664 64.0503 12.5024C66.2831 13.1498 67.2616 13.9445 67.2616 15.59C67.2616 17.365 65.7666 18.5668 63.5155 18.5668C61.5225 18.5668 60.0832 17.6793 59.6588 16.1633ZM75.252 12.6505V11.9293C75.252 10.358 74.4027 9.41482 72.8714 9.41482C71.3211 9.41482 70.4723 10.358 70.4723 11.9293V12.6505H75.252ZM68.8671 14.5917V12.0218C68.8671 9.48895 70.3249 8.00981 72.8344 8.00981C75.3253 8.00981 76.8018 9.48895 76.8018 12.0218V13.6119C76.8018 13.7413 76.7093 13.8337 76.5803 13.8337H70.4723V14.5917C70.4723 16.2187 71.4136 17.1431 72.982 17.1431C74.1076 17.1431 74.8641 16.681 75.2335 15.7752C75.2888 15.6456 75.381 15.59 75.5103 15.6456L76.5622 15.9969C76.7093 16.0523 76.7466 16.1263 76.7093 16.2558C76.1929 17.7535 74.9199 18.5669 72.982 18.5669C70.4542 18.5669 68.8671 17.106 68.8671 14.5917ZM78.9979 18.1416V8.43502C78.9979 8.3057 79.09 8.21324 79.2191 8.21324H80.4C80.5293 8.21324 80.6216 8.3057 80.6216 8.43502V9.89563C81.1936 8.89732 82.1716 8.08393 83.7772 8.08393C83.925 8.08393 83.9988 8.17617 83.9988 8.3057V9.47061C83.9988 9.59993 83.925 9.69239 83.7772 9.69239C82.2086 9.69239 81.1936 10.3209 80.6588 11.5597V18.1416C80.6588 18.2709 80.5663 18.3634 80.4372 18.3634H79.2191C79.09 18.3634 78.9979 18.2709 78.9979 18.1416ZM94.7119 16.7549C96.7045 16.7549 97.8489 15.7195 97.8489 13.5934V9.59993C97.8489 7.47356 96.7045 6.4384 94.7119 6.4384H92.073V16.7549H94.7119ZM90.3384 18.1416V5.05171C90.3384 4.92218 90.4309 4.82993 90.5599 4.82993H94.6934C97.7936 4.82993 99.5835 6.64185 99.5835 9.56286V13.5934C99.5835 16.5515 97.7936 18.3634 94.6934 18.3634H90.5599C90.4309 18.3634 90.3384 18.2709 90.3384 18.1416ZM102.075 18.1416V8.43502C102.075 8.3057 102.167 8.21324 102.296 8.21324H103.514C103.643 8.21324 103.736 8.3057 103.736 8.43502V18.1416C103.736 18.2709 103.643 18.3634 103.514 18.3634H102.296C102.167 18.3634 102.075 18.2709 102.075 18.1416ZM102.075 6.41965V4.55234C102.075 4.42303 102.167 4.33057 102.296 4.33057H103.514C103.643 4.33057 103.736 4.42303 103.736 4.55234V6.41965C103.736 6.54918 103.643 6.64185 103.514 6.64185H102.296C102.167 6.64185 102.075 6.54918 102.075 6.41965ZM109.936 13.8892C111.283 13.8892 112.132 13.1865 112.132 11.7259C112.132 10.3948 111.412 9.52585 109.917 9.52585C108.497 9.52585 107.685 10.3024 107.685 11.6705C107.685 13.0387 108.478 13.8892 109.936 13.8892ZM110.139 21.0441C112.132 21.0441 112.999 20.3232 112.999 19.3061C112.999 18.5852 112.593 17.8828 111.098 17.8828H109.235C107.832 17.8828 107.408 18.6038 107.408 19.3432C107.408 20.3601 108.201 21.0441 110.139 21.0441ZM105.858 19.5467C105.858 18.5852 106.337 17.7348 107.371 17.3095C106.91 16.9584 106.67 16.4591 106.67 15.9968C106.67 15.4052 107.039 14.8689 107.703 14.5918C106.688 14.0001 106.153 12.9833 106.153 11.652C106.153 9.63663 107.426 8.21331 109.936 8.21331H114.328C114.457 8.21331 114.549 8.30555 114.549 8.43508V9.34115C114.549 9.47046 114.457 9.56292 114.328 9.56292H112.538C113.147 10.0065 113.608 10.8015 113.608 11.9294C113.608 13.7967 112.335 15.1278 109.954 15.1278H109.88H109.105C108.404 15.1278 108.109 15.4422 108.109 15.8304C108.109 16.2188 108.423 16.5332 109.105 16.5332H111.209C113.663 16.5332 114.604 17.7164 114.604 19.1954C114.604 20.8778 113.368 22.2461 110.065 22.2461C107.02 22.2461 105.858 21.0627 105.858 19.5467ZM116.428 18.1416V8.43502C116.428 8.3057 116.52 8.21324 116.649 8.21324H117.867C117.996 8.21324 118.089 8.3057 118.089 8.43502V18.1416C118.089 18.2709 117.996 18.3634 117.867 18.3634H116.649C116.52 18.3634 116.428 18.2709 116.428 18.1416ZM116.428 6.41965V4.55234C116.428 4.42303 116.52 4.33057 116.649 4.33057H117.867C117.996 4.33057 118.089 4.42303 118.089 4.55234V6.41965C118.089 6.54918 117.996 6.64185 117.867 6.64185H116.649C116.52 6.64185 116.428 6.54918 116.428 6.41965ZM121.469 15.7751V9.59984H120.103C119.974 9.59984 119.882 9.50738 119.882 9.37785V8.43493C119.882 8.30562 119.974 8.21316 120.103 8.21316H121.469V5.82816C121.469 5.69863 121.561 5.60617 121.69 5.60617H122.889C123.018 5.60617 123.111 5.69863 123.111 5.82816V8.21316H125.27C125.399 8.21316 125.492 8.30562 125.492 8.43493V9.37785C125.492 9.50738 125.399 9.59984 125.27 9.59984H123.111V15.5345C123.111 16.4221 123.572 16.8658 124.513 16.8658H125.27C125.399 16.8658 125.492 16.9583 125.492 17.0878V18.1415C125.492 18.271 125.399 18.3633 125.27 18.3633H124.273C122.502 18.3633 121.469 17.4018 121.469 15.7751ZM130.226 17.1801C131.426 17.1801 132.33 16.4407 132.81 15.2758V13.6488H131.001C129.266 13.6488 128.325 14.2589 128.325 15.4607C128.325 16.4775 129.008 17.1801 130.226 17.1801ZM132.865 18.1416V16.8288C132.219 17.9013 131.148 18.5668 129.783 18.5668C127.938 18.5668 126.72 17.3648 126.72 15.5531C126.72 13.6673 128.104 12.5024 131.001 12.5024H132.81V11.2267C132.81 9.98807 132.145 9.39645 130.798 9.39645C129.617 9.39645 129.026 9.85875 128.713 10.7646C128.676 10.8939 128.584 10.9495 128.454 10.9127L127.292 10.5982C127.163 10.5611 127.089 10.4687 127.126 10.3394C127.513 8.95269 128.713 8.00977 130.835 8.00977C133.104 8.00977 134.452 9.04515 134.452 11.1898V18.1416C134.452 18.2709 134.359 18.3634 134.23 18.3634H133.086C132.957 18.3634 132.865 18.2709 132.865 18.1416ZM137.006 18.1416V4.55234C137.006 4.42303 137.098 4.33057 137.227 4.33057H138.446C138.575 4.33057 138.667 4.42303 138.667 4.55234V18.1416C138.667 18.2709 138.575 18.3634 138.446 18.3634H137.227C137.098 18.3634 137.006 18.2709 137.006 18.1416Z" fill="#F9F9F9"/>
<path fill-rule="evenodd" clip-rule="evenodd" d="M16.6438 0C13.9455 0 11.758 2.19156 11.758 4.89505C11.758 7.59854 13.9455 9.7901 16.6438 9.7901H22.4075V21.8186C22.4075 24.5221 24.5948 26.7137 27.2931 26.7137C29.9914 26.7137 32.1787 24.5221 32.1787 21.8186V12.9825C32.1787 10.2792 29.9914 8.08747 27.2931 8.08747H24.1069V4.89505C24.1069 2.19156 21.9193 0 19.2213 0H16.6438ZM13.4575 4.89505C13.4575 3.13213 14.8838 1.70263 16.6438 1.70263H17.7792H19.2213C20.9808 1.70263 22.4075 3.13213 22.4075 4.89505V8.08747H16.6438C14.8838 8.08747 13.4575 6.65818 13.4575 4.89505ZM24.1069 21.8186V9.7901H27.2931C29.0526 9.7901 30.4794 11.2196 30.4794 12.9825V21.8186C30.4794 23.5817 29.0526 25.011 27.2931 25.011C25.5332 25.011 24.1069 23.5817 24.1069 21.8186ZM4.88559 0C2.18732 0 0 2.19156 0 4.89505V21.8186C0 24.5219 2.18732 26.7137 4.88559 26.7137H8.07184V29.9061C8.07184 32.6096 10.2594 34.8011 12.9574 34.8011H18.9149C21.6131 34.8011 23.8007 32.6096 23.8007 29.9061C23.8007 27.2026 21.6131 25.011 18.9149 25.011H9.77117V4.89505C9.77117 2.19156 7.58385 0 4.88559 0ZM1.69933 21.8186V4.89505C1.69933 3.13213 3.12608 1.70263 4.88559 1.70263C6.64531 1.70263 8.07184 3.13213 8.07184 4.89505V25.011H4.88559C3.12608 25.011 1.69933 23.5817 1.69933 21.8186ZM9.77117 29.9061V26.7137H18.9149C20.6746 26.7137 22.1013 28.143 22.1013 29.9061C22.1013 31.669 20.6746 33.0985 18.9149 33.0985H12.9574C11.1977 33.0985 9.77117 31.669 9.77117 29.9061Z" fill="#F9F9F9"/>
<path fill-rule="evenodd" clip-rule="evenodd" d="M50.4691 30.7012C51.2762 30.7012 51.9301 29.8559 51.9301 28.3148C51.9301 26.789 51.2762 25.9291 50.4691 25.9291C49.6622 25.9291 49.0083 26.789 49.0083 28.3148C49.0083 29.8457 49.6622 30.7012 50.4691 30.7012ZM47.5093 28.315C47.5093 26.1854 48.8342 25.1191 50.4691 25.1191C52.104 25.1191 53.4291 26.1854 53.4291 28.315C53.4291 30.4488 52.104 31.5114 50.4691 31.5114C48.8342 31.5114 47.5093 30.459 47.5093 28.315Z" fill="#F9F9F9"/>
<path fill-rule="evenodd" clip-rule="evenodd" d="M41.7722 25.3516V31.2767H42.7996V27.2966L45.9731 31.2767H46.8379V25.3516H45.859V28.6181L43.2238 25.3516H41.7722Z" fill="#F9F9F9"/>
<path fill-rule="evenodd" clip-rule="evenodd" d="M74.5088 28.7964L75.2593 26.94L76.0095 28.7964H74.5088ZM74.876 25.3516L72.4773 31.2767H73.5134L74.1747 29.6471H76.352L77.0214 31.2767H78.7016L76.2785 25.3516H74.876Z" fill="#F9F9F9"/>
<path fill-rule="evenodd" clip-rule="evenodd" d="M65.2255 29.2336C65.1978 29.7764 65.1559 30.3137 64.5561 30.5142C64.2893 30.6037 63.7975 30.6024 63.5204 30.4901C63.3886 30.4366 63.3056 30.3906 63.2019 30.2873C63.0024 30.0898 62.924 29.6699 62.9161 29.3959V25.3516H61.3748V29.2336C61.3899 29.7698 61.4753 30.3092 61.8232 30.7417C62.4207 31.4825 63.5157 31.5888 64.4009 31.4786C64.9514 31.4105 65.4336 31.227 65.8206 30.822C66.0883 30.5419 66.2542 30.1 66.3022 29.7202C66.3299 29.4993 66.3343 29.4626 66.3343 29.2336V25.3516H65.2255V29.2336Z" fill="#F9F9F9"/>
<path fill-rule="evenodd" clip-rule="evenodd" d="M68.8633 26.1863C69.5422 26.1863 70.2163 26.071 70.5116 26.7781C70.6281 27.0576 70.6358 27.6918 70.3643 27.9611C70.0409 28.2824 69.545 28.3133 69.1166 28.3503L70.6989 31.2767H72.3219L70.8865 28.6665C71.7425 28.3661 72.1444 27.8814 72.1021 26.9564C72.0564 25.9557 71.2135 25.3516 70.2505 25.3516H67.3298V31.2767H68.8633V26.1863Z" fill="#F9F9F9"/>
<path fill-rule="evenodd" clip-rule="evenodd" d="M58.8788 31.2767L56.5945 25.3516H55.3951L53.1765 31.2767H54.2533L55.7459 27.2723L57.2633 31.2767H58.8788Z" fill="#F9F9F9"/>
<path fill-rule="evenodd" clip-rule="evenodd" d="M58.9521 25.3516H57.6957L57.3125 26.3646L57.859 27.783L58.0548 27.2723L59.5313 31.2767H61.2366L58.9521 25.3516Z" fill="#F9F9F9"/>
<path fill-rule="evenodd" clip-rule="evenodd" d="M56.1622 29.209L55.395 31.2763H56.374L56.6591 30.4975L56.1622 29.209Z" fill="#F9F9F9"/>
<path fill-rule="evenodd" clip-rule="evenodd" d="M86.3328 30.5065C85.872 31.1359 85.1185 31.3962 84.4147 31.3962C82.6311 31.3962 81.5671 29.936 81.5671 28.375C81.5671 26.6296 82.5221 25.1191 84.4147 25.1191C85.7215 25.1191 86.76 25.7065 86.9862 27.1079H86.1906C86.0313 26.2014 85.3026 25.7904 84.4147 25.7904C82.966 25.7904 82.363 27.0491 82.363 28.3331C82.363 29.5834 83.0832 30.7249 84.4147 30.7249C85.646 30.7249 86.3832 29.8604 86.3328 28.7696H84.4234V28.0979H87.0447V31.2534H86.5422L86.3328 30.5065Z" fill="#757776"/>
<path fill-rule="evenodd" clip-rule="evenodd" d="M88.0781 26.915H88.7481V27.8296H88.7649C89.1083 27.1334 89.5859 26.7893 90.3562 26.8143V27.5697C89.2089 27.5697 88.79 28.2242 88.79 29.3237V31.2536H88.0781V26.915Z" fill="#757776"/>
<path fill-rule="evenodd" clip-rule="evenodd" d="M92.6106 30.7253C93.3563 30.7253 93.9591 30.1377 93.9591 29.0889C93.9591 28.0313 93.3563 27.4442 92.6106 27.4442C91.8651 27.4442 91.2623 28.0313 91.2623 29.0889C91.2623 30.1377 91.8651 30.7253 92.6106 30.7253ZM92.6106 26.8145C93.9844 26.8145 94.713 27.813 94.713 29.0889C94.713 30.3558 93.9844 31.3546 92.6106 31.3546C91.237 31.3546 90.5083 30.3558 90.5083 29.0889C90.5083 27.813 91.237 26.8145 92.6106 26.8145Z" fill="#757776"/>
<path fill-rule="evenodd" clip-rule="evenodd" d="M99.1379 31.2536H98.468V30.5655H98.4511C98.1494 31.1026 97.6638 31.3544 97.044 31.3544C95.9051 31.3544 95.5532 30.6997 95.5532 29.7681V26.915H96.2651V29.8522C96.2651 30.381 96.6 30.7251 97.1445 30.7251C98.0072 30.7251 98.4261 30.146 98.4261 29.3654V26.915H99.1379V31.2536Z" fill="#757776"/>
<path fill-rule="evenodd" clip-rule="evenodd" d="M102.248 27.4432C101.293 27.4432 100.924 28.2656 100.924 29.0794C100.924 29.9356 101.31 30.7243 102.289 30.7243C103.261 30.7243 103.588 29.8934 103.588 29.0459C103.588 28.2321 103.169 27.4432 102.248 27.4432ZM100.238 26.9145H100.949V27.502H100.966C101.201 27.0233 101.753 26.8135 102.348 26.8135C103.68 26.8135 104.341 27.871 104.341 29.096C104.341 30.3216 103.688 31.3536 102.365 31.3536C101.921 31.3536 101.285 31.1859 100.966 30.6738H100.949V32.9143H100.238V26.9145Z" fill="#757776"/>
</svg>
