<svg width="105" height="29" viewBox="0 0 105 29" fill="none" xmlns="http://www.w3.org/2000/svg">
<g clip-path="url(#clip0_1431_27575)">
<path d="M39.6954 12.7009C42.4821 12.7009 44.6512 11.323 44.8981 8.23155H42.3231C41.9528 9.7861 40.9652 10.4221 39.6954 10.4221C37.526 10.4221 36.6618 8.65551 36.6618 6.34136C36.6618 4.02719 37.5438 2.27834 39.6954 2.27834C40.9828 2.27834 41.9528 2.91427 42.3231 4.45117H44.8981C44.6512 1.37741 42.4821 -0.000488281 39.6954 -0.000488281C36.2032 -0.000488281 33.9458 2.349 33.9458 6.34136C33.9458 10.3514 36.2032 12.7009 39.6954 12.7009Z" fill="white"/>
<path d="M63.9318 12.7009C67.4944 12.7009 69.8222 10.1217 69.8222 6.34136C69.8222 2.54332 67.4944 -0.000488281 63.9318 -0.000488281C60.3691 -0.000488281 58.041 2.54332 58.041 6.34136C58.041 10.1217 60.3691 12.7009 63.9318 12.7009ZM63.9318 10.4221C61.9035 10.4221 60.757 8.79684 60.757 6.34136C60.757 3.86821 61.9035 2.27834 63.9318 2.27834C65.9597 2.27834 67.1063 3.86821 67.1063 6.34136C67.1063 8.79684 65.9597 10.4221 63.9318 10.4221Z" fill="white"/>
<path d="M87.7046 12.7011C90.7029 12.7011 92.7838 11.1289 92.7838 7.82544V0.158691H90.1207V7.6311C90.1207 9.46831 89.2215 10.4046 87.7046 10.4046C86.1878 10.4046 85.2707 9.46831 85.2707 7.6311V0.158691H82.6077V7.82544C82.6077 11.1289 84.671 12.7011 87.7046 12.7011Z" fill="white"/>
<path d="M99.5156 12.7009C102.32 12.7009 104.524 11.5526 104.524 8.88515C104.524 7.01264 103.413 5.89973 100.521 5.3521L98.863 5.03414C97.7518 4.8398 97.452 4.23918 97.452 3.6739C97.452 2.91427 97.9812 2.19001 99.392 2.19001C100.591 2.19001 101.508 2.68464 101.473 3.79754H104.189C104.189 1.27142 102.179 -0.000488281 99.3569 -0.000488281C96.5878 -0.000488281 94.6831 1.20075 94.6831 3.5679C94.6831 5.81138 96.3233 6.69465 98.2633 7.08331L100.045 7.41895C101.156 7.63091 101.72 8.05489 101.72 8.90283C101.72 9.90975 100.962 10.5104 99.5331 10.5104C97.8401 10.5104 97.1346 9.59176 97.0817 8.47885H94.3479C94.3479 11.1993 96.3586 12.7009 99.5156 12.7009Z" fill="white"/>
<path d="M54.1983 0.282715V5.2873H51.6008V7.44207H54.1983V12.4466H56.8596V0.282715H54.1983Z" fill="white"/>
<path d="M49.3371 5.2873H49.3377V7.44207H49.3371V12.4466H46.6758V0.282715H49.3371V5.2873Z" fill="white"/>
<path fill-rule="evenodd" clip-rule="evenodd" d="M66.8416 28.0052H58.2349V15.8413H66.6653V18.1003H60.8804V20.8285H66.136V22.8616H60.8804V25.7462H66.8416V28.0052Z" fill="white"/>
<path d="M39.8365 28.2595C43.3992 28.2595 45.727 25.6803 45.727 21.9C45.727 18.1019 43.3992 15.5581 39.8365 15.5581C36.2739 15.5581 33.9458 18.1019 33.9458 21.9C33.9458 25.6803 36.2739 28.2595 39.8365 28.2595ZM39.8365 25.9806C37.8083 25.9806 36.6618 24.3554 36.6618 21.9C36.6618 19.4268 37.8083 17.8369 39.8365 17.8369C41.8645 17.8369 43.011 19.4268 43.011 21.9C43.011 24.3554 41.8645 25.9806 39.8365 25.9806Z" fill="white"/>
<path fill-rule="evenodd" clip-rule="evenodd" d="M0.0078125 25.1391L3.16463 28.2816L6.32145 25.1391L3.16463 21.9966L0.0078125 25.1391Z" fill="white"/>
<path fill-rule="evenodd" clip-rule="evenodd" d="M28.4192 3.14205L25.2623 -0.000488281L22.1055 3.14205L25.2623 6.28459L28.4192 3.14205Z" fill="white"/>
<path fill-rule="evenodd" clip-rule="evenodd" d="M17.3703 17.283L14.2135 20.4256L11.0567 17.283L7.89985 14.1405L11.0567 10.998L14.2135 7.85546L17.3703 10.998L20.5271 14.1405L17.3703 17.283ZM26.8407 14.1405L23.6839 10.9979L20.5271 7.85537L17.3702 4.71284L14.2135 1.57031L11.0566 4.71284L7.89982 7.85537L4.743 10.9979L1.58618 14.1405L4.743 17.283L7.89982 20.4256L11.0566 23.5681L14.2135 26.7106L17.3702 23.5681L20.5271 20.4256L23.6839 17.283L26.8407 14.1405Z" fill="white"/>
<path fill-rule="evenodd" clip-rule="evenodd" d="M22.1018 25.145L25.2586 28.2875L28.4154 25.145L25.2586 22.0024L22.1018 25.145Z" fill="white"/>
<path fill-rule="evenodd" clip-rule="evenodd" d="M6.31365 3.144L3.15682 0.00146484L0 3.144L3.15682 6.28654L6.31365 3.144Z" fill="white"/>
<path d="M49.2608 15.8413H46.6758V28.0052H49.2605V20.1682H49.2608V15.8413Z" fill="white"/>
<path d="M51.5237 23.8127L54.0679 28.0052H56.8594V15.8413H54.2747V23.8347H54.2229L51.5237 19.3944V23.8127Z" fill="white"/>
<path d="M78.6265 8.05508L81.2189 12.5244H78.6087L76.3035 8.47909V6.11191C77.7459 6.11021 78.3796 5.38634 78.3796 4.29238C78.3796 3.17947 77.7445 2.45518 76.2984 2.45518H74.041V5.21483H74.0405V8.71357H74.041V12.5244H71.3955V0.158691H76.3867C79.667 0.158691 81.0955 1.87223 81.0955 4.29238C81.0955 6.05889 80.3371 7.43679 78.6265 8.05508Z" fill="white"/>
</g>
<defs>
<clipPath id="clip0_1431_27575">
<rect width="104.666" height="28.2882" fill="white"/>
</clipPath>
</defs>
</svg>
