<svg width="142" height="31" viewBox="0 0 142 31" fill="none" xmlns="http://www.w3.org/2000/svg">
<path d="M42.0182 0C38.2114 0 36.0566 2.15477 36.0566 5.71015C36.0566 9.15779 38.2114 11.3844 41.9464 11.3844C45.394 11.3844 47.3692 9.62466 47.7283 6.82345H45.1426C44.8912 8.40362 43.9216 9.37327 41.9823 9.37327C39.8634 9.37327 38.5705 8.11632 38.5705 5.67424C38.5705 3.23216 39.7198 1.97521 41.9823 1.97521C43.8497 1.97521 44.8194 2.90895 45.0708 4.52503H47.6565C47.2974 1.83156 45.5376 0 42.0182 0Z" fill="white"/>
<path fill-rule="evenodd" clip-rule="evenodd" d="M54.3362 11.4203C57.9634 11.4203 60.19 9.19371 60.19 5.67424C60.19 2.01112 57.748 0 54.3362 0C50.709 0 48.4824 2.04704 48.4824 5.74607C48.4824 9.40918 50.9245 11.4203 54.3362 11.4203ZM54.3362 2.01112C56.3474 2.01112 57.6761 3.19625 57.6761 5.74607C57.6761 8.22406 56.4551 9.40918 54.3362 9.40918C52.3251 9.40918 50.9963 8.15223 50.9963 5.67424C50.9963 3.16034 52.2533 2.01112 54.3362 2.01112Z" fill="white"/>
<path d="M64.0686 0.179565H61.5906V11.2048H64.0686V3.73494C64.715 2.47799 65.6128 1.90338 67.0493 1.90338C68.845 1.90338 69.7428 2.72938 69.7428 4.48911V11.2048H72.2208V4.1659C72.1849 1.50834 70.7484 0 68.1986 0C65.936 0 64.6791 1.18513 64.0686 3.12442V0.179565Z" fill="white"/>
<path d="M75.8479 7.82901H73.2622C73.5495 10.0556 75.2015 11.3844 78.7569 11.3844C82.3123 11.3844 83.8206 9.91196 83.8206 7.93675C83.8206 6.24885 83.0305 5.09963 80.6244 4.84824L77.3204 4.4532C76.3507 4.34546 75.9916 3.95042 75.9916 3.30399C75.9916 2.5139 76.6021 1.9393 78.4696 1.9393C80.373 1.9393 81.0194 2.58573 81.163 3.51947H83.7488C83.3537 1.43652 82.025 0 78.5055 0C74.986 0 73.5495 1.50834 73.5495 3.48355C73.5495 5.20737 74.4473 6.24885 76.8894 6.53615L80.0857 6.89528C81.1271 7.03893 81.4144 7.46989 81.4144 8.08041C81.4144 8.87049 80.6962 9.48101 78.7928 9.48101C76.8894 9.48101 76.0275 8.94232 75.8479 7.82901Z" fill="white"/>
<path fill-rule="evenodd" clip-rule="evenodd" d="M84.7546 5.74607C84.7546 8.97823 86.7658 11.4203 90.5007 11.4203C93.6251 11.4203 95.5644 9.94788 96.139 7.68536H93.5892C93.2301 8.79866 92.2604 9.4451 90.5725 9.4451C88.7051 9.4451 87.484 8.3318 87.2685 6.3925H96.1749C96.2109 2.47799 94.523 0 90.5007 0C86.9094 0 84.7546 2.33434 84.7546 5.74607ZM93.5892 4.63277H87.3045C87.6277 2.87303 88.7769 1.9393 90.5007 1.9393C92.4759 1.9393 93.4097 3.01668 93.5892 4.63277Z" fill="white"/>
<path d="M99.9096 0.179565H97.4316V11.2048H99.9096V3.73494C100.556 2.47799 101.454 1.90338 102.89 1.90338C104.686 1.90338 105.584 2.72938 105.584 4.48911V11.2048H108.062V4.1659C108.062 1.54426 106.625 0 104.04 0C101.777 0 100.52 1.18513 99.9096 3.12442V0.179565Z" fill="white"/>
<path d="M111.689 7.82901H109.103C109.391 10.0556 111.043 11.3844 114.598 11.3844C118.153 11.3844 119.662 9.91196 119.662 7.93675C119.662 6.24885 118.872 5.09963 116.465 4.84824L113.161 4.4532C112.192 4.34546 111.833 3.95042 111.833 3.30399C111.833 2.5139 112.443 1.9393 114.311 1.9393C116.214 1.9393 116.86 2.58573 117.004 3.51947H119.59C119.195 1.43652 117.866 0 114.347 0C110.827 0 109.391 1.50834 109.391 3.48355C109.391 5.20737 110.288 6.24885 112.73 6.53615L115.927 6.89528C116.968 7.03893 117.256 7.46989 117.256 8.08041C117.256 8.87049 116.537 9.48101 114.634 9.48101C112.73 9.4451 111.869 8.94232 111.689 7.82901Z" fill="white"/>
<path d="M126.88 13.9334L131.513 0.178711H128.927L125.695 9.83928L122.391 0.178711H119.662L123.289 10.0188H125.695L125.085 11.8863H120.883V13.9334H126.88Z" fill="white"/>
<path d="M134.063 7.82901H131.441C131.729 10.0556 133.381 11.3844 136.936 11.3844C140.491 11.3844 142 9.91196 142 7.93675C142 6.24885 141.21 5.09963 138.804 4.84824L135.5 4.4532C134.53 4.34546 134.171 3.95042 134.171 3.30399C134.171 2.5139 134.781 1.9393 136.649 1.9393C138.516 1.9393 139.199 2.58573 139.342 3.51947H141.928C141.569 1.43652 140.24 0 136.721 0C133.201 0 131.765 1.50834 131.765 3.48355C131.765 5.20737 132.662 6.24885 135.105 6.53615L138.301 6.89528C139.342 7.03893 139.63 7.46989 139.63 8.08041C139.63 8.87049 138.911 9.48101 137.008 9.48101C135.105 9.4451 134.243 8.94232 134.063 7.82901Z" fill="white"/>
<path fill-rule="evenodd" clip-rule="evenodd" d="M30.3105 15.3699V11.204V0.178711H19.2852H15.1552C6.78754 0.178711 0 6.96625 0 15.3699C0 23.7376 6.78754 30.5251 15.1552 30.5251C23.523 30.5251 30.3105 23.7376 30.3105 15.3699ZM11.7076 7.75634L19.2852 0.178711V11.204H30.3105L22.7329 18.8175H11.7076V7.75634Z" fill="white"/>
</svg>
