<svg width="140" height="27" viewBox="0 0 140 27" fill="none" xmlns="http://www.w3.org/2000/svg">
<g clip-path="url(#clip0_1431_27631)">
<path d="M16.2441 21.7263H14.5864L12.6036 19.8984V18.9606L14.6568 16.9919V13.8747L17.3397 12.1168L20.3962 14.4378L16.2441 21.7263ZM9.38425 16.805L9.68806 13.8747L8.68418 11.2498H14.6106L13.6309 13.8747L13.9105 16.805H11.6239H9.38425ZM10.7374 19.8984L8.75462 21.7502H7.07415L2.89863 14.4378L5.9778 12.1406L8.68418 13.8747V16.9919L10.7374 18.9606V19.8984ZM7.0514 5.8353H16.2206L17.317 10.5235H5.97853L7.0514 5.8353ZM11.6474 0L0.00512695 6.75V20.25L11.6474 27L23.2904 20.25V6.75L11.6474 0Z" fill="white"/>
<path d="M36.3555 19.7578C33.2756 19.7578 31.0132 17.3444 31.0132 14.3672C31.0132 11.39 33.2991 8.90657 36.379 8.90657C38.3383 8.90657 39.5521 9.63281 40.509 10.6875L39.0391 12.2816C38.3156 11.5076 37.5458 10.9929 36.3555 10.9929C34.6288 10.9929 33.3688 12.4924 33.3688 14.3203C33.3688 16.1951 34.653 17.6953 36.4729 17.6953C37.592 17.6953 38.4088 17.1567 39.1551 16.4066L40.5787 17.8361C39.5521 18.9377 38.3625 19.7578 36.3555 19.7578ZM45.0815 19.7578H42.7017V8.92966H45.0815V11.4607C45.7346 9.91437 46.9249 8.8358 48.7448 8.92966V11.4607H48.6054C46.5286 11.4607 45.0815 12.8201 45.0815 15.5858V19.7578ZM61.1803 8.88273L55.9305 22.6643H53.5279L54.6712 19.7578L50.1677 8.88273H52.7112L55.7676 16.9221L58.7073 8.88273H61.1803ZM68.1797 10.9691C66.5704 10.9691 65.1702 12.2816 65.1702 14.321C65.1702 16.3605 66.5938 17.6722 68.1797 17.6722C69.8132 17.6722 71.1429 16.3836 71.1429 14.3203C71.1429 12.257 69.7897 10.9691 68.1797 10.9691ZM68.7168 19.7347C67.0136 19.7347 65.94 18.8669 65.2164 17.9061V22.6643H62.8373V8.88273H65.2172V10.8283C65.987 9.7505 67.0598 8.88273 68.7168 8.88273C71.1664 8.88273 73.5462 10.8283 73.5462 14.2972C73.5462 17.766 71.1898 19.7347 68.7168 19.7347ZM78.7491 11.1561V16.2659C78.7491 17.1798 79.2158 17.5545 80.0325 17.5545H80.966V19.6878H79.3325C77.6057 19.6878 76.3692 18.9139 76.3692 16.6413V11.1561H75.063V9.11736H76.3692V6.25781H78.7491V9.11736H80.9652V11.1561H78.7491ZM88.4547 10.9691C86.5416 10.9691 85.3286 12.4685 85.3286 14.2972C85.3286 16.1489 86.6348 17.6714 88.4782 17.6714C90.3913 17.6714 91.6043 16.172 91.6043 14.3441C91.6513 12.4924 90.3216 10.9691 88.4547 10.9691ZM88.4547 19.7586C85.3051 19.7586 82.9723 17.3437 82.9723 14.3672C82.9723 11.3676 85.3286 8.90657 88.5017 8.90657C91.6748 8.90657 94.0077 11.3199 94.0077 14.3203C94.0077 17.2737 91.6748 19.7586 88.4547 19.7586ZM116.71 10.9691C114.796 10.9691 113.583 12.4685 113.583 14.2972C113.583 16.1489 114.89 17.6714 116.733 17.6714C118.646 17.6714 119.859 16.172 119.859 14.3441C119.883 12.4924 118.576 10.9691 116.71 10.9691ZM116.71 19.7586C113.56 19.7586 111.226 17.3437 111.226 14.3672C111.226 11.3676 113.583 8.90657 116.756 8.90657C119.93 8.90657 122.262 11.3199 122.262 14.3203C122.262 17.2737 119.906 19.7586 116.71 19.7586ZM136.355 8.88273C138.618 8.88273 139.995 10.3129 139.995 12.8678V19.7347H137.615V13.594C137.615 11.93 136.844 11.063 135.515 11.063C134.231 11.063 133.299 11.9769 133.299 13.6402V19.7578H130.919V13.594C130.919 11.9769 130.125 11.063 128.819 11.063C127.512 11.063 126.602 12.0469 126.602 13.664V19.7578H124.223V8.90657H126.602V10.6875C127.279 9.77359 128.165 8.90657 129.752 8.90657C131.245 8.90657 132.272 9.63281 132.832 10.7345C133.695 9.60972 134.792 8.88273 136.355 8.88273ZM96.0844 17.4375L97.111 16.8513H97.2505L98.3013 17.4375L98.371 17.5545V18.7738L98.3013 18.8908L97.2512 19.477H97.111L96.0844 18.8908L96.0147 18.7738V17.5545L96.0844 17.4375ZM105.58 19.7347C102.5 19.664 100.284 17.2029 100.331 14.2264C100.378 11.2499 102.711 8.81271 105.814 8.88273C107.773 8.92966 108.987 9.67974 109.92 10.7583L108.427 12.3285C107.727 11.5546 106.957 10.9922 105.767 10.9691C104.041 10.9453 102.757 12.3993 102.734 14.2503C102.687 16.1251 103.947 17.6483 105.767 17.6722C106.887 17.6953 107.727 17.1798 108.474 16.4297L109.873 17.8822C108.824 18.9846 107.61 19.7816 105.58 19.7347Z" fill="white"/>
</g>
<defs>
<clipPath id="clip0_1431_27631">
<rect width="140" height="27" fill="white"/>
</clipPath>
</defs>
</svg>
