<svg width="138" height="27" viewBox="0 0 138 27" fill="none" xmlns="http://www.w3.org/2000/svg">
<path d="M131.322 5.25686C131.322 5.25686 132.05 5.25686 132.353 5.47622C132.353 5.47622 132.658 5.69558 132.892 6.37172L137.964 21.092C137.964 21.092 138.034 21.2778 137.977 21.43C137.977 21.43 137.919 21.581 137.66 21.581H135.505C135.505 21.581 135.247 21.581 135.095 21.5229C135.095 21.5229 134.942 21.4649 134.835 21.2094L133.804 18.0222H127.851L126.819 21.1836C126.819 21.1836 126.749 21.3939 126.621 21.4868C126.621 21.4868 126.49 21.5797 126.211 21.5797H124.055C124.055 21.5797 123.797 21.5797 123.727 21.4287C123.727 21.4287 123.658 21.2765 123.727 21.0907L128.788 6.37043L129.022 5.813C129.022 5.813 129.152 5.60267 129.315 5.48783C129.315 5.48783 129.492 5.3588 129.726 5.31234C129.726 5.31234 129.96 5.25428 130.288 5.25428L131.322 5.25686ZM130.877 8.39627H130.747L129.784 11.626L128.566 15.6003H133.065L131.847 11.697L130.877 8.39627ZM82.9303 5.29041C82.9303 5.29041 83.258 5.29041 83.3751 5.37299C83.3751 5.37299 83.5051 5.45428 83.5051 5.77945V11.8092H90.794V5.80655C90.794 5.80655 90.794 5.50332 90.924 5.41041C90.924 5.41041 91.054 5.31751 91.3336 5.31751H93.1191C93.1191 5.31751 93.4468 5.31751 93.5535 5.40009C93.5535 5.40009 93.6575 5.48138 93.6575 5.80655V21.11C93.6575 21.11 93.6575 21.4352 93.5535 21.5178C93.5535 21.5178 93.4494 21.5991 93.1191 21.5991H91.3206C91.3206 21.5991 91.0397 21.5991 90.911 21.5062C90.911 21.5062 90.781 21.4133 90.781 21.11V14.2712H83.4921V21.1049C83.4921 21.1049 83.4921 21.43 83.3621 21.5126C83.3621 21.5126 83.232 21.5939 82.9173 21.5939H81.1513C81.1513 21.5939 80.8939 21.5939 80.7547 21.501C80.7547 21.501 80.6247 21.4081 80.6247 21.1049V5.80139C80.6247 5.80139 80.6247 5.49815 80.7547 5.40525C80.7547 5.40525 80.8939 5.31234 81.1527 5.31234L82.9303 5.29041ZM75.7884 5.29041C75.7884 5.29041 76.0459 5.29041 76.1291 5.38331C76.1291 5.38331 76.2111 5.47751 76.2111 5.73171V7.35496C76.2111 7.35496 76.2111 7.58722 76.1291 7.68013C76.1291 7.68013 76.0459 7.77303 75.7884 7.77303H71.3371V21.0945C71.3371 21.0945 71.3371 21.4197 71.2331 21.5023C71.2331 21.5023 71.129 21.5836 70.7987 21.5836H68.9781C68.9781 21.5836 68.6972 21.5836 68.5685 21.4907C68.5685 21.4907 68.4385 21.3978 68.4385 21.0945V7.77174H64.0795C64.0795 7.77174 63.822 7.77174 63.7517 7.67884C63.7517 7.67884 63.6815 7.58593 63.6815 7.35367V5.74461C63.6815 5.74461 63.6815 5.48912 63.7517 5.39622C63.7517 5.39622 63.822 5.30331 64.0795 5.30331L75.7884 5.29041ZM110.213 5.27364C110.213 5.27364 110.517 5.27364 110.599 5.40267C110.591 5.5429 110.619 5.68294 110.681 5.80913V7.27625C110.681 7.27625 110.681 7.57948 110.599 7.684C110.599 7.684 110.516 7.78723 110.213 7.78723H103.979C103.979 7.78723 103.088 7.78722 102.724 8.18207C102.724 8.18207 102.362 8.57821 102.362 9.32015V11.7718H109.437C109.437 11.7718 109.742 11.7718 109.824 11.9008C109.824 11.9008 109.906 12.0299 109.906 12.3396V13.6299C109.906 13.6299 109.906 13.9086 109.824 14.0351C109.824 14.0351 109.741 14.1641 109.437 14.1641H102.362V17.5487C102.362 17.5487 102.362 18.2932 102.749 18.6764C102.749 18.6764 103.135 19.061 103.979 19.061H110.351C110.351 19.061 110.679 19.061 110.762 19.19C110.751 19.3416 110.779 19.4935 110.844 19.6313V21.07C110.844 21.07 110.844 21.3255 110.75 21.4649C110.75 21.4649 110.657 21.5939 110.351 21.5939H103.675C103.675 21.5939 102.433 21.5939 101.633 21.2455C101.633 21.2455 100.836 20.8971 100.353 20.3165C100.353 20.3165 99.8722 19.7358 99.6849 18.9913C99.6849 18.9913 99.4964 18.248 99.4964 17.4338V9.48532C99.4964 9.48532 99.4964 8.6724 99.7174 7.91626C99.7174 7.91626 99.9411 7.16012 100.446 6.57817C100.446 6.57817 100.95 5.99752 101.746 5.64913C101.746 5.64913 102.546 5.30073 103.671 5.30073L110.213 5.27364ZM118.458 5.29041C118.458 5.29041 118.783 5.29041 118.903 5.37299C118.903 5.37299 119.033 5.45428 119.033 5.77945V21.0829C119.033 21.0829 119.033 21.4081 118.903 21.4907C118.903 21.4907 118.772 21.572 118.458 21.572H116.679C116.679 21.572 116.398 21.572 116.269 21.4791C116.269 21.4791 116.139 21.3862 116.139 21.0829V5.80655C116.139 5.80655 116.139 5.50332 116.269 5.41041C116.269 5.41041 116.399 5.31751 116.679 5.31751L118.458 5.29041ZM44.434 0C51.9179 0 57.9805 6.01558 57.9805 13.4415C57.9794 17.0061 56.5519 20.4244 54.0117 22.945C51.4714 25.4655 48.0264 26.882 44.434 26.883H14.5725C13.5062 26.883 12.6401 26.0249 12.6401 24.9656C12.6401 23.9062 13.5049 23.0481 14.5725 23.0481H21.5297C22.5922 23.0481 23.4583 22.19 23.4583 21.1307C23.4583 20.0713 22.5805 19.2261 21.5297 19.2261H19.9796C18.9133 19.2261 18.0472 18.368 18.0472 17.3087C18.0472 16.2493 18.912 15.3912 19.9796 15.3912H24.6195C25.6937 15.3886 26.5259 14.5202 26.552 13.4738C26.552 12.4157 25.6872 11.5563 24.6195 11.5563H8.3838C7.31746 11.5563 6.45138 10.6982 6.45138 9.63887C6.45138 8.5795 7.31616 7.72142 8.3838 7.72142H20.3672C21.44 7.71884 22.2736 6.85043 22.2996 5.80397C22.2996 4.74588 21.4348 3.88651 20.3672 3.88651H17.6649C16.5986 3.88651 15.7325 3.02844 15.7325 1.96906C15.7325 0.909691 16.5986 0 17.6649 0H44.434ZM42.2688 4.47749C38.1075 4.47749 34.7446 7.82207 34.7446 11.9434V14.9306C34.7446 19.0597 38.1101 22.3965 42.2688 22.3965C46.4276 22.3965 49.793 19.0571 49.793 14.9306V11.9434C49.7917 9.96376 48.9985 8.06556 47.5877 6.66572C46.177 5.26589 44.2639 4.47886 42.2688 4.47749ZM44.8397 11.5357C45.3212 11.5367 45.7827 11.7269 46.1232 12.0648C46.4637 12.4026 46.6554 12.8605 46.6564 13.3383V13.5705C46.6554 14.0483 46.4637 14.5062 46.1232 14.8441C45.7827 15.1819 45.3212 15.3721 44.8397 15.3732H39.192C38.7105 15.3721 38.249 15.1819 37.9086 14.8441C37.5681 14.5062 37.3764 14.0483 37.3753 13.5705V13.3383C37.3764 12.8605 37.5681 12.4026 37.9086 12.0648C38.249 11.7269 38.7105 11.5367 39.192 11.5357H44.8397ZM8.50084 23.0352C9.50736 23.0352 10.3175 23.8391 10.3175 24.8378V25.0701C10.3175 26.0637 9.50736 26.8727 8.50084 26.8727H1.81669C1.33519 26.8717 0.873705 26.6814 0.533234 26.3436C0.192762 26.0058 0.00103068 25.5479 0 25.0701V24.8378C0 23.8391 0.814063 23.0352 1.81669 23.0352H8.50084Z" fill="#F9F9F9"/>
<path d="M29.4404 4.04639C30.1304 4.04639 30.6887 4.60735 30.6887 5.29824V5.46223C30.689 5.62625 30.657 5.78873 30.5944 5.94034C30.5318 6.09194 30.4398 6.22969 30.3238 6.34568C30.2079 6.46166 30.0701 6.55359 29.9185 6.6162C29.7669 6.6788 29.6044 6.71085 29.4404 6.71049H24.2968C23.6068 6.71049 23.0449 6.15222 23.0449 5.46223V5.29824C23.0456 4.96645 23.1778 4.64844 23.4124 4.41383C23.647 4.17922 23.965 4.0471 24.2968 4.04639H29.4404Z" fill="white"/>
<path d="M31.038 14.7051C31.3698 14.7058 31.6878 14.8379 31.9224 15.0725C32.1571 15.3071 32.2892 15.6251 32.2899 15.9569V16.1182C32.2892 16.45 32.1571 16.768 31.9224 17.0026C31.6878 17.2373 31.3698 17.3694 31.038 17.3701H28.2135C27.8817 17.3694 27.5637 17.2373 27.3291 17.0026C27.0945 16.768 26.9624 16.45 26.9617 16.1182V15.9569C26.9624 15.6251 27.0945 15.3071 27.3291 15.0725C27.5637 14.8379 27.8817 14.7058 28.2135 14.7051H31.038Z" fill="white"/>
</svg>
