<svg width="95" height="27" viewBox="0 0 95 27" fill="none" xmlns="http://www.w3.org/2000/svg">
<path d="M47.3634 13.2391H54.3251V13.8927C52.6835 14.1359 52.1059 14.3943 52.1059 16.6591V23.9096C49.7346 25.4144 46.9834 26.2048 44.1866 26.1744C36.3433 26.1744 31.312 20.976 31.312 13.6191C31.312 6.07979 37.0577 0.668519 45.053 0.668519C48.3818 0.668519 50.9658 1.35253 53.2003 2.46214V6.45979H52.5163C51.3307 3.23735 48.853 1.71733 44.9466 1.71733C37.9849 1.71733 33.1056 6.62699 33.1056 13.4367C33.1056 20.5048 37.9089 25.0496 44.5514 25.0496C46.7098 25.0496 48.7162 24.624 50.5098 23.712V16.6591C50.5098 14.3639 50.0082 14.1055 47.3938 13.8623L47.3634 13.2391ZM56.3619 23.712V19.4863H57.0459C58.4747 23.6816 61.1348 25.08 64.114 25.08C67.0172 25.08 70.1029 23.256 70.1029 19.8815C70.1029 17.6927 68.8109 16.4311 65.8772 15.0783L62.214 13.3911C59.1283 11.9623 57.2283 9.98623 57.2283 7.007C57.2283 3.60216 60.0556 0.65332 64.7676 0.65332C67.2452 0.65332 69.8293 1.44373 71.3949 2.41654V6.39899H70.7109C69.5709 2.81175 67.1236 1.74773 64.5852 1.74773C61.1348 1.74773 58.8091 3.83016 58.8091 6.83979C58.8091 9.39342 60.4204 10.7462 62.898 11.8559L66.5916 13.5431C69.8901 15.0479 71.6837 16.7655 71.6837 19.6079C71.6837 23.408 68.3093 26.1744 63.962 26.1744C61.2412 26.1592 58.5811 25.308 56.3619 23.712ZM94.6664 25.764V25.8704H92.4775L80.2566 13.1327H78.3262V21.9488C78.3262 24.8824 78.8582 25.0648 80.591 25.2168V25.8704H74.4501V25.2168C76.2438 25.08 76.715 24.8976 76.715 21.9488V5.06137C76.715 2.37094 76.3198 1.79333 74.4501 1.58053V0.942123H82.187C87.5375 0.942123 90.9423 3.23735 90.9423 6.931C90.9423 10.5486 87.6743 13.0263 82.5214 13.2087L94.6664 25.764ZM78.311 12.0535H81.8678C86.5647 12.0535 89.1791 10.1838 89.1791 6.96139C89.1791 3.84536 86.5951 2.02134 81.8982 2.02134H78.311V12.0535Z" fill="white"/>
<path d="M13.8474 9.10491V0H12.829V9.10491C13.1634 9.05931 13.4978 9.05931 13.8474 9.10491ZM6.52088 1.85442L5.65447 2.40163L10.5793 10.0625C10.8377 9.84972 11.1265 9.65212 11.4457 9.51531L6.52088 1.85442ZM1.36802 7.35689L0.942411 8.2841L9.22651 12.0689C9.33291 11.7497 9.46971 11.4305 9.65211 11.1417L1.36802 7.35689ZM0 14.7898L0.152002 15.8082L9.16571 14.5162C9.07451 14.1818 9.02891 13.8474 9.01371 13.4978L0 14.7898ZM9.75852 15.8082L2.87283 21.7667L3.54164 22.5419L10.4273 16.5834C10.1841 16.3554 9.95612 16.0818 9.75852 15.8082ZM9.07451 26.0987L10.0625 26.3875L12.6314 17.6474C12.2969 17.5866 11.9625 17.4954 11.6433 17.3586L9.07451 26.0987ZM16.6138 26.3875L17.6018 26.0987L15.0482 17.3586C14.729 17.4954 14.4098 17.5866 14.0602 17.6474L16.6138 26.3875ZM16.2338 16.5834L23.1195 22.5419L23.7883 21.7667L16.9026 15.8082C16.705 16.097 16.4922 16.3554 16.2338 16.5834ZM17.4954 14.501L26.5091 15.793L26.6611 14.7746L17.6474 13.4826C17.6322 13.8322 17.5866 14.1818 17.4954 14.501ZM25.7339 8.2993L25.3083 7.37209L17.0242 11.1569C17.2066 11.4457 17.3434 11.7649 17.4498 12.0841L25.7339 8.2993ZM21.0067 2.40163L20.1402 1.85442L15.2154 9.51531C15.5194 9.66732 15.8082 9.84972 16.0818 10.0625L21.0067 2.40163ZM9.07451 0.684008L10.0625 0.395206L11.7497 6.14087L10.7617 6.42968L9.07451 0.684008ZM14.9266 6.14087L16.6138 0.395206L17.6018 0.684008L15.9146 6.42968L14.9266 6.14087ZM2.87283 5.00086L3.54164 4.22565L8.0713 8.1473L7.40249 8.92251L2.87283 5.00086ZM0 11.9929L0.152002 10.9745L6.08007 11.8257L5.92807 12.8442L0 11.9929ZM1.01841 18.4834L6.47528 15.9602L6.90088 16.8874L1.44402 19.4106L1.01841 18.4834ZM5.66967 24.3811L8.90731 19.3346L9.77372 19.8818L6.53608 24.9283L5.66967 24.3811ZM12.829 20.7938H13.8474V26.7827H12.829V20.7938ZM16.9026 19.8818L17.769 19.3194L21.0067 24.3659L20.1402 24.9283L16.9026 19.8818ZM19.8514 16.933L20.277 16.0058L25.7339 18.4986L25.3083 19.4258L19.8514 16.933ZM20.581 11.8257L26.5091 10.9745L26.6611 11.9929L20.733 12.8442L20.581 11.8257ZM18.5898 8.1625L23.1195 4.24085L23.7883 5.01606L19.2586 8.9377L18.5898 8.1625Z" fill="white"/>
</svg>
