<svg width="100%" height="100%" overflow="visible" style="display: block;" viewBox="0 0 154 30" fill="none" xmlns="http://www.w3.org/2000/svg">
<g id="Group 1321314620">
<g id="Group 1321314619">
<path id="Vector" d="M146.548 5.86637C146.548 5.86637 147.36 5.86637 147.699 6.11116C147.699 6.11116 148.04 6.35596 148.301 7.11049L153.96 23.5375C153.96 23.5375 154.039 23.7448 153.975 23.9148C153.975 23.9148 153.91 24.0832 153.621 24.0832H151.216C151.216 24.0832 150.929 24.0832 150.759 24.0184C150.759 24.0184 150.588 23.9536 150.469 23.6685L149.318 20.1118H142.674L141.524 23.6397C141.524 23.6397 141.445 23.8744 141.302 23.9781C141.302 23.9781 141.157 24.0818 140.845 24.0818H138.438C138.438 24.0818 138.151 24.0818 138.073 23.9133C138.073 23.9133 137.996 23.7434 138.073 23.536L143.721 7.10905L143.982 6.48699C143.982 6.48699 144.127 6.25228 144.309 6.12412C144.309 6.12412 144.506 5.98013 144.767 5.92829C144.767 5.92829 145.028 5.86349 145.394 5.86349L146.548 5.86637ZM146.051 9.36978H145.906L144.832 12.974L143.473 17.409H148.494L147.134 13.0532L146.051 9.36978ZM92.5458 5.90381C92.5458 5.90381 92.9115 5.90381 93.0421 5.99597C93.0421 5.99597 93.1872 6.08669 93.1872 6.44955V13.1785H101.321V6.47979C101.321 6.47979 101.321 6.1414 101.466 6.03773C101.466 6.03773 101.611 5.93405 101.923 5.93405H103.916C103.916 5.93405 104.282 5.93405 104.401 6.02621C104.401 6.02621 104.517 6.11692 104.517 6.47979V23.5576C104.517 23.5576 104.517 23.9205 104.401 24.0127C104.401 24.0127 104.284 24.1034 103.916 24.1034H101.909C101.909 24.1034 101.595 24.1034 101.452 23.9997C101.452 23.9997 101.307 23.896 101.307 23.5576V15.9259H93.1727V23.5519C93.1727 23.5519 93.1727 23.9148 93.0276 24.0069C93.0276 24.0069 92.8824 24.0976 92.5312 24.0976H90.5605C90.5605 24.0976 90.2732 24.0976 90.1179 23.994C90.1179 23.994 89.9728 23.8903 89.9728 23.5519V6.47403C89.9728 6.47403 89.9728 6.13564 90.1179 6.03197C90.1179 6.03197 90.2732 5.92829 90.562 5.92829L92.5458 5.90381ZM84.5758 5.90381C84.5758 5.90381 84.8631 5.90381 84.956 6.00749C84.956 6.00749 85.0474 6.1126 85.0474 6.39628V8.20774C85.0474 8.20774 85.0474 8.46693 84.956 8.57061C84.956 8.57061 84.8631 8.67428 84.5758 8.67428H79.6083V23.5404C79.6083 23.5404 79.6083 23.9032 79.4922 23.9954C79.4922 23.9954 79.3761 24.0861 79.0075 24.0861H76.9759C76.9759 24.0861 76.6624 24.0861 76.5187 23.9824C76.5187 23.9824 76.3736 23.8788 76.3736 23.5404V8.67284H71.5092C71.5092 8.67284 71.2219 8.67284 71.1435 8.56917C71.1435 8.56917 71.0651 8.46549 71.0651 8.2063V6.41067C71.0651 6.41067 71.0651 6.12556 71.1435 6.02189C71.1435 6.02189 71.2219 5.91821 71.5092 5.91821L84.5758 5.90381ZM122.992 5.88509C122.992 5.88509 123.331 5.88509 123.423 6.02909C123.413 6.18558 123.445 6.34186 123.514 6.48267V8.1199C123.514 8.1199 123.514 8.45829 123.423 8.57493C123.423 8.57493 123.33 8.69012 122.992 8.69012H116.035C116.035 8.69012 115.041 8.69012 114.634 9.13075C114.634 9.13075 114.231 9.57281 114.231 10.4008V13.1367H122.126C122.126 13.1367 122.467 13.1367 122.558 13.2807C122.558 13.2807 122.649 13.4247 122.649 13.7703V15.2102C122.649 15.2102 122.649 15.5213 122.558 15.6624C122.558 15.6624 122.465 15.8064 122.126 15.8064H114.231V19.5834C114.231 19.5834 114.231 20.4142 114.662 20.8419C114.662 20.8419 115.093 21.271 116.035 21.271H123.146C123.146 21.271 123.511 21.271 123.604 21.415C123.592 21.5842 123.623 21.7537 123.696 21.9075V23.513C123.696 23.513 123.696 23.7981 123.591 23.9536C123.591 23.9536 123.487 24.0976 123.146 24.0976H115.695C115.695 24.0976 114.309 24.0976 113.417 23.7088C113.417 23.7088 112.527 23.3201 111.989 22.6721C111.989 22.6721 111.452 22.0241 111.243 21.1932C111.243 21.1932 111.033 20.3638 111.033 19.4552V10.5851C111.033 10.5851 111.033 9.67793 111.279 8.83412C111.279 8.83412 111.529 7.9903 112.092 7.34089C112.092 7.34089 112.655 6.69291 113.543 6.30412C113.543 6.30412 114.436 5.91533 115.691 5.91533L122.992 5.88509ZM132.192 5.90381C132.192 5.90381 132.555 5.90381 132.689 5.99597C132.689 5.99597 132.834 6.08669 132.834 6.44955V23.5274C132.834 23.5274 132.834 23.8903 132.689 23.9824C132.689 23.9824 132.544 24.0732 132.192 24.0732H130.207C130.207 24.0732 129.894 24.0731 129.75 23.9695C129.75 23.9695 129.605 23.8658 129.605 23.5274V6.47979C129.605 6.47979 129.605 6.1414 129.75 6.03773C129.75 6.03773 129.895 5.93405 130.207 5.93405L132.192 5.90381ZM49.586 0C57.9376 0 64.7031 6.71307 64.7031 15C64.7019 18.9779 63.1089 22.7925 60.2741 25.6053C57.4393 28.4181 53.5949 29.9989 49.586 30H16.2621C15.0721 30 14.1056 29.0424 14.1056 27.8602C14.1056 26.678 15.0707 25.7205 16.2621 25.7205H24.026C25.2117 25.7205 26.1782 24.7629 26.1782 23.5807C26.1782 22.3985 25.1986 21.4553 24.026 21.4553H22.2962C21.1062 21.4553 20.1397 20.4977 20.1397 19.3155C20.1397 18.1333 21.1048 17.1758 22.2962 17.1758H27.4741C28.6728 17.1729 29.6015 16.2038 29.6305 15.036C29.6305 13.8552 28.6655 12.8962 27.4741 12.8962H9.35587C8.16589 12.8962 7.19939 11.9387 7.19939 10.7565C7.19939 9.57425 8.16444 8.61668 9.35587 8.61668H22.7287C23.9259 8.6138 24.8561 7.64471 24.8851 6.47691C24.8851 5.29615 23.9201 4.33714 22.7287 4.33714H19.7131C18.5231 4.33714 17.5566 3.37957 17.5566 2.19737C17.5566 1.01517 18.5231 0 19.7131 0H49.586ZM47.1697 4.99664C42.5259 4.99664 38.7731 8.729 38.7731 13.3282V16.6617C38.7731 21.2696 42.5288 24.9933 47.1697 24.9933C51.8106 24.9933 55.5663 21.2667 55.5663 16.6617V13.3282C55.5648 11.119 54.6797 9.00073 53.1053 7.43859C51.531 5.87644 49.3962 4.99817 47.1697 4.99664ZM50.0387 12.8732C50.5761 12.8743 51.0911 13.0866 51.471 13.4636C51.8509 13.8406 52.0649 14.3516 52.0661 14.8848V15.144C52.0649 15.6772 51.8509 16.1882 51.471 16.5652C51.0911 16.9422 50.5761 17.1545 50.0387 17.1556H43.7362C43.1989 17.1545 42.6839 16.9422 42.3039 16.5652C41.924 16.1882 41.71 15.6772 41.7089 15.144V14.8848C41.71 14.3516 41.924 13.8406 42.3039 13.4636C42.6839 13.0866 43.1989 12.8743 43.7362 12.8732H50.0387ZM9.48648 25.7061C10.6097 25.7061 11.5138 26.6031 11.5138 27.7177V27.9769C11.5138 29.0856 10.6097 29.9885 9.48648 29.9885H2.02732C1.49 29.9873 0.975008 29.775 0.59506 29.398C0.215112 29.021 0.00115018 28.51 0 27.9769V27.7177C0 26.6031 0.90845 25.7061 2.02732 25.7061H9.48648Z" fill="var(--fill-0, #F9F9F9)"/>
</g>
<path id="Vector_2" d="M32.8538 4.51562C33.6238 4.51562 34.2468 5.14162 34.2468 5.91262V6.09562C34.2472 6.27867 34.2114 6.45998 34.1416 6.62917C34.0717 6.79835 33.9691 6.95208 33.8397 7.08151C33.7102 7.21094 33.5565 7.31353 33.3873 7.38339C33.2182 7.45326 33.0368 7.48902 32.8538 7.48862H27.1138C26.3438 7.48862 25.7168 6.86562 25.7168 6.09562V5.91262C25.7176 5.54236 25.865 5.18749 26.1268 4.92567C26.3887 4.66386 26.7435 4.51642 27.1138 4.51562H32.8538Z" fill="var(--fill-0, white)"/>
<path id="Vector_3" d="M34.6369 16.4102C35.0072 16.4109 35.362 16.5584 35.6238 16.8202C35.8857 17.082 36.0331 17.4369 36.0339 17.8072V17.9872C36.0331 18.3574 35.8857 18.7123 35.6238 18.9741C35.362 19.2359 35.0072 19.3834 34.6369 19.3842H31.4849C31.1146 19.3834 30.7598 19.2359 30.4979 18.9741C30.2361 18.7123 30.0887 18.3574 30.0879 17.9872V17.8072C30.0887 17.4369 30.2361 17.082 30.4979 16.8202C30.7598 16.5584 31.1146 16.4109 31.4849 16.4102H34.6369Z" fill="var(--fill-0, white)"/>
</g>
</svg>
