<svg width="100%" height="100%" overflow="visible" style="display: block;" viewBox="0 0 117.603 28.4062" fill="none" xmlns="http://www.w3.org/2000/svg">
<g id="Group">
<path id="Vector" d="M12.6196 21.7964C11.1338 21.4762 9.80808 20.7443 8.77953 19.7152C7.38522 18.32 6.51663 16.3759 6.51663 14.2489C6.51663 12.1219 7.38522 10.1778 8.77953 8.78269C9.80808 7.75346 11.1338 6.99872 12.6196 6.70138V10.0863C12.0481 10.315 11.5224 10.6581 11.0881 11.0926C10.2881 11.8932 9.78522 13.0139 9.78522 14.2489C9.78522 15.484 10.2881 16.6046 11.0881 17.4052C11.5224 17.8397 12.0481 18.1828 12.6196 18.4115V21.7964ZM15.8654 6.67852C17.351 6.99872 18.654 7.73061 19.7054 8.75977C21.0997 10.155 21.9683 12.099 21.9683 14.226C21.9683 16.3531 21.0997 18.2971 19.7054 19.6923C18.6768 20.7215 17.351 21.4762 15.8654 21.7736V18.4115C16.4368 18.1828 16.9625 17.8397 17.3968 17.4052C18.1968 16.6046 18.6996 15.484 18.6996 14.2489C18.6996 13.0139 18.1968 11.8932 17.3968 11.0926C16.9625 10.6581 16.4368 10.315 15.8654 10.0863V6.67852Z" fill="var(--fill-0, white)"/>
<path id="Vector_2" d="M14.2402 0C18.1717 0 21.7375 1.60099 24.2975 4.16259C26.8804 6.74707 28.4576 10.2921 28.4576 14.226C28.4576 18.1598 26.8575 21.7278 24.2975 24.2894C22.0803 26.5079 19.1317 27.9945 15.8631 28.3605V25.067C18.2403 24.7239 20.366 23.6032 21.9889 21.9793C23.9775 19.9896 25.2118 17.245 25.2118 14.2031C25.2118 11.1612 23.9775 8.41663 21.9889 6.42685C20.0003 4.43704 17.2574 3.20199 14.2173 3.20199C11.1773 3.20199 8.43442 4.43704 6.44581 6.42685C4.48006 8.46241 3.26862 11.207 3.26862 14.2488C3.26862 17.2907 4.50292 20.0353 6.49152 22.0251C8.11439 23.649 10.2401 24.7697 12.6173 25.1127V28.4062C9.32588 28.0403 6.40009 26.5307 4.18291 24.3351C1.60002 21.7506 0 18.1827 0 14.2488C0 10.315 1.60002 6.74707 4.16006 4.18546C6.74294 1.60099 10.3087 0 14.2402 0Z" fill="var(--fill-0, white)"/>
<path id="Vector_3" d="M15.8638 21.7966V25.09C15.3381 25.1815 14.7895 25.2273 14.2409 25.2273C13.6924 25.2273 13.1437 25.1815 12.618 25.09V21.7966C13.1437 21.9109 13.6924 21.9795 14.2409 21.9795C14.7895 21.9795 15.3381 21.9109 15.8638 21.7966ZM15.8638 10.0865V18.4116C15.3609 18.6174 14.8124 18.7089 14.2409 18.7089C13.6695 18.7089 13.1209 18.5946 12.618 18.4116V10.0865C13.1209 9.88061 13.6695 9.78912 14.2409 9.78912C14.8124 9.76626 15.3609 9.88061 15.8638 10.0865Z" fill="var(--fill-0, white)"/>
<path id="Vector_4" d="M112.62 22.4369C114.083 22.4369 115.271 22.0937 116.209 21.3618C117.145 20.6529 117.603 19.7609 117.603 18.6631C117.603 17.7253 117.328 17.0163 116.757 16.536C116.185 16.0557 115.385 15.6669 114.357 15.3696L111.477 14.5462C110.837 14.3632 110.517 14.0659 110.517 13.6313C110.517 13.3569 110.677 13.1053 110.997 12.8995C111.317 12.6937 111.705 12.5793 112.163 12.5793C113.306 12.5793 114.106 13.0367 114.608 13.9287L117.283 13.1511C116.917 12.2591 116.277 11.5729 115.363 11.024C114.449 10.498 113.397 10.2235 112.186 10.2235C110.905 10.2235 109.831 10.5666 108.917 11.2299C108.002 11.916 107.568 12.7165 107.568 13.6771C107.568 15.1866 108.528 16.2158 110.426 16.7647L113.351 17.6338C114.197 17.8855 114.632 18.2742 114.632 18.7774C114.632 19.1205 114.449 19.3949 114.106 19.6237C113.74 19.8524 113.282 19.9667 112.734 19.9667C112.003 19.9667 111.363 19.7837 110.837 19.4407C110.311 19.0748 109.945 18.6173 109.74 18.0684L107.02 18.8689C107.317 19.8524 108.002 20.6757 109.031 21.3848C110.06 22.0709 111.271 22.4369 112.62 22.4369Z" fill="var(--fill-0, white)"/>
<path id="Vector_5" d="M106.152 10.5664H103.134V22.0936H106.152V10.5664Z" fill="var(--fill-0, white)"/>
<path id="Vector_6" d="M104.69 8.94268C105.193 8.94268 105.627 8.78255 105.97 8.43949C106.313 8.09644 106.496 7.68475 106.496 7.18156C106.496 6.7013 106.313 6.2896 105.97 5.94653C105.627 5.60346 105.193 5.44336 104.69 5.44336C104.188 5.44336 103.776 5.60346 103.41 5.94653C103.067 6.2896 102.885 6.7013 102.885 7.18156C102.885 7.68475 103.067 8.09644 103.41 8.43949C103.753 8.78255 104.188 8.94268 104.69 8.94268Z" fill="var(--fill-0, white)"/>
<path id="Vector_7" d="M101.21 19.3028C100.799 19.5086 100.342 19.623 99.8392 19.623C98.9017 19.623 98.4221 19.1427 98.4221 18.1592V13.219H101.782V10.5659H98.4221V6.83789H95.4047V10.5888H93.4616V13.219H95.4047V18.1821C95.4047 19.4629 95.7245 20.4692 96.3647 21.2011C97.0049 21.933 97.9649 22.2989 99.2446 22.2989C100.136 22.2989 101.028 22.1159 101.942 21.75L101.21 19.3028Z" fill="var(--fill-0, white)"/>
<path id="Vector_8" d="M88.0933 10.246C86.5387 10.246 85.3046 10.8406 84.3902 12.0299V5.46582H81.3729V22.1162H84.3671V16.3983C84.3671 15.3691 84.6188 14.5686 85.1216 13.9511C85.6244 13.3336 86.3101 13.0362 87.1334 13.0362C87.9334 13.0362 88.5505 13.2878 88.9615 13.791C89.3731 14.2942 89.5792 15.0032 89.5792 15.8952V22.0704H92.5959V15.3691C92.5959 13.791 92.2074 12.533 91.4304 11.6182C90.6991 10.7034 89.5792 10.246 88.0933 10.246Z" fill="var(--fill-0, white)"/>
<path id="Vector_9" d="M50.5126 12.2823V10.5898H47.5182V22.117H50.5126V17.0853C50.5126 15.5758 50.8326 14.5008 51.4726 13.8604C52.1126 13.2429 53.0497 13.0142 54.3298 13.22V10.4069C52.5469 10.1553 51.2669 10.7956 50.5126 12.2823Z" fill="var(--fill-0, white)"/>
<path id="Vector_10" d="M46.8604 8.98854V6.1525H35.2487V22.1167H38.3802V15.7813H45.6946V12.9682H38.3802V8.98854H46.8604Z" fill="var(--fill-0, white)"/>
<path id="Vector_11" d="M60.9599 19.7387C60.0228 19.7387 59.2456 19.4185 58.6285 18.778C58.0113 18.1377 57.7142 17.3143 57.7142 16.3308C57.7142 15.3474 58.0113 14.524 58.6285 13.9065C59.2456 13.2661 60.0228 12.9688 60.9599 12.9688C61.8971 12.9688 62.6743 13.289 63.2914 13.9294C63.9314 14.5698 64.2286 15.3702 64.2286 16.3537C64.2286 17.3372 63.9085 18.1606 63.2914 18.801C62.6514 19.4185 61.8742 19.7387 60.9599 19.7387ZM60.4342 22.4375C62.0114 22.4375 63.2457 21.8657 64.1371 20.6993V22.1173H67.1773V10.5673H64.1371V11.9624C63.2457 10.8188 62.0114 10.2471 60.4342 10.2471C58.8342 10.2471 57.4627 10.8188 56.3884 11.9853C55.2913 13.1288 54.7427 14.5926 54.7427 16.3537C54.7427 18.0919 55.2913 19.5329 56.3884 20.6993C57.4627 21.8428 58.8113 22.4375 60.4342 22.4375Z" fill="var(--fill-0, white)"/>
<path id="Vector_12" d="M74.5424 22.437C76.0282 22.437 77.2624 22.0483 78.2455 21.2935C79.251 20.5388 79.8681 19.6468 80.1423 18.6633L77.3311 17.8857C77.1937 18.3888 76.8739 18.8234 76.348 19.1893C75.8221 19.5553 75.205 19.7382 74.4968 19.7382C73.5824 19.7382 72.8279 19.3952 72.2339 18.7319C71.6393 18.0686 71.342 17.2682 71.342 16.3304C71.342 15.3927 71.6393 14.5922 72.2108 13.9289C72.8054 13.2657 73.5368 12.9455 74.4736 12.9455C75.1826 12.9455 75.7996 13.1285 76.3249 13.5172C76.8508 13.9061 77.1712 14.3406 77.308 14.8666L80.1198 14.0661C79.8681 13.0827 79.2279 12.2136 78.2224 11.436C77.2168 10.6583 75.9595 10.2695 74.4968 10.2695C72.7592 10.2695 71.2964 10.8413 70.131 12.0077C68.9649 13.1513 68.3934 14.6151 68.3934 16.3304C68.3934 18.0686 68.9649 19.5095 70.131 20.6988C71.3195 21.8424 72.7823 22.437 74.5424 22.437Z" fill="var(--fill-0, white)"/>
</g>
</svg>
