<svg width="115" height="29" viewBox="0 0 115 29" fill="none" xmlns="http://www.w3.org/2000/svg">
<g clip-path="url(#clip0_1431_27561)">
<mask id="mask0_1431_27561" style="mask-type:luminance" maskUnits="userSpaceOnUse" x="0" y="0" width="115" height="29">
<path d="M115 0H0V29H115V0Z" fill="white"/>
</mask>
<g mask="url(#mask0_1431_27561)">
<path d="M57.4126 25.9473C55.6168 25.9473 54.0058 25.5614 52.5771 24.7896C51.1495 24.019 50.1109 22.9143 49.4623 21.4758L51.9937 20.239C52.4261 21.1902 53.1132 21.9195 54.0541 22.427C54.9949 22.9344 56.1144 23.1881 57.4126 23.1881C58.2992 23.1881 59.089 23.0572 59.781 22.7916C60.4742 22.5285 61.031 22.1366 61.4525 21.6186C61.8751 21.1005 62.0853 20.4726 62.0853 19.7315C62.0853 18.8865 61.8582 18.2528 61.4042 17.8291C60.95 17.4067 60.3437 17.0892 59.5865 16.878C58.8293 16.6668 58.0068 16.4767 57.1204 16.308C56.298 16.138 55.4659 15.9327 54.6217 15.6895C53.7787 15.4465 52.9937 15.1077 52.2691 14.6746C51.5445 14.2415 50.966 13.6656 50.5336 12.9458C50.1 12.2282 49.8838 11.3183 49.8838 10.2197C49.8838 9.05722 50.2087 8.01516 50.8573 7.09584C51.507 6.17651 52.3826 5.44719 53.4864 4.90787C54.5891 4.36854 55.8113 4.09948 57.1531 4.09948C58.7967 4.09948 60.2894 4.47475 61.6312 5.22532C62.9717 5.97589 63.9681 7.06987 64.6166 8.50728L62.1179 9.74291C61.6843 8.83535 61.0358 8.12609 60.1711 7.61864C59.3051 7.11118 58.2665 6.85745 57.0552 6.85745C56.298 6.85745 55.5999 6.99552 54.9622 7.27049C54.3246 7.54546 53.8161 7.92547 53.4369 8.41169C53.0589 8.8979 52.8693 9.46904 52.8693 10.1241C52.8693 10.9277 53.1012 11.5461 53.5674 11.9793C54.0323 12.4124 54.6543 12.7404 55.4332 12.9623C56.2122 13.1841 57.0444 13.3907 57.932 13.5807C58.7532 13.7494 59.5865 13.956 60.4307 14.199C61.2737 14.4422 62.0418 14.7808 62.735 15.2139C63.427 15.6471 63.9886 16.223 64.4222 16.9417C64.8545 17.6604 65.0707 18.5798 65.0707 19.7009C65.0707 20.927 64.7302 22.0104 64.049 22.951C63.3679 23.8915 62.4476 24.6267 61.2906 25.1542C60.1324 25.6829 58.8402 25.9473 57.4126 25.9473ZM81.6137 17.4172C81.6137 15.9586 81.2998 14.6474 80.6718 13.4851C80.0451 12.3226 79.1526 11.4033 77.9956 10.7259C76.8375 10.0497 75.469 9.7121 73.8907 9.7121C72.3109 9.7121 70.921 10.0769 69.7204 10.8061C68.52 11.5355 67.584 12.5126 66.9137 13.7387C66.2422 14.965 65.9077 16.3186 65.9077 17.7973C65.9077 19.3834 66.2688 20.7889 66.9946 22.0151C67.7192 23.2412 68.7145 24.2089 69.9801 24.9171C71.2458 25.6251 72.6781 25.9791 74.2795 25.9791C75.8156 25.9791 77.1889 25.6346 78.4013 24.9489C79.6126 24.262 80.5752 23.2624 81.289 21.9514L79.05 20.8101C78.5522 21.6976 77.8821 22.3537 77.0379 22.7763C76.1937 23.1999 75.2637 23.4101 74.247 23.4101C73.1008 23.4101 72.0996 23.1409 71.2458 22.6016C70.3908 22.0623 69.7361 21.3389 69.282 20.4301C69.0037 19.8732 68.8395 19.267 68.7642 18.6222H81.6137V17.4172ZM71.3919 12.8667C72.1057 12.476 72.9268 12.2801 73.8581 12.2801C74.7879 12.2801 75.6042 12.4654 76.3072 12.8349C77.0102 13.2053 77.579 13.7234 78.0113 14.3891C78.3744 14.9481 78.584 15.5905 78.6573 16.3068H68.9597C69.0953 15.6478 69.3143 15.0271 69.6721 14.4681C70.1045 13.7919 70.6781 13.2584 71.3919 12.8667ZM108.669 13.4379C108.106 12.286 107.283 11.3879 106.203 10.7424C105.12 10.0981 103.811 9.77472 102.275 9.77472C101.085 9.77472 100.003 10.0025 99.0298 10.4568C98.1442 10.8699 97.4217 11.437 96.8226 12.1212V10.1241H93.9031V25.6298H96.8226V17.9247C96.8226 16.8673 97.034 15.9267 97.456 15.1018C97.8771 14.2782 98.4725 13.6278 99.2404 13.1522C100.009 12.6767 100.88 12.4383 101.853 12.4383C102.892 12.4383 103.767 12.6873 104.481 13.1841C105.196 13.6809 105.731 14.336 106.088 15.1502C106.445 15.9645 106.624 16.846 106.624 17.7973V25.6298H109.512V17.5436C109.512 15.9586 109.23 14.5896 108.669 13.4379ZM82.9969 3.02083H85.9171V25.6298H82.9969V3.02083ZM89.976 6.92118C89.6293 6.92118 89.3058 6.83738 89.0026 6.66744C88.6994 6.49868 88.4615 6.2662 88.2888 5.96999C88.115 5.67378 88.0292 5.34688 88.0292 4.98693C88.0292 4.62817 88.115 4.30009 88.2888 4.00388C88.4615 3.70767 88.6994 3.47637 89.0026 3.30643C89.3058 3.13766 89.6293 3.05269 89.976 3.05269C90.3432 3.05269 90.6679 3.13766 90.9494 3.30643C91.2308 3.47637 91.4578 3.70767 91.6305 4.00388C91.8044 4.30009 91.8902 4.62817 91.8902 4.98693C91.8902 5.34688 91.8044 5.67378 91.6305 5.96999C91.4578 6.2662 91.2308 6.49868 90.9494 6.66744C90.6679 6.83738 90.3432 6.92118 89.976 6.92118ZM88.5159 10.1241H91.4361V25.6298H88.5159V10.1241ZM113.086 6.92118C112.739 6.92118 112.415 6.83738 112.112 6.66744C111.81 6.49868 111.571 6.2662 111.399 5.96999C111.224 5.67378 111.139 5.34688 111.139 4.98693C111.139 4.62817 111.224 4.30009 111.399 4.00388C111.571 3.70767 111.81 3.47637 112.112 3.30643C112.415 3.13766 112.739 3.05269 113.086 3.05269C113.453 3.05269 113.778 3.13766 114.06 3.30643C114.341 3.47637 114.568 3.70767 114.74 4.00388C114.915 4.30009 115 4.62817 115 4.98693C115 5.34688 114.915 5.67378 114.74 5.96999C114.568 6.2662 114.341 6.49868 114.06 6.66744C113.778 6.83738 113.453 6.92118 113.086 6.92118ZM111.626 10.1241H114.546V25.6298H111.626V10.1241ZM19.785 19.3334C14.7725 20.2405 10.8209 24.1019 9.8925 29C8.96414 24.1019 5.01253 20.2405 0 19.3334C4.48157 18.4444 7.9277 14.7691 8.36228 10.2385C8.77156 5.23495 12.4642 1.136 17.3338 0C13.8023 1.65562 11.3639 5.1823 11.3639 9.2655C11.3639 14.2387 14.9812 18.3864 19.785 19.3334ZM31.9157 19.7345C31.9157 23.8177 29.4773 27.3444 25.9458 29C30.8154 27.864 34.508 23.765 34.9173 18.7616C35.3519 14.2309 38.798 10.5556 43.2796 9.66661C38.2671 8.75952 34.3154 4.8981 33.3871 1.20828e-10C32.4588 4.8981 28.5071 8.75952 23.4946 9.66661C28.2984 10.6136 31.9157 14.7613 31.9157 19.7345Z" fill="white"/>
</g>
</g>
<defs>
<clipPath id="clip0_1431_27561">
<rect width="115" height="29" fill="white"/>
</clipPath>
</defs>
</svg>
