<svg width="126" height="33" viewBox="0 0 126 33" fill="none" xmlns="http://www.w3.org/2000/svg">
<path d="M75.0556 6.01716L75.016 5.59231C74.937 3.48778 74.0474 3.0234 70.2324 3.0234C65.2511 3.0234 64.1639 3.4779 64.1639 5.65159C64.1639 7.43006 64.7668 8.10193 66.6249 8.27978C67.0598 8.30942 67.554 8.3687 68.1074 8.3687C68.6313 8.39834 69.5999 8.45762 71.0428 8.5169C76.3404 8.72439 77.9119 9.03069 79.1671 10.1175C80.1752 10.9969 80.5705 12.0146 80.5705 13.9412C80.5705 16.688 80.1258 17.9823 78.92 18.8222C77.2299 19.9979 75.3026 20.3042 69.9557 20.3042C64.6878 20.3042 62.9581 20.1264 61.3965 19.3359C59.7855 18.5159 58.9355 17.0239 58.9355 14.7811C58.9355 14.6032 58.9751 14.2673 58.9751 13.8128H63.8773V14.2574C63.8773 16.4212 64.6878 17.182 67.129 17.2117H69.5109L70.2324 17.2413C74.7393 17.2413 75.5003 16.7868 75.5003 14.2574C75.5003 12.2715 74.8579 11.8071 71.7248 11.6885L68.908 11.5403C63.4424 11.3032 62.4343 11.155 61.0704 10.2756C59.657 9.39627 59.064 8.08217 59.064 5.93812C59.064 3.4285 59.7065 1.95632 61.1495 1.20541C62.9581 0.266772 64.8459 0 69.8371 0C74.3044 0 76.1922 0.23713 77.6352 0.997921C79.1967 1.81799 79.9182 3.16173 79.9182 5.27613C79.9182 5.45398 79.9182 5.70099 79.9182 5.99741H75.0556V6.01716Z" fill="#F9F9F9"/>
<path d="M93.5971 20.2157H88.4478V0.138672H93.5971V20.2157Z" fill="#F9F9F9"/>
<path d="M124.997 9.54447L125.037 10.1175L125.076 13.2793V13.546C125.076 16.8955 124.473 18.2195 122.497 19.247C120.806 20.156 118.919 20.3635 113.532 20.3635C108.067 20.3635 106.209 20.0967 104.4 18.9506C102.354 17.6266 101.623 15.9667 101.623 12.3505V11.9355C101.662 10.908 101.662 10.1571 101.662 9.74208C101.702 6.15549 101.781 5.55279 102.216 4.24857C102.65 3.01352 103.54 1.99584 104.667 1.32397C106.673 0.207488 108.165 0 113.483 0C119.551 0 120.727 0.118567 122.447 0.968281C123.495 1.48206 124.256 2.33178 124.572 3.2803C124.888 4.21893 124.928 4.45606 124.967 6.2049H119.868L119.828 5.80968C119.63 3.52731 118.899 3.21113 113.433 3.21113C110.498 3.21113 109.085 3.38898 108.284 3.90276C107.236 4.56475 106.92 5.4441 106.92 7.9142L106.881 9.92981L106.92 12.5284C106.96 14.9095 107.197 15.7494 108.165 16.3521C109.055 16.9153 110.488 17.103 113.72 17.103C119.146 17.103 119.956 16.6188 119.956 13.0915C119.956 12.9433 119.956 12.7358 119.956 12.3999H113.167V9.53459H124.997V9.54447Z" fill="#F9F9F9"/>
<path fill-rule="evenodd" clip-rule="evenodd" d="M0 12.3799C1.66043 13.358 2.54995 14.6721 6.01906 14.6721C9.48817 14.6721 11.6724 12.3799 15.784 12.3799C19.9449 12.3799 22.2181 14.6721 26.389 14.6721C30.5104 14.6721 32.1313 12.3799 36.1045 12.3799C40.1369 12.3799 42.3014 14.6721 45.8694 14.6721C49.4373 14.6721 50.6332 13.2296 52.6692 12.3799V17.7647C50.6332 18.6342 49.4274 20.0076 45.8694 20.0076C42.3113 20.0076 40.1271 17.7054 36.1045 17.7054C32.1214 17.7054 30.5005 20.0076 26.389 20.0076C22.2181 20.0076 19.9548 17.7054 15.784 17.7054C11.6625 17.7054 9.48817 20.0076 6.01906 20.0076C2.54995 20.0076 1.67031 18.733 0 17.7647V12.3799Z" fill="#F9F9F9"/>
<path fill-rule="evenodd" clip-rule="evenodd" d="M0 8.24902V11.2033C1.66043 12.1814 2.54995 13.4165 6.01906 13.4165C9.48817 13.4165 11.6724 11.144 15.784 11.144C19.9449 11.144 22.2181 13.4165 26.389 13.4165C30.5104 13.4165 32.1313 11.144 36.1045 11.144C40.1369 11.144 42.3014 13.4165 45.8694 13.4165C49.4373 13.4165 50.6332 12.0629 52.6692 11.2033V8.24902C50.6332 9.1185 49.4274 10.5215 45.8694 10.5215C42.3113 10.5215 40.1271 8.24902 36.1045 8.24902C32.1214 8.24902 30.5005 10.5215 26.389 10.5215C22.2181 10.5215 19.9548 8.24902 15.784 8.24902C11.6625 8.24902 9.48817 10.5215 6.01906 10.5215C2.54995 10.5215 1.67031 9.22718 0 8.24902Z" fill="#F9F9F9"/>
<path fill-rule="evenodd" clip-rule="evenodd" d="M0 5.23438V6.96345C1.66043 7.91196 2.54995 9.17666 6.01906 9.17666C9.48817 9.17666 11.6724 6.90416 15.784 6.90416C19.9449 6.90416 22.2181 9.17666 26.389 9.17666C30.5104 9.17666 32.1313 6.90416 36.1045 6.90416C40.1369 6.90416 42.3014 9.17666 45.8694 9.17666C49.4373 9.17666 50.6332 7.82304 52.6692 6.96345V5.23438C50.6332 6.10385 49.4274 7.50687 45.8694 7.50687C42.3113 7.50687 40.1271 5.23438 36.1045 5.23438C32.1214 5.23438 30.5005 7.50687 26.389 7.50687C22.2181 7.50687 19.9548 5.23438 15.784 5.23438C11.6625 5.23438 9.48817 7.50687 6.01906 7.50687C2.54995 7.50687 1.67031 6.21253 0 5.23438Z" fill="#F9F9F9"/>
<path d="M53.717 18.722C54.1223 18.722 54.4781 18.8603 54.7647 19.1369C55.0414 19.3938 55.1798 19.7298 55.1798 20.125C55.1798 20.4807 55.0217 20.8166 54.7548 21.0735C54.4682 21.3304 54.1025 21.4786 53.717 21.4786C53.3316 21.4786 52.9659 21.3304 52.6793 21.0636C52.4025 20.8067 52.2642 20.4708 52.2642 20.0953C52.2642 19.7199 52.4223 19.384 52.7089 19.1073C52.9758 18.8504 53.3217 18.722 53.717 18.722ZM53.7071 18.4453C53.0845 18.4453 52.531 18.7417 52.2147 19.2456C52.0467 19.5223 51.9578 19.7989 51.9578 20.1052C51.9578 20.5301 52.1258 20.9451 52.4519 21.2513C52.788 21.5675 53.2229 21.7454 53.6973 21.7454C54.1519 21.7454 54.5967 21.5774 54.9426 21.2711C55.2687 20.9747 55.4565 20.5696 55.4565 20.1052C55.4565 19.6705 55.2885 19.2555 54.9623 18.9492C54.6362 18.6232 54.2013 18.4453 53.7071 18.4453ZM52.9955 19.1468V20.9747H53.4601V20.2337H53.6874L54.063 20.9747H54.5868L54.1519 20.1546C54.4188 20.0953 54.5769 19.9076 54.5769 19.6705C54.5769 19.3247 54.3002 19.1468 53.7368 19.1468H52.9955ZM53.4601 19.4334H53.6676C53.9542 19.4334 54.0926 19.5124 54.0926 19.7001C54.0926 19.878 53.9641 19.957 53.6973 19.957H53.4699V19.4334H53.4601Z" fill="#F9F9F9"/>
<path d="M0.385742 29.5427H1.29503C1.31479 30.017 1.47293 30.3825 1.7892 30.6098C2.10547 30.837 2.57988 30.9556 3.20254 30.9556C3.73625 30.9556 4.16124 30.8667 4.45775 30.6888C4.75426 30.511 4.89262 30.2541 4.89262 29.928C4.89262 29.6909 4.81356 29.5032 4.65542 29.3747C4.49728 29.2463 4.23043 29.1376 3.84497 29.0783L2.3328 28.8115C1.7299 28.7029 1.27526 28.525 0.998521 28.2681C0.721783 28.0112 0.583412 27.6555 0.583412 27.201C0.583412 26.6181 0.800851 26.1537 1.24561 25.8375C1.69037 25.5214 2.32291 25.3633 3.14324 25.3633C3.91416 25.3633 4.51705 25.5312 4.93216 25.8573C5.34726 26.1932 5.55482 26.6675 5.5647 27.29H4.69495C4.6653 26.9046 4.51705 26.6181 4.26008 26.4304C3.99322 26.2426 3.59788 26.1537 3.06417 26.1537C2.55023 26.1537 2.14501 26.2328 1.87815 26.4007C1.6113 26.5687 1.47293 26.8058 1.47293 27.1121C1.47293 27.3394 1.552 27.5172 1.70025 27.6358C1.85839 27.7543 2.13512 27.863 2.55023 27.9421L3.89439 28.2088C4.59612 28.3472 5.09029 28.5349 5.36703 28.7819C5.64377 29.0289 5.78214 29.3846 5.78214 29.8589C5.78214 30.4616 5.55482 30.9358 5.10018 31.2619C4.64554 31.5978 3.99322 31.7559 3.15313 31.7559C2.24384 31.7559 1.56188 31.5682 1.09736 31.2026C0.632831 30.8271 0.395626 30.2738 0.385742 29.5427Z" fill="#F9F9F9"/>
<path d="M17.4346 25.5122V29.326C17.4346 30.1264 17.2073 30.7192 16.7527 31.1342C16.298 31.5491 15.6259 31.7467 14.7463 31.7467C13.8667 31.7467 13.1946 31.5393 12.7498 31.1342C12.2952 30.7192 12.0679 30.1165 12.0679 29.326V25.5122H12.9277V28.9605C12.9277 29.6225 13.076 30.1264 13.3725 30.4425C13.669 30.7587 14.1236 30.9168 14.7562 30.9168C15.3887 30.9168 15.8533 30.7587 16.1498 30.4425C16.4463 30.1264 16.5945 29.6225 16.5945 28.9605V25.5122C16.5846 25.5122 17.4346 25.5122 17.4346 25.5122Z" fill="#F9F9F9"/>
<path d="M23.7502 29.5427H24.6595C24.6793 30.017 24.8374 30.3825 25.1537 30.6098C25.47 30.837 25.9444 30.9556 26.567 30.9556C27.1008 30.9556 27.5257 30.8667 27.8223 30.6888C28.1188 30.511 28.2571 30.2541 28.2571 29.928C28.2571 29.6909 28.1781 29.5032 28.0199 29.3747C27.8618 29.2463 27.5949 29.1376 27.2095 29.0783L25.7072 28.8115C25.1043 28.7029 24.6496 28.525 24.3729 28.2681C24.0962 28.0112 23.9578 27.6555 23.9578 27.201C23.9578 26.6181 24.1752 26.1537 24.62 25.8375C25.0648 25.5214 25.6973 25.3633 26.5176 25.3633C27.2885 25.3633 27.8914 25.5312 28.3065 25.8573C28.7217 26.1932 28.9292 26.6675 28.9391 27.29H28.0792C28.0496 26.9046 27.9013 26.6181 27.6443 26.4304C27.3775 26.2426 26.9822 26.1537 26.4484 26.1537C25.9345 26.1537 25.5293 26.2328 25.2624 26.4007C24.9857 26.5687 24.8572 26.8058 24.8572 27.1121C24.8572 27.3394 24.9363 27.5172 25.0845 27.6358C25.2427 27.7543 25.5194 27.863 25.9345 27.9421L27.2688 28.2088C27.9705 28.3472 28.4647 28.5349 28.7414 28.7819C29.0182 29.0289 29.1565 29.3846 29.1565 29.8589C29.1565 30.4616 28.9292 30.9358 28.4746 31.2619C28.0199 31.5978 27.3577 31.7559 26.5275 31.7559C25.6182 31.7559 24.9363 31.5682 24.4717 31.2026C23.9973 30.8271 23.7601 30.2738 23.7502 29.5427Z" fill="#F9F9F9"/>
<path d="M40.1075 31.4098C39.8901 31.5284 39.6627 31.6173 39.3959 31.6667C39.1389 31.7161 38.8226 31.7458 38.4372 31.7458C37.4093 31.7458 36.6087 31.4592 36.0058 30.8763C35.4029 30.2933 35.1064 29.5227 35.1064 28.5445C35.1064 27.5565 35.4029 26.7858 36.0058 26.2127C36.5989 25.6397 37.4192 25.3433 38.4471 25.3433C39.475 25.3433 40.2755 25.6298 40.8784 26.2127C41.4714 26.7858 41.7778 27.5762 41.7778 28.5445C41.7778 29.0385 41.6889 29.5128 41.5208 29.9278C41.3528 30.3427 41.1057 30.6886 40.7796 30.9652L41.6098 31.6173L41.1255 32.2299L40.1075 31.4098ZM39.386 30.8071L38.7535 30.2933L39.218 29.7005L40.1174 30.4218C40.3645 30.2242 40.5523 29.9673 40.6807 29.6511C40.8092 29.3251 40.8784 28.9694 40.8784 28.5544C40.8784 27.8035 40.661 27.2107 40.236 26.7957C39.811 26.3807 39.2081 26.1633 38.4471 26.1633C37.686 26.1633 37.0831 26.3708 36.6582 26.7957C36.2332 27.2205 36.0157 27.8134 36.0157 28.5544C36.0157 29.3053 36.2332 29.908 36.6582 30.323C37.093 30.738 37.7058 30.9454 38.4965 30.9454C38.6843 30.9454 38.8523 30.9356 39.0005 30.9158C39.1389 30.8862 39.2674 30.8565 39.386 30.8071Z" fill="#F9F9F9"/>
<path d="M53.3709 25.5122V29.326C53.3709 30.1264 53.1436 30.7192 52.6889 31.1342C52.2343 31.5491 51.5622 31.7467 50.6826 31.7467C49.8029 31.7467 49.1309 31.5393 48.6861 31.1342C48.2315 30.7192 48.0042 30.1165 48.0042 29.326V25.5122H48.864V28.9605C48.864 29.6225 49.0123 30.1264 49.3088 30.4425C49.6053 30.7587 50.0599 30.9168 50.6925 30.9168C51.3151 30.9168 51.7895 30.7587 52.086 30.4425C52.3825 30.1362 52.5308 29.6323 52.5308 28.9703V25.5221H53.3907V25.5122H53.3709Z" fill="#F9F9F9"/>
<path d="M59.9634 31.5979V25.5215H64.7964V26.3119H60.8134V28.1003H64.5394V28.9006H60.8134V30.7877H64.8557V31.6078H59.9634V31.5979Z" fill="#F9F9F9"/>
<path d="M71.1218 31.5979V25.5215H71.9817V27.9817H75.688V25.5215H76.5479V31.5979H75.688V28.7721H71.9817V31.5979H71.1218Z" fill="#F9F9F9"/>
<path d="M82.3792 31.5979L85.2651 25.5215H86.1744L88.8825 31.5979H87.9831L87.2122 29.8689H84.1088L83.2884 31.5979H82.3792ZM84.4547 29.0685H86.8465L85.6802 26.47L84.4547 29.0685Z" fill="#F9F9F9"/>
<path d="M94.7534 31.5979V25.5215H95.9197L99.7446 30.7087V25.5215H100.585V31.5979H99.4184L95.5935 26.4107V31.5979H94.7534Z" fill="#F9F9F9"/>
<path d="M107.167 31.5979V25.5215H108.333L112.158 30.7087V25.5215H112.998V31.5979H111.832L108.007 26.4107V31.5979H107.167Z" fill="#F9F9F9"/>
<path d="M118.83 31.5979L121.716 25.5215H122.625L125.333 31.5979H124.434L123.663 29.8689H120.559L119.749 31.5979H118.83ZM120.905 29.0685H123.297L122.141 26.47L120.905 29.0685Z" fill="#F9F9F9"/>
</svg>
