<svg width="137" height="31" viewBox="0 0 137 31" fill="none" xmlns="http://www.w3.org/2000/svg">
<g clip-path="url(#clip0_1431_27598)">
<path d="M26.4287 4.94621L18.709 0.00439453L10.9907 4.94621L18.709 9.8895L26.4287 4.94621Z" fill="white"/>
<path d="M10.9907 26.0522L18.709 30.9954L26.4287 26.0522L18.709 21.1104L10.9907 26.0522Z" fill="white"/>
<path d="M7.71974 14.0776L0 19.0195L7.71974 23.9613L15.438 19.0195L7.71974 14.0776Z" fill="white"/>
<path d="M29.6997 14.0776L21.9814 19.0195L29.6997 23.9613L37.4194 19.0195L29.6997 14.0776Z" fill="white"/>
<path d="M54.6073 7.41547C53.3825 7.41547 52.4232 7.67063 51.7294 8.18094C51.0356 8.69125 50.6895 9.39806 50.6895 10.3014C50.6895 10.6665 50.7569 11.0082 50.8904 11.3249C51.0254 11.6417 51.2204 11.9159 51.4786 12.1476C51.7367 12.3793 52.0565 12.5582 52.4379 12.6872C52.8192 12.8163 53.2622 12.8808 53.7683 12.8808C54.4987 12.8808 55.1661 12.7254 55.7675 12.413C56.3689 12.1021 56.8427 11.6871 57.1859 11.1724V12.7034H58.8624V7.31869C58.8624 6.79224 58.7759 6.31419 58.6043 5.88453C58.4327 5.45488 58.1789 5.0868 57.8459 4.78032C57.513 4.47384 57.1008 4.23775 56.6124 4.07058C56.1225 3.90341 55.5665 3.82129 54.9432 3.82129C54.0073 3.82129 53.2035 4.00899 52.5332 4.38586C51.8614 4.76273 51.3099 5.23491 50.8801 5.80388L52.4276 6.70719C52.6755 6.27753 53.0085 5.93586 53.428 5.68364C53.8475 5.43141 54.3476 5.3053 54.927 5.3053C55.7015 5.3053 56.2706 5.4886 56.6358 5.85374C57.0011 6.21888 57.1844 6.69253 57.1844 7.27176V7.41694H54.6043L54.6073 7.41547ZM57.1874 9.52711C57.048 9.81746 56.8676 10.0755 56.6476 10.3014C56.4276 10.5272 56.1826 10.7178 55.9142 10.8733C55.6458 11.0287 55.3612 11.1504 55.059 11.2355C54.7583 11.322 54.4518 11.3645 54.1394 11.3645C53.5585 11.3645 53.1346 11.2575 52.8662 11.0419C52.5978 10.8278 52.4628 10.5316 52.4628 10.1547C52.4628 9.72507 52.6374 9.3922 52.9865 9.15464C53.3355 8.91855 53.9135 8.79977 54.7202 8.79977H57.1874V9.52564V9.52711Z" fill="white"/>
<path d="M66.5721 6.01211C66.9476 6.4535 67.1368 7.04447 67.1368 7.78501V12.7019H68.894V7.65743C68.894 7.06646 68.8104 6.53122 68.6447 6.05317C68.4774 5.57512 68.2413 5.17186 67.9347 4.84485C67.6282 4.51784 67.2512 4.26415 66.8053 4.08671C66.3594 3.90927 65.8622 3.82129 65.3136 3.82129C64.7005 3.82129 64.1607 3.9474 63.6928 4.19962C63.2249 4.45185 62.8406 4.78766 62.5399 5.20705V3.85208L60.8311 4.58529V12.7034H62.5721V7.89939C62.5721 7.51225 62.6308 7.16031 62.7496 6.84357C62.8684 6.52682 63.0312 6.25847 63.241 6.03704C63.4507 5.81708 63.6972 5.64698 63.9832 5.52966C64.2678 5.41088 64.5772 5.35223 64.9102 5.35223C65.6407 5.35223 66.1951 5.57219 66.5706 6.01358L66.5721 6.01211Z" fill="white"/>
<path d="M77.6814 9.47872C77.4657 9.98463 77.1416 10.4055 76.706 10.7442C76.2703 11.083 75.7408 11.2516 75.1174 11.2516C74.7082 11.2516 74.3297 11.1768 73.9807 11.0258C73.6316 10.8747 73.3279 10.668 73.0698 10.4055C72.8116 10.1415 72.6107 9.83359 72.4655 9.47872C72.3202 9.12385 72.2484 8.74844 72.2484 8.34958C72.2484 7.95071 72.3202 7.57531 72.4655 7.22191C72.6107 6.86703 72.8101 6.55909 73.0624 6.29513C73.3147 6.03264 73.6125 5.82588 73.9572 5.67484C74.3019 5.5238 74.6774 5.44901 75.0866 5.44901C75.6777 5.44901 76.197 5.60005 76.6429 5.90067C77.0888 6.20128 77.4247 6.62068 77.6506 7.15738L79.2142 6.4799C79.0528 6.09277 78.8357 5.73643 78.5614 5.40795C78.2872 5.08094 77.9733 4.79792 77.6183 4.56183C77.2633 4.32574 76.8732 4.14244 76.4493 4.01339C76.0239 3.88435 75.5707 3.81982 75.0866 3.81982C74.4515 3.81982 73.8589 3.93567 73.3045 4.1659C72.7515 4.39759 72.2704 4.71727 71.8611 5.12493C71.4519 5.5326 71.1307 6.01211 70.8931 6.55909C70.6569 7.10753 70.5381 7.70436 70.5381 8.34811C70.5381 8.99187 70.654 9.57257 70.8843 10.121C71.116 10.6694 71.4358 11.1475 71.8435 11.5552C72.2513 11.9643 72.7353 12.2854 73.2942 12.523C73.853 12.7591 74.4544 12.8779 75.0998 12.8779C76.1104 12.8779 76.97 12.6227 77.6799 12.1124C78.3898 11.6021 78.9164 10.9437 79.2596 10.1371L77.6799 9.47579L77.6814 9.47872Z" fill="white"/>
<path d="M86.5408 6.0123C86.9119 6.45369 87.0967 7.04465 87.0967 7.78519V12.7021H88.8701V7.65762C88.8701 7.06665 88.7865 6.53141 88.6207 6.05336C88.4535 5.57531 88.2174 5.17204 87.9108 4.84503C87.6043 4.51802 87.2273 4.26433 86.7814 4.0869C86.3355 3.90946 85.8382 3.82148 85.2897 3.82148C84.6985 3.82148 84.169 3.94172 83.7011 4.18368C83.2332 4.42564 82.8445 4.75118 82.5321 5.15885V0L80.8071 0.739073V12.7021H82.5482V7.89957C82.5482 7.51244 82.6069 7.1605 82.7257 6.84376C82.8445 6.52701 83.0073 6.25866 83.2171 6.03723C83.4268 5.81727 83.6733 5.64716 83.9593 5.52985C84.2438 5.41107 84.5475 5.35241 84.8701 5.35241C85.6123 5.35241 86.1683 5.57237 86.5394 6.01376L86.5408 6.0123Z" fill="white"/>
<path d="M98.2549 5.14253C97.8457 4.73487 97.366 4.41226 96.8116 4.1747C96.2571 3.9386 95.669 3.81982 95.0456 3.81982C94.4222 3.81982 93.8208 3.9386 93.2722 4.1747C92.7236 4.41079 92.2455 4.7334 91.8377 5.14253C91.4285 5.55166 91.1072 6.03118 90.8696 6.58548C90.6335 7.13979 90.5146 7.72782 90.5146 8.35104C90.5146 8.97427 90.6335 9.5755 90.8696 10.1239C91.1058 10.6724 91.4285 11.1504 91.8377 11.5581C92.2455 11.9672 92.7251 12.2884 93.2722 12.5259C93.8208 12.762 94.4119 12.8808 95.0456 12.8808C95.6792 12.8808 96.2571 12.762 96.8116 12.5259C97.3646 12.2898 97.8457 11.9672 98.2549 11.5581C98.6641 11.149 98.9854 10.6709 99.223 10.1239C99.4592 9.5755 99.578 8.98454 99.578 8.35104C99.578 7.71755 99.4592 7.13979 99.223 6.58548C98.9868 6.03264 98.6641 5.55166 98.2549 5.14253ZM97.6345 9.48752C97.4892 9.83652 97.2898 10.143 97.0375 10.407C96.7852 10.6709 96.4889 10.8777 96.1501 11.0273C95.8112 11.1783 95.4431 11.2531 95.0456 11.2531C94.6481 11.2531 94.2799 11.1783 93.9411 11.0273C93.6022 10.8762 93.306 10.6694 93.0537 10.407C92.8014 10.143 92.6048 9.83799 92.4655 9.48752C92.3261 9.13851 92.2557 8.76017 92.2557 8.35104C92.2557 7.94192 92.3261 7.57678 92.4655 7.22337C92.6048 6.8685 92.8014 6.56055 93.0537 6.2966C93.306 6.03411 93.6022 5.82735 93.9411 5.6763C94.2799 5.52526 94.6481 5.45048 95.0456 5.45048C95.4431 5.45048 95.798 5.52526 96.1413 5.6763C96.486 5.82735 96.7837 6.03411 97.036 6.2966C97.2883 6.56055 97.4878 6.8685 97.633 7.22337C97.7782 7.57824 97.8501 7.95365 97.8501 8.35104C97.8501 8.74844 97.7782 9.13851 97.633 9.48752H97.6345Z" fill="white"/>
<path d="M105.317 3.86818C104.759 3.86818 104.269 4.00456 103.851 4.27878C103.431 4.553 103.13 4.96359 102.947 5.51203V3.85059L101.238 4.58379V12.7019H102.979V7.80257C102.979 7.01804 103.163 6.45934 103.528 6.12646C103.893 5.79358 104.387 5.62641 105.011 5.62641C105.483 5.62641 105.85 5.71293 106.107 5.8845L106.784 4.20839C106.613 4.10134 106.4 4.01776 106.148 3.9591C105.895 3.90044 105.618 3.87112 105.317 3.87112V3.86818Z" fill="white"/>
<path d="M114.573 4.77886C114.24 4.47238 113.828 4.23629 113.339 4.06911C112.85 3.90194 112.294 3.81982 111.67 3.81982C110.734 3.81982 109.931 4.00753 109.26 4.38439C108.588 4.76126 108.037 5.23345 107.607 5.80242L109.155 6.70573C109.401 6.27607 109.736 5.93439 110.154 5.68217C110.573 5.42995 111.073 5.30384 111.653 5.30384C112.427 5.30384 112.996 5.48714 113.361 5.85227C113.727 6.21741 113.91 6.69106 113.91 7.2703V7.41547H111.33C110.105 7.41547 109.144 7.67063 108.452 8.18094C107.758 8.69125 107.412 9.39806 107.412 10.3014C107.412 10.6665 107.48 11.0082 107.613 11.3249C107.748 11.6417 107.943 11.9159 108.201 12.1476C108.459 12.3793 108.779 12.5582 109.161 12.6872C109.542 12.8163 109.985 12.8808 110.491 12.8808C111.221 12.8808 111.889 12.7254 112.49 12.413C113.092 12.1021 113.565 11.6871 113.909 11.1724V12.7034H115.585V7.31869C115.585 6.79225 115.499 6.3142 115.327 5.88454C115.155 5.45488 114.902 5.08681 114.569 4.78033L114.573 4.77886ZM113.911 9.52564C113.772 9.81599 113.592 10.0741 113.372 10.2999C113.152 10.5257 112.907 10.7164 112.638 10.8718C112.37 11.0273 112.084 11.149 111.783 11.234C111.482 11.3205 111.176 11.3631 110.863 11.3631C110.283 11.3631 109.859 11.256 109.59 11.0404C109.322 10.8264 109.187 10.5301 109.187 10.1533C109.187 9.72361 109.361 9.39073 109.711 9.15317C110.06 8.91708 110.638 8.7983 111.444 8.7983H113.911V9.52418V9.52564Z" fill="white"/>
<path d="M124.585 5.25544C124.252 4.80379 123.82 4.45185 123.287 4.19962C122.755 3.9474 122.199 3.82129 121.618 3.82129C121.037 3.82129 120.481 3.92834 119.949 4.1439C119.416 4.35946 118.949 4.66594 118.547 5.06334C118.143 5.46074 117.824 5.93732 117.587 6.49016C117.351 7.04447 117.232 7.66476 117.232 8.35251C117.232 9.04026 117.353 9.64735 117.595 10.2061C117.837 10.7648 118.159 11.2428 118.563 11.6402C118.966 12.0376 119.431 12.3441 119.958 12.5597C120.484 12.7752 121.033 12.8823 121.602 12.8823C122.171 12.8823 122.758 12.7503 123.295 12.4878C123.832 12.2238 124.267 11.8616 124.6 11.3997V12.0772C124.6 12.4746 124.533 12.8368 124.399 13.1653C124.264 13.4923 124.076 13.7753 123.834 14.0114C123.592 14.2475 123.302 14.4308 122.963 14.5598C122.624 14.6889 122.246 14.7534 121.826 14.7534C121.116 14.7534 120.542 14.6434 120.101 14.4235C119.66 14.2035 119.268 13.856 118.925 13.3838L117.523 14.529C117.995 15.12 118.573 15.5717 119.257 15.8825C119.939 16.1934 120.807 16.3503 121.86 16.3503C122.484 16.3503 123.066 16.2462 123.61 16.0365C124.153 15.8268 124.627 15.5306 125.028 15.1493C125.432 14.7681 125.749 14.3106 125.98 13.7797C126.212 13.2474 126.327 12.6594 126.327 12.0141V3.99726H124.585V5.25398V5.25544ZM124.465 9.48751C124.32 9.84825 124.12 10.1591 123.868 10.4231C123.616 10.687 123.315 10.8967 122.965 11.0522C122.616 11.2076 122.236 11.2853 121.828 11.2853C121.42 11.2853 121.04 11.2106 120.691 11.0595C120.342 10.9085 120.038 10.7002 119.78 10.4304C119.522 10.1621 119.321 9.84825 119.176 9.48751C119.031 9.12824 118.959 8.74404 118.959 8.33491C118.959 7.92578 119.031 7.54305 119.176 7.18231C119.321 6.82304 119.522 6.51069 119.78 6.24674C120.038 5.98425 120.342 5.77749 120.691 5.62645C121.04 5.4754 121.419 5.40062 121.828 5.40062C122.237 5.40062 122.616 5.47834 122.965 5.63378C123.314 5.78922 123.614 5.99891 123.868 6.26287C124.12 6.52682 124.32 6.8377 124.465 7.19844C124.61 7.55918 124.682 7.93751 124.682 8.33491C124.682 8.73231 124.61 9.12824 124.465 9.48751Z" fill="white"/>
<path d="M137 8.26893C137 7.6237 136.887 7.02981 136.661 6.48723C136.436 5.94466 136.123 5.47394 135.726 5.07654C135.328 4.67914 134.857 4.36973 134.315 4.14977C133.772 3.92981 133.178 3.81982 132.532 3.81982C131.887 3.81982 131.29 3.9386 130.743 4.1747C130.194 4.41079 129.716 4.7334 129.308 5.14253C128.899 5.55166 128.579 6.03118 128.349 6.58548C128.117 7.13979 128.003 7.73808 128.003 8.38331C128.003 9.02853 128.113 9.60776 128.333 10.1562C128.553 10.7046 128.867 11.1798 129.276 11.583C129.684 11.9863 130.171 12.303 130.736 12.5347C131.3 12.765 131.931 12.8808 132.631 12.8808C133.577 12.8808 134.372 12.6902 135.017 12.3089C135.663 11.9276 136.194 11.4203 136.613 10.7853L135.178 9.93037C134.92 10.3498 134.584 10.6885 134.171 10.9451C133.757 11.2032 133.244 11.3323 132.631 11.3323C131.824 11.3323 131.164 11.1196 130.648 10.6958C130.131 10.272 129.809 9.70455 129.679 8.9948H137V8.26893ZM129.744 7.51079C129.916 6.8773 130.249 6.35819 130.744 5.95492C131.239 5.55166 131.836 5.35076 132.534 5.35076C133.232 5.35076 133.853 5.53846 134.332 5.91533C134.81 6.2922 135.114 6.82304 135.243 7.51079H129.745H129.744Z" fill="white"/>
<path d="M57.1567 19.861C56.8238 19.4314 56.3911 19.0926 55.8586 18.8448C55.3262 18.5985 54.7703 18.4738 54.1894 18.4738C53.6086 18.4738 53.0527 18.5809 52.5202 18.7964C51.9878 19.012 51.5199 19.3185 51.118 19.7159C50.7146 20.1133 50.3948 20.5899 50.1587 21.1427C49.9225 21.697 49.8037 22.3173 49.8037 23.005C49.8037 23.6928 49.924 24.2999 50.166 24.8586C50.408 25.4173 50.7307 25.8953 51.1341 26.2927C51.5375 26.6901 52.0024 26.9966 52.529 27.2122C53.0556 27.4277 53.6042 27.5348 54.1733 27.5348C54.7424 27.5348 55.3101 27.4057 55.8425 27.1477C56.3749 26.8896 56.8121 26.5347 57.1567 26.083V27.3559H58.8656V14.6538L57.1567 15.387V19.861ZM56.9631 24.1415C56.8179 24.5022 56.6184 24.8131 56.3661 25.0771C56.1139 25.341 55.8132 25.5507 55.4626 25.7062C55.1135 25.8616 54.7336 25.9393 54.3258 25.9393C53.9181 25.9393 53.5382 25.8645 53.1891 25.7135C52.84 25.5625 52.5363 25.3542 52.2782 25.0844C52.02 24.8161 51.8191 24.5022 51.6739 24.1415C51.5287 23.7822 51.4568 23.398 51.4568 22.9889C51.4568 22.5798 51.5287 22.197 51.6739 21.8363C51.8191 21.477 52.02 21.1647 52.2782 20.9007C52.5363 20.6382 52.84 20.4315 53.1891 20.2804C53.5382 20.1294 53.9166 20.0546 54.3258 20.0546C54.7351 20.0546 55.1135 20.1323 55.4626 20.2878C55.8117 20.4432 56.1124 20.6529 56.3661 20.9169C56.6184 21.1808 56.8179 21.4917 56.9631 21.8524C57.1083 22.2132 57.1802 22.5915 57.1802 22.9889C57.1802 23.3863 57.1083 23.7822 56.9631 24.1415Z" fill="white"/>
<path d="M61.689 14.9531C61.3721 14.9531 61.1096 15.0587 60.9028 15.2699C60.6959 15.481 60.5933 15.745 60.5933 16.0632C60.5933 16.3814 60.6945 16.6454 60.8969 16.8565C61.0993 17.0677 61.3633 17.1733 61.6904 17.1733C62.0175 17.1733 62.2845 17.0677 62.4913 16.8565C62.6981 16.6454 62.8008 16.3814 62.8008 16.0632C62.8008 15.745 62.6966 15.4825 62.4913 15.2699C62.2845 15.0587 62.0175 14.9531 61.6904 14.9531H61.689Z" fill="white"/>
<path d="M76.168 14.9531C75.8511 14.9531 75.5886 15.0587 75.3818 15.2699C75.1749 15.481 75.0723 15.745 75.0723 16.0632C75.0723 16.3814 75.1735 16.6454 75.3759 16.8565C75.5783 17.0677 75.8423 17.1733 76.1694 17.1733C76.4965 17.1733 76.7635 17.0677 76.9703 16.8565C77.1771 16.6454 77.2798 16.3814 77.2798 16.0632C77.2798 15.745 77.1756 15.4825 76.9703 15.2699C76.7635 15.0587 76.4965 14.9531 76.1694 14.9531H76.168Z" fill="white"/>
<path d="M62.5751 18.6514H60.8179V27.356H62.5751V18.6514Z" fill="white"/>
<path d="M71.5723 19.9093C71.2393 19.4576 70.8066 19.1057 70.2742 18.8534C69.7417 18.6012 69.1858 18.4751 68.605 18.4751C68.0241 18.4751 67.4682 18.5821 66.9357 18.7977C66.4033 19.0133 65.9354 19.3198 65.5335 19.7172C65.1301 20.1146 64.8104 20.5911 64.5742 21.144C64.338 21.6983 64.2192 22.3186 64.2192 23.0063C64.2192 23.6941 64.3395 24.3012 64.5815 24.8599C64.8236 25.4186 65.1463 25.8966 65.5496 26.294C65.953 26.6914 66.418 26.9979 66.9445 27.2135C67.4711 27.429 68.0197 27.5361 68.5888 27.5361C69.1579 27.5361 69.7446 27.4041 70.2815 27.1416C70.8183 26.8791 71.254 26.5154 71.5869 26.0535V26.731C71.5869 27.1284 71.5195 27.4906 71.386 27.8191C71.251 28.1461 71.0633 28.4291 70.8213 28.6652C70.5793 28.9013 70.2888 29.0846 69.95 29.2137C69.6112 29.3427 69.2327 29.4072 68.8132 29.4072C68.1033 29.4072 67.5283 29.2972 67.0883 29.0773C66.6468 28.8573 66.2551 28.5098 65.9119 28.0376L64.5097 29.1814C64.982 29.7724 65.5599 30.224 66.2434 30.5349C66.9255 30.8458 67.7938 31.0027 68.847 31.0027C69.4704 31.0027 70.0527 30.8986 70.5969 30.6889C71.1396 30.4792 71.6133 30.183 72.0152 29.8017C72.4186 29.4204 72.7354 28.9629 72.9657 28.4321C73.1975 27.8997 73.3119 27.3117 73.3119 26.6665V18.6555H71.5708V19.9122L71.5723 19.9093ZM71.452 24.1413C71.3068 24.5021 71.1073 24.8129 70.855 25.0769C70.6027 25.3408 70.302 25.5505 69.9515 25.706C69.6024 25.8614 69.2225 25.9391 68.8147 25.9391C68.4069 25.9391 68.027 25.8644 67.6779 25.7133C67.3288 25.5623 67.0252 25.354 66.7671 25.0842C66.5089 24.8159 66.308 24.5021 66.1627 24.1413C66.0175 23.7821 65.9457 23.3979 65.9457 22.9887C65.9457 22.5796 66.0175 22.1969 66.1627 21.8361C66.308 21.4768 66.5089 21.1645 66.7671 20.9005C67.0252 20.6381 67.3288 20.4313 67.6779 20.2803C68.027 20.1292 68.4055 20.0544 68.8147 20.0544C69.2239 20.0544 69.6024 20.1321 69.9515 20.2876C70.3006 20.443 70.6013 20.6527 70.855 20.9167C71.1073 21.1806 71.3068 21.4915 71.452 21.8523C71.5972 22.213 71.6691 22.5913 71.6691 22.9887C71.6691 23.3861 71.5972 23.7821 71.452 24.1413Z" fill="white"/>
<path d="M77.0214 18.6514H75.2642V27.356H77.0214V18.6514Z" fill="white"/>
<path d="M83.0046 25.8733C82.6599 25.8733 82.3842 25.7662 82.1744 25.5506C81.9647 25.3351 81.8605 24.9861 81.8605 24.5022V20.2144H84.2954V18.6512H81.8605V15.6523L80.1517 16.3856V18.6512H78.4268V20.2144H80.1517V24.5183C80.1517 25.5932 80.3879 26.3616 80.8616 26.8235C81.3339 27.2854 82.0057 27.5171 82.877 27.5171C83.2422 27.5171 83.5781 27.4716 83.8847 27.3807C84.1913 27.2898 84.467 27.1578 84.7149 26.9863L83.892 25.536C83.6339 25.7618 83.3391 25.8747 83.0046 25.8747V25.8733Z" fill="white"/>
<path d="M92.678 19.4327C92.345 19.1262 91.9328 18.8901 91.4444 18.7229C90.9545 18.5558 90.3986 18.4736 89.7752 18.4736C88.8394 18.4736 88.0356 18.6613 87.3652 19.0382C86.6935 19.4151 86.1419 19.8873 85.7122 20.4562L87.2596 21.3595C87.5075 20.9299 87.8405 20.5882 88.26 20.336C88.6795 20.0838 89.1797 19.9576 89.7591 19.9576C90.5335 19.9576 91.1026 20.1409 91.4679 20.5061C91.8331 20.8712 92.0164 21.3449 92.0164 21.9241V22.0693H89.4364C88.2116 22.0693 87.2523 22.3244 86.5585 22.8347C85.8647 23.3451 85.5186 24.0519 85.5186 24.9552C85.5186 25.3203 85.586 25.662 85.7195 25.9787C85.8544 26.2955 86.0495 26.5697 86.3077 26.8014C86.5658 27.0331 86.8856 27.212 87.267 27.341C87.6483 27.4701 88.0913 27.5346 88.5974 27.5346C89.3278 27.5346 89.9952 27.3792 90.5966 27.0668C91.198 26.7559 91.6718 26.3409 92.015 25.8262V27.3572H93.6915V21.9725C93.6915 21.4461 93.605 20.968 93.4334 20.5383C93.2618 20.1087 93.008 19.7406 92.675 19.4341L92.678 19.4327ZM92.0164 24.1795C91.8771 24.4698 91.6967 24.7279 91.4767 24.9537C91.2567 25.1795 91.0117 25.3702 90.7433 25.5256C90.4748 25.6811 90.1888 25.8028 89.8881 25.8878C89.5874 25.9743 89.2809 26.0169 88.9684 26.0169C88.3876 26.0169 87.9637 25.9098 87.6953 25.6943C87.4268 25.4802 87.2919 25.1839 87.2919 24.8071C87.2919 24.3774 87.4665 24.0445 87.8155 23.807C88.1646 23.5709 88.7426 23.4521 89.5493 23.4521H92.0164V24.178V24.1795Z" fill="white"/>
<path d="M95.6455 27.3559H97.4027V14.6538L95.6455 15.4075V27.3559Z" fill="white"/>
</g>
<defs>
<clipPath id="clip0_1431_27598">
<rect width="137" height="31" fill="white"/>
</clipPath>
</defs>
</svg>
