<svg width="534" height="380" viewBox="0 0 534 380" fill="none" xmlns="http://www.w3.org/2000/svg">
<g opacity="0.5">
  <circle cx="27.5583" cy="27.5583" r="1.71163" fill="#F9F9F9" fill-opacity="0.35"/>
  <circle cx="44.6735" cy="27.5583" r="1.71163" fill="#F9F9F9" fill-opacity="0.35"/>
  <circle cx="61.7907" cy="27.5583" r="1.71163" fill="#F9F9F9" fill-opacity="0.35"/>
  <circle cx="78.906" cy="27.5583" r="1.71163" fill="#F9F9F9" fill-opacity="0.35"/>
  <circle cx="96.0236" cy="27.5583" r="1.71163" fill="#F9F9F9" fill-opacity="0.35"/>
  <circle cx="113.139" cy="27.5583" r="1.71163" fill="#F9F9F9" fill-opacity="0.35"/>
  <circle cx="130.256" cy="27.5583" r="1.71163" fill="#F9F9F9" fill-opacity="0.35"/>
  <circle cx="147.372" cy="27.5583" r="1.71163" fill="#F9F9F9" fill-opacity="0.35"/>
  <circle cx="164.489" cy="27.5583" r="1.71163" fill="#F9F9F9" fill-opacity="0.35"/>
  <circle cx="181.604" cy="27.5583" r="1.71163" fill="#F9F9F9" fill-opacity="0.35"/>
  <circle cx="198.721" cy="27.5583" r="1.71163" fill="#F9F9F9" fill-opacity="0.35"/>
  <circle cx="215.837" cy="27.5583" r="1.71163" fill="#F9F9F9" fill-opacity="0.35"/>
  <circle cx="232.954" cy="27.5583" r="1.71163" fill="#F9F9F9" fill-opacity="0.35"/>
  <circle cx="250.07" cy="27.5583" r="1.71163" fill="#F9F9F9" fill-opacity="0.35"/>
  <circle cx="267.187" cy="27.5583" r="1.71163" fill="#F9F9F9" fill-opacity="0.35"/>
  <circle cx="284.302" cy="27.5583" r="1.71163" fill="#F9F9F9" fill-opacity="0.35"/>
  <circle cx="301.418" cy="27.5583" r="1.71163" fill="#F9F9F9" fill-opacity="0.35"/>
  <circle cx="318.535" cy="27.5583" r="1.71163" fill="#F9F9F9" fill-opacity="0.35"/>
  <circle cx="335.65" cy="27.5583" r="1.71163" fill="#F9F9F9" fill-opacity="0.35"/>
  <circle cx="352.767" cy="27.5583" r="1.71163" fill="#F9F9F9" fill-opacity="0.35"/>
  <circle cx="369.883" cy="27.5583" r="1.71163" fill="#F9F9F9" fill-opacity="0.35"/>
  <circle cx="387" cy="27.5583" r="1.71163" fill="#F9F9F9" fill-opacity="0.35"/>
  <circle cx="404.117" cy="27.5583" r="1.71163" fill="#F9F9F9" fill-opacity="0.35"/>
  <circle cx="421.232" cy="27.5583" r="1.71163" fill="#F9F9F9" fill-opacity="0.35"/>
  <circle cx="438.349" cy="27.5583" r="1.71163" fill="#F9F9F9" fill-opacity="0.35"/>
  <circle cx="455.465" cy="27.5583" r="1.71163" fill="#F9F9F9" fill-opacity="0.35"/>
  <circle cx="472.582" cy="27.5583" r="1.71163" fill="#F9F9F9" fill-opacity="0.35"/>
  <circle cx="489.697" cy="27.5583" r="1.71163" fill="#F9F9F9" fill-opacity="0.35"/>
  <circle cx="506.815" cy="27.5583" r="1.71163" fill="#F9F9F9" fill-opacity="0.35"/>
  <circle cx="27.5583" cy="44.6745" r="1.71163" fill="#F9F9F9" fill-opacity="0.35"/>
  <circle cx="44.6735" cy="44.6745" r="1.71163" fill="#F9F9F9" fill-opacity="0.35"/>
  <circle cx="61.7907" cy="44.6745" r="1.71163" fill="#F9F9F9" fill-opacity="0.35"/>
  <circle cx="78.906" cy="44.6745" r="1.71163" fill="#F9F9F9" fill-opacity="0.35"/>
  <circle cx="96.0236" cy="44.6745" r="1.71163" fill="#F9F9F9" fill-opacity="0.35"/>
  <circle cx="113.139" cy="44.6745" r="1.71163" fill="#F9F9F9" fill-opacity="0.35"/>
  <circle cx="130.256" cy="44.6745" r="1.71163" fill="#F9F9F9" fill-opacity="0.35"/>
  <circle cx="147.372" cy="44.6745" r="1.71163" fill="#F9F9F9" fill-opacity="0.35"/>
  <circle cx="164.489" cy="44.6745" r="1.71163" fill="#F9F9F9" fill-opacity="0.35"/>
  <circle cx="181.604" cy="44.6745" r="1.71163" fill="#F9F9F9" fill-opacity="0.35"/>
  <circle cx="198.721" cy="44.6745" r="1.71163" fill="#F9F9F9" fill-opacity="0.35"/>
  <circle cx="215.837" cy="44.6745" r="1.71163" fill="#F9F9F9" fill-opacity="0.35"/>
  <circle cx="232.954" cy="44.6745" r="1.71163" fill="#F9F9F9" fill-opacity="0.35"/>
  <circle cx="250.07" cy="44.6745" r="1.71163" fill="#F9F9F9" fill-opacity="0.35"/>
  <circle cx="267.187" cy="44.6745" r="1.71163" fill="#F9F9F9" fill-opacity="0.35"/>
  <circle cx="284.302" cy="44.6745" r="1.71163" fill="#F9F9F9" fill-opacity="0.35"/>
  <circle cx="301.418" cy="44.6745" r="1.71163" fill="#F9F9F9" fill-opacity="0.35"/>
  <circle cx="318.535" cy="44.6745" r="1.71163" fill="#F9F9F9" fill-opacity="0.35"/>
  <circle cx="335.65" cy="44.6745" r="1.71163" fill="#F9F9F9" fill-opacity="0.35"/>
  <circle cx="352.767" cy="44.6745" r="1.71163" fill="#F9F9F9" fill-opacity="0.35"/>
  <circle cx="369.883" cy="44.6745" r="1.71163" fill="#F9F9F9" fill-opacity="0.35"/>
  <circle cx="387" cy="44.6745" r="1.71163" fill="#F9F9F9" fill-opacity="0.35"/>
  <circle cx="404.117" cy="44.6745" r="1.71163" fill="#F9F9F9" fill-opacity="0.35"/>
  <circle cx="421.232" cy="44.6745" r="1.71163" fill="#F9F9F9" fill-opacity="0.35"/>
  <circle cx="438.349" cy="44.6745" r="1.71163" fill="#F9F9F9" fill-opacity="0.35"/>
  <circle cx="455.465" cy="44.6745" r="1.71163" fill="#F9F9F9" fill-opacity="0.35"/>
  <circle cx="472.582" cy="44.6745" r="1.71163" fill="#F9F9F9" fill-opacity="0.35"/>
  <circle cx="489.697" cy="44.6745" r="1.71163" fill="#F9F9F9" fill-opacity="0.35"/>
  <circle cx="506.815" cy="44.6745" r="1.71163" fill="#F9F9F9" fill-opacity="0.35"/>
  <circle cx="27.5583" cy="61.7907" r="1.71163" fill="#F9F9F9" fill-opacity="0.35"/>
  <circle cx="44.6735" cy="61.7907" r="1.71163" fill="#F9F9F9" fill-opacity="0.35"/>
  <circle cx="61.7907" cy="61.7907" r="1.71163" fill="#F9F9F9" fill-opacity="0.35"/>
  <circle cx="78.906" cy="61.7907" r="1.71163" fill="#F9F9F9" fill-opacity="0.35"/>
  <circle cx="96.0236" cy="61.7907" r="1.71163" fill="#F9F9F9" fill-opacity="0.35"/>
  <circle cx="113.139" cy="61.7907" r="1.71163" fill="#F9F9F9" fill-opacity="0.35"/>
  <circle cx="130.256" cy="61.7907" r="1.71163" fill="#F9F9F9" fill-opacity="0.35"/>
  <circle cx="147.372" cy="61.7907" r="1.71163" fill="#F9F9F9" fill-opacity="0.35"/>
  <circle cx="164.489" cy="61.7907" r="1.71163" fill="#F9F9F9" fill-opacity="0.35"/>
  <circle cx="181.604" cy="61.7907" r="1.71163" fill="#F9F9F9" fill-opacity="0.35"/>
  <circle cx="198.721" cy="61.7907" r="1.71163" fill="#F9F9F9" fill-opacity="0.35"/>
  <circle cx="215.837" cy="61.7907" r="1.71163" fill="#F9F9F9" fill-opacity="0.35"/>
  <circle cx="232.954" cy="61.7907" r="1.71163" fill="#F9F9F9" fill-opacity="0.35"/>
  <circle cx="250.07" cy="61.7907" r="1.71163" fill="#F9F9F9" fill-opacity="0.35"/>
  <circle cx="267.187" cy="61.7907" r="1.71163" fill="#F9F9F9" fill-opacity="0.35"/>
  <circle cx="284.302" cy="61.7907" r="1.71163" fill="#F9F9F9" fill-opacity="0.35"/>
  <circle cx="301.418" cy="61.7907" r="1.71163" fill="#F9F9F9" fill-opacity="0.35"/>
  <circle cx="318.535" cy="61.7907" r="1.71163" fill="#F9F9F9" fill-opacity="0.35"/>
  <circle cx="335.65" cy="61.7907" r="1.71163" fill="#F9F9F9" fill-opacity="0.35"/>
  <circle cx="352.767" cy="61.7907" r="1.71163" fill="#F9F9F9" fill-opacity="0.35"/>
  <circle cx="369.883" cy="61.7907" r="1.71163" fill="#F9F9F9" fill-opacity="0.35"/>
  <circle cx="387" cy="61.7907" r="1.71163" fill="#F9F9F9" fill-opacity="0.35"/>
  <circle cx="404.117" cy="61.7907" r="1.71163" fill="#F9F9F9" fill-opacity="0.35"/>
  <circle cx="421.232" cy="61.7907" r="1.71163" fill="#F9F9F9" fill-opacity="0.35"/>
  <circle cx="438.349" cy="61.7907" r="1.71163" fill="#F9F9F9" fill-opacity="0.35"/>
  <circle cx="455.465" cy="61.7907" r="1.71163" fill="#F9F9F9" fill-opacity="0.35"/>
  <circle cx="472.582" cy="61.7907" r="1.71163" fill="#F9F9F9" fill-opacity="0.35"/>
  <circle cx="489.697" cy="61.7907" r="1.71163" fill="#F9F9F9" fill-opacity="0.35"/>
  <circle cx="506.815" cy="61.7907" r="1.71163" fill="#F9F9F9" fill-opacity="0.35"/>
  <circle cx="27.5583" cy="78.9069" r="1.71163" fill="#F9F9F9" fill-opacity="0.35"/>
  <circle cx="44.6735" cy="78.9069" r="1.71163" fill="#F9F9F9" fill-opacity="0.35"/>
  <circle cx="61.7907" cy="78.9069" r="1.71163" fill="#F9F9F9" fill-opacity="0.35"/>
  <circle cx="78.906" cy="78.9069" r="1.71163" fill="#F9F9F9" fill-opacity="0.35"/>
  <circle cx="96.0236" cy="78.9069" r="1.71163" fill="#F9F9F9" fill-opacity="0.35"/>
  <circle cx="113.139" cy="78.9069" r="1.71163" fill="#F9F9F9" fill-opacity="0.35"/>
  <circle cx="130.256" cy="78.9069" r="1.71163" fill="#F9F9F9" fill-opacity="0.35"/>
  <circle cx="147.372" cy="78.9069" r="1.71163" fill="#F9F9F9" fill-opacity="0.35"/>
  <circle cx="164.489" cy="78.9069" r="1.71163" fill="#F9F9F9" fill-opacity="0.35"/>
  <circle cx="181.604" cy="78.9069" r="1.71163" fill="#F9F9F9" fill-opacity="0.35"/>
  <circle cx="198.721" cy="78.9069" r="1.71163" fill="#F9F9F9" fill-opacity="0.35"/>
  <circle cx="215.837" cy="78.9069" r="1.71163" fill="#F9F9F9" fill-opacity="0.35"/>
  <circle cx="232.954" cy="78.9069" r="1.71163" fill="#F9F9F9" fill-opacity="0.35"/>
  <circle cx="250.07" cy="78.9069" r="1.71163" fill="#F9F9F9" fill-opacity="0.35"/>
  <circle cx="267.187" cy="78.9069" r="1.71163" fill="#F9F9F9" fill-opacity="0.35"/>
  <circle cx="284.302" cy="78.9069" r="1.71163" fill="#F9F9F9" fill-opacity="0.35"/>
  <circle cx="301.418" cy="78.9069" r="1.71163" fill="#F9F9F9" fill-opacity="0.35"/>
  <circle cx="318.535" cy="78.9069" r="1.71163" fill="#F9F9F9" fill-opacity="0.35"/>
  <circle cx="335.65" cy="78.9069" r="1.71163" fill="#F9F9F9" fill-opacity="0.35"/>
  <circle cx="352.767" cy="78.9069" r="1.71163" fill="#F9F9F9" fill-opacity="0.35"/>
  <circle cx="369.883" cy="78.9069" r="1.71163" fill="#F9F9F9" fill-opacity="0.35"/>
  <circle cx="387" cy="78.9069" r="1.71163" fill="#F9F9F9" fill-opacity="0.35"/>
  <circle cx="404.117" cy="78.9069" r="1.71163" fill="#F9F9F9" fill-opacity="0.35"/>
  <circle cx="421.232" cy="78.9069" r="1.71163" fill="#F9F9F9" fill-opacity="0.35"/>
  <circle cx="438.349" cy="78.9069" r="1.71163" fill="#F9F9F9" fill-opacity="0.35"/>
  <circle cx="455.465" cy="78.9069" r="1.71163" fill="#F9F9F9" fill-opacity="0.35"/>
  <circle cx="472.582" cy="78.9069" r="1.71163" fill="#F9F9F9" fill-opacity="0.35"/>
  <circle cx="489.697" cy="78.9069" r="1.71163" fill="#F9F9F9" fill-opacity="0.35"/>
  <circle cx="506.815" cy="78.9069" r="1.71163" fill="#F9F9F9" fill-opacity="0.35"/>
  <circle cx="27.5583" cy="96.0231" r="1.71163" fill="#F9F9F9" fill-opacity="0.35"/>
  <circle cx="44.6735" cy="96.0231" r="1.71163" fill="#F9F9F9" fill-opacity="0.35"/>
  <circle cx="61.7907" cy="96.0231" r="1.71163" fill="#F9F9F9" fill-opacity="0.35"/>
  <circle cx="78.906" cy="96.0231" r="1.71163" fill="#F9F9F9" fill-opacity="0.35"/>
  <circle cx="96.0236" cy="96.0231" r="1.71163" fill="#F9F9F9" fill-opacity="0.35"/>
  <circle cx="113.139" cy="96.0231" r="1.71163" fill="#F9F9F9" fill-opacity="0.35"/>
  <circle cx="130.256" cy="96.0231" r="1.71163" fill="#F9F9F9" fill-opacity="0.35"/>
  <circle cx="147.372" cy="96.0231" r="1.71163" fill="#F9F9F9" fill-opacity="0.35"/>
  <circle cx="164.489" cy="96.0231" r="1.71163" fill="#F9F9F9" fill-opacity="0.35"/>
  <circle cx="181.604" cy="96.0231" r="1.71163" fill="#F9F9F9" fill-opacity="0.35"/>
  <circle cx="198.721" cy="96.0231" r="1.71163" fill="#F9F9F9" fill-opacity="0.35"/>
  <circle cx="215.837" cy="96.0231" r="1.71163" fill="#F9F9F9" fill-opacity="0.35"/>
  <circle cx="232.954" cy="96.0231" r="1.71163" fill="#F9F9F9" fill-opacity="0.35"/>
  <circle cx="250.07" cy="96.0231" r="1.71163" fill="#F9F9F9" fill-opacity="0.35"/>
  <circle cx="267.187" cy="96.0231" r="1.71163" fill="#F9F9F9" fill-opacity="0.35"/>
  <circle cx="284.302" cy="96.0231" r="1.71163" fill="#F9F9F9" fill-opacity="0.35"/>
  <circle cx="301.418" cy="96.0231" r="1.71163" fill="#F9F9F9" fill-opacity="0.35"/>
  <circle cx="318.535" cy="96.0231" r="1.71163" fill="#F9F9F9" fill-opacity="0.35"/>
  <circle cx="335.65" cy="96.0231" r="1.71163" fill="#F9F9F9" fill-opacity="0.35"/>
  <circle cx="352.767" cy="96.0231" r="1.71163" fill="#F9F9F9" fill-opacity="0.35"/>
  <circle cx="369.883" cy="96.0231" r="1.71163" fill="#F9F9F9" fill-opacity="0.35"/>
  <circle cx="387" cy="96.0231" r="1.71163" fill="#F9F9F9" fill-opacity="0.35"/>
  <circle cx="404.117" cy="96.0231" r="1.71163" fill="#F9F9F9" fill-opacity="0.35"/>
  <circle cx="421.232" cy="96.0231" r="1.71163" fill="#F9F9F9" fill-opacity="0.35"/>
  <circle cx="438.349" cy="96.0231" r="1.71163" fill="#F9F9F9" fill-opacity="0.35"/>
  <circle cx="455.465" cy="96.0231" r="1.71163" fill="#F9F9F9" fill-opacity="0.35"/>
  <circle cx="472.582" cy="96.0231" r="1.71163" fill="#F9F9F9" fill-opacity="0.35"/>
  <circle cx="489.697" cy="96.0231" r="1.71163" fill="#F9F9F9" fill-opacity="0.35"/>
  <circle cx="506.815" cy="96.0231" r="1.71163" fill="#F9F9F9" fill-opacity="0.35"/>
  <circle cx="27.5583" cy="113.1389" r="1.71163" fill="#F9F9F9" fill-opacity="0.35"/>
  <circle cx="44.6735" cy="113.1389" r="1.71163" fill="#F9F9F9" fill-opacity="0.35"/>
  <circle cx="61.7907" cy="113.1389" r="1.71163" fill="#F9F9F9" fill-opacity="0.35"/>
  <circle cx="78.906" cy="113.1389" r="1.71163" fill="#F9F9F9" fill-opacity="0.35"/>
  <circle cx="96.0236" cy="113.1389" r="1.71163" fill="#F9F9F9" fill-opacity="0.35"/>
  <circle cx="113.139" cy="113.1389" r="1.71163" fill="#F9F9F9" fill-opacity="0.35"/>
  <circle cx="130.256" cy="113.1389" r="1.71163" fill="#F9F9F9" fill-opacity="0.35"/>
  <circle cx="147.372" cy="113.1389" r="1.71163" fill="#F9F9F9" fill-opacity="0.35"/>
  <circle cx="164.489" cy="113.1389" r="1.71163" fill="#F9F9F9" fill-opacity="0.35"/>
  <circle cx="181.604" cy="113.1389" r="1.71163" fill="#F9F9F9" fill-opacity="0.35"/>
  <circle cx="198.721" cy="113.1389" r="1.71163" fill="#F9F9F9" fill-opacity="0.35"/>
  <circle cx="215.837" cy="113.1389" r="1.71163" fill="#F9F9F9" fill-opacity="0.35"/>
  <circle cx="232.954" cy="113.1389" r="1.71163" fill="#F9F9F9" fill-opacity="0.35"/>
  <circle cx="250.07" cy="113.1389" r="1.71163" fill="#F9F9F9" fill-opacity="0.35"/>
  <circle cx="267.187" cy="113.1389" r="1.71163" fill="#F9F9F9" fill-opacity="0.35"/>
  <circle cx="284.302" cy="113.1389" r="1.71163" fill="#F9F9F9" fill-opacity="0.35"/>
  <circle cx="301.418" cy="113.1389" r="1.71163" fill="#F9F9F9" fill-opacity="0.35"/>
  <circle cx="318.535" cy="113.1389" r="1.71163" fill="#F9F9F9" fill-opacity="0.35"/>
  <circle cx="335.65" cy="113.1389" r="1.71163" fill="#F9F9F9" fill-opacity="0.35"/>
  <circle cx="352.767" cy="113.1389" r="1.71163" fill="#F9F9F9" fill-opacity="0.35"/>
  <circle cx="369.883" cy="113.1389" r="1.71163" fill="#F9F9F9" fill-opacity="0.35"/>
  <circle cx="387" cy="113.1389" r="1.71163" fill="#F9F9F9" fill-opacity="0.35"/>
  <circle cx="404.117" cy="113.1389" r="1.71163" fill="#F9F9F9" fill-opacity="0.35"/>
  <circle cx="421.232" cy="113.1389" r="1.71163" fill="#F9F9F9" fill-opacity="0.35"/>
  <circle cx="438.349" cy="113.1389" r="1.71163" fill="#F9F9F9" fill-opacity="0.35"/>
  <circle cx="455.465" cy="113.1389" r="1.71163" fill="#F9F9F9" fill-opacity="0.35"/>
  <circle cx="472.582" cy="113.1389" r="1.71163" fill="#F9F9F9" fill-opacity="0.35"/>
  <circle cx="489.697" cy="113.1389" r="1.71163" fill="#F9F9F9" fill-opacity="0.35"/>
  <circle cx="506.815" cy="113.1389" r="1.71163" fill="#F9F9F9" fill-opacity="0.35"/>
  <circle cx="27.5583" cy="130.2559" r="1.71163" fill="#F9F9F9" fill-opacity="0.35"/>
  <circle cx="44.6735" cy="130.2559" r="1.71163" fill="#F9F9F9" fill-opacity="0.35"/>
  <circle cx="61.7907" cy="130.2559" r="1.71163" fill="#F9F9F9" fill-opacity="0.35"/>
  <circle cx="78.906" cy="130.2559" r="1.71163" fill="#F9F9F9" fill-opacity="0.35"/>
  <circle cx="96.0236" cy="130.2559" r="1.71163" fill="#F9F9F9" fill-opacity="0.35"/>
  <circle cx="113.139" cy="130.2559" r="1.71163" fill="#F9F9F9" fill-opacity="0.35"/>
  <circle cx="130.256" cy="130.2559" r="1.71163" fill="#F9F9F9" fill-opacity="0.35"/>
  <circle cx="147.372" cy="130.2559" r="1.71163" fill="#F9F9F9" fill-opacity="0.35"/>
  <circle cx="164.489" cy="130.2559" r="1.71163" fill="#F9F9F9" fill-opacity="0.35"/>
  <circle cx="181.604" cy="130.2559" r="1.71163" fill="#F9F9F9" fill-opacity="0.35"/>
  <circle cx="198.721" cy="130.2559" r="1.71163" fill="#F9F9F9" fill-opacity="0.35"/>
  <circle cx="215.837" cy="130.2559" r="1.71163" fill="#F9F9F9" fill-opacity="0.35"/>
  <circle cx="232.954" cy="130.2559" r="1.71163" fill="#F9F9F9" fill-opacity="0.35"/>
  <circle cx="250.07" cy="130.2559" r="1.71163" fill="#F9F9F9" fill-opacity="0.35"/>
  <circle cx="267.187" cy="130.2559" r="1.71163" fill="#F9F9F9" fill-opacity="0.35"/>
  <circle cx="284.302" cy="130.2559" r="1.71163" fill="#F9F9F9" fill-opacity="0.35"/>
  <circle cx="301.418" cy="130.2559" r="1.71163" fill="#F9F9F9" fill-opacity="0.35"/>
  <circle cx="318.535" cy="130.2559" r="1.71163" fill="#F9F9F9" fill-opacity="0.35"/>
  <circle cx="335.65" cy="130.2559" r="1.71163" fill="#F9F9F9" fill-opacity="0.35"/>
  <circle cx="352.767" cy="130.2559" r="1.71163" fill="#F9F9F9" fill-opacity="0.35"/>
  <circle cx="369.883" cy="130.2559" r="1.71163" fill="#F9F9F9" fill-opacity="0.35"/>
  <circle cx="387" cy="130.2559" r="1.71163" fill="#F9F9F9" fill-opacity="0.35"/>
  <circle cx="404.117" cy="130.2559" r="1.71163" fill="#F9F9F9" fill-opacity="0.35"/>
  <circle cx="421.232" cy="130.2559" r="1.71163" fill="#F9F9F9" fill-opacity="0.35"/>
  <circle cx="438.349" cy="130.2559" r="1.71163" fill="#F9F9F9" fill-opacity="0.35"/>
  <circle cx="455.465" cy="130.2559" r="1.71163" fill="#F9F9F9" fill-opacity="0.35"/>
  <circle cx="472.582" cy="130.2559" r="1.71163" fill="#F9F9F9" fill-opacity="0.35"/>
  <circle cx="489.697" cy="130.2559" r="1.71163" fill="#F9F9F9" fill-opacity="0.35"/>
  <circle cx="506.815" cy="130.2559" r="1.71163" fill="#F9F9F9" fill-opacity="0.35"/>
  <circle cx="27.5583" cy="147.3719" r="1.71163" fill="#F9F9F9" fill-opacity="0.35"/>
  <circle cx="44.6735" cy="147.3719" r="1.71163" fill="#F9F9F9" fill-opacity="0.35"/>
  <circle cx="61.7907" cy="147.3719" r="1.71163" fill="#F9F9F9" fill-opacity="0.35"/>
  <circle cx="78.906" cy="147.3719" r="1.71163" fill="#F9F9F9" fill-opacity="0.35"/>
  <circle cx="96.0236" cy="147.3719" r="1.71163" fill="#F9F9F9" fill-opacity="0.35"/>
  <circle cx="113.139" cy="147.3719" r="1.71163" fill="#F9F9F9" fill-opacity="0.35"/>
  <circle cx="130.256" cy="147.3719" r="1.71163" fill="#F9F9F9" fill-opacity="0.35"/>
  <circle cx="147.372" cy="147.3719" r="1.71163" fill="#F9F9F9" fill-opacity="0.35"/>
  <circle cx="164.489" cy="147.3719" r="1.71163" fill="#F9F9F9" fill-opacity="0.35"/>
  <circle cx="181.604" cy="147.3719" r="1.71163" fill="#F9F9F9" fill-opacity="0.35"/>
  <circle cx="198.721" cy="147.3719" r="1.71163" fill="#F9F9F9" fill-opacity="0.35"/>
  <circle cx="215.837" cy="147.3719" r="1.71163" fill="#F9F9F9" fill-opacity="0.35"/>
  <circle cx="232.954" cy="147.3719" r="1.71163" fill="#F9F9F9" fill-opacity="0.35"/>
  <circle cx="250.07" cy="147.3719" r="1.71163" fill="#F9F9F9" fill-opacity="0.35"/>
  <circle cx="267.187" cy="147.3719" r="1.71163" fill="#F9F9F9" fill-opacity="0.35"/>
  <circle cx="284.302" cy="147.3719" r="1.71163" fill="#F9F9F9" fill-opacity="0.35"/>
  <circle cx="301.418" cy="147.3719" r="1.71163" fill="#F9F9F9" fill-opacity="0.35"/>
  <circle cx="318.535" cy="147.3719" r="1.71163" fill="#F9F9F9" fill-opacity="0.35"/>
  <circle cx="335.65" cy="147.3719" r="1.71163" fill="#F9F9F9" fill-opacity="0.35"/>
  <circle cx="352.767" cy="147.3719" r="1.71163" fill="#F9F9F9" fill-opacity="0.35"/>
  <circle cx="369.883" cy="147.3719" r="1.71163" fill="#F9F9F9" fill-opacity="0.35"/>
  <circle cx="387" cy="147.3719" r="1.71163" fill="#F9F9F9" fill-opacity="0.35"/>
  <circle cx="404.117" cy="147.3719" r="1.71163" fill="#F9F9F9" fill-opacity="0.35"/>
  <circle cx="421.232" cy="147.3719" r="1.71163" fill="#F9F9F9" fill-opacity="0.35"/>
  <circle cx="438.349" cy="147.3719" r="1.71163" fill="#F9F9F9" fill-opacity="0.35"/>
  <circle cx="455.465" cy="147.3719" r="1.71163" fill="#F9F9F9" fill-opacity="0.35"/>
  <circle cx="472.582" cy="147.3719" r="1.71163" fill="#F9F9F9" fill-opacity="0.35"/>
  <circle cx="489.697" cy="147.3719" r="1.71163" fill="#F9F9F9" fill-opacity="0.35"/>
  <circle cx="506.815" cy="147.3719" r="1.71163" fill="#F9F9F9" fill-opacity="0.35"/>
  <circle cx="27.5583" cy="164.4889" r="1.71163" fill="#F9F9F9" fill-opacity="0.35"/>
  <circle cx="44.6735" cy="164.4889" r="1.71163" fill="#F9F9F9" fill-opacity="0.35"/>
  <circle cx="61.7907" cy="164.4889" r="1.71163" fill="#F9F9F9" fill-opacity="0.35"/>
  <circle cx="78.906" cy="164.4889" r="1.71163" fill="#F9F9F9" fill-opacity="0.35"/>
  <circle cx="96.0236" cy="164.4889" r="1.71163" fill="#F9F9F9" fill-opacity="0.35"/>
  <circle cx="113.139" cy="164.4889" r="1.71163" fill="#F9F9F9" fill-opacity="0.35"/>
  <circle cx="130.256" cy="164.4889" r="1.71163" fill="#F9F9F9" fill-opacity="0.35"/>
  <circle cx="147.372" cy="164.4889" r="1.71163" fill="#F9F9F9" fill-opacity="0.35"/>
  <circle cx="164.489" cy="164.4889" r="1.71163" fill="#F9F9F9" fill-opacity="0.35"/>
  <circle cx="181.604" cy="164.4889" r="1.71163" fill="#F9F9F9" fill-opacity="0.35"/>
  <circle cx="198.721" cy="164.4889" r="1.71163" fill="#F9F9F9" fill-opacity="0.35"/>
  <circle cx="215.837" cy="164.4889" r="1.71163" fill="#F9F9F9" fill-opacity="0.35"/>
  <circle cx="232.954" cy="164.4889" r="1.71163" fill="#F9F9F9" fill-opacity="0.35"/>
  <circle cx="250.07" cy="164.4889" r="1.71163" fill="#F9F9F9" fill-opacity="0.35"/>
  <circle cx="267.187" cy="164.4889" r="1.71163" fill="#F9F9F9" fill-opacity="0.35"/>
  <circle cx="284.302" cy="164.4889" r="1.71163" fill="#F9F9F9" fill-opacity="0.35"/>
  <circle cx="301.418" cy="164.4889" r="1.71163" fill="#F9F9F9" fill-opacity="0.35"/>
  <circle cx="318.535" cy="164.4889" r="1.71163" fill="#F9F9F9" fill-opacity="0.35"/>
  <circle cx="335.65" cy="164.4889" r="1.71163" fill="#F9F9F9" fill-opacity="0.35"/>
  <circle cx="352.767" cy="164.4889" r="1.71163" fill="#F9F9F9" fill-opacity="0.35"/>
  <circle cx="369.883" cy="164.4889" r="1.71163" fill="#F9F9F9" fill-opacity="0.35"/>
  <circle cx="387" cy="164.4889" r="1.71163" fill="#F9F9F9" fill-opacity="0.35"/>
  <circle cx="404.117" cy="164.4889" r="1.71163" fill="#F9F9F9" fill-opacity="0.35"/>
  <circle cx="421.232" cy="164.4889" r="1.71163" fill="#F9F9F9" fill-opacity="0.35"/>
  <circle cx="438.349" cy="164.4889" r="1.71163" fill="#F9F9F9" fill-opacity="0.35"/>
  <circle cx="455.465" cy="164.4889" r="1.71163" fill="#F9F9F9" fill-opacity="0.35"/>
  <circle cx="472.582" cy="164.4889" r="1.71163" fill="#F9F9F9" fill-opacity="0.35"/>
  <circle cx="489.697" cy="164.4889" r="1.71163" fill="#F9F9F9" fill-opacity="0.35"/>
  <circle cx="506.815" cy="164.4889" r="1.71163" fill="#F9F9F9" fill-opacity="0.35"/>
  <circle cx="27.5583" cy="181.6049" r="1.71163" fill="#F9F9F9" fill-opacity="0.35"/>
  <circle cx="44.6735" cy="181.6049" r="1.71163" fill="#F9F9F9" fill-opacity="0.35"/>
  <circle cx="61.7907" cy="181.6049" r="1.71163" fill="#F9F9F9" fill-opacity="0.35"/>
  <circle cx="78.906" cy="181.6049" r="1.71163" fill="#F9F9F9" fill-opacity="0.35"/>
  <circle cx="96.0236" cy="181.6049" r="1.71163" fill="#F9F9F9" fill-opacity="0.35"/>
  <circle cx="113.139" cy="181.6049" r="1.71163" fill="#F9F9F9" fill-opacity="0.35"/>
  <circle cx="130.256" cy="181.6049" r="1.71163" fill="#F9F9F9" fill-opacity="0.35"/>
  <circle cx="147.372" cy="181.6049" r="1.71163" fill="#F9F9F9" fill-opacity="0.35"/>
  <circle cx="164.489" cy="181.6049" r="1.71163" fill="#F9F9F9" fill-opacity="0.35"/>
  <circle cx="181.604" cy="181.6049" r="1.71163" fill="#F9F9F9" fill-opacity="0.35"/>
  <circle cx="198.721" cy="181.6049" r="1.71163" fill="#F9F9F9" fill-opacity="0.35"/>
  <circle cx="215.837" cy="181.6049" r="1.71163" fill="#F9F9F9" fill-opacity="0.35"/>
  <circle cx="232.954" cy="181.6049" r="1.71163" fill="#F9F9F9" fill-opacity="0.35"/>
  <circle cx="250.07" cy="181.6049" r="1.71163" fill="#F9F9F9" fill-opacity="0.35"/>
  <circle cx="267.187" cy="181.6049" r="1.71163" fill="#F9F9F9" fill-opacity="0.35"/>
  <circle cx="284.302" cy="181.6049" r="1.71163" fill="#F9F9F9" fill-opacity="0.35"/>
  <circle cx="301.418" cy="181.6049" r="1.71163" fill="#F9F9F9" fill-opacity="0.35"/>
  <circle cx="318.535" cy="181.6049" r="1.71163" fill="#F9F9F9" fill-opacity="0.35"/>
  <circle cx="335.65" cy="181.6049" r="1.71163" fill="#F9F9F9" fill-opacity="0.35"/>
  <circle cx="352.767" cy="181.6049" r="1.71163" fill="#F9F9F9" fill-opacity="0.35"/>
  <circle cx="369.883" cy="181.6049" r="1.71163" fill="#F9F9F9" fill-opacity="0.35"/>
  <circle cx="387" cy="181.6049" r="1.71163" fill="#F9F9F9" fill-opacity="0.35"/>
  <circle cx="404.117" cy="181.6049" r="1.71163" fill="#F9F9F9" fill-opacity="0.35"/>
  <circle cx="421.232" cy="181.6049" r="1.71163" fill="#F9F9F9" fill-opacity="0.35"/>
  <circle cx="438.349" cy="181.6049" r="1.71163" fill="#F9F9F9" fill-opacity="0.35"/>
  <circle cx="455.465" cy="181.6049" r="1.71163" fill="#F9F9F9" fill-opacity="0.35"/>
  <circle cx="472.582" cy="181.6049" r="1.71163" fill="#F9F9F9" fill-opacity="0.35"/>
  <circle cx="489.697" cy="181.6049" r="1.71163" fill="#F9F9F9" fill-opacity="0.35"/>
  <circle cx="506.815" cy="181.6049" r="1.71163" fill="#F9F9F9" fill-opacity="0.35"/>
  <circle cx="27.5583" cy="198.7209" r="1.71163" fill="#F9F9F9" fill-opacity="0.35"/>
  <circle cx="44.6735" cy="198.7209" r="1.71163" fill="#F9F9F9" fill-opacity="0.35"/>
  <circle cx="61.7907" cy="198.7209" r="1.71163" fill="#F9F9F9" fill-opacity="0.35"/>
  <circle cx="78.906" cy="198.7209" r="1.71163" fill="#F9F9F9" fill-opacity="0.35"/>
  <circle cx="96.0236" cy="198.7209" r="1.71163" fill="#F9F9F9" fill-opacity="0.35"/>
  <circle cx="113.139" cy="198.7209" r="1.71163" fill="#F9F9F9" fill-opacity="0.35"/>
  <circle cx="130.256" cy="198.7209" r="1.71163" fill="#F9F9F9" fill-opacity="0.35"/>
  <circle cx="147.372" cy="198.7209" r="1.71163" fill="#F9F9F9" fill-opacity="0.35"/>
  <circle cx="164.489" cy="198.7209" r="1.71163" fill="#F9F9F9" fill-opacity="0.35"/>
  <circle cx="181.604" cy="198.7209" r="1.71163" fill="#F9F9F9" fill-opacity="0.35"/>
  <circle cx="198.721" cy="198.7209" r="1.71163" fill="#F9F9F9" fill-opacity="0.35"/>
  <circle cx="215.837" cy="198.7209" r="1.71163" fill="#F9F9F9" fill-opacity="0.35"/>
  <circle cx="232.954" cy="198.7209" r="1.71163" fill="#F9F9F9" fill-opacity="0.35"/>
  <circle cx="250.07" cy="198.7209" r="1.71163" fill="#F9F9F9" fill-opacity="0.35"/>
  <circle cx="267.187" cy="198.7209" r="1.71163" fill="#F9F9F9" fill-opacity="0.35"/>
  <circle cx="284.302" cy="198.7209" r="1.71163" fill="#F9F9F9" fill-opacity="0.35"/>
  <circle cx="301.418" cy="198.7209" r="1.71163" fill="#F9F9F9" fill-opacity="0.35"/>
  <circle cx="318.535" cy="198.7209" r="1.71163" fill="#F9F9F9" fill-opacity="0.35"/>
  <circle cx="335.65" cy="198.7209" r="1.71163" fill="#F9F9F9" fill-opacity="0.35"/>
  <circle cx="352.767" cy="198.7209" r="1.71163" fill="#F9F9F9" fill-opacity="0.35"/>
  <circle cx="369.883" cy="198.7209" r="1.71163" fill="#F9F9F9" fill-opacity="0.35"/>
  <circle cx="387" cy="198.7209" r="1.71163" fill="#F9F9F9" fill-opacity="0.35"/>
  <circle cx="404.117" cy="198.7209" r="1.71163" fill="#F9F9F9" fill-opacity="0.35"/>
  <circle cx="421.232" cy="198.7209" r="1.71163" fill="#F9F9F9" fill-opacity="0.35"/>
  <circle cx="438.349" cy="198.7209" r="1.71163" fill="#F9F9F9" fill-opacity="0.35"/>
  <circle cx="455.465" cy="198.7209" r="1.71163" fill="#F9F9F9" fill-opacity="0.35"/>
  <circle cx="472.582" cy="198.7209" r="1.71163" fill="#F9F9F9" fill-opacity="0.35"/>
  <circle cx="489.697" cy="198.7209" r="1.71163" fill="#F9F9F9" fill-opacity="0.35"/>
  <circle cx="506.815" cy="198.7209" r="1.71163" fill="#F9F9F9" fill-opacity="0.35"/>
  <circle cx="27.5583" cy="215.8379" r="1.71163" fill="#F9F9F9" fill-opacity="0.35"/>
  <circle cx="44.6735" cy="215.8379" r="1.71163" fill="#F9F9F9" fill-opacity="0.35"/>
  <circle cx="61.7907" cy="215.8379" r="1.71163" fill="#F9F9F9" fill-opacity="0.35"/>
  <circle cx="78.906" cy="215.8379" r="1.71163" fill="#F9F9F9" fill-opacity="0.35"/>
  <circle cx="96.0236" cy="215.8379" r="1.71163" fill="#F9F9F9" fill-opacity="0.35"/>
  <circle cx="113.139" cy="215.8379" r="1.71163" fill="#F9F9F9" fill-opacity="0.35"/>
  <circle cx="130.256" cy="215.8379" r="1.71163" fill="#F9F9F9" fill-opacity="0.35"/>
  <circle cx="147.372" cy="215.8379" r="1.71163" fill="#F9F9F9" fill-opacity="0.35"/>
  <circle cx="164.489" cy="215.8379" r="1.71163" fill="#F9F9F9" fill-opacity="0.35"/>
  <circle cx="181.604" cy="215.8379" r="1.71163" fill="#F9F9F9" fill-opacity="0.35"/>
  <circle cx="198.721" cy="215.8379" r="1.71163" fill="#F9F9F9" fill-opacity="0.35"/>
  <circle cx="215.837" cy="215.8379" r="1.71163" fill="#F9F9F9" fill-opacity="0.35"/>
  <circle cx="232.954" cy="215.8379" r="1.71163" fill="#F9F9F9" fill-opacity="0.35"/>
  <circle cx="250.07" cy="215.8379" r="1.71163" fill="#F9F9F9" fill-opacity="0.35"/>
  <circle cx="267.187" cy="215.8379" r="1.71163" fill="#F9F9F9" fill-opacity="0.35"/>
  <circle cx="284.302" cy="215.8379" r="1.71163" fill="#F9F9F9" fill-opacity="0.35"/>
  <circle cx="301.418" cy="215.8379" r="1.71163" fill="#F9F9F9" fill-opacity="0.35"/>
  <circle cx="318.535" cy="215.8379" r="1.71163" fill="#F9F9F9" fill-opacity="0.35"/>
  <circle cx="335.65" cy="215.8379" r="1.71163" fill="#F9F9F9" fill-opacity="0.35"/>
  <circle cx="352.767" cy="215.8379" r="1.71163" fill="#F9F9F9" fill-opacity="0.35"/>
  <circle cx="369.883" cy="215.8379" r="1.71163" fill="#F9F9F9" fill-opacity="0.35"/>
  <circle cx="387" cy="215.8379" r="1.71163" fill="#F9F9F9" fill-opacity="0.35"/>
  <circle cx="404.117" cy="215.8379" r="1.71163" fill="#F9F9F9" fill-opacity="0.35"/>
  <circle cx="421.232" cy="215.8379" r="1.71163" fill="#F9F9F9" fill-opacity="0.35"/>
  <circle cx="438.349" cy="215.8379" r="1.71163" fill="#F9F9F9" fill-opacity="0.35"/>
  <circle cx="455.465" cy="215.8379" r="1.71163" fill="#F9F9F9" fill-opacity="0.35"/>
  <circle cx="472.582" cy="215.8379" r="1.71163" fill="#F9F9F9" fill-opacity="0.35"/>
  <circle cx="489.697" cy="215.8379" r="1.71163" fill="#F9F9F9" fill-opacity="0.35"/>
  <circle cx="506.815" cy="215.8379" r="1.71163" fill="#F9F9F9" fill-opacity="0.35"/>
  <circle cx="27.5583" cy="232.9539" r="1.71163" fill="#F9F9F9" fill-opacity="0.35"/>
  <circle cx="44.6735" cy="232.9539" r="1.71163" fill="#F9F9F9" fill-opacity="0.35"/>
  <circle cx="61.7907" cy="232.9539" r="1.71163" fill="#F9F9F9" fill-opacity="0.35"/>
  <circle cx="78.906" cy="232.9539" r="1.71163" fill="#F9F9F9" fill-opacity="0.35"/>
  <circle cx="96.0236" cy="232.9539" r="1.71163" fill="#F9F9F9" fill-opacity="0.35"/>
  <circle cx="113.139" cy="232.9539" r="1.71163" fill="#F9F9F9" fill-opacity="0.35"/>
  <circle cx="130.256" cy="232.9539" r="1.71163" fill="#F9F9F9" fill-opacity="0.35"/>
  <circle cx="147.372" cy="232.9539" r="1.71163" fill="#F9F9F9" fill-opacity="0.35"/>
  <circle cx="164.489" cy="232.9539" r="1.71163" fill="#F9F9F9" fill-opacity="0.35"/>
  <circle cx="181.604" cy="232.9539" r="1.71163" fill="#F9F9F9" fill-opacity="0.35"/>
  <circle cx="198.721" cy="232.9539" r="1.71163" fill="#F9F9F9" fill-opacity="0.35"/>
  <circle cx="215.837" cy="232.9539" r="1.71163" fill="#F9F9F9" fill-opacity="0.35"/>
  <circle cx="232.954" cy="232.9539" r="1.71163" fill="#F9F9F9" fill-opacity="0.35"/>
  <circle cx="250.07" cy="232.9539" r="1.71163" fill="#F9F9F9" fill-opacity="0.35"/>
  <circle cx="267.187" cy="232.9539" r="1.71163" fill="#F9F9F9" fill-opacity="0.35"/>
  <circle cx="284.302" cy="232.9539" r="1.71163" fill="#F9F9F9" fill-opacity="0.35"/>
  <circle cx="301.418" cy="232.9539" r="1.71163" fill="#F9F9F9" fill-opacity="0.35"/>
  <circle cx="318.535" cy="232.9539" r="1.71163" fill="#F9F9F9" fill-opacity="0.35"/>
  <circle cx="335.65" cy="232.9539" r="1.71163" fill="#F9F9F9" fill-opacity="0.35"/>
  <circle cx="352.767" cy="232.9539" r="1.71163" fill="#F9F9F9" fill-opacity="0.35"/>
  <circle cx="369.883" cy="232.9539" r="1.71163" fill="#F9F9F9" fill-opacity="0.35"/>
  <circle cx="387" cy="232.9539" r="1.71163" fill="#F9F9F9" fill-opacity="0.35"/>
  <circle cx="404.117" cy="232.9539" r="1.71163" fill="#F9F9F9" fill-opacity="0.35"/>
  <circle cx="421.232" cy="232.9539" r="1.71163" fill="#F9F9F9" fill-opacity="0.35"/>
  <circle cx="438.349" cy="232.9539" r="1.71163" fill="#F9F9F9" fill-opacity="0.35"/>
  <circle cx="455.465" cy="232.9539" r="1.71163" fill="#F9F9F9" fill-opacity="0.35"/>
  <circle cx="472.582" cy="232.9539" r="1.71163" fill="#F9F9F9" fill-opacity="0.35"/>
  <circle cx="489.697" cy="232.9539" r="1.71163" fill="#F9F9F9" fill-opacity="0.35"/>
  <circle cx="506.815" cy="232.9539" r="1.71163" fill="#F9F9F9" fill-opacity="0.35"/>
  <circle cx="27.5583" cy="250.0699" r="1.71163" fill="#F9F9F9" fill-opacity="0.35"/>
  <circle cx="44.6735" cy="250.0699" r="1.71163" fill="#F9F9F9" fill-opacity="0.35"/>
  <circle cx="61.7907" cy="250.0699" r="1.71163" fill="#F9F9F9" fill-opacity="0.35"/>
  <circle cx="78.906" cy="250.0699" r="1.71163" fill="#F9F9F9" fill-opacity="0.35"/>
  <circle cx="96.0236" cy="250.0699" r="1.71163" fill="#F9F9F9" fill-opacity="0.35"/>
  <circle cx="113.139" cy="250.0699" r="1.71163" fill="#F9F9F9" fill-opacity="0.35"/>
  <circle cx="130.256" cy="250.0699" r="1.71163" fill="#F9F9F9" fill-opacity="0.35"/>
  <circle cx="147.372" cy="250.0699" r="1.71163" fill="#F9F9F9" fill-opacity="0.35"/>
  <circle cx="164.489" cy="250.0699" r="1.71163" fill="#F9F9F9" fill-opacity="0.35"/>
  <circle cx="181.604" cy="250.0699" r="1.71163" fill="#F9F9F9" fill-opacity="0.35"/>
  <circle cx="198.721" cy="250.0699" r="1.71163" fill="#F9F9F9" fill-opacity="0.35"/>
  <circle cx="215.837" cy="250.0699" r="1.71163" fill="#F9F9F9" fill-opacity="0.35"/>
  <circle cx="232.954" cy="250.0699" r="1.71163" fill="#F9F9F9" fill-opacity="0.35"/>
  <circle cx="250.07" cy="250.0699" r="1.71163" fill="#F9F9F9" fill-opacity="0.35"/>
  <circle cx="267.187" cy="250.0699" r="1.71163" fill="#F9F9F9" fill-opacity="0.35"/>
  <circle cx="284.302" cy="250.0699" r="1.71163" fill="#F9F9F9" fill-opacity="0.35"/>
  <circle cx="301.418" cy="250.0699" r="1.71163" fill="#F9F9F9" fill-opacity="0.35"/>
  <circle cx="318.535" cy="250.0699" r="1.71163" fill="#F9F9F9" fill-opacity="0.35"/>
  <circle cx="335.65" cy="250.0699" r="1.71163" fill="#F9F9F9" fill-opacity="0.35"/>
  <circle cx="352.767" cy="250.0699" r="1.71163" fill="#F9F9F9" fill-opacity="0.35"/>
  <circle cx="369.883" cy="250.0699" r="1.71163" fill="#F9F9F9" fill-opacity="0.35"/>
  <circle cx="387" cy="250.0699" r="1.71163" fill="#F9F9F9" fill-opacity="0.35"/>
  <circle cx="404.117" cy="250.0699" r="1.71163" fill="#F9F9F9" fill-opacity="0.35"/>
  <circle cx="421.232" cy="250.0699" r="1.71163" fill="#F9F9F9" fill-opacity="0.35"/>
  <circle cx="438.349" cy="250.0699" r="1.71163" fill="#F9F9F9" fill-opacity="0.35"/>
  <circle cx="455.465" cy="250.0699" r="1.71163" fill="#F9F9F9" fill-opacity="0.35"/>
  <circle cx="472.582" cy="250.0699" r="1.71163" fill="#F9F9F9" fill-opacity="0.35"/>
  <circle cx="489.697" cy="250.0699" r="1.71163" fill="#F9F9F9" fill-opacity="0.35"/>
  <circle cx="506.815" cy="250.0699" r="1.71163" fill="#F9F9F9" fill-opacity="0.35"/>
  <circle cx="27.5583" cy="267.1859" r="1.71163" fill="#F9F9F9" fill-opacity="0.35"/>
  <circle cx="44.6735" cy="267.1859" r="1.71163" fill="#F9F9F9" fill-opacity="0.35"/>
  <circle cx="61.7907" cy="267.1859" r="1.71163" fill="#F9F9F9" fill-opacity="0.35"/>
  <circle cx="78.906" cy="267.1859" r="1.71163" fill="#F9F9F9" fill-opacity="0.35"/>
  <circle cx="96.0236" cy="267.1859" r="1.71163" fill="#F9F9F9" fill-opacity="0.35"/>
  <circle cx="113.139" cy="267.1859" r="1.71163" fill="#F9F9F9" fill-opacity="0.35"/>
  <circle cx="130.256" cy="267.1859" r="1.71163" fill="#F9F9F9" fill-opacity="0.35"/>
  <circle cx="147.372" cy="267.1859" r="1.71163" fill="#F9F9F9" fill-opacity="0.35"/>
  <circle cx="164.489" cy="267.1859" r="1.71163" fill="#F9F9F9" fill-opacity="0.35"/>
  <circle cx="181.604" cy="267.1859" r="1.71163" fill="#F9F9F9" fill-opacity="0.35"/>
  <circle cx="198.721" cy="267.1859" r="1.71163" fill="#F9F9F9" fill-opacity="0.35"/>
  <circle cx="215.837" cy="267.1859" r="1.71163" fill="#F9F9F9" fill-opacity="0.35"/>
  <circle cx="232.954" cy="267.1859" r="1.71163" fill="#F9F9F9" fill-opacity="0.35"/>
  <circle cx="250.07" cy="267.1859" r="1.71163" fill="#F9F9F9" fill-opacity="0.35"/>
  <circle cx="267.187" cy="267.1859" r="1.71163" fill="#F9F9F9" fill-opacity="0.35"/>
  <circle cx="284.302" cy="267.1859" r="1.71163" fill="#F9F9F9" fill-opacity="0.35"/>
  <circle cx="301.418" cy="267.1859" r="1.71163" fill="#F9F9F9" fill-opacity="0.35"/>
  <circle cx="318.535" cy="267.1859" r="1.71163" fill="#F9F9F9" fill-opacity="0.35"/>
  <circle cx="335.65" cy="267.1859" r="1.71163" fill="#F9F9F9" fill-opacity="0.35"/>
  <circle cx="352.767" cy="267.1859" r="1.71163" fill="#F9F9F9" fill-opacity="0.35"/>
  <circle cx="369.883" cy="267.1859" r="1.71163" fill="#F9F9F9" fill-opacity="0.35"/>
  <circle cx="387" cy="267.1859" r="1.71163" fill="#F9F9F9" fill-opacity="0.35"/>
  <circle cx="404.117" cy="267.1859" r="1.71163" fill="#F9F9F9" fill-opacity="0.35"/>
  <circle cx="421.232" cy="267.1859" r="1.71163" fill="#F9F9F9" fill-opacity="0.35"/>
  <circle cx="438.349" cy="267.1859" r="1.71163" fill="#F9F9F9" fill-opacity="0.35"/>
  <circle cx="455.465" cy="267.1859" r="1.71163" fill="#F9F9F9" fill-opacity="0.35"/>
  <circle cx="472.582" cy="267.1859" r="1.71163" fill="#F9F9F9" fill-opacity="0.35"/>
  <circle cx="489.697" cy="267.1859" r="1.71163" fill="#F9F9F9" fill-opacity="0.35"/>
  <circle cx="506.815" cy="267.1859" r="1.71163" fill="#F9F9F9" fill-opacity="0.35"/>
  <circle cx="27.5583" cy="284.3029" r="1.71163" fill="#F9F9F9" fill-opacity="0.35"/>
  <circle cx="44.6735" cy="284.3029" r="1.71163" fill="#F9F9F9" fill-opacity="0.35"/>
  <circle cx="61.7907" cy="284.3029" r="1.71163" fill="#F9F9F9" fill-opacity="0.35"/>
  <circle cx="78.906" cy="284.3029" r="1.71163" fill="#F9F9F9" fill-opacity="0.35"/>
  <circle cx="96.0236" cy="284.3029" r="1.71163" fill="#F9F9F9" fill-opacity="0.35"/>
  <circle cx="113.139" cy="284.3029" r="1.71163" fill="#F9F9F9" fill-opacity="0.35"/>
  <circle cx="130.256" cy="284.3029" r="1.71163" fill="#F9F9F9" fill-opacity="0.35"/>
  <circle cx="147.372" cy="284.3029" r="1.71163" fill="#F9F9F9" fill-opacity="0.35"/>
  <circle cx="164.489" cy="284.3029" r="1.71163" fill="#F9F9F9" fill-opacity="0.35"/>
  <circle cx="181.604" cy="284.3029" r="1.71163" fill="#F9F9F9" fill-opacity="0.35"/>
  <circle cx="198.721" cy="284.3029" r="1.71163" fill="#F9F9F9" fill-opacity="0.35"/>
  <circle cx="215.837" cy="284.3029" r="1.71163" fill="#F9F9F9" fill-opacity="0.35"/>
  <circle cx="232.954" cy="284.3029" r="1.71163" fill="#F9F9F9" fill-opacity="0.35"/>
  <circle cx="250.07" cy="284.3029" r="1.71163" fill="#F9F9F9" fill-opacity="0.35"/>
  <circle cx="267.187" cy="284.3029" r="1.71163" fill="#F9F9F9" fill-opacity="0.35"/>
  <circle cx="284.302" cy="284.3029" r="1.71163" fill="#F9F9F9" fill-opacity="0.35"/>
  <circle cx="301.418" cy="284.3029" r="1.71163" fill="#F9F9F9" fill-opacity="0.35"/>
  <circle cx="318.535" cy="284.3029" r="1.71163" fill="#F9F9F9" fill-opacity="0.35"/>
  <circle cx="335.65" cy="284.3029" r="1.71163" fill="#F9F9F9" fill-opacity="0.35"/>
  <circle cx="352.767" cy="284.3029" r="1.71163" fill="#F9F9F9" fill-opacity="0.35"/>
  <circle cx="369.883" cy="284.3029" r="1.71163" fill="#F9F9F9" fill-opacity="0.35"/>
  <circle cx="387" cy="284.3029" r="1.71163" fill="#F9F9F9" fill-opacity="0.35"/>
  <circle cx="404.117" cy="284.3029" r="1.71163" fill="#F9F9F9" fill-opacity="0.35"/>
  <circle cx="421.232" cy="284.3029" r="1.71163" fill="#F9F9F9" fill-opacity="0.35"/>
  <circle cx="438.349" cy="284.3029" r="1.71163" fill="#F9F9F9" fill-opacity="0.35"/>
  <circle cx="455.465" cy="284.3029" r="1.71163" fill="#F9F9F9" fill-opacity="0.35"/>
  <circle cx="472.582" cy="284.3029" r="1.71163" fill="#F9F9F9" fill-opacity="0.35"/>
  <circle cx="489.697" cy="284.3029" r="1.71163" fill="#F9F9F9" fill-opacity="0.35"/>
  <circle cx="506.815" cy="284.3029" r="1.71163" fill="#F9F9F9" fill-opacity="0.35"/>
  <circle cx="27.5583" cy="301.4189" r="1.71163" fill="#F9F9F9" fill-opacity="0.35"/>
  <circle cx="44.6735" cy="301.4189" r="1.71163" fill="#F9F9F9" fill-opacity="0.35"/>
  <circle cx="61.7907" cy="301.4189" r="1.71163" fill="#F9F9F9" fill-opacity="0.35"/>
  <circle cx="78.906" cy="301.4189" r="1.71163" fill="#F9F9F9" fill-opacity="0.35"/>
  <circle cx="96.0236" cy="301.4189" r="1.71163" fill="#F9F9F9" fill-opacity="0.35"/>
  <circle cx="113.139" cy="301.4189" r="1.71163" fill="#F9F9F9" fill-opacity="0.35"/>
  <circle cx="130.256" cy="301.4189" r="1.71163" fill="#F9F9F9" fill-opacity="0.35"/>
  <circle cx="147.372" cy="301.4189" r="1.71163" fill="#F9F9F9" fill-opacity="0.35"/>
  <circle cx="164.489" cy="301.4189" r="1.71163" fill="#F9F9F9" fill-opacity="0.35"/>
  <circle cx="181.604" cy="301.4189" r="1.71163" fill="#F9F9F9" fill-opacity="0.35"/>
  <circle cx="198.721" cy="301.4189" r="1.71163" fill="#F9F9F9" fill-opacity="0.35"/>
  <circle cx="215.837" cy="301.4189" r="1.71163" fill="#F9F9F9" fill-opacity="0.35"/>
  <circle cx="232.954" cy="301.4189" r="1.71163" fill="#F9F9F9" fill-opacity="0.35"/>
  <circle cx="250.07" cy="301.4189" r="1.71163" fill="#F9F9F9" fill-opacity="0.35"/>
  <circle cx="267.187" cy="301.4189" r="1.71163" fill="#F9F9F9" fill-opacity="0.35"/>
  <circle cx="284.302" cy="301.4189" r="1.71163" fill="#F9F9F9" fill-opacity="0.35"/>
  <circle cx="301.418" cy="301.4189" r="1.71163" fill="#F9F9F9" fill-opacity="0.35"/>
  <circle cx="318.535" cy="301.4189" r="1.71163" fill="#F9F9F9" fill-opacity="0.35"/>
  <circle cx="335.65" cy="301.4189" r="1.71163" fill="#F9F9F9" fill-opacity="0.35"/>
  <circle cx="352.767" cy="301.4189" r="1.71163" fill="#F9F9F9" fill-opacity="0.35"/>
  <circle cx="369.883" cy="301.4189" r="1.71163" fill="#F9F9F9" fill-opacity="0.35"/>
  <circle cx="387" cy="301.4189" r="1.71163" fill="#F9F9F9" fill-opacity="0.35"/>
  <circle cx="404.117" cy="301.4189" r="1.71163" fill="#F9F9F9" fill-opacity="0.35"/>
  <circle cx="421.232" cy="301.4189" r="1.71163" fill="#F9F9F9" fill-opacity="0.35"/>
  <circle cx="438.349" cy="301.4189" r="1.71163" fill="#F9F9F9" fill-opacity="0.35"/>
  <circle cx="455.465" cy="301.4189" r="1.71163" fill="#F9F9F9" fill-opacity="0.35"/>
  <circle cx="472.582" cy="301.4189" r="1.71163" fill="#F9F9F9" fill-opacity="0.35"/>
  <circle cx="489.697" cy="301.4189" r="1.71163" fill="#F9F9F9" fill-opacity="0.35"/>
  <circle cx="506.815" cy="301.4189" r="1.71163" fill="#F9F9F9" fill-opacity="0.35"/>
  <circle cx="27.5583" cy="318.5349" r="1.71163" fill="#F9F9F9" fill-opacity="0.35"/>
  <circle cx="44.6735" cy="318.5349" r="1.71163" fill="#F9F9F9" fill-opacity="0.35"/>
  <circle cx="61.7907" cy="318.5349" r="1.71163" fill="#F9F9F9" fill-opacity="0.35"/>
  <circle cx="78.906" cy="318.5349" r="1.71163" fill="#F9F9F9" fill-opacity="0.35"/>
  <circle cx="96.0236" cy="318.5349" r="1.71163" fill="#F9F9F9" fill-opacity="0.35"/>
  <circle cx="113.139" cy="318.5349" r="1.71163" fill="#F9F9F9" fill-opacity="0.35"/>
  <circle cx="130.256" cy="318.5349" r="1.71163" fill="#F9F9F9" fill-opacity="0.35"/>
  <circle cx="147.372" cy="318.5349" r="1.71163" fill="#F9F9F9" fill-opacity="0.35"/>
  <circle cx="164.489" cy="318.5349" r="1.71163" fill="#F9F9F9" fill-opacity="0.35"/>
  <circle cx="181.604" cy="318.5349" r="1.71163" fill="#F9F9F9" fill-opacity="0.35"/>
  <circle cx="198.721" cy="318.5349" r="1.71163" fill="#F9F9F9" fill-opacity="0.35"/>
  <circle cx="215.837" cy="318.5349" r="1.71163" fill="#F9F9F9" fill-opacity="0.35"/>
  <circle cx="232.954" cy="318.5349" r="1.71163" fill="#F9F9F9" fill-opacity="0.35"/>
  <circle cx="250.07" cy="318.5349" r="1.71163" fill="#F9F9F9" fill-opacity="0.35"/>
  <circle cx="267.187" cy="318.5349" r="1.71163" fill="#F9F9F9" fill-opacity="0.35"/>
  <circle cx="284.302" cy="318.5349" r="1.71163" fill="#F9F9F9" fill-opacity="0.35"/>
  <circle cx="301.418" cy="318.5349" r="1.71163" fill="#F9F9F9" fill-opacity="0.35"/>
  <circle cx="318.535" cy="318.5349" r="1.71163" fill="#F9F9F9" fill-opacity="0.35"/>
  <circle cx="335.65" cy="318.5349" r="1.71163" fill="#F9F9F9" fill-opacity="0.35"/>
  <circle cx="352.767" cy="318.5349" r="1.71163" fill="#F9F9F9" fill-opacity="0.35"/>
  <circle cx="369.883" cy="318.5349" r="1.71163" fill="#F9F9F9" fill-opacity="0.35"/>
  <circle cx="387" cy="318.5349" r="1.71163" fill="#F9F9F9" fill-opacity="0.35"/>
  <circle cx="404.117" cy="318.5349" r="1.71163" fill="#F9F9F9" fill-opacity="0.35"/>
  <circle cx="421.232" cy="318.5349" r="1.71163" fill="#F9F9F9" fill-opacity="0.35"/>
  <circle cx="438.349" cy="318.5349" r="1.71163" fill="#F9F9F9" fill-opacity="0.35"/>
  <circle cx="455.465" cy="318.5349" r="1.71163" fill="#F9F9F9" fill-opacity="0.35"/>
  <circle cx="472.582" cy="318.5349" r="1.71163" fill="#F9F9F9" fill-opacity="0.35"/>
  <circle cx="489.697" cy="318.5349" r="1.71163" fill="#F9F9F9" fill-opacity="0.35"/>
  <circle cx="506.815" cy="318.5349" r="1.71163" fill="#F9F9F9" fill-opacity="0.35"/>
  <circle cx="27.5583" cy="335.6509" r="1.71163" fill="#F9F9F9" fill-opacity="0.35"/>
  <circle cx="44.6735" cy="335.6509" r="1.71163" fill="#F9F9F9" fill-opacity="0.35"/>
  <circle cx="61.7907" cy="335.6509" r="1.71163" fill="#F9F9F9" fill-opacity="0.35"/>
  <circle cx="78.906" cy="335.6509" r="1.71163" fill="#F9F9F9" fill-opacity="0.35"/>
  <circle cx="96.0236" cy="335.6509" r="1.71163" fill="#F9F9F9" fill-opacity="0.35"/>
  <circle cx="113.139" cy="335.6509" r="1.71163" fill="#F9F9F9" fill-opacity="0.35"/>
  <circle cx="130.256" cy="335.6509" r="1.71163" fill="#F9F9F9" fill-opacity="0.35"/>
  <circle cx="147.372" cy="335.6509" r="1.71163" fill="#F9F9F9" fill-opacity="0.35"/>
  <circle cx="164.489" cy="335.6509" r="1.71163" fill="#F9F9F9" fill-opacity="0.35"/>
  <circle cx="181.604" cy="335.6509" r="1.71163" fill="#F9F9F9" fill-opacity="0.35"/>
  <circle cx="198.721" cy="335.6509" r="1.71163" fill="#F9F9F9" fill-opacity="0.35"/>
  <circle cx="215.837" cy="335.6509" r="1.71163" fill="#F9F9F9" fill-opacity="0.35"/>
  <circle cx="232.954" cy="335.6509" r="1.71163" fill="#F9F9F9" fill-opacity="0.35"/>
  <circle cx="250.07" cy="335.6509" r="1.71163" fill="#F9F9F9" fill-opacity="0.35"/>
  <circle cx="267.187" cy="335.6509" r="1.71163" fill="#F9F9F9" fill-opacity="0.35"/>
  <circle cx="284.302" cy="335.6509" r="1.71163" fill="#F9F9F9" fill-opacity="0.35"/>
  <circle cx="301.418" cy="335.6509" r="1.71163" fill="#F9F9F9" fill-opacity="0.35"/>
  <circle cx="318.535" cy="335.6509" r="1.71163" fill="#F9F9F9" fill-opacity="0.35"/>
  <circle cx="335.65" cy="335.6509" r="1.71163" fill="#F9F9F9" fill-opacity="0.35"/>
  <circle cx="352.767" cy="335.6509" r="1.71163" fill="#F9F9F9" fill-opacity="0.35"/>
  <circle cx="369.883" cy="335.6509" r="1.71163" fill="#F9F9F9" fill-opacity="0.35"/>
  <circle cx="387" cy="335.6509" r="1.71163" fill="#F9F9F9" fill-opacity="0.35"/>
  <circle cx="404.117" cy="335.6509" r="1.71163" fill="#F9F9F9" fill-opacity="0.35"/>
  <circle cx="421.232" cy="335.6509" r="1.71163" fill="#F9F9F9" fill-opacity="0.35"/>
  <circle cx="438.349" cy="335.6509" r="1.71163" fill="#F9F9F9" fill-opacity="0.35"/>
  <circle cx="455.465" cy="335.6509" r="1.71163" fill="#F9F9F9" fill-opacity="0.35"/>
  <circle cx="472.582" cy="335.6509" r="1.71163" fill="#F9F9F9" fill-opacity="0.35"/>
  <circle cx="489.697" cy="335.6509" r="1.71163" fill="#F9F9F9" fill-opacity="0.35"/>
  <circle cx="506.815" cy="335.6509" r="1.71163" fill="#F9F9F9" fill-opacity="0.35"/>
  <circle cx="27.5583" cy="352.7669" r="1.71163" fill="#F9F9F9" fill-opacity="0.35"/>
  <circle cx="44.6735" cy="352.7669" r="1.71163" fill="#F9F9F9" fill-opacity="0.35"/>
  <circle cx="61.7907" cy="352.7669" r="1.71163" fill="#F9F9F9" fill-opacity="0.35"/>
  <circle cx="78.906" cy="352.7669" r="1.71163" fill="#F9F9F9" fill-opacity="0.35"/>
  <circle cx="96.0236" cy="352.7669" r="1.71163" fill="#F9F9F9" fill-opacity="0.35"/>
  <circle cx="113.139" cy="352.7669" r="1.71163" fill="#F9F9F9" fill-opacity="0.35"/>
  <circle cx="130.256" cy="352.7669" r="1.71163" fill="#F9F9F9" fill-opacity="0.35"/>
  <circle cx="147.372" cy="352.7669" r="1.71163" fill="#F9F9F9" fill-opacity="0.35"/>
  <circle cx="164.489" cy="352.7669" r="1.71163" fill="#F9F9F9" fill-opacity="0.35"/>
  <circle cx="181.604" cy="352.7669" r="1.71163" fill="#F9F9F9" fill-opacity="0.35"/>
  <circle cx="198.721" cy="352.7669" r="1.71163" fill="#F9F9F9" fill-opacity="0.35"/>
  <circle cx="215.837" cy="352.7669" r="1.71163" fill="#F9F9F9" fill-opacity="0.35"/>
  <circle cx="232.954" cy="352.7669" r="1.71163" fill="#F9F9F9" fill-opacity="0.35"/>
  <circle cx="250.07" cy="352.7669" r="1.71163" fill="#F9F9F9" fill-opacity="0.35"/>
  <circle cx="267.187" cy="352.7669" r="1.71163" fill="#F9F9F9" fill-opacity="0.35"/>
  <circle cx="284.302" cy="352.7669" r="1.71163" fill="#F9F9F9" fill-opacity="0.35"/>
  <circle cx="301.418" cy="352.7669" r="1.71163" fill="#F9F9F9" fill-opacity="0.35"/>
  <circle cx="318.535" cy="352.7669" r="1.71163" fill="#F9F9F9" fill-opacity="0.35"/>
  <circle cx="335.65" cy="352.7669" r="1.71163" fill="#F9F9F9" fill-opacity="0.35"/>
  <circle cx="352.767" cy="352.7669" r="1.71163" fill="#F9F9F9" fill-opacity="0.35"/>
  <circle cx="369.883" cy="352.7669" r="1.71163" fill="#F9F9F9" fill-opacity="0.35"/>
  <circle cx="387" cy="352.7669" r="1.71163" fill="#F9F9F9" fill-opacity="0.35"/>
  <circle cx="404.117" cy="352.7669" r="1.71163" fill="#F9F9F9" fill-opacity="0.35"/>
  <circle cx="421.232" cy="352.7669" r="1.71163" fill="#F9F9F9" fill-opacity="0.35"/>
  <circle cx="438.349" cy="352.7669" r="1.71163" fill="#F9F9F9" fill-opacity="0.35"/>
  <circle cx="455.465" cy="352.7669" r="1.71163" fill="#F9F9F9" fill-opacity="0.35"/>
  <circle cx="472.582" cy="352.7669" r="1.71163" fill="#F9F9F9" fill-opacity="0.35"/>
  <circle cx="489.697" cy="352.7669" r="1.71163" fill="#F9F9F9" fill-opacity="0.35"/>
  <circle cx="506.815" cy="352.7669" r="1.71163" fill="#F9F9F9" fill-opacity="0.35"/>
</g>
</svg>