<svg width="534" height="380" viewBox="0 0 534 380" fill="none" xmlns="http://www.w3.org/2000/svg">
<g opacity="0.95">
  <ellipse cx="27" cy="353" rx="2" ry="2" fill="#73F36C"/>
  <ellipse cx="27" cy="336" rx="2" ry="2" fill="#73F36C"/>
  <ellipse cx="27" cy="319" rx="2" ry="2" fill="#73F36C"/>
  <ellipse cx="45" cy="353" rx="2" ry="2" fill="#73F36C"/>
  <ellipse cx="45" cy="336" rx="2" ry="2" fill="#73F36C"/>
  <ellipse cx="45" cy="319" rx="2" ry="2" fill="#73F36C"/>
  <ellipse cx="27" cy="302" rx="2" ry="2" fill="#73F36C"/>
  <ellipse cx="27" cy="284" rx="2" ry="2" fill="#73F36C"/>
  <ellipse cx="96" cy="353" rx="2" ry="2" fill="#73F36C"/>
  <ellipse cx="96" cy="336" rx="2" ry="2" fill="#73F36C"/>
  <ellipse cx="96" cy="319" rx="2" ry="2" fill="#73F36C"/>
  <ellipse cx="96" cy="302" rx="2" ry="2" fill="#73F36C"/>
  <ellipse cx="96" cy="284" rx="2" ry="2" fill="#73F36C"/>
  <ellipse cx="113" cy="353" rx="2" ry="2" fill="#73F36C"/>
  <ellipse cx="113" cy="336" rx="2" ry="2" fill="#73F36C"/>
  <ellipse cx="113" cy="319" rx="2" ry="2" fill="#73F36C"/>
  <ellipse cx="113" cy="302" rx="2" ry="2" fill="#73F36C"/>
  <ellipse cx="113" cy="284" rx="2" ry="2" fill="#73F36C"/>
  <ellipse cx="113" cy="267" rx="2" ry="2" fill="#73F36C"/>
  <ellipse cx="130" cy="353" rx="2" ry="2" fill="#73F36C"/>
  <ellipse cx="130" cy="336" rx="2" ry="2" fill="#73F36C"/>
  <ellipse cx="130" cy="319" rx="2" ry="2" fill="#73F36C"/>
  <ellipse cx="130" cy="302" rx="2" ry="2" fill="#73F36C"/>
  <ellipse cx="130" cy="284" rx="2" ry="2" fill="#73F36C"/>
  <ellipse cx="130" cy="267" rx="2" ry="2" fill="#73F36C"/>
  <ellipse cx="130" cy="250" rx="2" ry="2" fill="#73F36C"/>
  <ellipse cx="148" cy="353" rx="2" ry="2" fill="#73F36C"/>
  <ellipse cx="148" cy="336" rx="2" ry="2" fill="#73F36C"/>
  <ellipse cx="148" cy="319" rx="2" ry="2" fill="#73F36C"/>
  <ellipse cx="148" cy="302" rx="2" ry="2" fill="#73F36C"/>
  <ellipse cx="148" cy="284" rx="2" ry="2" fill="#73F36C"/>
  <ellipse cx="148" cy="267" rx="2" ry="2" fill="#73F36C"/>
  <ellipse cx="148" cy="250" rx="2" ry="2" fill="#73F36C"/>
  <ellipse cx="164" cy="353" rx="2" ry="2" fill="#73F36C"/>
  <ellipse cx="164" cy="336" rx="2" ry="2" fill="#73F36C"/>
  <ellipse cx="164" cy="319" rx="2" ry="2" fill="#73F36C"/>
  <ellipse cx="164" cy="302" rx="2" ry="2" fill="#73F36C"/>
  <ellipse cx="164" cy="284" rx="2" ry="2" fill="#73F36C"/>
  <ellipse cx="164" cy="267" rx="2" ry="2" fill="#73F36C"/>
  <ellipse cx="164" cy="250" rx="2" ry="2" fill="#73F36C"/>
  <ellipse cx="181" cy="353" rx="2" ry="2" fill="#73F36C"/>
  <ellipse cx="181" cy="336" rx="2" ry="2" fill="#73F36C"/>
  <ellipse cx="181" cy="319" rx="2" ry="2" fill="#73F36C"/>
  <ellipse cx="181" cy="302" rx="2" ry="2" fill="#73F36C"/>
  <ellipse cx="181" cy="284" rx="2" ry="2" fill="#73F36C"/>
  <ellipse cx="181" cy="267" rx="2" ry="2" fill="#73F36C"/>
  <ellipse cx="181" cy="250" rx="2" ry="2" fill="#73F36C"/>
  <ellipse cx="181" cy="233" rx="2" ry="2" fill="#73F36C"/>
  <ellipse cx="199" cy="353" rx="2" ry="2" fill="#73F36C"/>
  <ellipse cx="199" cy="336" rx="2" ry="2" fill="#73F36C"/>
  <ellipse cx="199" cy="319" rx="2" ry="2" fill="#73F36C"/>
  <ellipse cx="199" cy="302" rx="2" ry="2" fill="#73F36C"/>
  <ellipse cx="199" cy="284" rx="2" ry="2" fill="#73F36C"/>
  <ellipse cx="199" cy="267" rx="2" ry="2" fill="#73F36C"/>
  <ellipse cx="199" cy="250" rx="2" ry="2" fill="#73F36C"/>
  <ellipse cx="199" cy="233" rx="2" ry="2" fill="#73F36C"/>
  <ellipse cx="199" cy="216" rx="2" ry="2" fill="#73F36C"/>
  <ellipse cx="216" cy="353" rx="2" ry="2" fill="#73F36C"/>
  <ellipse cx="216" cy="336" rx="2" ry="2" fill="#73F36C"/>
  <ellipse cx="216" cy="319" rx="2" ry="2" fill="#73F36C"/>
  <ellipse cx="216" cy="302" rx="2" ry="2" fill="#73F36C"/>
  <ellipse cx="216" cy="284" rx="2" ry="2" fill="#73F36C"/>
  <ellipse cx="216" cy="267" rx="2" ry="2" fill="#73F36C"/>
  <ellipse cx="216" cy="250" rx="2" ry="2" fill="#73F36C"/>
  <ellipse cx="216" cy="233" rx="2" ry="2" fill="#73F36C"/>
  <ellipse cx="216" cy="216" rx="2" ry="2" fill="#73F36C"/>
  <ellipse cx="216" cy="199" rx="2" ry="2" fill="#73F36C"/>
  <ellipse cx="233" cy="353" rx="2" ry="2" fill="#73F36C"/>
  <ellipse cx="233" cy="336" rx="2" ry="2" fill="#73F36C"/>
  <ellipse cx="233" cy="319" rx="2" ry="2" fill="#73F36C"/>
  <ellipse cx="233" cy="302" rx="2" ry="2" fill="#73F36C"/>
  <ellipse cx="233" cy="284" rx="2" ry="2" fill="#73F36C"/>
  <ellipse cx="233" cy="267" rx="2" ry="2" fill="#73F36C"/>
  <ellipse cx="233" cy="250" rx="2" ry="2" fill="#73F36C"/>
  <ellipse cx="233" cy="233" rx="2" ry="2" fill="#73F36C"/>
  <ellipse cx="233" cy="216" rx="2" ry="2" fill="#73F36C"/>
  <ellipse cx="250" cy="353" rx="2" ry="2" fill="#73F36C"/>
  <ellipse cx="250" cy="336" rx="2" ry="2" fill="#73F36C"/>
  <ellipse cx="250" cy="319" rx="2" ry="2" fill="#73F36C"/>
  <ellipse cx="250" cy="302" rx="2" ry="2" fill="#73F36C"/>
  <ellipse cx="250" cy="284" rx="2" ry="2" fill="#73F36C"/>
  <ellipse cx="250" cy="267" rx="2" ry="2" fill="#73F36C"/>
  <ellipse cx="250" cy="250" rx="2" ry="2" fill="#73F36C"/>
  <ellipse cx="250" cy="233" rx="2" ry="2" fill="#73F36C"/>
  <ellipse cx="250" cy="216" rx="2" ry="2" fill="#73F36C"/>
  <ellipse cx="233" cy="199" rx="2" ry="2" fill="#73F36C"/>
  <ellipse cx="250" cy="199" rx="2" ry="2" fill="#73F36C"/>
  <ellipse cx="267" cy="353" rx="2" ry="2" fill="#73F36C"/>
  <ellipse cx="267" cy="336" rx="2" ry="2" fill="#73F36C"/>
  <ellipse cx="267" cy="319" rx="2" ry="2" fill="#73F36C"/>
  <ellipse cx="267" cy="302" rx="2" ry="2" fill="#73F36C"/>
  <ellipse cx="267" cy="284" rx="2" ry="2" fill="#73F36C"/>
  <ellipse cx="267" cy="267" rx="2" ry="2" fill="#73F36C"/>
  <ellipse cx="267" cy="250" rx="2" ry="2" fill="#73F36C"/>
  <ellipse cx="267" cy="233" rx="2" ry="2" fill="#73F36C"/>
  <ellipse cx="267" cy="216" rx="2" ry="2" fill="#73F36C"/>
  <ellipse cx="267" cy="199" rx="2" ry="2" fill="#73F36C"/>
  <ellipse cx="267" cy="182" rx="2" ry="2" fill="#73F36C"/>
  <ellipse cx="284" cy="353" rx="2" ry="2" fill="#73F36C"/>
  <ellipse cx="284" cy="336" rx="2" ry="2" fill="#73F36C"/>
  <ellipse cx="284" cy="319" rx="2" ry="2" fill="#73F36C"/>
  <ellipse cx="284" cy="302" rx="2" ry="2" fill="#73F36C"/>
  <ellipse cx="284" cy="284" rx="2" ry="2" fill="#73F36C"/>
  <ellipse cx="284" cy="267" rx="2" ry="2" fill="#73F36C"/>
  <ellipse cx="284" cy="250" rx="2" ry="2" fill="#73F36C"/>
  <ellipse cx="284" cy="233" rx="2" ry="2" fill="#73F36C"/>
  <ellipse cx="284" cy="216" rx="2" ry="2" fill="#73F36C"/>
  <ellipse cx="284" cy="199" rx="2" ry="2" fill="#73F36C"/>
  <ellipse cx="284" cy="182" rx="2" ry="2" fill="#73F36C"/>
  <ellipse cx="302" cy="353" rx="2" ry="2" fill="#73F36C"/>
  <ellipse cx="302" cy="336" rx="2" ry="2" fill="#73F36C"/>
  <ellipse cx="302" cy="319" rx="2" ry="2" fill="#73F36C"/>
  <ellipse cx="302" cy="302" rx="2" ry="2" fill="#73F36C"/>
  <ellipse cx="302" cy="284" rx="2" ry="2" fill="#73F36C"/>
  <ellipse cx="302" cy="267" rx="2" ry="2" fill="#73F36C"/>
  <ellipse cx="302" cy="250" rx="2" ry="2" fill="#73F36C"/>
  <ellipse cx="302" cy="233" rx="2" ry="2" fill="#73F36C"/>
  <ellipse cx="302" cy="216" rx="2" ry="2" fill="#73F36C"/>
  <ellipse cx="302" cy="199" rx="2" ry="2" fill="#73F36C"/>
  <ellipse cx="302" cy="182" rx="2" ry="2" fill="#73F36C"/>
  <ellipse cx="302" cy="164" rx="2" ry="2" fill="#73F36C"/>
  <ellipse cx="302" cy="147" rx="2" ry="2" fill="#73F36C"/>
  <ellipse cx="319" cy="353" rx="2" ry="2" fill="#73F36C"/>
  <ellipse cx="319" cy="336" rx="2" ry="2" fill="#73F36C"/>
  <ellipse cx="319" cy="319" rx="2" ry="2" fill="#73F36C"/>
  <ellipse cx="319" cy="302" rx="2" ry="2" fill="#73F36C"/>
  <ellipse cx="319" cy="284" rx="2" ry="2" fill="#73F36C"/>
  <ellipse cx="319" cy="267" rx="2" ry="2" fill="#73F36C"/>
  <ellipse cx="319" cy="250" rx="2" ry="2" fill="#73F36C"/>
  <ellipse cx="319" cy="233" rx="2" ry="2" fill="#73F36C"/>
  <ellipse cx="319" cy="216" rx="2" ry="2" fill="#73F36C"/>
  <ellipse cx="319" cy="199" rx="2" ry="2" fill="#73F36C"/>
  <ellipse cx="319" cy="182" rx="2" ry="2" fill="#73F36C"/>
  <ellipse cx="319" cy="164" rx="2" ry="2" fill="#73F36C"/>
  <ellipse cx="319" cy="147" rx="2" ry="2" fill="#73F36C"/>
  <ellipse cx="319" cy="130" rx="2" ry="2" fill="#73F36C"/>
  <ellipse cx="319" cy="113" rx="2" ry="2" fill="#73F36C"/>
  <ellipse cx="336" cy="353" rx="2" ry="2" fill="#73F36C"/>
  <ellipse cx="336" cy="336" rx="2" ry="2" fill="#73F36C"/>
  <ellipse cx="336" cy="319" rx="2" ry="2" fill="#73F36C"/>
  <ellipse cx="336" cy="302" rx="2" ry="2" fill="#73F36C"/>
  <ellipse cx="336" cy="284" rx="2" ry="2" fill="#73F36C"/>
  <ellipse cx="336" cy="267" rx="2" ry="2" fill="#73F36C"/>
  <ellipse cx="336" cy="250" rx="2" ry="2" fill="#73F36C"/>
  <ellipse cx="336" cy="233" rx="2" ry="2" fill="#73F36C"/>
  <ellipse cx="336" cy="216" rx="2" ry="2" fill="#73F36C"/>
  <ellipse cx="336" cy="199" rx="2" ry="2" fill="#73F36C"/>
  <ellipse cx="336" cy="182" rx="2" ry="2" fill="#73F36C"/>
  <ellipse cx="336" cy="164" rx="2" ry="2" fill="#73F36C"/>
  <ellipse cx="336" cy="147" rx="2" ry="2" fill="#73F36C"/>
  <ellipse cx="336" cy="130" rx="2" ry="2" fill="#73F36C"/>
  <ellipse cx="336" cy="113" rx="2" ry="2" fill="#73F36C"/>
  <ellipse cx="353" cy="353" rx="2" ry="2" fill="#73F36C"/>
  <ellipse cx="353" cy="336" rx="2" ry="2" fill="#73F36C"/>
  <ellipse cx="353" cy="319" rx="2" ry="2" fill="#73F36C"/>
  <ellipse cx="353" cy="302" rx="2" ry="2" fill="#73F36C"/>
  <ellipse cx="353" cy="284" rx="2" ry="2" fill="#73F36C"/>
  <ellipse cx="353" cy="267" rx="2" ry="2" fill="#73F36C"/>
  <ellipse cx="353" cy="250" rx="2" ry="2" fill="#73F36C"/>
  <ellipse cx="353" cy="233" rx="2" ry="2" fill="#73F36C"/>
  <ellipse cx="353" cy="216" rx="2" ry="2" fill="#73F36C"/>
  <ellipse cx="353" cy="199" rx="2" ry="2" fill="#73F36C"/>
  <ellipse cx="353" cy="182" rx="2" ry="2" fill="#73F36C"/>
  <ellipse cx="353" cy="164" rx="2" ry="2" fill="#73F36C"/>
  <ellipse cx="353" cy="147" rx="2" ry="2" fill="#73F36C"/>
  <ellipse cx="353" cy="130" rx="2" ry="2" fill="#73F36C"/>
  <ellipse cx="353" cy="113" rx="2" ry="2" fill="#73F36C"/>
  <ellipse cx="369" cy="353" rx="2" ry="2" fill="#73F36C"/>
  <ellipse cx="369" cy="336" rx="2" ry="2" fill="#73F36C"/>
  <ellipse cx="369" cy="319" rx="2" ry="2" fill="#73F36C"/>
  <ellipse cx="369" cy="302" rx="2" ry="2" fill="#73F36C"/>
  <ellipse cx="369" cy="284" rx="2" ry="2" fill="#73F36C"/>
  <ellipse cx="369" cy="267" rx="2" ry="2" fill="#73F36C"/>
  <ellipse cx="369" cy="250" rx="2" ry="2" fill="#73F36C"/>
  <ellipse cx="369" cy="233" rx="2" ry="2" fill="#73F36C"/>
  <ellipse cx="369" cy="216" rx="2" ry="2" fill="#73F36C"/>
  <ellipse cx="369" cy="199" rx="2" ry="2" fill="#73F36C"/>
  <ellipse cx="369" cy="182" rx="2" ry="2" fill="#73F36C"/>
  <ellipse cx="369" cy="164" rx="2" ry="2" fill="#73F36C"/>
  <ellipse cx="369" cy="147" rx="2" ry="2" fill="#73F36C"/>
  <ellipse cx="369" cy="130" rx="2" ry="2" fill="#73F36C"/>
  <ellipse cx="369" cy="113" rx="2" ry="2" fill="#73F36C"/>
  <ellipse cx="369" cy="96" rx="2" ry="2" fill="#73F36C"/>
  <ellipse cx="387" cy="353" rx="2" ry="2" fill="#73F36C"/>
  <ellipse cx="387" cy="336" rx="2" ry="2" fill="#73F36C"/>
  <ellipse cx="387" cy="319" rx="2" ry="2" fill="#73F36C"/>
  <ellipse cx="387" cy="302" rx="2" ry="2" fill="#73F36C"/>
  <ellipse cx="387" cy="284" rx="2" ry="2" fill="#73F36C"/>
  <ellipse cx="387" cy="267" rx="2" ry="2" fill="#73F36C"/>
  <ellipse cx="387" cy="250" rx="2" ry="2" fill="#73F36C"/>
  <ellipse cx="387" cy="233" rx="2" ry="2" fill="#73F36C"/>
  <ellipse cx="387" cy="216" rx="2" ry="2" fill="#73F36C"/>
  <ellipse cx="387" cy="199" rx="2" ry="2" fill="#73F36C"/>
  <ellipse cx="387" cy="182" rx="2" ry="2" fill="#73F36C"/>
  <ellipse cx="387" cy="164" rx="2" ry="2" fill="#73F36C"/>
  <ellipse cx="387" cy="147" rx="2" ry="2" fill="#73F36C"/>
  <ellipse cx="387" cy="130" rx="2" ry="2" fill="#73F36C"/>
  <ellipse cx="387" cy="113" rx="2" ry="2" fill="#73F36C"/>
  <ellipse cx="387" cy="96" rx="2" ry="2" fill="#73F36C"/>
  <ellipse cx="387" cy="79" rx="2" ry="2" fill="#73F36C"/>
  <ellipse cx="387" cy="62" rx="2" ry="2" fill="#73F36C"/>
  <ellipse cx="387" cy="45" rx="2" ry="2" fill="#73F36C"/>
  <ellipse cx="404" cy="353" rx="2" ry="2" fill="#73F36C"/>
  <ellipse cx="404" cy="336" rx="2" ry="2" fill="#73F36C"/>
  <ellipse cx="404" cy="319" rx="2" ry="2" fill="#73F36C"/>
  <ellipse cx="404" cy="302" rx="2" ry="2" fill="#73F36C"/>
  <ellipse cx="404" cy="284" rx="2" ry="2" fill="#73F36C"/>
  <ellipse cx="404" cy="267" rx="2" ry="2" fill="#73F36C"/>
  <ellipse cx="404" cy="250" rx="2" ry="2" fill="#73F36C"/>
  <ellipse cx="404" cy="233" rx="2" ry="2" fill="#73F36C"/>
  <ellipse cx="404" cy="216" rx="2" ry="2" fill="#73F36C"/>
  <ellipse cx="404" cy="199" rx="2" ry="2" fill="#73F36C"/>
  <ellipse cx="404" cy="182" rx="2" ry="2" fill="#73F36C"/>
  <ellipse cx="404" cy="164" rx="2" ry="2" fill="#73F36C"/>
  <ellipse cx="404" cy="147" rx="2" ry="2" fill="#73F36C"/>
  <ellipse cx="404" cy="130" rx="2" ry="2" fill="#73F36C"/>
  <ellipse cx="404" cy="113" rx="2" ry="2" fill="#73F36C"/>
  <ellipse cx="404" cy="96" rx="2" ry="2" fill="#73F36C"/>
  <ellipse cx="404" cy="79" rx="2" ry="2" fill="#73F36C"/>
  <ellipse cx="421" cy="353" rx="2" ry="2" fill="#73F36C"/>
  <ellipse cx="421" cy="336" rx="2" ry="2" fill="#73F36C"/>
  <ellipse cx="421" cy="319" rx="2" ry="2" fill="#73F36C"/>
  <ellipse cx="421" cy="302" rx="2" ry="2" fill="#73F36C"/>
  <ellipse cx="421" cy="284" rx="2" ry="2" fill="#73F36C"/>
  <ellipse cx="421" cy="267" rx="2" ry="2" fill="#73F36C"/>
  <ellipse cx="421" cy="250" rx="2" ry="2" fill="#73F36C"/>
  <ellipse cx="421" cy="233" rx="2" ry="2" fill="#73F36C"/>
  <ellipse cx="421" cy="216" rx="2" ry="2" fill="#73F36C"/>
  <ellipse cx="421" cy="199" rx="2" ry="2" fill="#73F36C"/>
  <ellipse cx="421" cy="182" rx="2" ry="2" fill="#73F36C"/>
  <ellipse cx="421" cy="164" rx="2" ry="2" fill="#73F36C"/>
  <ellipse cx="421" cy="147" rx="2" ry="2" fill="#73F36C"/>
  <ellipse cx="421" cy="130" rx="2" ry="2" fill="#73F36C"/>
  <ellipse cx="421" cy="113" rx="2" ry="2" fill="#73F36C"/>
  <ellipse cx="421" cy="96" rx="2" ry="2" fill="#73F36C"/>
  <ellipse cx="439" cy="353" rx="2" ry="2" fill="#73F36C"/>
  <ellipse cx="439" cy="336" rx="2" ry="2" fill="#73F36C"/>
  <ellipse cx="439" cy="319" rx="2" ry="2" fill="#73F36C"/>
  <ellipse cx="439" cy="302" rx="2" ry="2" fill="#73F36C"/>
  <ellipse cx="439" cy="284" rx="2" ry="2" fill="#73F36C"/>
  <ellipse cx="439" cy="267" rx="2" ry="2" fill="#73F36C"/>
  <ellipse cx="439" cy="250" rx="2" ry="2" fill="#73F36C"/>
  <ellipse cx="439" cy="233" rx="2" ry="2" fill="#73F36C"/>
  <ellipse cx="439" cy="216" rx="2" ry="2" fill="#73F36C"/>
  <ellipse cx="439" cy="199" rx="2" ry="2" fill="#73F36C"/>
  <ellipse cx="439" cy="182" rx="2" ry="2" fill="#73F36C"/>
  <ellipse cx="439" cy="164" rx="2" ry="2" fill="#73F36C"/>
  <ellipse cx="439" cy="147" rx="2" ry="2" fill="#73F36C"/>
  <ellipse cx="439" cy="130" rx="2" ry="2" fill="#73F36C"/>
  <ellipse cx="455" cy="353" rx="2" ry="2" fill="#73F36C"/>
  <ellipse cx="455" cy="336" rx="2" ry="2" fill="#73F36C"/>
  <ellipse cx="455" cy="319" rx="2" ry="2" fill="#73F36C"/>
  <ellipse cx="455" cy="302" rx="2" ry="2" fill="#73F36C"/>
  <ellipse cx="455" cy="284" rx="2" ry="2" fill="#73F36C"/>
  <ellipse cx="455" cy="267" rx="2" ry="2" fill="#73F36C"/>
  <ellipse cx="455" cy="250" rx="2" ry="2" fill="#73F36C"/>
  <ellipse cx="455" cy="233" rx="2" ry="2" fill="#73F36C"/>
  <ellipse cx="455" cy="216" rx="2" ry="2" fill="#73F36C"/>
  <ellipse cx="455" cy="199" rx="2" ry="2" fill="#73F36C"/>
  <ellipse cx="455" cy="182" rx="2" ry="2" fill="#73F36C"/>
  <ellipse cx="455" cy="164" rx="2" ry="2" fill="#73F36C"/>
  <ellipse cx="455" cy="147" rx="2" ry="2" fill="#73F36C"/>
  <ellipse cx="455" cy="130" rx="2" ry="2" fill="#73F36C"/>
  <ellipse cx="455" cy="113" rx="2" ry="2" fill="#73F36C"/>
  <ellipse cx="455" cy="96" rx="2" ry="2" fill="#73F36C"/>
  <ellipse cx="472" cy="353" rx="2" ry="2" fill="#73F36C"/>
  <ellipse cx="472" cy="336" rx="2" ry="2" fill="#73F36C"/>
  <ellipse cx="472" cy="319" rx="2" ry="2" fill="#73F36C"/>
  <ellipse cx="472" cy="302" rx="2" ry="2" fill="#73F36C"/>
  <ellipse cx="472" cy="284" rx="2" ry="2" fill="#73F36C"/>
  <ellipse cx="472" cy="267" rx="2" ry="2" fill="#73F36C"/>
  <ellipse cx="472" cy="250" rx="2" ry="2" fill="#73F36C"/>
  <ellipse cx="472" cy="233" rx="2" ry="2" fill="#73F36C"/>
  <ellipse cx="472" cy="216" rx="2" ry="2" fill="#73F36C"/>
  <ellipse cx="472" cy="199" rx="2" ry="2" fill="#73F36C"/>
  <ellipse cx="472" cy="182" rx="2" ry="2" fill="#73F36C"/>
  <ellipse cx="472" cy="164" rx="2" ry="2" fill="#73F36C"/>
  <ellipse cx="472" cy="147" rx="2" ry="2" fill="#73F36C"/>
  <ellipse cx="472" cy="130" rx="2" ry="2" fill="#73F36C"/>
  <ellipse cx="472" cy="113" rx="2" ry="2" fill="#73F36C"/>
  <ellipse cx="490" cy="353" rx="2" ry="2" fill="#73F36C"/>
  <ellipse cx="490" cy="336" rx="2" ry="2" fill="#73F36C"/>
  <ellipse cx="490" cy="319" rx="2" ry="2" fill="#73F36C"/>
  <ellipse cx="490" cy="302" rx="2" ry="2" fill="#73F36C"/>
  <ellipse cx="490" cy="284" rx="2" ry="2" fill="#73F36C"/>
  <ellipse cx="490" cy="267" rx="2" ry="2" fill="#73F36C"/>
  <ellipse cx="490" cy="250" rx="2" ry="2" fill="#73F36C"/>
  <ellipse cx="490" cy="233" rx="2" ry="2" fill="#73F36C"/>
  <ellipse cx="490" cy="216" rx="2" ry="2" fill="#73F36C"/>
  <ellipse cx="490" cy="199" rx="2" ry="2" fill="#73F36C"/>
  <ellipse cx="490" cy="182" rx="2" ry="2" fill="#73F36C"/>
  <ellipse cx="490" cy="164" rx="2" ry="2" fill="#73F36C"/>
  <ellipse cx="490" cy="147" rx="2" ry="2" fill="#73F36C"/>
  <ellipse cx="490" cy="130" rx="2" ry="2" fill="#73F36C"/>
  <ellipse cx="490" cy="113" rx="2" ry="2" fill="#73F36C"/>
  <ellipse cx="490" cy="96" rx="2" ry="2" fill="#73F36C"/>
  <ellipse cx="507" cy="353" rx="2" ry="2" fill="#73F36C"/>
  <ellipse cx="507" cy="336" rx="2" ry="2" fill="#73F36C"/>
  <ellipse cx="507" cy="319" rx="2" ry="2" fill="#73F36C"/>
  <ellipse cx="507" cy="302" rx="2" ry="2" fill="#73F36C"/>
  <ellipse cx="507" cy="284" rx="2" ry="2" fill="#73F36C"/>
  <ellipse cx="507" cy="267" rx="2" ry="2" fill="#73F36C"/>
  <ellipse cx="507" cy="250" rx="2" ry="2" fill="#73F36C"/>
  <ellipse cx="507" cy="233" rx="2" ry="2" fill="#73F36C"/>
  <ellipse cx="507" cy="216" rx="2" ry="2" fill="#73F36C"/>
  <ellipse cx="507" cy="199" rx="2" ry="2" fill="#73F36C"/>
  <ellipse cx="507" cy="182" rx="2" ry="2" fill="#73F36C"/>
  <ellipse cx="507" cy="164" rx="2" ry="2" fill="#73F36C"/>
  <ellipse cx="507" cy="147" rx="2" ry="2" fill="#73F36C"/>
  <ellipse cx="507" cy="130" rx="2" ry="2" fill="#73F36C"/>
  <ellipse cx="507" cy="113" rx="2" ry="2" fill="#73F36C"/>
  <ellipse cx="507" cy="96" rx="2" ry="2" fill="#73F36C"/>
  <ellipse cx="507" cy="79" rx="2" ry="2" fill="#73F36C"/>
  <ellipse cx="45" cy="302" rx="2" ry="2" fill="#73F36C"/>
  <ellipse cx="62" cy="353" rx="2" ry="2" fill="#73F36C"/>
  <ellipse cx="62" cy="336" rx="2" ry="2" fill="#73F36C"/>
  <ellipse cx="62" cy="319" rx="2" ry="2" fill="#73F36C"/>
  <ellipse cx="62" cy="302" rx="2" ry="2" fill="#73F36C"/>
  <ellipse cx="79" cy="353" rx="2" ry="2" fill="#73F36C"/>
  <ellipse cx="79" cy="336" rx="2" ry="2" fill="#73F36C"/>
  <ellipse cx="79" cy="319" rx="2" ry="2" fill="#73F36C"/>
  <ellipse cx="79" cy="302" rx="2" ry="2" fill="#73F36C"/>
</g>
</svg>
