<svg width="197" height="77" viewBox="0 0 197 77" fill="none" xmlns="http://www.w3.org/2000/svg">
<path d="M52.4283 27.068L37.5207 18.4115C37.0372 18.1354 36.5105 17.9922 35.9748 17.9922C35.4391 17.9922 34.9123 18.134 34.4378 18.4115L19.5272 27.0755C18.5812 27.6276 17.9902 28.6468 17.9902 29.7481V47.0775C17.9902 48.1788 18.5812 49.2099 19.5272 49.7591L22.2088 51.317L26.12 53.5882L26.9959 51.1752L35.0511 28.9587C35.1242 28.7423 34.969 28.5095 34.7273 28.5095H30.9504C30.6698 28.5095 30.4102 28.6871 30.3207 28.9497L23.0892 48.904L20.7927 47.57C20.6196 47.47 20.5121 47.2849 20.5121 47.0865V29.7496C20.5121 29.5511 20.6196 29.3661 20.7927 29.2661L35.7047 20.6021C35.7867 20.5499 35.8867 20.529 35.9807 20.529C36.0747 20.529 36.1702 20.5544 36.2613 20.6021L51.1763 29.2661C51.3494 29.3661 51.4568 29.5511 51.4568 29.7496V47.079C51.4568 47.2775 51.3494 47.4625 51.1763 47.5625L48.9051 48.8831L42.9301 32.3968C42.8227 32.0939 42.4078 32.0939 42.3004 32.3968L40.3321 37.8196C40.2754 37.9704 40.2754 38.139 40.3321 38.2852L44.9939 51.1543L43.4435 52.0571L39.6278 41.5189C39.5203 41.216 39.1055 41.216 38.9981 41.5189L37.0298 46.9417C36.9731 47.0924 36.9731 47.2611 37.0298 47.4073L39.5382 54.3283L36.2658 56.2324C36.1837 56.2847 36.0852 56.3056 35.9852 56.3056C35.8852 56.3056 35.7957 56.2802 35.7047 56.2324L32.471 54.3507L41.6707 28.9662C41.7527 28.7423 41.5886 28.5036 41.3558 28.5036H37.5789C37.2984 28.5036 37.0387 28.6811 36.9492 28.9438L28.5613 52.0751L27.6853 54.488L31.5965 56.7592L34.4497 58.4171C34.9242 58.6932 35.4555 58.8364 35.9867 58.8364C36.5179 58.8364 37.0492 58.6946 37.5237 58.4171L52.4387 49.7531C53.3922 49.201 53.9757 48.1818 53.9757 47.0716V29.7511C53.9757 28.6498 53.3848 27.6187 52.4387 27.0695H52.4297L52.4283 27.068Z" fill="white"/>
<path d="M70.1491 33.1602C70.5251 33.1602 70.8505 33.2363 71.1101 33.3944C71.3698 33.5526 71.6279 33.854 71.8786 34.3047L76.8403 43.3089C76.8911 43.4089 76.8985 43.4925 76.8746 43.5596C76.8493 43.6268 76.7747 43.6596 76.6583 43.6596H74.7542C74.587 43.6596 74.4706 43.5924 74.411 43.4671L73.35 41.5376H66.3081L65.2724 43.4671C65.2053 43.6014 65.0889 43.6596 64.9292 43.6596H62.9833C62.8505 43.6596 62.7744 43.6253 62.7491 43.5596C62.7237 43.4925 62.7326 43.4089 62.7834 43.3089L67.7033 34.3047C67.954 33.854 68.1958 33.5526 68.439 33.3944C68.6807 33.2363 68.9568 33.1602 69.2746 33.1602H70.1521H70.1491ZM67.2333 39.7842H72.3949L70.0148 35.3911C69.973 35.3239 69.9223 35.2821 69.8477 35.2821H69.7551C69.688 35.2821 69.6298 35.3164 69.588 35.3911L67.2318 39.7842H67.2333Z" fill="white"/>
<path d="M87.7411 33.1602C88.8931 33.1602 89.7123 33.4198 90.2137 33.9376C90.7151 34.4554 90.9658 35.2239 90.9658 36.2431V37.0952C90.9658 37.9547 90.7912 38.6322 90.4391 39.1336C90.0884 39.635 89.5198 39.9529 88.726 40.0946L91.2911 43.2686C91.3419 43.3194 91.3583 43.394 91.3329 43.4939C91.3165 43.5954 91.2329 43.6432 91.0912 43.6432H89.1617C89.0289 43.6432 88.9453 43.6268 88.8946 43.6014C88.8439 43.5671 88.7946 43.5178 88.7439 43.4507L86.3712 40.3349H81.5274V43.3179C81.5274 43.5342 81.4184 43.6447 81.2021 43.6447H79.5815C79.3472 43.6447 79.2383 43.5357 79.2383 43.3179V33.6108C79.2383 33.3094 79.389 33.1602 79.6889 33.1602H87.7411ZM81.5348 38.5143H87.274C87.7844 38.5143 88.1425 38.4054 88.3514 38.189C88.5603 37.9726 88.6693 37.6369 88.6693 37.1862V36.5595C88.6693 36.1088 88.5603 35.7746 88.3514 35.5567C88.1425 35.3403 87.7829 35.2299 87.274 35.2299H81.7273C81.5945 35.2299 81.5348 35.2881 81.5348 35.4134V38.5128V38.5143Z" fill="white"/>
<path d="M103.504 33.1616C104.532 33.1616 105.266 33.3706 105.7 33.7794C106.135 34.1883 106.351 34.8076 106.351 35.6328V36.3506C106.351 37.1862 106.033 37.8204 105.39 38.2547C106.075 38.6546 106.426 39.2992 106.426 40.1841V41.0526C106.426 41.4526 106.384 41.8122 106.291 42.13C106.199 42.4479 106.057 42.7225 105.85 42.9493C105.641 43.1746 105.374 43.3492 105.03 43.4671C104.687 43.585 104.271 43.6506 103.769 43.6506H94.8637C94.5623 43.6506 94.4131 43.5014 94.4131 43.2V33.6108C94.4131 33.3094 94.5638 33.1602 94.8637 33.1602H103.502L103.504 33.1616ZM96.7126 37.522H102.861C103.362 37.522 103.696 37.4459 103.88 37.2967C104.063 37.1459 104.147 36.9296 104.147 36.6371V36.1267C104.147 35.8178 104.063 35.5925 103.887 35.4418C103.713 35.3 103.428 35.2254 103.043 35.2254H96.9111C96.7768 35.2254 96.7186 35.2926 96.7186 35.4179V37.522H96.7097H96.7111H96.7126ZM96.7126 39.1605V41.3914C96.7126 41.5242 96.7798 41.5839 96.9051 41.5839H103.053C103.453 41.5839 103.738 41.5078 103.905 41.3675C104.072 41.2257 104.165 40.9915 104.165 40.6751V40.1066C104.165 39.7977 104.072 39.5634 103.889 39.4052C103.705 39.247 103.362 39.1635 102.861 39.1635H96.7126V39.1605Z" fill="white"/>
<path d="M112.017 33.1616C112.233 33.1616 112.342 33.2706 112.342 33.487V43.3194C112.342 43.5357 112.233 43.6447 112.017 43.6447H110.396C110.162 43.6447 110.053 43.5357 110.053 43.3194V33.4959C110.053 33.2795 110.17 33.1691 110.396 33.1691L112.017 33.1602V33.1616Z" fill="white"/>
<path d="M127.722 33.1602C127.956 33.1602 128.065 33.2691 128.065 33.4855V34.9553C128.065 35.1896 127.948 35.2985 127.722 35.2985H123.018V43.3179C123.018 43.5342 122.909 43.6432 122.691 43.6432H121.054C120.838 43.6432 120.729 43.5342 120.729 43.3179V35.2985H116.025C115.791 35.2985 115.682 35.1821 115.682 34.9553V33.4855C115.682 33.2691 115.799 33.1602 116.025 33.1602H127.722Z" fill="white"/>
<path d="M139.574 33.1602C140.726 33.1602 141.545 33.4198 142.047 33.9376C142.548 34.4554 142.799 35.2239 142.799 36.2431V37.0952C142.799 37.9547 142.624 38.6322 142.272 39.1336C141.921 39.635 141.353 39.9529 140.559 40.0946L143.124 43.2686C143.175 43.3194 143.191 43.394 143.166 43.4939C143.15 43.5954 143.066 43.6432 142.924 43.6432H140.995C140.86 43.6432 140.778 43.6268 140.728 43.6014C140.677 43.5671 140.628 43.5178 140.578 43.4507L138.206 40.3349H133.36V43.3179C133.36 43.5342 133.251 43.6447 133.035 43.6447H131.415C131.18 43.6447 131.071 43.5357 131.071 43.3179V33.6108C131.071 33.3094 131.222 33.1602 131.522 33.1602H139.574ZM133.375 38.5143H139.114C139.625 38.5143 139.983 38.4054 140.192 38.189C140.401 37.9726 140.51 37.6369 140.51 37.1862V36.5595C140.51 36.1088 140.401 35.7746 140.192 35.5567C139.983 35.3403 139.623 35.2299 139.114 35.2299H133.568C133.435 35.2299 133.375 35.2881 133.375 35.4134V38.5128V38.5143Z" fill="white"/>
<path d="M148.003 33.1602C148.219 33.1602 148.329 33.2691 148.329 33.4855V39.4664C148.329 39.8663 148.364 40.2021 148.429 40.4602C148.496 40.7273 148.604 40.9362 148.756 41.087C148.907 41.2451 149.107 41.3541 149.365 41.4138C149.625 41.4809 149.942 41.5137 150.333 41.5137H154.485C154.877 41.5137 155.195 41.4794 155.453 41.4138C155.713 41.3466 155.913 41.2392 156.064 41.087C156.213 40.9288 156.323 40.7199 156.382 40.4602C156.44 40.1931 156.474 39.8678 156.474 39.4664V33.4855C156.474 33.2691 156.583 33.1602 156.801 33.1602H158.438C158.654 33.1602 158.763 33.2691 158.763 33.4855V39.6917C158.763 40.4095 158.687 41.0198 158.538 41.5302C158.387 42.0315 158.145 42.4404 157.811 42.7583C157.477 43.0761 157.043 43.3015 156.507 43.4432C155.973 43.585 155.329 43.6521 154.568 43.6521H150.25C149.49 43.6521 148.847 43.585 148.32 43.4432C147.794 43.3015 147.359 43.0761 147.025 42.7583C146.691 42.4404 146.449 42.0315 146.289 41.5302C146.131 41.0288 146.055 40.411 146.055 39.6917V33.4855C146.055 33.2691 146.172 33.1602 146.398 33.1602H148.003Z" fill="white"/>
<path d="M165.204 33.1602C165.42 33.1602 165.612 33.1766 165.772 33.2019C165.93 33.2363 166.074 33.2855 166.19 33.3765C166.308 33.4601 166.415 33.5765 166.515 33.7197C166.608 33.8615 166.708 34.054 166.808 34.2958L169.924 41.4884C169.965 41.5809 170.033 41.6212 170.134 41.6212H170.318C170.418 41.6212 170.485 41.5794 170.526 41.4884L173.642 34.2958C173.742 34.054 173.842 33.8615 173.935 33.7197C174.027 33.578 174.135 33.4601 174.26 33.3765C174.378 33.293 174.52 33.2348 174.67 33.2019C174.829 33.1676 175.012 33.1602 175.23 33.1602H176.833C177.35 33.1602 177.703 33.2766 177.886 33.5108C178.07 33.7451 178.153 34.145 178.153 34.7136V43.3179C178.153 43.5342 178.035 43.6432 177.81 43.6432H176.282C176.064 43.6432 175.955 43.5342 175.955 43.3179V35.491C175.955 35.3896 175.913 35.3403 175.839 35.3403H175.705C175.605 35.3403 175.537 35.3821 175.512 35.4567L172.487 42.1733C172.371 42.4404 172.246 42.6747 172.12 42.8583C171.995 43.0418 171.861 43.1925 171.719 43.3179C171.577 43.4358 171.411 43.5268 171.226 43.5775C171.043 43.6283 170.826 43.6536 170.576 43.6536H169.858C169.607 43.6536 169.389 43.6283 169.206 43.5775C169.022 43.5268 168.855 43.4432 168.713 43.3179C168.572 43.2015 168.43 43.0418 168.313 42.8583C168.188 42.6747 168.063 42.4494 167.945 42.1733L164.922 35.4567C164.887 35.3732 164.829 35.3403 164.729 35.3403H164.595C164.511 35.3403 164.478 35.3911 164.478 35.491V43.3179C164.478 43.5342 164.369 43.6432 164.152 43.6432H162.622C162.388 43.6432 162.279 43.5342 162.279 43.3179V34.7136C162.279 34.145 162.371 33.7451 162.546 33.5108C162.729 33.2766 163.08 33.1602 163.607 33.1602H165.202H165.204Z" fill="white"/>
</svg>
