<svg width="126" height="60" viewBox="0 0 126 60" fill="none" xmlns="http://www.w3.org/2000/svg">
<path d="M47.0442 33.6047L46.996 33.6554C46.9735 33.6787 46.9507 33.7018 46.9276 33.7248L33.7083 46.9228C31.4055 49.2219 27.6719 49.2219 25.3691 46.9228L21.7186 43.2783C21.4598 43.0209 21.4592 42.6024 21.7169 42.3439C21.7927 42.2679 21.8859 42.2114 21.9883 42.1794C25.9011 40.9716 29.0804 39.5773 31.5261 37.9967C37.3506 34.2324 42.5233 32.7684 47.0442 33.6047ZM44.2728 22.7479C49.1535 24.2859 48.5838 27.8763 48.6486 29.2917C43.3035 26.489 36.8733 27.5163 29.3578 32.3735C23.7561 35.9937 19.0639 37.4864 15.281 36.8513C11.4982 36.2163 10.6472 31.5963 10.478 30.3687C14.6347 32.4704 20.2052 31.2641 27.1895 26.7503C33.6977 22.5441 39.3921 21.2099 44.2728 22.7479ZM33.7083 12.2009L37.1384 15.625C37.3968 15.8828 37.3972 16.3013 37.1394 16.5598C37.0474 16.652 36.9303 16.7149 36.8027 16.7406C31.8371 17.741 27.8658 19.2031 24.889 21.1271C19.7878 24.4239 15.4408 25.9562 11.8479 25.7241L11.8483 25.7232L25.3691 12.2009C27.6719 9.90178 31.4055 9.90178 33.7083 12.2009Z" fill="white"/>
<path d="M67.2022 25.8648C67.1342 25.229 66.8479 24.734 66.3431 24.3798C65.8433 24.0255 65.1929 23.8483 64.3921 23.8483C63.8292 23.8483 63.3463 23.9333 62.9435 24.1032C62.5407 24.273 62.2325 24.5035 62.0189 24.7947C61.8054 25.0859 61.6962 25.4183 61.6913 25.792C61.6913 26.1026 61.7617 26.372 61.9025 26.6001C62.048 26.8282 62.2446 27.0223 62.4921 27.1825C62.7397 27.3378 63.0138 27.4688 63.3148 27.5756C63.6156 27.6824 63.919 27.7722 64.2247 27.8449L65.6224 28.1944C66.1854 28.3254 66.7265 28.5026 67.2458 28.7258C67.77 28.949 68.2383 29.2305 68.6509 29.5702C69.0682 29.91 69.3982 30.3201 69.6409 30.8005C69.8835 31.281 70.0049 31.844 70.0049 32.4895C70.0049 33.363 69.7816 34.1323 69.3352 34.7971C68.8886 35.4572 68.2432 35.9741 67.3987 36.3478C66.5591 36.7166 65.5424 36.901 64.3485 36.901C63.1886 36.901 62.1815 36.7214 61.3274 36.3623C60.478 36.0032 59.8132 35.479 59.3327 34.7899C58.8571 34.1007 58.5999 33.2611 58.561 32.2711H61.2181C61.257 32.7903 61.4172 33.2223 61.6987 33.5668C61.9801 33.9114 62.3465 34.1687 62.7979 34.3386C63.2541 34.5084 63.7637 34.5933 64.3267 34.5933C64.9139 34.5933 65.4283 34.506 65.8699 34.3312C66.3165 34.1517 66.6659 33.9042 66.9182 33.5887C67.1706 33.2684 67.2992 32.8947 67.3041 32.4676C67.2992 32.0794 67.1852 31.7591 66.9619 31.5067C66.7387 31.2494 66.4257 31.0359 66.0228 30.8661C65.6249 30.6913 65.1589 30.536 64.6251 30.4002L62.9289 29.9634C61.701 29.6479 60.7304 29.1699 60.017 28.5292C59.3084 27.8838 58.9541 27.0272 58.9541 25.9594C58.9541 25.0811 59.192 24.3118 59.6675 23.6518C60.148 22.9917 60.8008 22.4797 61.6258 22.1157C62.4509 21.7469 63.3851 21.5625 64.4285 21.5625C65.4865 21.5625 66.4135 21.7469 67.2094 22.1157C68.0102 22.4797 68.6387 22.9869 69.0949 23.6373C69.5511 24.2827 69.7865 25.0252 69.8011 25.8648H67.2022ZM74.6039 36.6753L71.4445 25.4935H74.1307L76.0963 33.3558H76.1981L78.2076 25.4935H80.8646L82.8734 33.3121H82.9827L84.9197 25.4935H87.6126L84.4459 36.6753H81.7014L79.605 29.1189H79.4523L77.3559 36.6753H74.6039ZM94.0828 36.8937C92.9617 36.8937 91.9932 36.6607 91.1781 36.1948C90.3676 35.7241 89.7441 35.0592 89.307 34.2002C88.8707 33.3363 88.6521 32.3196 88.6521 31.15C88.6521 29.9998 88.8707 28.9903 89.307 28.1215C89.7486 27.248 90.3653 26.5685 91.1564 26.0832C91.9475 25.5931 92.8771 25.348 93.9444 25.348C94.6337 25.348 95.2841 25.4596 95.8956 25.6828C96.5115 25.9012 97.0557 26.2409 97.5264 26.7021C98.0017 27.1631 98.3752 27.7503 98.6476 28.4637C98.9193 29.1723 99.0547 30.0168 99.0547 30.9971V31.8052H89.8893V30.0289H96.5288C96.5243 29.5241 96.415 29.0752 96.2009 28.6821C95.9876 28.2842 95.689 27.9711 95.3058 27.7431C94.9271 27.5149 94.4855 27.4009 93.9811 27.4009C93.4422 27.4009 92.9692 27.5319 92.5613 27.794C92.1534 28.0512 91.836 28.3909 91.6077 28.8132C91.3847 29.2305 91.2702 29.6892 91.2657 30.189V31.7397C91.2657 32.39 91.3847 32.9481 91.622 33.414C91.86 33.875 92.1923 34.2294 92.6196 34.4769C93.047 34.7195 93.5462 34.8408 94.1195 34.8408C94.5027 34.8408 94.85 34.7875 95.1606 34.6807C95.4712 34.5691 95.7399 34.4064 95.9682 34.1929C96.1964 33.9794 96.3686 33.7149 96.4853 33.3994L98.9455 33.676C98.7905 34.3264 98.4942 34.8942 98.0578 35.3796C97.626 35.86 97.0721 36.2337 96.3978 36.5007C95.7234 36.7627 94.9518 36.8937 94.0828 36.8937ZM103.92 21.7663V36.6753H101.284V21.7663H103.92ZM109.265 21.7663V36.6753H106.63V21.7663H109.265Z" fill="white"/>
</svg>
