<svg width="116" height="42" viewBox="0 0 116 42" fill="none" xmlns="http://www.w3.org/2000/svg">
<path fill-rule="evenodd" clip-rule="evenodd" d="M29.1883 5.99219C35.9405 5.99229 40.1552 13.2822 36.7682 19.1026L29.3805 31.797C26.0043 37.5982 18.0115 37.3069 14.6354 31.5056L7.24869 18.8112C3.86146 12.9907 7.66131 5.99243 14.4134 5.99219H29.1883ZM29.0301 7.69534C25.614 7.69534 22.8445 10.4783 22.8445 13.911C22.8445 17.3437 25.614 20.1266 29.0301 20.1266C32.4463 20.1266 35.2158 17.3437 35.2158 13.911C35.2158 10.4783 32.4463 7.69539 29.0301 7.69534Z" fill="white"/>
<path fill-rule="evenodd" clip-rule="evenodd" d="M69.7285 15.4492C72.0795 15.4492 73.9471 16.205 75.2671 17.7493C76.5877 19.2936 77.2319 21.298 77.2319 23.6966V25.2739H65.7356C65.7356 26.6868 66.0896 27.7711 66.7983 28.5926C67.4742 29.414 68.4729 29.8412 69.793 29.8412C71.7894 29.8412 73.0133 29.0854 73.4318 27.5411H77.0062C76.7811 29.1183 76.008 30.4327 74.6879 31.4513C73.3674 32.4699 71.725 32.9956 69.793 32.9956C67.3457 32.9956 65.4137 32.1741 64.0287 30.5312C62.6442 28.8883 61.9355 26.7854 61.9355 24.2224C61.9355 21.6595 62.6119 19.5564 63.9642 17.9135C65.2848 16.2706 67.2168 15.4492 69.7285 15.4492ZM69.8858 18.4787C68.5799 18.4787 67.5758 18.8544 66.8725 19.6059C66.1697 20.3917 65.801 21.3825 65.7678 22.6123H73.7693C73.7356 21.3825 73.4011 20.3917 72.7652 19.6059C72.0956 18.8544 71.1243 18.4787 69.8858 18.4787Z" fill="white"/>
<path fill-rule="evenodd" clip-rule="evenodd" d="M94.1596 32.9943H91.1727C91.0394 32.9943 90.9251 32.8994 90.9002 32.7683L90.5188 30.738C90.5095 30.6929 90.4705 30.6605 90.4255 30.6605C90.3933 30.6605 90.363 30.6772 90.3454 30.7043C89.3452 32.2197 87.7453 32.9935 85.6082 32.9935C83.4828 32.9935 81.8082 32.2048 80.5848 30.5947C79.3287 28.9847 78.7168 26.8489 78.6846 24.1873C78.7168 21.5915 79.3287 19.4557 80.5521 17.8456C81.7437 16.2356 83.4506 15.4471 85.6082 15.4471C87.7478 15.4471 89.3487 16.2225 90.3488 17.7415C90.3645 17.7654 90.3908 17.78 90.4192 17.78C90.4656 17.7799 90.5027 17.7418 90.5027 17.6946V9.4619C90.5027 9.20902 90.7078 9.004 90.9608 9.004L94.1738 9.00391L94.1596 32.9943ZM86.3251 18.5185C84.8395 18.5185 83.7588 19.0353 83.0838 20.1032C82.3747 21.1712 82.0372 22.5148 82.0372 24.2029C82.0372 25.891 82.3747 27.2692 83.0838 28.3372C83.7588 29.4051 84.8395 29.9562 86.3251 29.9562C87.7766 29.9561 88.8569 29.4051 89.566 28.3372C90.2751 27.2692 90.6463 25.891 90.6463 24.2029C90.6463 22.5148 90.3088 21.1712 89.5997 20.1032C88.8911 19.0353 87.7766 18.5185 86.3251 18.5185Z" fill="white"/>
<path fill-rule="evenodd" clip-rule="evenodd" d="M102.973 15.4492C105.098 15.4492 106.773 16.0078 107.996 17.125C109.22 18.2422 109.832 19.655 109.832 21.3965L109.842 32.9954H107.055C106.825 32.9954 106.631 32.8248 106.602 32.5969L106.365 30.7768C106.359 30.7303 106.32 30.6956 106.274 30.6956C106.244 30.6956 106.215 30.711 106.198 30.7364C105.166 32.2532 103.533 32.9956 101.331 32.9956C99.5598 32.9956 98.1431 32.5026 97.1121 31.484C96.0499 30.4983 95.5347 29.2498 95.5342 27.7055C95.5342 26.1283 96.1139 24.8466 97.241 23.8937C98.3682 22.9408 100.043 22.448 102.329 22.448H106.193L106.185 21.512C106.185 20.6577 105.928 19.9676 105.38 19.409C104.833 18.8833 103.996 18.6203 102.901 18.6203C101.935 18.6203 101.194 18.8504 100.646 19.3433C100.099 19.8361 99.8089 20.4276 99.7767 21.1505H96.299C96.299 19.5075 96.9192 18.0778 98.1103 17.0264C99.302 15.9749 100.912 15.4492 102.973 15.4492ZM102.339 24.7639C100.06 24.7639 98.9206 25.6189 98.9206 27.2947C98.9206 28.047 99.1887 28.6627 99.7249 29.1072C100.227 29.5859 100.998 29.8254 102.004 29.8254C103.244 29.8254 104.283 29.4491 105.054 28.6967C105.825 27.9443 106.193 27.021 106.193 25.9608V24.7639H102.339Z" fill="white"/>
<path d="M54.1685 27.8111C54.1808 27.8481 54.2149 27.873 54.253 27.873C54.2916 27.873 54.3258 27.8478 54.3375 27.8104L60.8378 9.33746C60.9022 9.15417 61.0756 9.03154 61.27 9.03154H64.3135C64.483 9.03154 64.6016 9.19989 64.5445 9.35968L57.1818 30.8788C56.7574 32.1027 55.6024 32.9266 54.253 32.9266C52.9037 32.9266 51.7413 32.1027 51.3169 30.8788L43.9741 9.40402C43.9641 9.37467 43.959 9.34391 43.959 9.31289C43.959 9.15735 44.0851 9.03125 44.2406 9.03125H47.3036C47.4985 9.03125 47.672 9.15452 47.7361 9.33853L54.1685 27.8111Z" fill="white"/>
</svg>
