<svg width="100%" height="100%" overflow="visible" style="display: block;" viewBox="0 0 92.1156 22.7134" fill="none" xmlns="http://www.w3.org/2000/svg">
<g id="Aave Logo" clip-path="url(#clip0_0_117)">
<path id="Vector" d="M80.3127 17.9709C77.2757 17.9709 74.5772 15.8244 73.8821 12.8608H91.9131C91.9131 12.8608 92.01 11.787 92.01 11.4072C92.01 5.11717 86.764 -0.00141307 80.3159 -0.00141307C73.868 -0.00141307 68.622 5.1161 68.622 11.4072C68.622 17.6983 73.8386 22.6969 80.3159 22.6969C86.7932 22.6969 90.5752 18.042 91.5193 14.6721H86.0231C86.0231 14.6721 84.2752 17.9709 80.3127 17.9709ZM80.3159 4.72245C83.2277 4.72245 85.7556 6.59841 86.6214 9.39434H74.0104C74.8731 6.59841 77.402 4.72245 80.3159 4.72245Z" fill="var(--fill-0, white)"/>
<path id="Vector_2" d="M11.5054 22.6969C5.05748 22.6969 -0.000380044 17.6325 -0.000380044 11.4072C-0.000380044 5.18189 5.24565 -0.00141307 11.6936 -0.00141307C18.1416 -0.00141307 23.3876 5.31771 23.3876 11.3467C23.3876 13.9155 23.3876 22.1314 23.3876 22.1314H18.8474V18.5322L18.5169 18.4474C17.7174 20.3594 14.8208 22.6969 11.5044 22.6969H11.5054ZM11.6936 4.72245C8.05195 4.72245 5.08793 7.70512 5.08793 11.3722C5.08793 15.0392 8.05086 17.972 11.6936 17.972C15.3364 17.972 18.2993 15.0116 18.2993 11.3722C18.2993 7.73271 15.3364 4.72245 11.6936 4.72245Z" fill="var(--fill-0, white)"/>
<path id="Vector_3" d="M36.3438 22.6969C29.8958 22.6969 24.838 17.6325 24.838 11.4072C24.838 5.18189 30.084 -0.00141307 36.5319 -0.00141307C42.9798 -0.00141307 48.226 5.31771 48.226 11.3467C48.226 13.9155 48.226 22.1314 48.226 22.1314H43.6858V18.5322L43.3551 18.4474C42.5556 20.3594 39.6591 22.6969 36.3426 22.6969H36.3438ZM36.5319 4.72245C32.8903 4.72245 29.9263 7.70512 29.9263 11.3722C29.9263 15.0392 32.8891 17.972 36.5319 17.972C40.1747 17.972 43.1375 15.0116 43.1375 11.3722C43.1375 7.73271 40.1747 4.72245 36.5319 4.72245Z" fill="var(--fill-0, white)"/>
<path id="Vector_4" d="M55.8475 22.1276L46.529 0.564554H51.6272L58.457 16.4487L65.2878 0.564554H70.3848L61.0675 22.1276H55.8475Z" fill="var(--fill-0, white)"/>
</g>
<defs>
<clipPath id="clip0_0_117">
<rect width="92.1156" height="22.7134" fill="white"/>
</clipPath>
</defs>
</svg>
