<svg width="193" height="41" viewBox="0 0 193 41" fill="none" xmlns="http://www.w3.org/2000/svg">
<path d="M56.8951 14.3369H58.7509L63.9491 26.3965H61.4944L60.3713 23.637H55.141L54.05 26.3965H51.6488L56.8951 14.3369ZM59.6226 21.7973L57.7668 16.8932L55.8737 21.7973H59.6226Z" fill="white"/>
<path d="M66.249 14.3369H68.7198L72.0087 23.4498L75.3993 14.3369H77.715L72.843 26.3965H70.9873L66.249 14.3369Z" fill="white"/>
<path d="M85.3886 14.3369H87.2444L92.4372 26.3965H89.9825L88.8595 23.637H83.6292L82.5382 26.3965H80.137L85.3886 14.3369ZM88.1107 21.7973L86.255 16.8932L84.3618 21.7973H88.1107Z" fill="white"/>
<path d="M97.1866 14.3369H99.3312V24.4552H104.46V26.3965H97.1866V14.3369Z" fill="white"/>
<path d="M113.332 14.3369H115.188L120.386 26.3965H117.932L116.809 23.637H111.573L110.482 26.3965H108.081L113.332 14.3369ZM116.054 21.7973L114.199 16.8932L112.306 21.7973H116.054Z" fill="white"/>
<path d="M125.13 14.3369H127.975L133.82 23.3001H133.852V14.3369H135.997V26.3965H133.269L127.306 17.1446H127.274V26.3965H125.13V14.3369Z" fill="white"/>
<path d="M150.377 17.1651C149.933 16.6891 149.505 16.3683 149.083 16.2132C148.676 16.0527 148.259 15.9725 147.842 15.9725C147.216 15.9725 146.649 16.0848 146.136 16.3148C145.639 16.5287 145.206 16.8389 144.842 17.2346C144.478 17.6197 144.195 18.0743 143.992 18.5984C143.799 19.1225 143.703 19.684 143.703 20.283C143.703 20.9301 143.799 21.529 143.992 22.0692C144.195 22.6147 144.478 23.0853 144.842 23.481C145.206 23.8768 145.639 24.1923 146.136 24.4169C146.649 24.6415 147.216 24.7592 147.842 24.7592C148.329 24.7592 148.799 24.6469 149.254 24.4169C149.719 24.1763 150.152 23.8019 150.548 23.2938L152.318 24.556C151.773 25.3047 151.11 25.8502 150.324 26.1924C149.543 26.5347 148.703 26.7058 147.821 26.7058C146.89 26.7058 146.034 26.5561 145.248 26.262C144.478 25.9571 143.804 25.5293 143.238 24.9838C142.681 24.4276 142.243 23.7645 141.927 22.989C141.612 22.2189 141.451 21.3579 141.451 20.4167C141.451 19.4487 141.612 18.577 141.927 17.7908C142.243 16.994 142.681 16.3201 143.238 15.764C143.804 15.2078 144.473 14.7799 145.248 14.4858C146.029 14.181 146.89 14.0259 147.821 14.0259C148.639 14.0259 149.393 14.1756 150.088 14.4698C150.794 14.7532 151.447 15.2399 152.046 15.9351L150.377 17.1651Z" fill="white"/>
<path d="M157.164 14.3369H159.308V19.1394H164.945V14.3369H167.089V26.3965H164.945V21.0807H159.308V26.3965H157.164V14.3369Z" fill="white"/>
<path d="M173.202 14.3369H181.192V16.2782H175.347V19.241H180.882V21.1823H175.347V24.4552H181.497V26.3965H173.202V14.3369Z" fill="white"/>
<path fill-rule="evenodd" clip-rule="evenodd" d="M45.2955 20.3704C45.2955 29.9272 37.5517 37.671 27.9949 37.671C18.4381 37.671 10.6943 29.9272 10.6943 20.3704C10.6943 10.8136 18.4381 3.06982 27.9949 3.06982C37.5517 3.06982 45.2955 10.8136 45.2955 20.3704ZM23.0909 27.2532H19.7323C19.0264 27.2532 18.6788 27.2532 18.4649 27.1195C18.2349 26.9697 18.0959 26.7237 18.0798 26.451C18.0691 26.1996 18.2403 25.8948 18.5879 25.2798L26.8772 10.6692C27.2302 10.0489 27.4066 9.7387 27.6313 9.62105C27.8719 9.49804 28.1607 9.49804 28.4067 9.62105C28.6313 9.73335 28.8078 10.0435 29.1608 10.6692L30.8668 13.6427L30.8774 13.6587C31.2572 14.3219 31.4497 14.6642 31.5352 15.0171C31.6262 15.4022 31.6262 15.814 31.5352 16.199C31.4497 16.5573 31.2572 16.8942 30.8721 17.5734L26.5189 25.2691L26.5082 25.2905C26.1231 25.9643 25.9306 26.3013 25.6632 26.558C25.3691 26.8361 25.0161 27.0446 24.6311 27.1569C24.2781 27.2532 23.8823 27.2532 23.0909 27.2532ZM31.5673 27.2532H36.3805C37.0918 27.2532 37.4447 27.2532 37.6586 27.1141C37.8886 26.9644 38.033 26.7131 38.0437 26.4403C38.0544 26.1996 37.8832 25.9055 37.5517 25.3279C37.541 25.3065 37.5303 25.2905 37.5142 25.2691L35.1023 21.1458L35.0756 21.0977C34.7387 20.5255 34.5675 20.2367 34.3483 20.1244C34.1076 20.0014 33.8188 20.0014 33.5782 20.1244C33.3589 20.2367 33.1771 20.5415 32.8241 21.1512L30.4229 25.2745L30.4122 25.2905C30.0592 25.8948 29.8827 26.1996 29.8988 26.451C29.9148 26.7237 30.0539 26.9751 30.2838 27.1248C30.5031 27.2532 30.8614 27.2532 31.5673 27.2532Z" fill="white"/>
</svg>
