<svg width="193" height="41" viewBox="0 0 193 41" fill="none" xmlns="http://www.w3.org/2000/svg">
<path d="M56.8952 14.3359H58.751L63.9492 26.3955H61.4945L60.3714 23.636H55.1411L54.0502 26.3955H51.6489L56.8952 14.3359ZM59.6227 21.7963L57.767 16.8923L55.8738 21.7963H59.6227Z" fill="white"/>
<path d="M66.249 14.3359H68.7198L72.0087 23.4488L75.3993 14.3359H77.715L72.843 26.3955H70.9873L66.249 14.3359Z" fill="white"/>
<path d="M85.3884 14.3359H87.2441L92.437 26.3955H89.9823L88.8592 23.636H83.6289L82.5379 26.3955H80.1367L85.3884 14.3359ZM88.1105 21.7963L86.2548 16.8923L84.3616 21.7963H88.1105Z" fill="white"/>
<path d="M97.1865 14.3359H99.331V24.4542H104.46V26.3955H97.1865V14.3359Z" fill="white"/>
<path d="M113.332 14.3359H115.188L120.386 26.3955H117.931L116.808 23.636H111.573L110.482 26.3955H108.081L113.332 14.3359ZM116.054 21.7963L114.199 16.8923L112.305 21.7963H116.054Z" fill="white"/>
<path d="M125.13 14.3359H127.975L133.82 23.2991H133.852V14.3359H135.997V26.3955H133.269L127.306 17.1436H127.274V26.3955H125.13V14.3359Z" fill="white"/>
<path d="M150.377 17.1666C149.933 16.6906 149.505 16.3697 149.083 16.2146C148.676 16.0542 148.259 15.974 147.842 15.974C147.216 15.974 146.649 16.0863 146.136 16.3163C145.639 16.5302 145.205 16.8404 144.842 17.2361C144.478 17.6212 144.195 18.0757 143.991 18.5998C143.799 19.1239 143.703 19.6855 143.703 20.2844C143.703 20.9315 143.799 21.5305 143.991 22.0706C144.195 22.6161 144.478 23.0867 144.842 23.4825C145.205 23.8782 145.639 24.1938 146.136 24.4184C146.649 24.643 147.216 24.7606 147.842 24.7606C148.329 24.7606 148.799 24.6483 149.254 24.4184C149.719 24.1777 150.152 23.8034 150.548 23.2953L152.318 24.5574C151.773 25.3061 151.11 25.8516 150.323 26.1939C149.543 26.5362 148.703 26.7073 147.821 26.7073C146.89 26.7073 146.034 26.5576 145.248 26.2634C144.478 25.9586 143.804 25.5307 143.237 24.9853C142.681 24.4291 142.243 23.7659 141.927 22.9905C141.612 22.2204 141.451 21.3594 141.451 20.4181C141.451 19.4502 141.612 18.5784 141.927 17.7923C142.243 16.9954 142.681 16.3216 143.237 15.7654C143.804 15.2092 144.473 14.7814 145.248 14.4873C146.029 14.1824 146.89 14.0273 147.821 14.0273C148.639 14.0273 149.393 14.1771 150.088 14.4712C150.794 14.7547 151.446 15.2413 152.045 15.9366L150.377 17.1666Z" fill="white"/>
<path d="M157.164 14.3359H159.308V19.1384H164.945V14.3359H167.089V26.3955H164.945V21.0797H159.308V26.3955H157.164V14.3359Z" fill="white"/>
<path d="M173.202 14.3359H181.192V16.2772H175.347V19.24H180.882V21.1813H175.347V24.4542H181.497V26.3955H173.202V14.3359Z" fill="white"/>
<path fill-rule="evenodd" clip-rule="evenodd" d="M45.2955 20.3709C45.2955 29.9277 37.5517 37.6715 27.9949 37.6715C18.4381 37.6715 10.6943 29.9277 10.6943 20.3709C10.6943 10.8141 18.4381 3.07031 27.9949 3.07031C37.5517 3.07031 45.2955 10.8141 45.2955 20.3709ZM23.0909 27.2537H19.7323C19.0264 27.2537 18.6788 27.2537 18.4649 27.12C18.2349 26.9702 18.0959 26.7242 18.0798 26.4515C18.0691 26.2001 18.2403 25.8953 18.5879 25.2803L26.8772 10.6697C27.2302 10.0494 27.4066 9.73919 27.6313 9.62153C27.8719 9.49853 28.1607 9.49853 28.4067 9.62153C28.6313 9.73384 28.8078 10.044 29.1608 10.6697L30.8668 13.6432L30.8774 13.6592C31.2572 14.3224 31.4497 14.6646 31.5352 15.0176C31.6262 15.4027 31.6262 15.8144 31.5352 16.1995C31.4497 16.5578 31.2572 16.8947 30.8721 17.5739L26.5189 25.2696L26.5082 25.291C26.1231 25.9648 25.9306 26.3017 25.6632 26.5584C25.3691 26.8365 25.0161 27.0451 24.6311 27.1574C24.2781 27.2537 23.8823 27.2537 23.0909 27.2537ZM31.5673 27.2537H36.3805C37.0918 27.2537 37.4447 27.2537 37.6586 27.1146C37.8886 26.9649 38.033 26.7135 38.0437 26.4408C38.0544 26.2001 37.8832 25.906 37.5517 25.3284C37.541 25.307 37.5303 25.291 37.5142 25.2696L35.1023 21.1463L35.0756 21.0982C34.7387 20.526 34.5675 20.2372 34.3483 20.1249C34.1076 20.0019 33.8188 20.0019 33.5782 20.1249C33.3589 20.2372 33.1771 20.542 32.8241 21.1517L30.4229 25.2749L30.4122 25.291C30.0592 25.8953 29.8827 26.2001 29.8988 26.4515C29.9148 26.7242 30.0539 26.9756 30.2838 27.1253C30.5031 27.2537 30.8614 27.2537 31.5673 27.2537Z" fill="white"/>
</svg>
