<svg width="94" height="24" viewBox="0 0 94 24" fill="none" xmlns="http://www.w3.org/2000/svg">
<g clip-path="url(#clip0_1202_49381)">
<path d="M28.3564 21.4553V1.92648H34.8872C37.0529 1.92648 38.6837 2.3655 39.7759 3.24353C40.8681 4.1179 41.4142 5.41665 41.4142 7.13979C41.4142 8.05074 41.1524 8.86292 40.6175 9.56169C40.0901 10.2678 39.3682 10.8129 38.4518 11.197C39.5328 11.4897 40.3856 12.0531 41.014 12.8763C41.6424 13.7067 41.9491 14.6909 41.9491 15.8286C41.9491 17.581 41.3693 18.9566 40.2061 19.9554C39.0465 20.9578 37.4082 21.4553 35.2874 21.4553H28.3564ZM30.9934 12.3641V19.3408H35.3361C36.5629 19.3408 37.5317 19.0334 38.2386 18.4152C38.9455 17.7969 39.3009 16.9445 39.3009 15.8652C39.3009 13.5311 37.9955 12.3641 35.3772 12.3641H30.9934ZM30.9934 10.2495H34.9658C36.1178 10.2495 37.0379 9.96412 37.7337 9.40072C38.4219 8.83731 38.7697 8.07635 38.7697 7.11052C38.7697 6.03493 38.4481 5.25568 37.8085 4.7691C37.1689 4.27887 36.1926 4.03741 34.8872 4.03741H30.9934V10.2495ZM56.8621 16.3481H48.4911L46.6134 21.459H43.8979L51.5245 1.92648H53.8286L61.4666 21.459H58.766L56.8621 16.3481ZM49.2915 14.2335H56.0841L52.6803 5.10568L49.2915 14.2335ZM70.0396 12.7519C67.7841 12.1153 66.1421 11.3324 65.1097 10.4068C64.0811 9.4812 63.5649 8.3361 63.5649 6.97881C63.5649 5.44226 64.1971 4.16912 65.4501 3.15938C66.7106 2.15331 68.3414 1.64844 70.35 1.64844C71.7228 1.64844 72.9496 1.90819 74.0194 2.42769C75.0966 2.94353 75.9232 3.66059 76.5142 4.57521C77.1052 5.48616 77.4007 6.48492 77.4007 7.56417H74.7562C74.7562 6.38249 74.371 5.45324 73.6042 4.77642C72.8374 4.10326 71.749 3.76303 70.35 3.76303C69.0521 3.76303 68.0422 4.04107 67.3166 4.60082C66.5872 5.16422 66.2244 5.93615 66.2244 6.93125C66.2244 7.7288 66.5647 8.40561 67.2605 8.95438C67.9487 9.50315 69.1232 10.008 70.7839 10.4653C72.4409 10.9226 73.7426 11.4275 74.6777 11.9763C75.6128 12.525 76.3085 13.1653 76.7611 13.9043C77.2137 14.636 77.4381 15.503 77.4381 16.4945C77.4381 18.0786 76.806 19.3481 75.5455 20.2993C74.2812 21.2505 72.598 21.7261 70.4847 21.7261C69.112 21.7261 67.829 21.47 66.6433 20.9578C65.4576 20.4419 64.5412 19.7359 63.8941 18.8432C63.247 17.9505 62.9291 16.9335 62.9291 15.7994H65.5735C65.5735 16.9774 66.0186 17.9066 66.9126 18.5871C67.8028 19.2676 68.9923 19.6115 70.4847 19.6115C71.8761 19.6115 72.9384 19.3334 73.679 18.7774C74.4233 18.2249 74.7936 17.4676 74.7936 16.5164C74.7936 15.5579 74.4458 14.8189 73.765 14.2957C73.088 13.7799 71.8425 13.2604 70.0396 12.7519ZM92.1117 12.4446H83.4602V19.3408H93.5107V21.4553H80.8269V1.92648H93.376V4.04107H83.4602V10.33H92.1117V12.4446Z" fill="white"/>
<path d="M11.9067 23.3815C18.5048 23.3815 23.8573 18.1499 23.8573 11.6927C23.8573 5.23916 18.5085 0.00390625 11.9067 0.00390625C5.649 0.00390625 0.509672 4.716 0.000976562 10.7086H15.793V12.6732H0.000976562C0.509672 18.6694 5.649 23.3815 11.9067 23.3815Z" fill="white"/>
</g>
<defs>
<clipPath id="clip0_1202_49381">
<rect width="93.5103" height="23.3776" fill="white"/>
</clipPath>
</defs>
</svg>
