<svg width="100%" height="100%" overflow="visible" style="display: block;" viewBox="0 0 93.5097 23.3776" fill="none" xmlns="http://www.w3.org/2000/svg">
<g id="_2599888554384">
<path id="Vector" d="M28.3554 21.4524V1.92352H34.8862C37.0519 1.92352 38.6827 2.36254 39.7749 3.24057C40.8671 4.11494 41.4132 5.41369 41.4132 7.13683C41.4132 8.04779 41.1514 8.85996 40.6165 9.55873C40.0891 10.2648 39.3672 10.8099 38.4508 11.1941C39.5318 11.4867 40.3846 12.0501 41.013 12.8733C41.6414 13.7038 41.9481 14.6879 41.9481 15.8257C41.9481 17.5781 41.3683 18.9537 40.2051 19.9524C39.0455 20.9548 37.4072 21.4524 35.2864 21.4524H28.3554ZM30.9924 12.3611V19.3378H35.335C36.5619 19.3378 37.5307 19.0305 38.2376 18.4122C38.9445 17.7939 39.2999 16.9415 39.2999 15.8623C39.2999 13.5282 37.9945 12.3611 35.3762 12.3611H30.9924ZM30.9924 10.2465H34.9647C36.1168 10.2465 37.0369 9.96116 37.7326 9.39776C38.4209 8.83435 38.7687 8.07339 38.7687 7.10756C38.7687 6.03197 38.4471 5.25272 37.8075 4.76615C37.1678 4.27591 36.1916 4.03445 34.8862 4.03445H30.9924V10.2465ZM56.8611 16.3452H48.4901L46.6124 21.456H43.8968L51.5235 1.92352H53.8276L61.4656 21.456H58.765L56.8611 16.3452ZM49.2905 14.2306H56.0831L52.6793 5.10272L49.2905 14.2306ZM70.0386 12.7489C67.7831 12.1123 66.1411 11.3294 65.1087 10.4038C64.0801 9.47824 63.5639 8.33315 63.5639 6.97586C63.5639 5.4393 64.1961 4.16616 65.4491 3.15642C66.7096 2.15035 68.3404 1.64548 70.349 1.64548C71.7218 1.64548 72.9486 1.90523 74.0184 2.42473C75.0956 2.94057 75.9222 3.65763 76.5132 4.57225C77.1042 5.4832 77.3997 6.48196 77.3997 7.56121H74.7552C74.7552 6.37953 74.37 5.45028 73.6032 4.77346C72.8364 4.10031 71.7479 3.76007 70.349 3.76007C69.0511 3.76007 68.0412 4.03811 67.3156 4.59786C66.5862 5.16126 66.2234 5.9332 66.2234 6.9283C66.2234 7.72584 66.5637 8.40266 67.2594 8.95143C67.9477 9.50019 69.1222 10.0051 70.7829 10.4624C72.4399 10.9197 73.7416 11.4245 74.6767 11.9733C75.6118 12.5221 76.3075 13.1623 76.7601 13.9013C77.2127 14.633 77.4371 15.5001 77.4371 16.4915C77.4371 18.0756 76.805 19.3451 75.5445 20.2963C74.2802 21.2475 72.597 21.7231 70.4837 21.7231C69.111 21.7231 67.828 21.467 66.6423 20.9548C65.4566 20.439 64.5402 19.7329 63.8931 18.8402C63.246 17.9476 62.9281 16.9305 62.9281 15.7964H65.5725C65.5725 16.9744 66.0176 17.9037 66.9116 18.5842C67.8018 19.2646 68.9913 19.6085 70.4837 19.6085C71.8751 19.6085 72.9374 19.3305 73.678 18.7744C74.4223 18.222 74.7926 17.4647 74.7926 16.5135C74.7926 15.5549 74.4448 14.8159 73.764 14.2928C73.087 13.7769 71.8415 13.2574 70.0386 12.7489ZM92.1107 12.4416H83.4592V19.3378H93.5096V21.4524H80.8259V1.92352H93.375V4.03811H83.4592V10.327H92.1107V12.4416Z" fill="var(--fill-0, white)"/>
<path id="Vector_2" d="M11.9057 23.3776C18.5038 23.3776 23.8563 18.146 23.8563 11.6889C23.8563 5.23533 18.5076 7.26617e-05 11.9057 7.26617e-05C5.64802 7.26617e-05 0.508696 4.71217 0 10.7047H15.792V12.6693H0C0.508696 18.6655 5.64802 23.3776 11.9057 23.3776Z" fill="var(--fill-0, white)"/>
</g>
</svg>
