<svg width="94" height="24" viewBox="0 0 94 24" fill="none" xmlns="http://www.w3.org/2000/svg">
<g clip-path="url(#clip0_1282_101566)">
<path d="M28.3564 21.4575V1.92868H34.8872C37.0529 1.92868 38.6837 2.36769 39.7759 3.24572C40.8681 4.1201 41.4142 5.41885 41.4142 7.14198C41.4142 8.05294 41.1524 8.86512 40.6175 9.56389C40.0901 10.27 39.3682 10.8151 38.4518 11.1992C39.5328 11.4919 40.3856 12.0553 41.014 12.8785C41.6424 13.7089 41.9491 14.693 41.9491 15.8308C41.9491 17.5832 41.3693 18.9588 40.2061 19.9576C39.0465 20.96 37.4082 21.4575 35.2874 21.4575H28.3564ZM30.9934 12.3663V19.343H35.3361C36.5629 19.343 37.5317 19.0356 38.2386 18.4174C38.9455 17.7991 39.3009 16.9467 39.3009 15.8674C39.3009 13.5333 37.9955 12.3663 35.3772 12.3663H30.9934ZM30.9934 10.2517H34.9658C36.1178 10.2517 37.0379 9.96632 37.7337 9.40291C38.4219 8.83951 38.7697 8.07855 38.7697 7.11272C38.7697 6.03713 38.4481 5.25788 37.8085 4.7713C37.1689 4.28107 36.1926 4.03961 34.8872 4.03961H30.9934V10.2517ZM56.8621 16.3503H48.4911L46.6134 21.4612H43.8979L51.5245 1.92868H53.8286L61.4666 21.4612H58.766L56.8621 16.3503ZM49.2915 14.2357H56.0841L52.6803 5.10788L49.2915 14.2357ZM70.0396 12.7541C67.7841 12.1175 66.1421 11.3346 65.1097 10.409C64.0811 9.4834 63.5649 8.3383 63.5649 6.98101C63.5649 5.44446 64.1971 4.17131 65.4501 3.16158C66.7106 2.1555 68.3414 1.65063 70.35 1.65063C71.7228 1.65063 72.9496 1.91039 74.0194 2.42989C75.0966 2.94573 75.9232 3.66279 76.5142 4.5774C77.1052 5.48836 77.4007 6.48712 77.4007 7.56637H74.7562C74.7562 6.38468 74.371 5.45543 73.6042 4.77862C72.8374 4.10546 71.749 3.76523 70.35 3.76523C69.0521 3.76523 68.0422 4.04327 67.3166 4.60301C66.5872 5.16642 66.2244 5.93835 66.2244 6.93345C66.2244 7.731 66.5647 8.40781 67.2605 8.95658C67.9487 9.50535 69.1232 10.0102 70.7839 10.4675C72.4409 10.9248 73.7426 11.4297 74.6777 11.9785C75.6128 12.5272 76.3085 13.1675 76.7611 13.9065C77.2137 14.6382 77.4381 15.5052 77.4381 16.4967C77.4381 18.0808 76.806 19.3503 75.5455 20.3015C74.2812 21.2527 72.598 21.7283 70.4847 21.7283C69.112 21.7283 67.829 21.4722 66.6433 20.96C65.4576 20.4441 64.5412 19.7381 63.8941 18.8454C63.247 17.9527 62.9291 16.9357 62.9291 15.8016H65.5735C65.5735 16.9796 66.0186 17.9088 66.9126 18.5893C67.8028 19.2698 68.9923 19.6137 70.4847 19.6137C71.8761 19.6137 72.9384 19.3356 73.679 18.7795C74.4233 18.2271 74.7936 17.4698 74.7936 16.5186C74.7936 15.5601 74.4458 14.8211 73.765 14.2979C73.088 13.7821 71.8425 13.2626 70.0396 12.7541ZM92.1117 12.4468H83.4602V19.343H93.5107V21.4575H80.8269V1.92868H93.376V4.04327H83.4602V10.3322H92.1117V12.4468Z" fill="white"/>
<path d="M11.9067 23.3827C18.5048 23.3827 23.8573 18.1511 23.8573 11.6939C23.8573 5.24038 18.5085 0.00512695 11.9067 0.00512695C5.649 0.00512695 0.509672 4.71722 0.000976562 10.7098H15.793V12.6744H0.000976562C0.509672 18.6706 5.649 23.3827 11.9067 23.3827Z" fill="white"/>
</g>
<defs>
<clipPath id="clip0_1282_101566">
<rect width="93.5103" height="23.3776" fill="white"/>
</clipPath>
</defs>
</svg>
