<svg width="93" height="23" viewBox="0 0 93 23" fill="none" xmlns="http://www.w3.org/2000/svg">
<g clip-path="url(#clip0_1202_49406)">
<path d="M19.4316 11.9108L7.19993 18.9154C6.3552 19.3991 6.06563 20.4702 6.55316 21.3078C7.04069 22.1453 8.12067 22.4322 8.96541 21.9485L21.1971 14.9439C22.0418 14.4601 22.3313 13.389 21.8438 12.5515C21.3563 11.714 20.2763 11.4271 19.4316 11.9108Z" fill="white"/>
<path d="M10.9718 9.66865L1.79805 14.9221C0.953346 15.4058 0.663777 16.4769 1.1513 17.3145C1.63883 18.152 2.71883 18.4389 3.56355 17.9551L12.7373 12.7017C13.582 12.218 13.8716 11.1469 13.384 10.3093C12.8965 9.47177 11.8165 9.1849 10.9718 9.66865Z" fill="white"/>
<path d="M13.2416 1.27412L1.00997 8.27866C0.165249 8.76237 -0.124306 9.83353 0.363219 10.6711C0.850743 11.5086 1.93074 11.7955 2.77545 11.3117L15.0071 4.30717C15.8518 3.82345 16.1414 2.75232 15.6538 1.91477C15.1664 1.07722 14.0863 0.790382 13.2416 1.27412Z" fill="white"/>
<path d="M40.398 22.2619H25.4653V1.48356H40.1288V4.68961H29.027V10.0326H39.0817V13.1497H29.027V19.0559H40.3992V22.2619H40.398ZM48.4579 22.7069C44.6872 22.7069 42.502 20.3615 42.502 16.9482V6.53035H46.033V16.8007C46.033 18.5817 47.2903 19.6203 49.1757 19.6203C51.5994 19.6203 53.0359 18.0478 53.0653 16.029V6.53035H56.5964V22.2619H53.7537L53.4848 19.9763C52.5568 21.6683 50.6714 22.7069 48.4579 22.7069ZM63.1815 22.2619H59.6503V0H63.1815V22.2619ZM73.5719 22.7069C68.7245 22.7069 65.4021 19.2643 65.4021 14.4553C65.4021 9.26097 68.8438 6.05494 73.2731 6.05494C77.7025 6.05494 80.754 9.17198 80.844 14.2773V15.1087H68.9333C69.1729 17.8686 70.9081 19.7385 73.6012 19.7385C75.4265 19.7385 76.8029 18.8487 77.3421 17.2749H80.7833C79.9761 20.6589 77.3128 22.7069 73.5719 22.7069ZM69.0834 12.645H77.1935C76.7451 10.3886 75.338 9.02324 73.2731 9.02324C71.2083 9.02324 69.6227 10.3886 69.0834 12.645ZM86.5328 22.2619H83.0021V6.53035H85.8448L86.2638 9.61694C87.2813 7.47997 89.1373 6.35236 91.7698 6.35236H92.3683V9.76568H91.7698C88.4783 9.76568 86.5328 11.5174 86.5328 14.4845V22.2607V22.2619Z" fill="white"/>
</g>
<defs>
<clipPath id="clip0_1202_49406">
<rect width="92.3679" height="22.7134" fill="white"/>
</clipPath>
</defs>
</svg>
