<svg width="93" height="23" viewBox="0 0 93 23" fill="none" xmlns="http://www.w3.org/2000/svg">
<g clip-path="url(#clip0_1282_101575)">
<path d="M19.4316 11.9096L7.19993 18.9141C6.3552 19.3979 6.06563 20.469 6.55316 21.3066C7.04069 22.1441 8.12067 22.4309 8.96541 21.9472L21.1971 14.9427C22.0418 14.4589 22.3313 13.3878 21.8438 12.5503C21.3563 11.7127 20.2763 11.4259 19.4316 11.9096Z" fill="white"/>
<path d="M10.972 9.66963L1.79829 14.9231C0.95359 15.4068 0.664021 16.4779 1.15155 17.3155C1.63907 18.153 2.71908 18.4398 3.5638 17.9561L12.7375 12.7027C13.5822 12.219 13.8718 11.1479 13.3843 10.3103C12.8967 9.47275 11.8168 9.18587 10.972 9.66963Z" fill="white"/>
<path d="M13.2416 1.27509L1.00997 8.27964C0.165249 8.76335 -0.124306 9.83451 0.363219 10.672C0.850743 11.5096 1.93074 11.7965 2.77545 11.3127L15.0071 4.30814C15.8518 3.82442 16.1414 2.75329 15.6538 1.91575C15.1664 1.07819 14.0863 0.791359 13.2416 1.27509Z" fill="white"/>
<path d="M40.398 22.2605H25.4653V1.48209H40.1288V4.68815H29.027V10.0311H39.0817V13.1482H29.027V19.0544H40.3992V22.2605H40.398ZM48.4579 22.7054C44.6872 22.7054 42.502 20.36 42.502 16.9467V6.52888H46.033V16.7992C46.033 18.5802 47.2903 19.6188 49.1757 19.6188C51.5994 19.6188 53.0359 18.0463 53.0653 16.0276V6.52888H56.5964V22.2605H53.7537L53.4848 19.9748C52.5568 21.6668 50.6714 22.7054 48.4579 22.7054ZM63.1815 22.2605H59.6503V-0.00146484H63.1815V22.2605ZM73.5719 22.7054C68.7245 22.7054 65.4021 19.2629 65.4021 14.4538C65.4021 9.25951 68.8438 6.05348 73.2731 6.05348C77.7025 6.05348 80.754 9.17051 80.844 14.2758V15.1072H68.9333C69.1729 17.8671 70.9081 19.7371 73.6012 19.7371C75.4265 19.7371 76.8029 18.8472 77.3421 17.2734H80.7833C79.9761 20.6574 77.3128 22.7054 73.5719 22.7054ZM69.0834 12.6435H77.1935C76.7451 10.3871 75.338 9.02178 73.2731 9.02178C71.2083 9.02178 69.6227 10.3871 69.0834 12.6435ZM86.5328 22.2605H83.0021V6.52888H85.8448L86.2638 9.61548C87.2813 7.47851 89.1373 6.3509 91.7698 6.3509H92.3683V9.76421H91.7698C88.4783 9.76421 86.5328 11.516 86.5328 14.4831V22.2593V22.2605Z" fill="white"/>
</g>
<defs>
<clipPath id="clip0_1282_101575">
<rect width="92.3679" height="22.7134" fill="white"/>
</clipPath>
</defs>
</svg>
