<svg width="100%" height="100%" overflow="visible" style="display: block;" viewBox="0 0 92.3679 22.7134" fill="none" xmlns="http://www.w3.org/2000/svg">
<g id="Euler Logo" clip-path="url(#clip0_0_105)">
<path id="Vector" d="M19.4315 11.9097L7.1999 18.9142C6.35516 19.398 6.0656 20.4691 6.55313 21.3067C7.04066 22.1442 8.12064 22.431 8.96538 21.9473L21.1971 14.9427C22.0417 14.459 22.3313 13.3879 21.8438 12.5503C21.3562 11.7128 20.2763 11.4259 19.4315 11.9097Z" fill="var(--fill-0, white)"/>
<path id="Vector_2" d="M10.972 9.66961L1.79822 14.923C0.953512 15.4068 0.663944 16.4779 1.15147 17.3154C1.63899 18.153 2.719 18.4398 3.56372 17.956L12.7374 12.7027C13.5822 12.219 13.8717 11.1478 13.3842 10.3103C12.8967 9.47273 11.8167 9.18585 10.972 9.66961Z" fill="var(--fill-0, white)"/>
<path id="Vector_3" d="M13.2416 1.27521L1.00991 8.27976C0.16519 8.76347 -0.124365 9.83462 0.363159 10.6722C0.850684 11.5097 1.93068 11.7966 2.7754 11.3128L15.0071 4.30826C15.8517 3.82454 16.1414 2.75341 15.6538 1.91586C15.1663 1.07831 14.0863 0.791477 13.2416 1.27521Z" fill="var(--fill-0, white)"/>
<path id="Vector_4" d="M40.398 22.2605H25.4653V1.48215H40.1288V4.6882H29.027V10.0312H39.0817V13.1483H29.027V19.0545H40.3992V22.2605H40.398ZM48.4579 22.7055C44.6872 22.7055 42.502 20.3601 42.502 16.9468V6.52894H46.033V16.7993C46.033 18.5803 47.2903 19.6189 49.1757 19.6189C51.5994 19.6189 53.0359 18.0464 53.0653 16.0276V6.52894H56.5964V22.2605H53.7537L53.4848 19.9749C52.5568 21.6669 50.6714 22.7055 48.4579 22.7055ZM63.1815 22.2605H59.6503V-0.00141307H63.1815V22.2605ZM73.5719 22.7055C68.7245 22.7055 65.4022 19.2629 65.4022 14.4539C65.4022 9.25956 68.8438 6.05353 73.2731 6.05353C77.7025 6.05353 80.754 9.17057 80.844 14.2759V15.1073H68.9333C69.1729 17.8671 70.9081 19.7371 73.6013 19.7371C75.4265 19.7371 76.8029 18.8473 77.3422 17.2735H80.7833C79.9761 20.6575 77.3128 22.7055 73.5719 22.7055ZM69.0834 12.6436H77.1935C76.7451 10.3872 75.338 9.02183 73.2731 9.02183C71.2083 9.02183 69.6227 10.3872 69.0834 12.6436ZM86.5328 22.2605H83.0021V6.52894H85.8448L86.2638 9.61553C87.2813 7.47856 89.1374 6.35095 91.7698 6.35095H92.3683V9.76426H91.7698C88.4783 9.76426 86.5328 11.516 86.5328 14.4831V22.2593V22.2605Z" fill="var(--fill-0, white)"/>
</g>
<defs>
<clipPath id="clip0_0_105">
<rect width="92.3679" height="22.7134" fill="white"/>
</clipPath>
</defs>
</svg>
