<svg width="79" height="23" viewBox="0 0 79 23" fill="none" xmlns="http://www.w3.org/2000/svg">
<path d="M20.6356 22.4039H17.3643V6.48438H20.6356V22.4039Z" fill="white"/>
<path d="M32.4559 6.16797C34.2617 6.16797 35.7372 6.80134 36.8803 8.06768C38.0217 9.33422 38.5941 10.9444 38.5941 12.8967V22.3985H35.3226V13.3951C35.3226 12.1697 34.928 11.1566 34.1385 10.3573C33.3489 9.55787 32.3737 9.15825 31.2108 9.15825C29.9017 9.15825 28.8325 9.55787 28.0019 10.3573C27.1714 11.1566 26.7552 12.1697 26.7552 13.3951V22.3985H23.4839V6.48051H26.7552V10.5925C27.191 9.2223 27.913 8.14183 28.9214 7.35228C29.9279 6.56274 31.1072 6.16797 32.4576 6.16797H32.4559Z" fill="white"/>
<path d="M48.7943 6.16797C51.3486 6.16797 53.4259 7.08257 55.0246 8.90975C56.6232 10.7388 57.278 12.9494 56.9869 15.5463H43.8091C44.0378 16.8343 44.6298 17.8786 45.5854 18.678C46.541 19.4773 47.6924 19.8771 49.0428 19.8771C50.0806 19.8771 51.0098 19.6221 51.8306 19.1138C52.6513 18.6057 53.2895 17.9147 53.7467 17.0416L56.4885 18.257C55.7828 19.6072 54.7746 20.6862 53.4671 21.497C52.1595 22.3079 50.653 22.7126 48.949 22.7126C46.5608 22.7126 44.5558 21.9231 42.9357 20.3458C41.3156 18.7685 40.5049 16.8046 40.5049 14.4576C40.5049 12.1106 41.2993 10.1434 42.8881 8.55296C44.4768 6.96418 46.444 6.16979 48.7927 6.16979L48.7943 6.16797ZM48.7943 9.0035C47.5888 9.0035 46.5461 9.372 45.6628 10.1104C44.7795 10.8474 44.1924 11.8079 43.9029 12.992H53.6859C53.416 11.8079 52.8388 10.8474 51.9571 10.1104C51.074 9.37362 50.0196 9.0035 48.7943 9.0035Z" fill="white"/>
<path d="M66.0298 6.16797C67.941 6.16797 69.4985 6.66638 70.7024 7.66321C71.9065 8.65984 72.5099 10.0941 72.5099 11.9625V22.4001H69.2386V18.1632C68.2616 21.1962 66.2995 22.7126 63.3504 22.7126C61.9786 22.7126 60.8373 22.3031 59.9227 21.4822C59.0083 20.6616 58.5527 19.5876 58.5527 18.2586C58.5527 16.7009 59.1021 15.5316 60.2039 14.7535C61.3044 13.9757 62.7073 13.4921 64.4097 13.3046L67.4935 12.992C68.6564 12.8886 69.2386 12.3688 69.2386 11.4346C69.2386 10.6664 68.9425 10.0529 68.3505 9.59727C67.7583 9.14007 66.9854 8.91157 66.0298 8.91157C65.0741 8.91157 64.227 9.16148 63.5526 9.6599C62.8785 10.1581 62.4475 10.8852 62.26 11.8408L59.0198 11.0612C59.311 9.56616 60.0888 8.37699 61.3569 7.49371C62.6235 6.61204 64.181 6.16979 66.0298 6.16979V6.16797ZM64.4097 20.063C65.76 20.063 66.9013 19.6106 67.8357 18.7075C68.7699 17.8046 69.237 16.7504 69.237 15.5447V14.6729C68.9885 15.0891 68.3851 15.3473 67.4294 15.451L64.408 15.8243C63.6185 15.9296 62.9902 16.1615 62.5231 16.525C62.056 16.8884 61.8224 17.382 61.8224 18.0053C61.8224 18.6287 62.056 19.1269 62.5231 19.5003C62.9902 19.8737 63.6185 20.0611 64.408 20.0611L64.4097 20.063Z" fill="white"/>
<path d="M15.1103 22.4039H0V6.48438H3.45724V19.3199H15.1103V22.4039Z" fill="white"/>
<path d="M75.5933 6.16771C77.2964 6.16771 78.6771 4.78702 78.6771 3.08391C78.6771 1.38071 77.2964 0 75.5933 0C73.89 0 72.5093 1.38071 72.5093 3.08391C72.5093 4.78702 73.89 6.16771 75.5933 6.16771Z" fill="white"/>
</svg>
