<svg width="100%" height="100%" overflow="visible" style="display: block;" viewBox="0 0 78.6771 22.7134" fill="none" xmlns="http://www.w3.org/2000/svg">
<g id="Linea Logo">
<path id="Vector" d="M20.6356 22.4021H17.3643V6.48252H20.6356V22.4021Z" fill="var(--fill-0, white)"/>
<path id="Vector_2" d="M32.4562 6.16862C34.2619 6.16862 35.7374 6.80199 36.8805 8.06833C38.0219 9.33487 38.5943 10.9451 38.5943 12.8973V22.3991H35.3228V13.3957C35.3228 12.1704 34.9282 11.1572 34.1387 10.358C33.3491 9.55852 32.3739 9.1589 31.211 9.1589C29.9019 9.1589 28.8327 9.55852 28.0021 10.358C27.1716 11.1572 26.7554 12.1704 26.7554 13.3957V22.3991H23.4841V6.48116H26.7554V10.5931C27.1912 9.22295 27.9132 8.14248 28.9216 7.35294C29.9281 6.56339 31.1074 6.16862 32.4578 6.16862H32.4562Z" fill="var(--fill-0, white)"/>
<path id="Vector_3" d="M48.7941 6.16862C51.3484 6.16862 53.4257 7.08322 55.0244 8.9104C56.6231 10.7394 57.2779 12.95 56.9867 15.547H43.809C44.0377 16.8349 44.6296 17.8792 45.5852 18.6787C46.5408 19.4779 47.6922 19.8777 49.0426 19.8777C50.0805 19.8777 51.0096 19.6228 51.8305 19.1145C52.6511 18.6064 53.2893 17.9154 53.7465 17.0422L56.4883 18.2576C55.7826 19.6078 54.7745 20.6869 53.4669 21.4976C52.1594 22.3086 50.6528 22.7133 48.9489 22.7133C46.5606 22.7133 44.5557 21.9237 42.9356 20.3465C41.3155 18.7692 40.5047 16.8052 40.5047 14.4582C40.5047 12.1112 41.2991 10.144 42.8879 8.55361C44.4767 6.96483 46.4439 6.17044 48.7925 6.17044L48.7941 6.16862ZM48.7941 9.00415C47.5886 9.00415 46.5459 9.37266 45.6626 10.1111C44.7793 10.8481 44.1922 11.8086 43.9027 12.9927H53.6857C53.4158 11.8086 52.8386 10.8481 51.9569 10.1111C51.0739 9.37427 50.0194 9.00415 48.7941 9.00415Z" fill="var(--fill-0, white)"/>
<path id="Vector_4" d="M66.0297 6.16862C67.9409 6.16862 69.4984 6.66703 70.7023 7.66386C71.9064 8.66049 72.5099 10.0947 72.5099 11.9631V22.4007H69.2386V18.1639C68.2615 21.1968 66.2994 22.7133 63.3503 22.7133C61.9785 22.7133 60.8372 22.3038 59.9226 21.4829C59.0082 20.6622 58.5527 19.5882 58.5527 18.2593C58.5527 16.7016 59.102 15.5322 60.2039 14.7542C61.3043 13.9764 62.7073 13.4927 64.4096 13.3052L67.4934 12.9927C68.6563 12.8892 69.2386 12.3694 69.2386 11.4352C69.2386 10.6671 68.9424 10.0535 68.3504 9.59792C67.7583 9.14072 66.9853 8.91222 66.0297 8.91222C65.0741 8.91222 64.2269 9.16214 63.5526 9.66055C62.8784 10.1588 62.4474 10.8859 62.26 11.8415L59.0198 11.0618C59.3109 9.56681 60.0887 8.37764 61.3569 7.49436C62.6234 6.61269 64.1809 6.17044 66.0297 6.17044V6.16862ZM64.4096 20.0636C65.76 20.0636 66.9013 19.6113 67.8357 18.7082C68.7698 17.8053 69.2369 16.7511 69.2369 15.5454V14.6736C68.9884 15.0898 68.385 15.348 67.4294 15.4516L64.408 15.825C63.6184 15.9302 62.9901 16.1622 62.523 16.5256C62.0559 16.8891 61.8224 17.3826 61.8224 18.0059C61.8224 18.6294 62.0559 19.1276 62.523 19.501C62.9901 19.8743 63.6184 20.0618 64.408 20.0618L64.4096 20.0636Z" fill="var(--fill-0, white)"/>
<path id="Vector_5" d="M15.1103 22.4021H1.04348e-05V6.48252H3.45725V19.3181H15.1103V22.4021Z" fill="var(--fill-0, white)"/>
<path id="Vector_6" d="M75.5933 6.16776C77.2964 6.16776 78.6771 4.78707 78.6771 3.08396C78.6771 1.38076 77.2964 5.17772e-05 75.5933 5.17772e-05C73.8899 5.17772e-05 72.5092 1.38076 72.5092 3.08396C72.5092 4.78707 73.8899 6.16776 75.5933 6.16776Z" fill="var(--fill-0, white)"/>
</g>
</svg>
