<svg width="79" height="23" viewBox="0 0 79 23" fill="none" xmlns="http://www.w3.org/2000/svg">
<path d="M20.6356 22.402H17.3643V6.48242H20.6356V22.402Z" fill="white"/>
<path d="M32.4562 6.1687C34.262 6.1687 35.7374 6.80207 36.8805 8.06841C38.022 9.33496 38.5943 10.9452 38.5943 12.8974V22.3992H35.3228V13.3958C35.3228 12.1705 34.9283 11.1573 34.1387 10.358C33.3492 9.55861 32.374 9.15898 31.2111 9.15898C29.9019 9.15898 28.8327 9.55861 28.0022 10.358C27.1716 11.1573 26.7554 12.1705 26.7554 13.3958V22.3992H23.4841V6.48124H26.7554V10.5932C27.1912 9.22303 27.9133 8.14256 28.9216 7.35302C29.9282 6.56347 31.1074 6.1687 32.4578 6.1687H32.4562Z" fill="white"/>
<path d="M48.794 6.1687C51.3483 6.1687 53.4256 7.0833 55.0243 8.91049C56.623 10.7395 57.2778 12.9501 56.9867 15.5471H43.8089C44.0376 16.835 44.6295 17.8793 45.5851 18.6788C46.5408 19.478 47.6921 19.8778 49.0425 19.8778C50.0804 19.8778 51.0095 19.6229 51.8304 19.1145C52.651 18.6064 53.2893 17.9155 53.7465 17.0423L56.4882 18.2577C55.7825 19.6079 54.7744 20.687 53.4668 21.4977C52.1593 22.3087 50.6527 22.7134 48.9488 22.7134C46.5606 22.7134 44.5556 21.9238 42.9355 20.3465C41.3154 18.7693 40.5046 16.8053 40.5046 14.4583C40.5046 12.1113 41.299 10.1441 42.8878 8.5537C44.4766 6.96491 46.4438 6.17052 48.7924 6.17052L48.794 6.1687ZM48.794 9.00423C47.5885 9.00423 46.5458 9.37274 45.6625 10.1112C44.7792 10.8482 44.1921 11.8086 43.9026 12.9928H53.6856C53.4157 11.8086 52.8385 10.8482 51.9569 10.1112C51.0738 9.37435 50.0194 9.00423 48.794 9.00423Z" fill="white"/>
<path d="M66.0298 6.1687C67.941 6.1687 69.4985 6.66712 70.7024 7.66394C71.9065 8.66057 72.5099 10.0948 72.5099 11.9632V22.4008H69.2386V18.164C68.2616 21.1969 66.2995 22.7134 63.3504 22.7134C61.9786 22.7134 60.8373 22.3038 59.9227 21.483C59.0083 20.6623 58.5527 19.5883 58.5527 18.2593C58.5527 16.7017 59.1021 15.5323 60.2039 14.7543C61.3044 13.9765 62.7073 13.4928 64.4097 13.3053L67.4935 12.9928C68.6564 12.8893 69.2386 12.3695 69.2386 11.4353C69.2386 10.6672 68.9425 10.0536 68.3505 9.598C67.7583 9.1408 66.9854 8.9123 66.0298 8.9123C65.0741 8.9123 64.227 9.16222 63.5526 9.66063C62.8785 10.1588 62.4475 10.886 62.26 11.8416L59.0198 11.0619C59.311 9.56689 60.0888 8.37772 61.3569 7.49444C62.6235 6.61277 64.181 6.17052 66.0298 6.17052V6.1687ZM64.4097 20.0637C65.76 20.0637 66.9013 19.6113 67.8357 18.7083C68.7699 17.8054 69.237 16.7512 69.237 15.5454V14.6737C68.9885 15.0899 68.3851 15.3481 67.4294 15.4517L64.408 15.8251C63.6185 15.9303 62.9902 16.1622 62.5231 16.5257C62.056 16.8892 61.8224 17.3827 61.8224 18.006C61.8224 18.6295 62.056 19.1277 62.5231 19.501C62.9902 19.8744 63.6185 20.0619 64.408 20.0619L64.4097 20.0637Z" fill="white"/>
<path d="M15.1103 22.402H0V6.48242H3.45724V19.318H15.1103V22.402Z" fill="white"/>
<path d="M75.5933 6.16771C77.2964 6.16771 78.6771 4.78702 78.6771 3.08391C78.6771 1.38071 77.2964 0 75.5933 0C73.89 0 72.5093 1.38071 72.5093 3.08391C72.5093 4.78702 73.89 6.16771 75.5933 6.16771Z" fill="white"/>
</svg>
