<svg width="86" height="24" viewBox="0 0 86 24" fill="none" xmlns="http://www.w3.org/2000/svg">
<g clip-path="url(#clip0_1282_101620)">
<path d="M37.8026 6.01978C32.4555 6.01978 28.9243 9.55094 28.9243 14.9323C28.9243 20.3136 32.388 23.744 38.0718 23.744C42.7131 23.744 45.7734 21.0537 46.3118 17.7576H41.603C41.1996 19.3044 39.8203 20.1453 37.9035 20.1453C35.5158 20.1453 33.8339 18.666 33.8339 16.2108V16.0091H46.446C46.4793 15.404 46.4793 14.899 46.4793 14.3948C46.4793 9.2826 42.914 6.02063 37.8026 6.02063V6.01978ZM33.9014 12.8471C34.2382 10.8294 35.785 9.61845 37.8026 9.61845C39.9554 9.61845 41.4013 10.7952 41.7039 12.8804L33.9014 12.8471Z" fill="white"/>
<path d="M53.7441 8.84758L53.3065 6.2915H49.1694V23.5448H53.9116V15.0698C53.9116 12.4804 54.9875 10.5969 57.7794 10.5969H59.6963V6.29236H58.7212C55.9968 6.29236 54.6516 7.33496 53.7441 8.84844V8.84758Z" fill="white"/>
<path d="M66.6259 0.0012207H61.8838L61.9171 23.5435H66.6592L66.6259 13.555V0.0012207Z" fill="white"/>
<path d="M85.4589 0.0012207H80.7168V23.5435H85.4589V0.0012207Z" fill="white"/>
<path d="M13.1838 4.84418H17.7319L13.1838 17.2545L6.65896 0.0012207H0.033329L0 12.8799H4.80963V7.7703L10.9302 23.5435H15.0331L21.1545 7.7703V23.5435H25.9975V4.84418V0.0012207H13.1838V4.84418Z" fill="white"/>
<path d="M70.1728 12.8812H70.0454C71.2931 12.8812 72.4844 12.3599 73.3322 11.4438L78.0974 6.2915H74.6218C73.3647 6.2915 72.1657 6.81964 71.3171 7.74773L66.6245 12.8812L72.2947 21.5246C73.122 22.7851 74.5303 23.5448 76.0412 23.5448H79.0682L74.0218 15.0664C73.2151 13.7119 71.7521 12.8812 70.1719 12.8812H70.1728Z" fill="white"/>
<path d="M0 17.76V23.543L1.85361 22.873C3.62773 22.232 4.80878 20.5485 4.80878 18.6624V12.8794L2.95517 13.5494C1.1819 14.1903 0 15.8739 0 17.76Z" fill="white"/>
</g>
<defs>
<clipPath id="clip0_1282_101620">
<rect width="85.459" height="23.7439" fill="white"/>
</clipPath>
</defs>
</svg>
