<svg width="86" height="24" viewBox="0 0 86 24" fill="none" xmlns="http://www.w3.org/2000/svg">
<g clip-path="url(#clip0_1202_49482)">
<path d="M37.8031 6.01953C32.456 6.01953 28.9248 9.5507 28.9248 14.932C28.9248 20.3134 32.3885 23.7437 38.0723 23.7437C42.7136 23.7437 45.7739 21.0535 46.3123 17.7573H41.6035C41.2001 19.3041 39.8208 20.145 37.904 20.145C35.5163 20.145 33.8344 18.6658 33.8344 16.2105V16.0088H46.4465C46.4798 15.4038 46.4798 14.8987 46.4798 14.3945C46.4798 9.28236 42.9144 6.02039 37.8031 6.02039V6.01953ZM33.9019 12.8468C34.2386 10.8292 35.7855 9.61821 37.8031 9.61821C39.9558 9.61821 41.4018 10.795 41.7043 12.8802L33.9019 12.8468Z" fill="white"/>
<path d="M53.7436 8.84905L53.306 6.29297H49.1689V23.5463H53.9111V15.0713C53.9111 12.4819 54.987 10.5984 57.7789 10.5984H59.6958V6.29382H58.7207C55.9963 6.29382 54.6511 7.33642 53.7436 8.8499V8.84905Z" fill="white"/>
<path d="M66.6259 0H61.8838L61.9171 23.5422H66.6592L66.6259 13.5538V0Z" fill="white"/>
<path d="M85.4589 0H80.7168V23.5422H85.4589V0Z" fill="white"/>
<path d="M13.1838 4.84296H17.7319L13.1838 17.2533L6.65896 0H0.033329L0 12.8787H4.80963V7.76908L10.9302 23.5422H15.0331L21.1545 7.76908V23.5422H25.9975V4.84296V0H13.1838V4.84296Z" fill="white"/>
<path d="M70.1723 12.8827H70.0449C71.2927 12.8827 72.484 12.3614 73.3317 11.4453L78.0969 6.29297H74.6213C73.3642 6.29297 72.1652 6.82111 71.3166 7.74919L66.624 12.8827L72.2942 21.526C73.1215 22.7866 74.5298 23.5463 76.0407 23.5463H79.0677L74.0214 15.0679C73.2146 13.7134 71.7516 12.8827 70.1714 12.8827H70.1723Z" fill="white"/>
<path d="M0 17.7595V23.5425L1.85361 22.8725C3.62773 22.2315 4.80878 20.548 4.80878 18.6619V12.8789L2.95517 13.5489C1.1819 14.1898 0 15.8734 0 17.7595Z" fill="white"/>
</g>
<defs>
<clipPath id="clip0_1202_49482">
<rect width="85.459" height="23.7439" fill="white"/>
</clipPath>
</defs>
</svg>
