<svg width="149" height="30" viewBox="0 0 149 30" fill="none" xmlns="http://www.w3.org/2000/svg">
<g clip-path="url(#clip0_1202_49411)">
<mask id="mask0_1202_49411" style="mask-type:luminance" maskUnits="userSpaceOnUse" x="0" y="0" width="149" height="30">
<path d="M148.901 0.00390625H0.00195312V29.0266H148.901V0.00390625Z" fill="white"/>
</mask>
<g mask="url(#mask0_1202_49411)">
<path d="M3.65674 18.96V27.0802C3.65674 27.5801 4.09454 27.7876 4.23074 27.8347C4.36692 27.8913 4.82419 28.0139 5.23278 27.6461L11.5898 21.7427C12.1311 21.2401 12.6536 20.7117 13.0462 20.0934C13.231 19.8028 13.3076 19.639 13.3076 19.639C13.6968 18.8751 13.6968 18.1395 13.3172 17.4038C12.7532 16.3098 11.3132 15.1969 9.14362 14.1406L5.43709 16.14C4.33777 16.7436 3.65674 17.8094 3.65674 18.96Z" fill="white" fill-opacity="0.8"/>
<path d="M0.00195312 0.899878V9.41627C0.00195312 10.482 0.741343 11.4251 1.79206 11.7269C5.37218 12.7266 11.6083 14.8769 13.1162 18.0364C13.3107 18.4514 13.4275 18.8569 13.4666 19.2813C14.4686 17.5177 14.9258 15.4899 14.7118 13.4339C14.4198 10.5197 12.8242 7.86952 10.3339 6.18134L1.45154 0.17367C1.29587 0.0604952 1.11102 0.00390625 0.926185 0.00390625C0.77051 0.00390625 0.634309 0.0322008 0.488388 0.107651C0.196514 0.267981 0.00195312 0.560357 0.00195312 0.899878Z" fill="white"/>
<path d="M27.3028 18.96V27.0802C27.3028 27.5801 26.8652 27.7876 26.7288 27.8347C26.5928 27.8913 26.1352 28.0139 25.7268 27.6461L19.2218 21.6054C18.7791 21.1942 18.3562 20.7592 18.0227 20.2608C17.7585 19.8664 17.6521 19.639 17.6521 19.639C17.2628 18.8751 17.2628 18.1395 17.6421 17.4038C18.2064 16.3098 19.6464 15.1969 21.8156 14.1406L25.5224 16.14C26.6316 16.7436 27.3028 17.8094 27.3028 18.96Z" fill="white" fill-opacity="0.8"/>
<path d="M30.9647 0.899875V9.41625C30.9647 10.482 30.2252 11.4251 29.1744 11.7269C25.5944 12.7266 19.3584 14.8769 17.8504 18.0364C17.6556 18.4513 17.5388 18.8569 17.5 19.2813C16.498 17.5177 16.0408 15.49 16.2548 13.4339C16.5464 10.5197 18.142 7.86955 20.6328 6.18136L29.5151 0.173667C29.6707 0.0604919 29.8555 0.00390625 30.0403 0.00390625C30.1959 0.00390625 30.3323 0.0322007 30.478 0.107651C30.77 0.267981 30.9647 0.56035 30.9647 0.899875Z" fill="white"/>
<path d="M46.0308 2.74219H49.4313L57.312 20.3563H57.5455L65.4261 2.74219H68.7679V23.0499H66.287V6.88834H66.0535L58.8297 23.0499H55.9694L48.7452 6.88834H48.5117V23.0499H46.0308V2.74219Z" fill="white"/>
<path d="M71.5088 15.8667C71.5088 11.0154 74.5591 8.33594 79.0832 8.33594C83.5925 8.33594 86.6572 11.0154 86.6572 15.8667C86.6572 20.7039 83.5925 23.3834 79.0832 23.3834C74.5591 23.3834 71.5088 20.7039 71.5088 15.8667ZM74.1065 15.8667C74.1065 19.4206 76.106 21.3526 79.0832 21.3526C82.0455 21.3526 84.0451 19.4206 84.0451 15.8667C84.0451 12.2988 82.0455 10.3808 79.0832 10.3808C76.106 10.3808 74.1065 12.2988 74.1065 15.8667Z" fill="white"/>
<path d="M89.1133 8.6736H91.5942V10.3941H91.8277C92.3387 9.37873 93.2727 8.61719 95.5054 8.61719H97.5777V10.7608H95.5637C92.7765 10.7608 91.6818 12.2416 91.6818 15.1608V23.0441H89.1133V8.6736Z" fill="white"/>
<path d="M99.5503 28.6875V8.67592H102.06V10.6644H102.294C103.403 9.00028 105.213 8.35156 107.314 8.35156C111.181 8.35156 114.144 10.89 114.144 15.8682C114.144 20.8324 111.181 23.3708 107.314 23.3708C105.256 23.3708 103.461 22.7362 102.352 21.1426H102.119V28.6875H99.5503ZM102.031 15.8682C102.031 19.3516 103.958 21.3118 106.789 21.3118C109.634 21.3118 111.561 19.3516 111.561 15.8682C111.561 12.3708 109.634 10.4105 106.789 10.4105C103.958 10.4105 102.031 12.3708 102.031 15.8682Z" fill="white"/>
<path d="M116.603 2.74219H119.172V10.4563H119.405C120.47 8.93322 122.236 8.35501 124.323 8.35501C127.782 8.35501 129.971 10.0473 129.971 13.5589V23.0499H127.402V13.7986C127.402 11.4576 126.074 10.4281 123.754 10.4281C121.215 10.4281 119.172 11.8807 119.172 15.0255V23.0499H116.603V2.74219Z" fill="white"/>
<path d="M132.281 15.8667C132.281 11.0154 135.331 8.33594 139.855 8.33594C144.365 8.33594 147.43 11.0154 147.43 15.8667C147.43 20.7039 144.365 23.3834 139.855 23.3834C135.331 23.3834 132.281 20.7039 132.281 15.8667ZM134.879 15.8667C134.879 19.4206 136.878 21.3526 139.855 21.3526C142.818 21.3526 144.817 19.4206 144.817 15.8667C144.817 12.2988 142.818 10.3808 139.855 10.3808C136.878 10.3808 134.879 12.2988 134.879 15.8667Z" fill="white"/>
</g>
</g>
<defs>
<clipPath id="clip0_1202_49411">
<rect width="148.899" height="29.0227" fill="white"/>
</clipPath>
</defs>
</svg>
