<svg width="100%" height="100%" overflow="visible" style="display: block;" viewBox="0 0 147.428 28.6829" fill="none" xmlns="http://www.w3.org/2000/svg">
<g id="Group">
<path id="Vector" d="M3.65501 18.9543V27.0745C3.65501 27.5744 4.0928 27.7819 4.229 27.829C4.36519 27.8856 4.82246 28.0082 5.23105 27.6404L11.588 21.737C12.1293 21.2344 12.6518 20.706 13.0444 20.0877C13.2293 19.7971 13.3059 19.6333 13.3059 19.6333C13.6951 18.8694 13.6951 18.1338 13.3155 17.3981C12.7515 16.3041 11.3115 15.1912 9.14189 14.1349L5.43536 16.1343C4.33604 16.7379 3.65501 17.8037 3.65501 18.9543Z" fill="var(--fill-0, white)" fill-opacity="0.8"/>
<path id="Vector_2" d="M0 0.895979V9.41237C0 10.4781 0.73939 11.4212 1.7901 11.723C5.37023 12.7227 11.6063 14.873 13.1143 18.0325C13.3087 18.4475 13.4255 18.853 13.4647 19.2774C14.4667 17.5138 14.9238 15.486 14.7098 13.4301C14.4179 10.5158 12.8223 7.86562 10.3319 6.17744L1.44959 0.169772C1.29391 0.0565972 1.10907 8.22329e-06 0.924232 8.22329e-06C0.768556 8.22329e-06 0.632356 0.0283028 0.486435 0.103753C0.194561 0.264083 0 0.556459 0 0.895979Z" fill="var(--fill-0, white)"/>
<path id="Vector_3" d="M27.301 18.9543V27.0745C27.301 27.5744 26.8634 27.7819 26.727 27.829C26.591 27.8856 26.1334 28.0082 25.725 27.6404L19.2201 21.5997C18.7773 21.1885 18.3545 20.7535 18.0209 20.2551C17.7568 19.8607 17.6503 19.6333 17.6503 19.6333C17.2611 18.8694 17.2611 18.1338 17.6403 17.3981C18.2047 16.3041 19.6447 15.1912 21.8139 14.1349L25.5207 16.1343C26.6298 16.7379 27.301 17.8037 27.301 18.9543Z" fill="var(--fill-0, white)" fill-opacity="0.8"/>
<path id="Vector_4" d="M30.963 0.895977V9.41235C30.963 10.4781 30.2234 11.4212 29.1726 11.723C25.5926 12.7227 19.3567 14.873 17.8487 18.0325C17.6539 18.4475 17.5371 18.853 17.4983 19.2774C16.4963 17.5138 16.0391 15.4861 16.2531 13.43C16.5447 10.5158 18.1403 7.86565 20.6311 6.17747L29.5134 0.169769C29.669 0.0565939 29.8538 8.22329e-06 30.0386 8.22329e-06C30.1942 8.22329e-06 30.3306 0.0283027 30.4762 0.103752C30.7682 0.264083 30.963 0.556452 30.963 0.895977Z" fill="var(--fill-0, white)"/>
<path id="Vector_5" d="M46.0288 2.73948H49.4294L57.3101 20.3536H57.5436L65.4242 2.73948H68.766V23.0472H66.285V6.88564H66.0515L58.8278 23.0472H55.9674L48.7433 6.88564H48.5098V23.0472H46.0288V2.73948Z" fill="var(--fill-0, white)"/>
<path id="Vector_6" d="M71.5069 15.8634C71.5069 11.0121 74.5572 8.33257 79.0813 8.33257C83.5905 8.33257 86.6552 11.0121 86.6552 15.8634C86.6552 20.7005 83.5905 23.38 79.0813 23.38C74.5572 23.38 71.5069 20.7005 71.5069 15.8634ZM74.1046 15.8634C74.1046 19.4172 76.1041 21.3493 79.0813 21.3493C82.0436 21.3493 84.0432 19.4172 84.0432 15.8634C84.0432 12.2954 82.0436 10.3774 79.0813 10.3774C76.1041 10.3774 74.1046 12.2954 74.1046 15.8634Z" fill="var(--fill-0, white)"/>
<path id="Vector_7" d="M89.1113 8.66958H91.5923V10.3901H91.8258C92.3368 9.37471 93.2708 8.61317 95.5034 8.61317H97.5757V10.7568H95.5618C92.7746 10.7568 91.6798 12.2375 91.6798 15.1568V23.0401H89.1113V8.66958Z" fill="var(--fill-0, white)"/>
<path id="Vector_8" d="M99.5484 28.6828V8.6712H102.059V10.6597H102.292C103.401 8.99556 105.211 8.34684 107.312 8.34684C111.179 8.34684 114.142 10.8853 114.142 15.8635C114.142 20.8276 111.179 23.3661 107.312 23.3661C105.254 23.3661 103.46 22.7315 102.35 21.1379H102.117V28.6828H99.5484ZM102.029 15.8635C102.029 19.3469 103.956 21.3071 106.787 21.3071C109.633 21.3071 111.559 19.3469 111.559 15.8635C111.559 12.3661 109.633 10.4058 106.787 10.4058C103.956 10.4058 102.029 12.3661 102.029 15.8635Z" fill="var(--fill-0, white)"/>
<path id="Vector_9" d="M116.601 2.73948H119.17V10.4536H119.403C120.468 8.93051 122.234 8.35231 124.321 8.35231C127.78 8.35231 129.969 10.0446 129.969 13.5562V23.0472H127.401V13.7959C127.401 11.4549 126.072 10.4254 123.752 10.4254C121.213 10.4254 119.17 11.878 119.17 15.0228V23.0472H116.601V2.73948Z" fill="var(--fill-0, white)"/>
<path id="Vector_10" d="M132.279 15.8634C132.279 11.0121 135.329 8.33257 139.853 8.33257C144.363 8.33257 147.428 11.0121 147.428 15.8634C147.428 20.7005 144.363 23.38 139.853 23.38C135.329 23.38 132.279 20.7005 132.279 15.8634ZM134.877 15.8634C134.877 19.4172 136.876 21.3493 139.853 21.3493C142.816 21.3493 144.815 19.4172 144.815 15.8634C144.815 12.2954 142.816 10.3774 139.853 10.3774C136.876 10.3774 134.877 12.2954 134.877 15.8634Z" fill="var(--fill-0, white)"/>
</g>
</svg>
