<svg width="149" height="30" viewBox="0 0 149 30" fill="none" xmlns="http://www.w3.org/2000/svg">
<g clip-path="url(#clip0_1282_101580)">
<mask id="mask0_1282_101580" style="mask-type:luminance" maskUnits="userSpaceOnUse" x="0" y="0" width="149" height="30">
<path d="M148.901 0.00219727H0.00170898V29.0249H148.901V0.00219727Z" fill="white"/>
</mask>
<g mask="url(#mask0_1282_101580)">
<path d="M3.65674 18.9566V27.0768C3.65674 27.5767 4.09454 27.7842 4.23074 27.8313C4.36692 27.8879 4.82419 28.0105 5.23278 27.6427L11.5898 21.7393C12.1311 21.2367 12.6536 20.7082 13.0462 20.09C13.231 19.7993 13.3076 19.6356 13.3076 19.6356C13.6968 18.8717 13.6968 18.136 13.3172 17.4004C12.7532 16.3064 11.3132 15.1935 9.14362 14.1372L5.43709 16.1366C4.33777 16.7402 3.65674 17.806 3.65674 18.9566Z" fill="white" fill-opacity="0.8"/>
<path d="M0.00170898 0.898169V9.41456C0.00170898 10.4803 0.741099 11.4234 1.79181 11.7252C5.37193 12.7249 11.608 14.8752 13.116 18.0347C13.3104 18.4497 13.4272 18.8552 13.4664 19.2796C14.4684 17.516 14.9255 15.4882 14.7115 13.4322C14.4196 10.518 12.824 7.86781 10.3336 6.17963L1.4513 0.171961C1.29562 0.0587862 1.11078 0.00219727 0.925941 0.00219727C0.770265 0.00219727 0.634065 0.0304918 0.488144 0.105942C0.19627 0.266272 0.00170898 0.558648 0.00170898 0.898169Z" fill="white"/>
<path d="M27.3028 18.9566V27.0768C27.3028 27.5767 26.8652 27.7842 26.7288 27.8313C26.5928 27.8879 26.1352 28.0105 25.7268 27.6427L19.2218 21.602C18.7791 21.1907 18.3562 20.7558 18.0227 20.2574C17.7585 19.8629 17.6521 19.6356 17.6521 19.6356C17.2628 18.8717 17.2628 18.136 17.6421 17.4004C18.2064 16.3064 19.6464 15.1935 21.8156 14.1372L25.5224 16.1366C26.6316 16.7402 27.3028 17.806 27.3028 18.9566Z" fill="white" fill-opacity="0.8"/>
<path d="M30.9647 0.898166V9.41454C30.9647 10.4802 30.2252 11.4234 29.1744 11.7252C25.5944 12.7249 19.3584 14.8752 17.8504 18.0347C17.6556 18.4496 17.5388 18.8552 17.5 19.2796C16.498 17.516 16.0408 15.4883 16.2548 13.4322C16.5464 10.518 18.142 7.86784 20.6328 6.17965L29.5151 0.171958C29.6707 0.0587829 29.8555 0.00219727 30.0403 0.00219727C30.1959 0.00219727 30.3323 0.0304917 30.478 0.105942C30.77 0.266272 30.9647 0.558641 30.9647 0.898166Z" fill="white"/>
<path d="M46.0305 2.7417H49.4311L57.3117 20.3558H57.5452L65.4259 2.7417H68.7677V23.0494H66.2867V6.88786H66.0532L58.8295 23.0494H55.9691L48.745 6.88786H48.5115V23.0494H46.0305V2.7417Z" fill="white"/>
<path d="M71.5085 15.8655C71.5085 11.0142 74.5589 8.33472 79.0829 8.33472C83.5922 8.33472 86.6569 11.0142 86.6569 15.8655C86.6569 20.7027 83.5922 23.3822 79.0829 23.3822C74.5589 23.3822 71.5085 20.7027 71.5085 15.8655ZM74.1062 15.8655C74.1062 19.4194 76.1058 21.3514 79.0829 21.3514C82.0453 21.3514 84.0448 19.4194 84.0448 15.8655C84.0448 12.2975 82.0453 10.3796 79.0829 10.3796C76.1058 10.3796 74.1062 12.2975 74.1062 15.8655Z" fill="white"/>
<path d="M89.113 8.67189H91.594V10.3924H91.8275C92.3385 9.37702 93.2725 8.61548 95.5051 8.61548H97.5774V10.7591H95.5635C92.7763 10.7591 91.6815 12.2398 91.6815 15.1591V23.0424H89.113V8.67189Z" fill="white"/>
<path d="M99.55 28.685V8.67348H102.06V10.6619H102.294C103.403 8.99784 105.212 8.34912 107.314 8.34912C111.181 8.34912 114.144 10.8876 114.144 15.8658C114.144 20.8299 111.181 23.3684 107.314 23.3684C105.256 23.3684 103.461 22.7338 102.352 21.1402H102.119V28.685H99.55ZM102.031 15.8658C102.031 19.3491 103.957 21.3094 106.789 21.3094C109.634 21.3094 111.561 19.3491 111.561 15.8658C111.561 12.3684 109.634 10.4081 106.789 10.4081C103.957 10.4081 102.031 12.3684 102.031 15.8658Z" fill="white"/>
<path d="M116.603 2.7417H119.171V10.4558H119.405C120.47 8.93273 122.236 8.35452 124.323 8.35452C127.782 8.35452 129.971 10.0468 129.971 13.5584V23.0494H127.402V13.7981C127.402 11.4571 126.074 10.4276 123.754 10.4276C121.214 10.4276 119.171 11.8802 119.171 15.025V23.0494H116.603V2.7417Z" fill="white"/>
<path d="M132.281 15.8655C132.281 11.0142 135.331 8.33472 139.855 8.33472C144.365 8.33472 147.429 11.0142 147.429 15.8655C147.429 20.7027 144.365 23.3822 139.855 23.3822C135.331 23.3822 132.281 20.7027 132.281 15.8655ZM134.879 15.8655C134.879 19.4194 136.878 21.3514 139.855 21.3514C142.818 21.3514 144.817 19.4194 144.817 15.8655C144.817 12.2975 142.818 10.3796 139.855 10.3796C136.878 10.3796 134.879 12.2975 134.879 15.8655Z" fill="white"/>
</g>
</g>
<defs>
<clipPath id="clip0_1282_101580">
<rect width="148.899" height="29.0227" fill="white"/>
</clipPath>
</defs>
</svg>
