<svg width="145" height="40" viewBox="0 0 145 40" fill="none" xmlns="http://www.w3.org/2000/svg">
<path d="M17.6979 15.7985L15.0589 14.271L7.14185 18.853V28.0164L15.0589 32.5983L22.9764 28.0164V13.7619L27.3746 11.2166L31.7732 13.7619V18.853L27.3746 21.3984L24.7356 19.8713V23.9436L27.3746 25.471L35.2915 20.8891V11.7257L27.3746 7.1438L19.4575 11.7257V25.9803L15.0589 28.5255L10.6607 25.9803V20.8891L15.0589 18.3438L17.6979 19.8707V15.7985Z" fill="white"/>
<path fill-rule="evenodd" clip-rule="evenodd" d="M73.9075 26.869H77.4711V7.33521H73.9075V26.869ZM50.9978 12.9837C52.6868 12.9837 54.087 13.6622 55.1945 15.0171C56.3041 16.3721 56.8568 18.0528 56.8568 20.0593C56.8568 22.0659 56.3019 23.7467 55.1945 25.1017C54.085 26.4565 52.6868 27.135 50.9978 27.135C49.8017 27.135 48.7623 26.7658 47.8838 26.0256C47.0218 25.2687 46.3886 24.2478 45.9824 22.963V32.1484H42.4187V13.2477H45.9824V17.1536C46.3866 15.8689 47.0218 14.8563 47.8838 14.118C48.7643 13.3612 49.8017 12.9837 50.9978 12.9837ZM49.7027 23.8869C50.6699 23.8869 51.4887 23.526 52.1569 22.8043C52.825 22.0659 53.1591 21.1503 53.1591 20.0593C53.1591 18.9684 52.825 18.0879 52.1569 17.3661C51.4887 16.6278 50.6699 16.2566 49.7027 16.2566C48.6282 16.2566 47.7414 16.6175 47.0361 17.3393C46.333 18.061 45.9803 18.9664 45.9803 20.0573C45.9803 21.1483 46.333 22.0639 47.0361 22.8021C47.7394 23.5241 48.6282 23.8849 49.7027 23.8849V23.8869ZM57.8033 20.0593C57.8033 22.0659 58.4983 23.7467 59.8882 25.1017C61.2782 26.4565 63.0126 27.135 65.0893 27.135C67.1659 27.135 68.9003 26.4565 70.2902 25.1017C71.6804 23.7467 72.3753 22.0659 72.3753 20.0593C72.3753 18.0528 71.6804 16.3721 70.2902 15.0171C68.9003 13.6622 67.1659 12.9837 65.0893 12.9837C63.0126 12.9837 61.2782 13.6622 59.8882 15.0171C58.4983 16.3721 57.8033 18.0528 57.8033 20.0593ZM62.5279 22.8043C61.8412 22.0659 61.4988 21.1503 61.4988 20.0593C61.4988 18.9684 61.8412 18.0879 62.5279 17.3661C63.2147 16.6278 64.0684 16.2566 65.0893 16.2566C66.1101 16.2566 66.964 16.6175 67.6506 17.3393C68.3374 18.061 68.6797 18.9664 68.6797 20.0573C68.6797 21.1483 68.3374 22.0639 67.6506 22.8021C66.964 23.5241 66.1101 23.8849 65.0893 23.8849C64.0684 23.8849 63.2147 23.5241 62.5279 22.8021V22.8043ZM110.393 25.1017C109.003 23.7467 108.308 22.0659 108.308 20.0593C108.308 18.0528 109.003 16.3721 110.393 15.0171C111.783 13.6622 113.517 12.9837 115.594 12.9837C117.671 12.9837 119.405 13.6622 120.795 15.0171C122.185 16.3721 122.88 18.0528 122.88 20.0593C122.88 22.0659 122.185 23.7467 120.795 25.1017C119.405 26.4565 117.671 27.135 115.594 27.135C113.517 27.135 111.785 26.4565 110.393 25.1017ZM112.002 20.0593C112.002 21.1503 112.344 22.0659 113.031 22.8043C113.717 23.526 114.571 23.8869 115.592 23.8869C116.613 23.8869 117.467 23.526 118.153 22.8043C118.84 22.0659 119.183 21.1503 119.183 20.0593C119.183 18.9684 118.84 18.061 118.153 17.3413C117.467 16.6195 116.613 16.2586 115.592 16.2586C114.571 16.2586 113.717 16.6278 113.031 17.3681C112.344 18.0899 112.002 18.987 112.002 20.0615V20.0593ZM132.364 12.9837C133.878 12.9837 135.093 13.5117 136.007 14.5676C136.939 15.6235 137.405 16.9701 137.405 18.6055V26.867H133.841V19.2386C133.841 18.358 133.561 17.6362 132.995 17.0732C132.432 16.5102 131.729 16.2277 130.884 16.2277C129.933 16.2277 129.16 16.5102 128.562 17.0732C127.964 17.6362 127.665 18.358 127.665 19.2386V26.867H124.101V13.2477H127.665V16.733C128.017 15.5719 128.607 14.6562 129.434 13.9881C130.279 13.3199 131.255 12.9858 132.364 12.9858V12.9837ZM86.0316 23.2374L89.6735 13.2601H93.2908L85.7945 32.1607H82.1772L84.0786 27.3556L78.5085 13.2601H82.3629L86.0316 23.2374ZM103.425 13.2477V16.6608C102.682 14.4335 100.849 13.2477 98.4093 13.2477C94.7262 13.2477 92.5484 16.4649 92.5484 19.847C92.5484 23.2291 94.7095 26.7103 98.4093 26.7103C100.849 26.7103 102.682 24.9511 103.425 22.7237V25.3368C103.425 26.4462 103.064 27.3598 102.342 28.0816C101.62 28.8033 100.742 29.1642 99.7023 29.1642C98.2939 29.1642 97.2481 28.4611 96.5615 27.0525L93.367 28.7416C93.9651 29.851 94.8188 30.7378 95.9284 31.408C97.0378 32.0762 98.2959 32.4103 99.7023 32.4103C101.779 32.4103 103.513 31.7338 104.903 30.377C106.293 29.0219 106.988 27.3412 106.988 25.3346V13.2477H103.425ZM102.396 22.4351C101.709 23.1219 100.847 23.4641 99.8096 23.4641C98.7722 23.4641 97.9618 23.1219 97.2751 22.4351C96.5883 21.732 96.246 20.8698 96.246 19.849C96.246 18.8282 96.5883 17.9744 97.2751 17.2877C97.9618 16.601 98.8053 16.2586 99.8096 16.2586C100.814 16.2586 101.711 16.601 102.396 17.2877C103.082 17.9559 103.425 18.8097 103.425 19.849C103.425 20.8884 103.082 21.7504 102.396 22.4351Z" fill="white"/>
</svg>
