<svg width="145" height="40" viewBox="0 0 145 40" fill="none" xmlns="http://www.w3.org/2000/svg">
<path d="M17.6981 15.7993L15.0591 14.2718L7.14209 18.8537V28.0171L15.0591 32.599L22.9767 28.0171V13.7626L27.3749 11.2173L31.7734 13.7626V18.8537L27.3749 21.3991L24.7358 19.8721V23.9443L27.3749 25.4717L35.2918 20.8898V11.7265L27.3749 7.14453L19.4578 11.7265V25.981L15.0591 28.5262L10.6609 25.981V20.8898L15.0591 18.3446L17.6981 19.8715V15.7993Z" fill="white"/>
<path fill-rule="evenodd" clip-rule="evenodd" d="M73.9078 26.8697H77.4713V7.33594H73.9078V26.8697ZM50.9981 12.9845C52.687 12.9845 54.0873 13.663 55.1947 15.0179C56.3043 16.3728 56.857 18.0535 56.857 20.06C56.857 22.0666 56.3021 23.7474 55.1947 25.1024C54.0853 26.4572 52.687 27.1358 50.9981 27.1358C49.802 27.1358 48.7626 26.7665 47.8841 26.0263C47.0221 25.2695 46.3888 24.2485 45.9827 22.9637V32.1492H42.4189V13.2484H45.9827V17.1544C46.3868 15.8696 47.0221 14.857 47.8841 14.1187C48.7646 13.3619 49.802 12.9845 50.9981 12.9845ZM49.703 23.8877C50.6701 23.8877 51.4889 23.5268 52.1571 22.805C52.8253 22.0666 53.1594 21.151 53.1594 20.06C53.1594 18.9692 52.8253 18.0886 52.1571 17.3668C51.4889 16.6285 50.6701 16.2573 49.703 16.2573C48.6285 16.2573 47.7416 16.6182 47.0364 17.34C46.3333 18.0618 45.9805 18.9671 45.9805 20.0581C45.9805 21.149 46.3333 22.0646 47.0364 22.8028C47.7397 23.5248 48.6285 23.8857 49.703 23.8857V23.8877ZM57.8036 20.06C57.8036 22.0666 58.4985 23.7474 59.8885 25.1024C61.2784 26.4572 63.0128 27.1358 65.0896 27.1358C67.1662 27.1358 68.9005 26.4572 70.2905 25.1024C71.6806 23.7474 72.3756 22.0666 72.3756 20.06C72.3756 18.0535 71.6806 16.3728 70.2905 15.0179C68.9005 13.663 67.1662 12.9845 65.0896 12.9845C63.0128 12.9845 61.2784 13.663 59.8885 15.0179C58.4985 16.3728 57.8036 18.0535 57.8036 20.06ZM62.5281 22.805C61.8415 22.0666 61.499 21.151 61.499 20.06C61.499 18.9692 61.8415 18.0886 62.5281 17.3668C63.215 16.6285 64.0686 16.2573 65.0896 16.2573C66.1103 16.2573 66.9642 16.6182 67.6508 17.34C68.3377 18.0618 68.6799 18.9671 68.6799 20.0581C68.6799 21.149 68.3377 22.0646 67.6508 22.8028C66.9642 23.5248 66.1103 23.8857 65.0896 23.8857C64.0686 23.8857 63.215 23.5248 62.5281 22.8028V22.805ZM110.393 25.1024C109.003 23.7474 108.308 22.0666 108.308 20.06C108.308 18.0535 109.003 16.3728 110.393 15.0179C111.783 13.663 113.518 12.9845 115.594 12.9845C117.671 12.9845 119.405 13.663 120.796 15.0179C122.185 16.3728 122.88 18.0535 122.88 20.06C122.88 22.0666 122.185 23.7474 120.796 25.1024C119.405 26.4572 117.671 27.1358 115.594 27.1358C113.518 27.1358 111.785 26.4572 110.393 25.1024ZM112.002 20.06C112.002 21.151 112.344 22.0666 113.031 22.805C113.718 23.5268 114.572 23.8877 115.592 23.8877C116.613 23.8877 117.467 23.5268 118.154 22.805C118.84 22.0666 119.183 21.151 119.183 20.06C119.183 18.9692 118.84 18.0618 118.154 17.3421C117.467 16.6203 116.613 16.2594 115.592 16.2594C114.572 16.2594 113.718 16.6285 113.031 17.3689C112.344 18.0907 112.002 18.9877 112.002 20.0622V20.06ZM132.365 12.9845C133.878 12.9845 135.093 13.5124 136.007 14.5683C136.939 15.6242 137.405 16.9708 137.405 18.6062V26.8677H133.841V19.2393C133.841 18.3587 133.561 17.6369 132.996 17.0739C132.433 16.5109 131.73 16.2284 130.884 16.2284C129.933 16.2284 129.16 16.5109 128.562 17.0739C127.964 17.6369 127.665 18.3587 127.665 19.2393V26.8677H124.101V13.2484H127.665V16.7337C128.017 15.5726 128.607 14.657 129.434 13.9888C130.28 13.3206 131.255 12.9865 132.365 12.9865V12.9845ZM86.0318 23.2381L89.6737 13.2608H93.291L85.7947 32.1615H82.1774L84.0788 27.3564L78.5087 13.2608H82.3631L86.0318 23.2381ZM103.425 13.2484V16.6615C102.683 14.4343 100.849 13.2484 98.4096 13.2484C94.7264 13.2484 92.5486 16.4656 92.5486 19.8478C92.5486 23.2298 94.7097 26.711 98.4096 26.711C100.849 26.711 102.683 24.9518 103.425 22.7245V25.3375C103.425 26.4469 103.064 27.3605 102.342 28.0823C101.62 28.804 100.742 29.1649 99.7025 29.1649C98.2941 29.1649 97.2484 28.4618 96.5617 27.0532L93.3672 28.7423C93.9654 29.8518 94.8191 30.7386 95.9287 31.4088C97.0381 32.0769 98.2961 32.411 99.7025 32.411C101.779 32.411 103.514 31.7345 104.904 30.3777C106.294 29.0227 106.989 27.3419 106.989 25.3353V13.2484H103.425ZM102.396 22.4358C101.709 23.1227 100.847 23.4649 99.8098 23.4649C98.7724 23.4649 97.962 23.1227 97.2754 22.4358C96.5885 21.7327 96.2463 20.8705 96.2463 19.8498C96.2463 18.8289 96.5885 17.9752 97.2754 17.2884C97.962 16.6017 98.8056 16.2594 99.8098 16.2594C100.814 16.2594 101.711 16.6017 102.396 17.2884C103.083 17.9566 103.425 18.8104 103.425 19.8498C103.425 20.8891 103.083 21.7512 102.396 22.4358Z" fill="white"/>
</svg>
