<svg width="178" height="48" viewBox="0 0 178 48" fill="none" xmlns="http://www.w3.org/2000/svg">
<path d="M56.8152 35.147C64.5314 35.147 64.701 29.2548 64.701 24.8658V13.232H61.1962V22.5811C61.1962 29.7358 60.8004 31.8101 56.8152 31.8101C52.9148 31.8101 52.5756 29.7358 52.5756 22.5811V13.1719H49.0708V24.8658C49.0708 29.2548 49.2405 35.147 56.8152 35.147Z" fill="white"/>
<path d="M86.1772 28.6546C86.1772 24.4459 74.3629 26.5502 74.3629 19.4256C74.3629 15.277 77.4436 12.6016 81.7397 12.6016C86.7143 12.6016 89.7668 15.0666 89.9364 20.5077L86.3469 19.9066C86.3469 16.5096 84.0574 15.8482 81.7962 15.8482C79.7048 15.8482 78.0654 16.7801 78.0654 18.8844C78.0654 23.8446 89.7668 21.109 89.7668 28.0833C89.7668 32.3822 86.9687 35.1479 82.0225 35.1479C77.7263 35.1479 74.165 31.9012 74.165 27.2416L77.811 27.5723C77.811 30.398 79.8461 31.9012 82.0225 31.9012C84.4532 31.9012 86.1772 30.7889 86.1772 28.6546Z" fill="white"/>
<path d="M107.479 35.147C115.195 35.147 115.365 29.2548 115.365 24.8658V13.232H111.86V22.5811C111.86 29.7358 111.464 31.8101 107.479 31.8101C103.579 31.8101 103.24 29.7358 103.24 22.5811V13.1719H99.7349V24.8658C99.7349 29.2548 99.9044 35.147 107.479 35.147Z" fill="white"/>
<path d="M140.076 34.543H143.835L136.656 13.1992H131.314L124.05 34.543H127.809L129.703 28.4404H138.211L140.076 34.543ZM130.692 25.254L133.491 16.2956C133.745 15.1833 133.83 14.3115 133.83 14.3115H134.169C134.169 14.3115 134.225 15.1833 134.48 16.2956L137.222 25.254H130.692Z" fill="white"/>
<path d="M156.228 31.2964V13.1992H152.724V34.543H165.782V31.2964H156.228Z" fill="white"/>
<path fill-rule="evenodd" clip-rule="evenodd" d="M23.7369 35.81C25.8461 35.81 27.6274 34.3286 28.385 32.3373C28.4538 32.1562 28.5206 31.974 28.5851 31.7908C31.3144 30.2319 33.1571 27.2706 33.1571 23.8738C33.1571 20.4771 31.3144 17.5158 28.5851 15.9567C28.5206 15.7735 28.4538 15.5912 28.3848 15.4101C27.6274 13.4188 25.8461 11.9375 23.7369 11.9375C17.2201 11.9375 11.937 17.2815 11.937 23.8738C11.937 30.4659 17.2201 35.81 23.7369 35.81ZM28.5851 15.9567C27.2826 15.2127 25.7777 14.788 24.175 14.788C19.2144 14.788 15.193 18.8559 15.193 23.8738C15.193 28.8916 19.2144 32.9595 24.175 32.9595C25.7777 32.9595 27.2826 32.535 28.5851 31.7908C29.4572 29.3163 29.932 26.6512 29.932 23.8738C29.932 21.0963 29.4572 18.4313 28.5851 15.9567Z" fill="white"/>
</svg>
