<svg width="136" height="136" viewBox="0 0 136 136" fill="none" xmlns="http://www.w3.org/2000/svg">
<g filter="url(#filter0_i_1430_27799L)">
<circle cx="67.9157" cy="67.9138" r="47.0554" fill="#F2F3F2"/>
</g>
<g filter="url(#filter1_f_1430_27799L)">
<ellipse cx="67.4655" cy="67.4621" rx="17.1672" ry="17.1672" fill="url(#paint0_radial_1430_27799L)" fill-opacity="0.85"/>
</g>
<path d="M67.9303 127.367V135.861C67.7872 135.861 67.6443 135.858 67.5015 135.857L67.5537 127.367C67.6791 127.367 67.8047 127.367 67.9303 127.367ZM68.3068 127.367L68.3582 135.857C68.2157 135.858 68.073 135.861 67.9303 135.861V127.367C68.0559 127.367 68.1814 127.367 68.3068 127.367ZM64.5612 127.274L64.0884 135.752C63.8032 135.736 63.5185 135.718 63.2342 135.699L63.8131 127.227C64.062 127.244 64.3114 127.26 64.5612 127.274ZM72.6256 135.699C72.3413 135.718 72.0565 135.736 71.7713 135.752L71.2993 127.274C71.5492 127.26 71.7985 127.244 72.0475 127.227L72.6256 135.699ZM60.8363 126.949L59.8352 135.382C59.5521 135.348 59.2696 135.313 58.9876 135.276L60.0948 126.856C60.3415 126.889 60.5887 126.92 60.8363 126.949ZM76.8721 135.276C76.5901 135.313 76.3076 135.348 76.0245 135.382L75.0242 126.949C75.2719 126.92 75.519 126.889 75.7657 126.856L76.8721 135.276ZM57.1446 126.393L56.3791 130.569L56.3799 130.57L55.6144 134.746C55.3348 134.695 55.0559 134.641 54.7775 134.587L56.4123 126.254C56.6558 126.301 56.9 126.348 57.1446 126.393ZM79.4483 126.254L81.0822 134.587C80.8038 134.641 80.5249 134.695 80.2453 134.746L79.4806 130.57L78.7159 126.393C78.9605 126.348 79.2048 126.301 79.4483 126.254ZM53.4986 125.606L51.4441 133.845C51.1681 133.776 50.8927 133.706 50.618 133.634L52.7761 125.421C53.0163 125.484 53.2572 125.546 53.4986 125.606ZM85.2417 133.634C84.967 133.706 84.6917 133.776 84.4156 133.845L83.3888 129.726L82.362 125.606C82.6033 125.546 82.8443 125.484 83.0844 125.421L85.2417 133.634ZM49.9105 124.589L47.3385 132.681C47.0669 132.595 46.7959 132.507 46.5257 132.418L49.1997 124.358C49.4359 124.437 49.6731 124.513 49.9105 124.589ZM89.334 132.418C89.0638 132.507 88.7929 132.595 88.5212 132.681L85.95 124.589C86.1875 124.513 86.4247 124.437 86.6608 124.358L89.334 132.418ZM46.3922 123.347L43.3126 131.261C43.0474 131.158 42.7832 131.053 42.5197 130.946L45.698 123.073C45.9285 123.166 46.1603 123.257 46.3922 123.347ZM93.3401 130.946C93.0765 131.053 92.8123 131.158 92.5471 131.261L89.4684 123.347C89.7003 123.257 89.9321 123.166 90.1626 123.073L93.3401 130.946ZM42.9593 121.886L41.1719 125.738L41.1727 125.738L39.3862 129.589C39.1282 129.47 38.871 129.349 38.6148 129.226L42.2849 121.567C42.509 121.675 42.7337 121.781 42.9593 121.886ZM97.2449 129.226C96.9887 129.349 96.7315 129.47 96.4736 129.589L94.6878 125.738L92.9013 121.886C93.1269 121.781 93.3516 121.675 93.5756 121.567L97.2449 129.226ZM39.625 120.21L35.5734 127.674C35.323 127.538 35.0737 127.401 34.8252 127.262L38.9706 119.849C39.1879 119.97 39.4061 120.091 39.625 120.21ZM96.8899 119.849L101.034 127.262C100.786 127.401 100.537 127.538 100.286 127.674L96.2355 120.21C96.4545 120.091 96.6726 119.97 96.8899 119.849ZM36.4011 118.326L31.8883 125.52C31.647 125.369 31.4068 125.216 31.1675 125.062L35.7699 117.925C35.9792 118.06 36.1901 118.194 36.4011 118.326ZM104.692 125.062C104.453 125.216 104.213 125.369 103.971 125.52L99.4594 118.326C99.6705 118.194 99.8813 118.06 100.091 117.925L104.692 125.062ZM33.2999 116.243L28.3451 123.14C28.1139 122.974 27.884 122.806 27.655 122.637L32.6961 115.804C32.8965 115.951 33.0977 116.098 33.2999 116.243ZM103.164 115.804L108.205 122.637C107.976 122.806 107.746 122.974 107.515 123.14L102.561 116.243C102.763 116.098 102.964 115.951 103.164 115.804ZM30.3348 113.97L24.9594 120.543C24.7391 120.363 24.5197 120.182 24.3017 119.999L29.7592 113.493C29.9501 113.653 30.1419 113.812 30.3348 113.97ZM111.558 119.999C111.34 120.182 111.121 120.363 110.9 120.543L105.526 113.97C105.719 113.812 105.91 113.653 106.101 113.493L111.558 119.999ZM27.5173 111.515L21.7413 117.74C21.5327 117.546 21.3246 117.352 21.1184 117.156L26.9724 111.002C27.153 111.174 27.3346 111.345 27.5173 111.515ZM108.888 111.002L114.741 117.156C114.535 117.352 114.327 117.546 114.118 117.74L108.343 111.515C108.526 111.345 108.708 111.174 108.888 111.002ZM24.8582 108.888L18.704 114.741C18.5079 114.535 18.3137 114.327 18.1201 114.118L24.3456 108.343C24.5152 108.526 24.6865 108.708 24.8582 108.888ZM117.74 114.118C117.546 114.327 117.352 114.535 117.156 114.741L111.002 108.888C111.174 108.708 111.345 108.526 111.515 108.343L117.74 114.118ZM22.3675 106.101L19.1137 108.829L19.1146 108.83L15.8608 111.558C15.678 111.34 15.4968 111.121 15.3167 110.9L21.8906 105.526C22.0483 105.719 22.2074 105.91 22.3675 106.101ZM120.543 110.9C120.363 111.121 120.182 111.34 119.999 111.558L116.746 108.83L113.493 106.101C113.653 105.91 113.812 105.719 113.97 105.526L120.543 110.9ZM20.0568 103.164L13.2224 108.205C13.0536 107.976 12.8859 107.746 12.7198 107.515L19.6172 102.561C19.7624 102.763 19.9091 102.964 20.0568 103.164ZM123.14 107.515C122.974 107.746 122.806 107.976 122.637 108.205L119.221 105.685L115.804 103.164C115.951 102.964 116.098 102.763 116.243 102.561L123.14 107.515ZM17.9351 100.091L10.7981 104.692C10.6438 104.453 10.4908 104.213 10.3394 103.971L17.5345 99.4594C17.6669 99.6705 17.8002 99.8813 17.9351 100.091ZM125.52 103.971C125.369 104.213 125.216 104.453 125.062 104.692L117.925 100.091C118.06 99.8813 118.194 99.6705 118.326 99.4594L125.52 103.971ZM16.0117 96.8899L8.59848 101.034C8.45958 100.786 8.3213 100.537 8.18544 100.286L15.651 96.2355C15.7698 96.4545 15.8903 96.6726 16.0117 96.8899ZM127.674 100.286C127.538 100.537 127.401 100.786 127.262 101.034L123.555 98.9626L119.849 96.8899C119.97 96.6726 120.091 96.4545 120.21 96.2355L127.674 100.286ZM14.2932 93.5756L6.63362 97.2449C6.51087 96.9887 6.38995 96.7315 6.27033 96.4736L13.9747 92.9013C14.0793 93.1269 14.1859 93.3516 14.2932 93.5756ZM129.589 96.4736C129.47 96.7315 129.349 96.9887 129.226 97.2449L121.567 93.5756C121.675 93.3516 121.781 93.1269 121.886 92.9013L129.589 96.4736ZM12.7878 90.1626L8.8498 91.7509L8.85063 91.7517L4.91342 93.3401C4.80707 93.0765 4.70221 92.8123 4.59907 92.5471L12.5133 89.4684C12.6035 89.7003 12.6948 89.9321 12.7878 90.1626ZM131.261 92.5471C131.158 92.8123 131.053 93.0765 130.946 93.3401L127.01 91.7517L123.073 90.1626C123.166 89.9321 123.257 89.7003 123.347 89.4684L131.261 92.5471ZM11.5022 86.6608L3.44205 89.334C3.35242 89.0638 3.26461 88.7929 3.1783 88.5212L11.2717 85.95C11.3471 86.1875 11.4239 86.4247 11.5022 86.6608ZM132.681 88.5212C132.595 88.7929 132.507 89.0638 132.418 89.334L124.358 86.6608C124.437 86.4246 124.513 86.1875 124.589 85.95L132.681 88.5212ZM10.4398 83.0844L2.22613 85.2417C2.15396 84.967 2.08345 84.6917 2.01464 84.4156L10.2548 82.362C10.315 82.6033 10.3767 82.8443 10.4398 83.0844ZM133.845 84.4156C133.776 84.6917 133.706 84.967 133.634 85.2417L125.421 83.0844C125.484 82.8443 125.546 82.6033 125.606 82.362L133.845 84.4156ZM9.60705 79.4483L5.43844 80.2653L5.43927 80.2661L1.64057 81.0109L1.27314 81.0822C1.21853 80.8038 1.1651 80.5249 1.1139 80.2453L9.46771 78.7159C9.5125 78.9605 9.55927 79.2048 9.60705 79.4483ZM130.569 79.4806L134.746 80.2453C134.695 80.5249 134.641 80.8038 134.587 81.0822L134.22 81.0109L130.421 80.2661L126.254 79.4483C126.301 79.2048 126.348 78.9605 126.393 78.7159L130.569 79.4806ZM9.00407 75.7657L0.583904 76.8721C0.546821 76.5901 0.511352 76.3076 0.47774 76.0245L8.91117 75.0242C8.94058 75.2719 8.97163 75.519 9.00407 75.7657ZM135.382 76.0245C135.348 76.3076 135.313 76.5901 135.276 76.8721L131.067 76.3197L126.856 75.7657C126.889 75.519 126.92 75.2719 126.949 75.0242L135.382 76.0245ZM8.63332 72.0475L0.160905 72.6256C0.141497 72.3413 0.123723 72.0565 0.107823 71.7713L8.58687 71.2993C8.6008 71.5492 8.61633 71.7985 8.63332 72.0475ZM135.752 71.7713C135.736 72.0565 135.718 72.3413 135.699 72.6256L127.227 72.0475C127.244 71.7985 127.26 71.5492 127.274 71.2993L135.752 71.7713ZM0 67.9303C0 67.7872 0.00160529 67.6443 0.00248823 67.5015L4.24823 67.5272L8.49398 67.5537C8.49321 67.6791 8.49315 67.8047 8.49315 67.9303C8.49315 68.0559 8.49321 68.1814 8.49398 68.3068L0.00248823 68.3582C0.0016087 68.2157 0 68.073 0 67.9303ZM135.857 68.3582L131.613 68.3334L127.367 68.3068C127.367 68.1814 127.367 68.0559 127.367 67.9303C127.367 67.8047 127.367 67.6791 127.367 67.5537L135.857 67.5015C135.858 67.6443 135.861 67.7872 135.861 67.9303C135.861 68.073 135.858 68.2157 135.857 68.3582ZM8.63332 63.8131C8.61633 64.062 8.6008 64.3114 8.58687 64.5612L0.107823 64.0884C0.123726 63.8032 0.141493 63.5185 0.160905 63.2342L8.63332 63.8131ZM135.699 63.2342C135.718 63.5185 135.736 63.8032 135.752 64.0884L127.274 64.5612C127.26 64.3114 127.244 64.062 127.227 63.8131L135.699 63.2342ZM4.79399 59.5408L9.00407 60.0948C8.97163 60.3415 8.94058 60.5887 8.91117 60.8363L0.47774 59.8352C0.511355 59.5521 0.546817 59.2696 0.583904 58.9876L4.79399 59.5408ZM135.276 58.9876C135.313 59.2696 135.348 59.5521 135.382 59.8352L126.949 60.8363C126.92 60.5887 126.889 60.3415 126.856 60.0948L135.276 58.9876ZM5.43927 55.5945L9.60705 56.4123C9.55927 56.6558 9.5125 56.9 9.46771 57.1446L5.2908 56.3791L1.1139 55.6144C1.1651 55.3348 1.21853 55.0559 1.27314 54.7775L5.43927 55.5945ZM134.587 54.7775C134.641 55.0559 134.695 55.3348 134.746 55.6144L130.57 56.3799L130.569 56.3791L126.393 57.1446C126.348 56.9 126.301 56.6558 126.254 56.4123L134.587 54.7775ZM6.33337 51.6971L10.4398 52.7761C10.3767 53.0163 10.315 53.2572 10.2548 53.4986L2.01464 51.4441C2.08345 51.1681 2.15395 50.8927 2.22613 50.618L6.33337 51.6971ZM133.634 50.618C133.706 50.8927 133.776 51.1681 133.845 51.4441L129.726 52.4717L129.725 52.4709L125.606 53.4986C125.546 53.2572 125.484 53.0163 125.421 52.7761L133.634 50.618ZM11.5022 49.1997C11.4239 49.4359 11.3471 49.6731 11.2717 49.9105L3.1783 47.3385C3.26461 47.0669 3.35242 46.7959 3.44205 46.5257L11.5022 49.1997ZM132.418 46.5257C132.507 46.7959 132.595 47.0669 132.681 47.3385L124.589 49.9105C124.513 49.673 124.437 49.4359 124.358 49.1997L132.418 46.5257ZM8.85063 44.1088L12.7878 45.698C12.6948 45.9285 12.6035 46.1603 12.5133 46.3922L4.59907 43.3126C4.70221 43.0474 4.80706 42.7832 4.91342 42.5197L8.85063 44.1088ZM130.946 42.5197C131.053 42.7832 131.158 43.0474 131.261 43.3126L123.347 46.3922C123.257 46.1603 123.166 45.9285 123.073 45.698L130.946 42.5197ZM14.2932 42.2849C14.1859 42.509 14.0793 42.7337 13.9747 42.9593L6.27033 39.3862C6.38995 39.1282 6.51087 38.871 6.63362 38.6148L14.2932 42.2849ZM129.226 38.6148C129.349 38.871 129.47 39.1282 129.589 39.3862L125.738 41.1727L125.738 41.1719L121.886 42.9593C121.781 42.7337 121.675 42.509 121.567 42.2849L129.226 38.6148ZM8.59848 34.8261L12.3051 36.8979L16.0117 38.9706C15.8903 39.1879 15.7698 39.4061 15.651 39.625L8.18627 35.5742L8.18544 35.5734C8.3213 35.323 8.45875 35.0737 8.59766 34.8252L8.59848 34.8261ZM127.262 34.8252C127.401 35.0737 127.538 35.323 127.674 35.5734L120.21 39.625C120.091 39.4061 119.97 39.1879 119.849 38.9706L127.262 34.8252ZM17.9351 35.7699C17.8002 35.9792 17.6669 36.1901 17.5345 36.4011L10.3394 31.8883C10.4908 31.647 10.6438 31.4068 10.7981 31.1675L17.9351 35.7699ZM125.062 31.1675C125.216 31.4068 125.369 31.647 125.52 31.8883L118.326 36.4011C118.194 36.1901 118.06 35.9792 117.925 35.7699L125.062 31.1675ZM20.0568 32.6961C19.9091 32.8965 19.7624 33.0977 19.6172 33.2999L12.7198 28.3451C12.8859 28.1139 13.0536 27.884 13.2224 27.655L20.0568 32.6961ZM122.638 27.6558C122.807 27.8845 122.974 28.1142 123.14 28.3451L116.243 33.2999C116.098 33.0977 115.951 32.8965 115.804 32.6961L122.638 27.6558ZM22.3675 29.7592C22.2074 29.9501 22.0483 30.1419 21.8906 30.3348L15.3167 24.9594C15.4968 24.7391 15.678 24.5197 15.8608 24.3017L22.3675 29.7592ZM119.999 24.3017C120.182 24.5197 120.363 24.7391 120.543 24.9594L113.97 30.3348C113.812 30.1419 113.653 29.9501 113.493 29.7592L119.999 24.3017ZM24.8582 26.9724C24.6865 27.153 24.5152 27.3346 24.3456 27.5173L18.1201 21.7413C18.3137 21.5327 18.5079 21.3246 18.704 21.1184L24.8582 26.9724ZM117.156 21.1184C117.352 21.3246 117.546 21.5327 117.74 21.7413L111.515 27.5173C111.345 27.3346 111.174 27.153 111.002 26.9724L117.156 21.1184ZM27.5173 24.3456C27.3346 24.5152 27.153 24.6865 26.9724 24.8582L21.1184 18.704C21.3246 18.5079 21.5327 18.3137 21.7413 18.1201L27.5173 24.3456ZM114.118 18.1201C114.327 18.3137 114.535 18.5079 114.741 18.704L108.888 24.8582C108.708 24.6865 108.526 24.5152 108.343 24.3456L114.118 18.1201ZM30.3348 21.8906C30.1419 22.0483 29.9501 22.2074 29.7592 22.3675L24.3017 15.8608C24.5197 15.678 24.7391 15.4968 24.9594 15.3167L30.3348 21.8906ZM110.9 15.3167C111.121 15.4968 111.34 15.678 111.558 15.8608L106.101 22.3675C105.91 22.2074 105.719 22.0483 105.526 21.8906L110.9 15.3167ZM33.2999 19.6172C33.0977 19.7624 32.8965 19.9091 32.6961 20.0568L27.6558 13.2216C27.8845 13.053 28.1142 12.8856 28.3451 12.7198L33.2999 19.6172ZM107.515 12.7198C107.746 12.8859 107.976 13.0536 108.205 13.2224L103.164 20.0568C102.964 19.9091 102.763 19.7624 102.561 19.6172L107.515 12.7198ZM36.4011 17.5345C36.1901 17.6669 35.9792 17.8002 35.7699 17.9351L31.1675 10.7981C31.4068 10.6438 31.647 10.4908 31.8883 10.3394L36.4011 17.5345ZM103.971 10.3394C104.213 10.4908 104.453 10.6438 104.692 10.7981L100.091 17.9351C99.8813 17.8002 99.6705 17.6669 99.4594 17.5345L103.971 10.3394ZM35.5742 8.18627L39.625 15.651C39.4061 15.7698 39.1879 15.8903 38.9706 16.0117L34.8261 8.59848L34.8252 8.59766C35.0737 8.45875 35.323 8.3213 35.5734 8.18544L35.5742 8.18627ZM100.286 8.18544C100.537 8.3213 100.786 8.45875 101.034 8.59766L98.9626 12.3051L98.9618 12.3043L96.8899 16.0117C96.6726 15.8903 96.4545 15.7698 96.2355 15.651L100.286 8.18544ZM42.9593 13.9747C42.7337 14.0793 42.509 14.1859 42.2849 14.2932L38.6148 6.63362C38.871 6.51087 39.1282 6.38995 39.3862 6.27033L42.9593 13.9747ZM96.4736 6.27033C96.7315 6.38995 96.9887 6.51087 97.2449 6.63362L93.5756 14.2932C93.3516 14.1859 93.1269 14.0793 92.9013 13.9747L96.4736 6.27033ZM46.3922 12.5133C46.1603 12.6035 45.9285 12.6948 45.698 12.7878L42.5197 4.91342C42.7832 4.80706 43.0474 4.70221 43.3126 4.59907L46.3922 12.5133ZM92.5471 4.59907C92.8123 4.70221 93.0765 4.80707 93.3401 4.91342L90.1626 12.7878C89.9321 12.6948 89.7003 12.6035 89.4684 12.5133L92.5471 4.59907ZM49.9105 11.2717C49.673 11.3471 49.4359 11.4239 49.1997 11.5022L46.5257 3.44205C46.7959 3.35242 47.0669 3.26461 47.3385 3.1783L49.9105 11.2717ZM88.5212 3.1783C88.7929 3.26461 89.0638 3.35242 89.334 3.44205L86.6608 11.5022C86.4246 11.4239 86.1875 11.3471 85.95 11.2717L88.5212 3.1783ZM52.4717 6.13431L53.4986 10.2548C53.2572 10.315 53.0163 10.3767 52.7761 10.4398L50.618 2.22613C50.8927 2.15395 51.1681 2.08345 51.4441 2.01464L52.4717 6.13431ZM84.4156 2.01464C84.6917 2.08345 84.967 2.15396 85.2417 2.22613L83.0844 10.4398C82.8443 10.3767 82.6033 10.315 82.362 10.2548L84.4156 2.01464ZM57.1446 9.46771C56.9 9.5125 56.6558 9.55927 56.4123 9.60705L54.7775 1.27314C55.0559 1.21853 55.3348 1.1651 55.6144 1.1139L57.1446 9.46771ZM80.2453 1.1139C80.5249 1.1651 80.8038 1.21853 81.0822 1.27314L79.4483 9.60705C79.2048 9.55927 78.9605 9.5125 78.7159 9.46771L80.2453 1.1139ZM60.8363 8.91117C60.5887 8.94058 60.3415 8.97163 60.0948 9.00407L58.9876 0.583904C59.2696 0.546817 59.5521 0.511355 59.8352 0.47774L60.8363 8.91117ZM76.0245 0.47774C76.3076 0.511352 76.5901 0.546821 76.8721 0.583904L76.3197 4.79399L76.3189 4.79316L75.7657 9.00407C75.519 8.97163 75.2719 8.94058 75.0242 8.91117L76.0245 0.47774ZM64.5612 8.58687C64.3114 8.6008 64.062 8.61633 63.8131 8.63332L63.2342 0.160905C63.5185 0.141493 63.8032 0.123726 64.0884 0.107823L64.5612 8.58687ZM71.7713 0.107823C72.0565 0.123723 72.3413 0.141497 72.6256 0.160905L72.0475 8.63332C71.7985 8.61633 71.5492 8.6008 71.2993 8.58687L71.7713 0.107823ZM68.3582 0.00248823L68.3334 4.24823L68.3325 4.2474L68.3068 8.49398C68.1814 8.49321 68.0559 8.49315 67.9303 8.49315C67.8047 8.49315 67.6791 8.49321 67.5537 8.49398L67.5015 0.00248823C67.6443 0.00160529 67.7872 0 67.9303 0C68.073 0 68.2157 0.00160871 68.3582 0.00248823Z" fill="url(#paint1_linear_1430_27799L)" fill-opacity="0.4"/>
<defs>
<filter id="filter0_i_1430_27799L" x="20.8604" y="20.8584" width="94.1108" height="94.1104" filterUnits="userSpaceOnUse" color-interpolation-filters="sRGB">
<feFlood flood-opacity="0" result="BackgroundImageFix"/>
<feBlend mode="normal" in="SourceGraphic" in2="BackgroundImageFix" result="shape"/>
<feColorMatrix in="SourceAlpha" type="matrix" values="0 0 0 0 0 0 0 0 0 0 0 0 0 0 0 0 0 0 127 0" result="hardAlpha"/>
<feOffset/>
<feGaussianBlur stdDeviation="8.49315"/>
<feComposite in2="hardAlpha" operator="arithmetic" k2="-1" k3="1"/>
<feColorMatrix type="matrix" values="0 0 0 0 0.0784314 0 0 0 0 0.0823529 0 0 0 0 0.0784314 0 0 0 0.13 0"/>
<feBlend mode="normal" in2="shape" result="effect1_innerShadow_1430_27799L"/>
</filter>
<filter id="filter1_f_1430_27799L" x="37.4229" y="37.4195" width="60.0853" height="60.0848" filterUnits="userSpaceOnUse" color-interpolation-filters="sRGB">
<feFlood flood-opacity="0" result="BackgroundImageFix"/>
<feBlend mode="normal" in="SourceGraphic" in2="BackgroundImageFix" result="shape"/>
<feGaussianBlur stdDeviation="6.4377" result="effect1_foregroundBlur_1430_27799L"/>
</filter>
<radialGradient id="paint0_radial_1430_27799L" cx="0" cy="0" r="1" gradientUnits="userSpaceOnUse" gradientTransform="translate(67.4655 67.4621) rotate(90) scale(8.5836 8.58359)">
<stop stop-color="#008A15"/>
<stop offset="1" stop-color="#00C61D"/>
</radialGradient>
<linearGradient id="paint1_linear_1430_27799L" x1="67.9303" y1="0" x2="67.9303" y2="135.861" gradientUnits="userSpaceOnUse">
<stop offset="0.05" stop-color="#141514" stop-opacity="0"/>
<stop offset="0.5" stop-color="#141514"/>
<stop offset="0.95" stop-color="#141514" stop-opacity="0"/>
</linearGradient>
</defs>
</svg>
